ISO-10303-21;
HEADER;
/* Generated by software containing ST-Developer
 * from STEP Tools, Inc. (www.steptools.com) 
 */

FILE_DESCRIPTION(
/* description */ (''),
/* implementation_level */ '2;1');

FILE_NAME(
/* name */ 'Front Pivot Link.step',
/* time_stamp */ '2026-05-09T18:34:08+02:00',
/* author */ (''),
/* organization */ (''),
/* preprocessor_version */ 'ST-DEVELOPER v20.1',
/* originating_system */ 'Autodesk Translation Framework v15.8.0.0',
/* authorisation */ '');

FILE_SCHEMA (('AUTOMOTIVE_DESIGN { 1 0 10303 214 3 1 1 }'));
ENDSEC;

DATA;
#10=MECHANICAL_DESIGN_GEOMETRIC_PRESENTATION_REPRESENTATION('',(#13),#290);
#11=SHAPE_REPRESENTATION_RELATIONSHIP('SRR','None',#297,#12);
#12=ADVANCED_BREP_SHAPE_REPRESENTATION('',(#14),#289);
#13=STYLED_ITEM('',(#306),#14);
#14=MANIFOLD_SOLID_BREP('Body1',#163);
#15=CYLINDRICAL_SURFACE('',#184,1.75);
#16=CYLINDRICAL_SURFACE('',#186,1.75);
#17=CYLINDRICAL_SURFACE('',#189,2.5);
#18=CYLINDRICAL_SURFACE('',#192,2.5);
#19=LINE('',#255,#30);
#20=LINE('',#258,#31);
#21=LINE('',#263,#32);
#22=LINE('',#267,#33);
#23=LINE('',#272,#34);
#24=LINE('',#273,#35);
#25=LINE('',#274,#36);
#26=LINE('',#278,#37);
#27=LINE('',#281,#38);
#28=LINE('',#282,#39);
#29=LINE('',#284,#40);
#30=VECTOR('',#207,10.);
#31=VECTOR('',#210,10.);
#32=VECTOR('',#215,1.75);
#33=VECTOR('',#220,1.75);
#34=VECTOR('',#225,10.);
#35=VECTOR('',#226,10.);
#36=VECTOR('',#227,10.);
#37=VECTOR('',#232,10.);
#38=VECTOR('',#235,10.);
#39=VECTOR('',#236,10.);
#40=VECTOR('',#239,2.5);
#41=FACE_BOUND('',#55,.T.);
#42=FACE_BOUND('',#57,.T.);
#43=FACE_BOUND('',#65,.T.);
#44=FACE_BOUND('',#66,.T.);
#45=FACE_OUTER_BOUND('',#54,.T.);
#46=FACE_OUTER_BOUND('',#56,.T.);
#47=FACE_OUTER_BOUND('',#58,.T.);
#48=FACE_OUTER_BOUND('',#59,.T.);
#49=FACE_OUTER_BOUND('',#60,.T.);
#50=FACE_OUTER_BOUND('',#61,.T.);
#51=FACE_OUTER_BOUND('',#62,.T.);
#52=FACE_OUTER_BOUND('',#63,.T.);
#53=FACE_OUTER_BOUND('',#64,.T.);
#54=EDGE_LOOP('',(#109));
#55=EDGE_LOOP('',(#110));
#56=EDGE_LOOP('',(#111,#112,#113,#114));
#57=EDGE_LOOP('',(#115));
#58=EDGE_LOOP('',(#116,#117,#118,#119));
#59=EDGE_LOOP('',(#120,#121,#122,#123));
#60=EDGE_LOOP('',(#124,#125,#126,#127));
#61=EDGE_LOOP('',(#128,#129,#130,#131));
#62=EDGE_LOOP('',(#132,#133,#134,#135));
#63=EDGE_LOOP('',(#136,#137,#138,#139,#140,#141,#142));
#64=EDGE_LOOP('',(#143,#144,#145,#146));
#65=EDGE_LOOP('',(#147));
#66=EDGE_LOOP('',(#148));
#67=CIRCLE('',#178,2.5);
#68=CIRCLE('',#179,1.75);
#69=CIRCLE('',#181,2.5);
#70=CIRCLE('',#182,2.5);
#71=CIRCLE('',#183,1.75);
#72=CIRCLE('',#185,1.75);
#73=CIRCLE('',#187,1.75);
#74=CIRCLE('',#190,2.5);
#75=CIRCLE('',#193,2.5);
#76=VERTEX_POINT('',#246);
#77=VERTEX_POINT('',#248);
#78=VERTEX_POINT('',#251);
#79=VERTEX_POINT('',#252);
#80=VERTEX_POINT('',#254);
#81=VERTEX_POINT('',#256);
#82=VERTEX_POINT('',#259);
#83=VERTEX_POINT('',#262);
#84=VERTEX_POINT('',#266);
#85=VERTEX_POINT('',#270);
#86=VERTEX_POINT('',#271);
#87=VERTEX_POINT('',#276);
#88=VERTEX_POINT('',#280);
#89=EDGE_CURVE('',#76,#76,#67,.T.);
#90=EDGE_CURVE('',#77,#77,#68,.T.);
#91=EDGE_CURVE('',#78,#79,#69,.T.);
#92=EDGE_CURVE('',#79,#80,#19,.T.);
#93=EDGE_CURVE('',#80,#81,#70,.T.);
#94=EDGE_CURVE('',#81,#78,#20,.T.);
#95=EDGE_CURVE('',#82,#82,#71,.T.);
#96=EDGE_CURVE('',#82,#83,#21,.T.);
#97=EDGE_CURVE('',#83,#83,#72,.T.);
#98=EDGE_CURVE('',#77,#84,#22,.T.);
#99=EDGE_CURVE('',#84,#84,#73,.T.);
#100=EDGE_CURVE('',#85,#86,#23,.T.);
#101=EDGE_CURVE('',#86,#78,#24,.T.);
#102=EDGE_CURVE('',#85,#81,#25,.T.);
#103=EDGE_CURVE('',#87,#85,#74,.T.);
#104=EDGE_CURVE('',#87,#80,#26,.T.);
#105=EDGE_CURVE('',#88,#87,#27,.T.);
#106=EDGE_CURVE('',#88,#79,#28,.T.);
#107=EDGE_CURVE('',#76,#79,#29,.T.);
#108=EDGE_CURVE('',#86,#88,#75,.T.);
#109=ORIENTED_EDGE('',*,*,#89,.T.);
#110=ORIENTED_EDGE('',*,*,#90,.T.);
#111=ORIENTED_EDGE('',*,*,#91,.T.);
#112=ORIENTED_EDGE('',*,*,#92,.T.);
#113=ORIENTED_EDGE('',*,*,#93,.T.);
#114=ORIENTED_EDGE('',*,*,#94,.T.);
#115=ORIENTED_EDGE('',*,*,#95,.T.);
#116=ORIENTED_EDGE('',*,*,#95,.F.);
#117=ORIENTED_EDGE('',*,*,#96,.T.);
#118=ORIENTED_EDGE('',*,*,#97,.T.);
#119=ORIENTED_EDGE('',*,*,#96,.F.);
#120=ORIENTED_EDGE('',*,*,#90,.F.);
#121=ORIENTED_EDGE('',*,*,#98,.T.);
#122=ORIENTED_EDGE('',*,*,#99,.T.);
#123=ORIENTED_EDGE('',*,*,#98,.F.);
#124=ORIENTED_EDGE('',*,*,#100,.T.);
#125=ORIENTED_EDGE('',*,*,#101,.T.);
#126=ORIENTED_EDGE('',*,*,#94,.F.);
#127=ORIENTED_EDGE('',*,*,#102,.F.);
#128=ORIENTED_EDGE('',*,*,#103,.T.);
#129=ORIENTED_EDGE('',*,*,#102,.T.);
#130=ORIENTED_EDGE('',*,*,#93,.F.);
#131=ORIENTED_EDGE('',*,*,#104,.F.);
#132=ORIENTED_EDGE('',*,*,#105,.T.);
#133=ORIENTED_EDGE('',*,*,#104,.T.);
#134=ORIENTED_EDGE('',*,*,#92,.F.);
#135=ORIENTED_EDGE('',*,*,#106,.F.);
#136=ORIENTED_EDGE('',*,*,#89,.F.);
#137=ORIENTED_EDGE('',*,*,#107,.T.);
#138=ORIENTED_EDGE('',*,*,#91,.F.);
#139=ORIENTED_EDGE('',*,*,#101,.F.);
#140=ORIENTED_EDGE('',*,*,#108,.T.);
#141=ORIENTED_EDGE('',*,*,#106,.T.);
#142=ORIENTED_EDGE('',*,*,#107,.F.);
#143=ORIENTED_EDGE('',*,*,#108,.F.);
#144=ORIENTED_EDGE('',*,*,#100,.F.);
#145=ORIENTED_EDGE('',*,*,#103,.F.);
#146=ORIENTED_EDGE('',*,*,#105,.F.);
#147=ORIENTED_EDGE('',*,*,#99,.F.);
#148=ORIENTED_EDGE('',*,*,#97,.F.);
#149=PLANE('',#177);
#150=PLANE('',#180);
#151=PLANE('',#188);
#152=PLANE('',#191);
#153=PLANE('',#194);
#154=ADVANCED_FACE('',(#45,#41),#149,.T.);
#155=ADVANCED_FACE('',(#46,#42),#150,.T.);
#156=ADVANCED_FACE('',(#47),#15,.F.);
#157=ADVANCED_FACE('',(#48),#16,.F.);
#158=ADVANCED_FACE('',(#49),#151,.T.);
#159=ADVANCED_FACE('',(#50),#17,.T.);
#160=ADVANCED_FACE('',(#51),#152,.T.);
#161=ADVANCED_FACE('',(#52),#18,.T.);
#162=ADVANCED_FACE('',(#53,#43,#44),#153,.F.);
#163=CLOSED_SHELL('',(#154,#155,#156,#157,#158,#159,#160,#161,#162));
#164=DERIVED_UNIT_ELEMENT(#166,1.);
#165=DERIVED_UNIT_ELEMENT(#292,-3.);
#166=(
MASS_UNIT()
NAMED_UNIT(*)
SI_UNIT(.KILO.,.GRAM.)
);
#167=DERIVED_UNIT((#164,#165));
#168=MEASURE_REPRESENTATION_ITEM('density measure',
POSITIVE_RATIO_MEASURE(7850.),#167);
#169=PROPERTY_DEFINITION_REPRESENTATION(#174,#171);
#170=PROPERTY_DEFINITION_REPRESENTATION(#175,#172);
#171=REPRESENTATION('material name',(#173),#289);
#172=REPRESENTATION('density',(#168),#289);
#173=DESCRIPTIVE_REPRESENTATION_ITEM('Steel','Steel');
#174=PROPERTY_DEFINITION('material property','material name',#299);
#175=PROPERTY_DEFINITION('material property','density of part',#299);
#176=AXIS2_PLACEMENT_3D('',#244,#195,#196);
#177=AXIS2_PLACEMENT_3D('',#245,#197,#198);
#178=AXIS2_PLACEMENT_3D('',#247,#199,#200);
#179=AXIS2_PLACEMENT_3D('',#249,#201,#202);
#180=AXIS2_PLACEMENT_3D('',#250,#203,#204);
#181=AXIS2_PLACEMENT_3D('',#253,#205,#206);
#182=AXIS2_PLACEMENT_3D('',#257,#208,#209);
#183=AXIS2_PLACEMENT_3D('',#260,#211,#212);
#184=AXIS2_PLACEMENT_3D('',#261,#213,#214);
#185=AXIS2_PLACEMENT_3D('',#264,#216,#217);
#186=AXIS2_PLACEMENT_3D('',#265,#218,#219);
#187=AXIS2_PLACEMENT_3D('',#268,#221,#222);
#188=AXIS2_PLACEMENT_3D('',#269,#223,#224);
#189=AXIS2_PLACEMENT_3D('',#275,#228,#229);
#190=AXIS2_PLACEMENT_3D('',#277,#230,#231);
#191=AXIS2_PLACEMENT_3D('',#279,#233,#234);
#192=AXIS2_PLACEMENT_3D('',#283,#237,#238);
#193=AXIS2_PLACEMENT_3D('',#285,#240,#241);
#194=AXIS2_PLACEMENT_3D('',#286,#242,#243);
#195=DIRECTION('axis',(0.,0.,1.));
#196=DIRECTION('refdir',(1.,0.,0.));
#197=DIRECTION('center_axis',(0.,1.,0.));
#198=DIRECTION('ref_axis',(-1.,0.,0.));
#199=DIRECTION('center_axis',(0.,1.,0.));
#200=DIRECTION('ref_axis',(-1.,0.,0.));
#201=DIRECTION('center_axis',(0.,-1.,0.));
#202=DIRECTION('ref_axis',(-1.,0.,0.));
#203=DIRECTION('center_axis',(0.,1.,0.));
#204=DIRECTION('ref_axis',(1.,0.,0.));
#205=DIRECTION('center_axis',(0.,-1.,0.));
#206=DIRECTION('ref_axis',(-1.,0.,0.));
#207=DIRECTION('',(0.,0.,-1.));
#208=DIRECTION('center_axis',(0.,1.,0.));
#209=DIRECTION('ref_axis',(1.,0.,0.));
#210=DIRECTION('',(0.,0.,1.));
#211=DIRECTION('center_axis',(0.,-1.,0.));
#212=DIRECTION('ref_axis',(1.,0.,0.));
#213=DIRECTION('center_axis',(0.,1.,0.));
#214=DIRECTION('ref_axis',(1.,0.,0.));
#215=DIRECTION('',(0.,-1.,0.));
#216=DIRECTION('center_axis',(0.,-1.,0.));
#217=DIRECTION('ref_axis',(1.,0.,0.));
#218=DIRECTION('center_axis',(0.,1.,0.));
#219=DIRECTION('ref_axis',(1.,0.,0.));
#220=DIRECTION('',(0.,-1.,0.));
#221=DIRECTION('center_axis',(0.,-1.,0.));
#222=DIRECTION('ref_axis',(1.,0.,0.));
#223=DIRECTION('center_axis',(-1.,0.,0.));
#224=DIRECTION('ref_axis',(0.,0.,1.));
#225=DIRECTION('',(0.,0.,1.));
#226=DIRECTION('',(0.,1.,0.));
#227=DIRECTION('',(0.,1.,0.));
#228=DIRECTION('center_axis',(0.,1.,0.));
#229=DIRECTION('ref_axis',(1.,0.,0.));
#230=DIRECTION('center_axis',(0.,1.,0.));
#231=DIRECTION('ref_axis',(1.,0.,0.));
#232=DIRECTION('',(0.,1.,0.));
#233=DIRECTION('center_axis',(1.,0.,0.));
#234=DIRECTION('ref_axis',(0.,0.,-1.));
#235=DIRECTION('',(0.,0.,-1.));
#236=DIRECTION('',(0.,1.,0.));
#237=DIRECTION('center_axis',(0.,1.,0.));
#238=DIRECTION('ref_axis',(-1.,0.,0.));
#239=DIRECTION('',(0.,-1.,0.));
#240=DIRECTION('center_axis',(0.,1.,0.));
#241=DIRECTION('ref_axis',(-1.,0.,0.));
#242=DIRECTION('center_axis',(0.,1.,0.));
#243=DIRECTION('ref_axis',(1.,0.,0.));
#244=CARTESIAN_POINT('',(0.,0.,0.));
#245=CARTESIAN_POINT('Origin',(20.0000002980232,7.,0.));
#246=CARTESIAN_POINT('',(22.5000002980232,7.,3.06161699786838E-16));
#247=CARTESIAN_POINT('Origin',(20.0000002980232,7.,0.));
#248=CARTESIAN_POINT('',(18.2500002980232,7.,2.14313189850787E-16));
#249=CARTESIAN_POINT('Origin',(20.0000002980232,7.,0.));
#250=CARTESIAN_POINT('Origin',(20.0000002980232,3.,-7.5));
#251=CARTESIAN_POINT('',(17.5000002980232,3.,0.));
#252=CARTESIAN_POINT('',(22.5000002980232,3.,3.06161699786838E-16));
#253=CARTESIAN_POINT('Origin',(20.0000002980232,3.,0.));
#254=CARTESIAN_POINT('',(22.5000002980232,3.,-15.));
#255=CARTESIAN_POINT('',(22.5000002980232,3.,-1.53080849893419E-16));
#256=CARTESIAN_POINT('',(17.5000002980232,3.,-15.));
#257=CARTESIAN_POINT('Origin',(20.0000002980232,3.,-15.));
#258=CARTESIAN_POINT('',(17.5000002980232,3.,-15.));
#259=CARTESIAN_POINT('',(18.2500002980232,3.,-15.));
#260=CARTESIAN_POINT('Origin',(20.0000002980232,3.,-15.));
#261=CARTESIAN_POINT('Origin',(20.0000002980232,0.,-15.));
#262=CARTESIAN_POINT('',(18.2500002980232,0.,-15.));
#263=CARTESIAN_POINT('',(18.2500002980232,0.,-15.));
#264=CARTESIAN_POINT('Origin',(20.0000002980232,0.,-15.));
#265=CARTESIAN_POINT('Origin',(20.0000002980232,0.,0.));
#266=CARTESIAN_POINT('',(18.2500002980232,0.,2.14313189850787E-16));
#267=CARTESIAN_POINT('',(18.2500002980232,0.,2.14313189850787E-16));
#268=CARTESIAN_POINT('Origin',(20.0000002980232,0.,0.));
#269=CARTESIAN_POINT('Origin',(17.5000002980232,0.,-15.));
#270=CARTESIAN_POINT('',(17.5000002980232,0.,-15.));
#271=CARTESIAN_POINT('',(17.5000002980232,0.,0.));
#272=CARTESIAN_POINT('',(17.5000002980232,0.,-15.));
#273=CARTESIAN_POINT('',(17.5000002980232,0.,0.));
#274=CARTESIAN_POINT('',(17.5000002980232,0.,-15.));
#275=CARTESIAN_POINT('Origin',(20.0000002980232,0.,-15.));
#276=CARTESIAN_POINT('',(22.5000002980232,0.,-15.));
#277=CARTESIAN_POINT('Origin',(20.0000002980232,0.,-15.));
#278=CARTESIAN_POINT('',(22.5000002980232,0.,-15.));
#279=CARTESIAN_POINT('Origin',(22.5000002980232,0.,-1.53080849893419E-16));
#280=CARTESIAN_POINT('',(22.5000002980232,0.,3.06161699786838E-16));
#281=CARTESIAN_POINT('',(22.5000002980232,0.,-1.53080849893419E-16));
#282=CARTESIAN_POINT('',(22.5000002980232,0.,3.06161699786838E-16));
#283=CARTESIAN_POINT('Origin',(20.0000002980232,0.,0.));
#284=CARTESIAN_POINT('',(22.5000002980232,0.,-3.06161699786838E-16));
#285=CARTESIAN_POINT('Origin',(20.0000002980232,0.,0.));
#286=CARTESIAN_POINT('Origin',(20.0000002980232,0.,-7.5));
#287=UNCERTAINTY_MEASURE_WITH_UNIT(LENGTH_MEASURE(0.01),#291,
'DISTANCE_ACCURACY_VALUE',
'Maximum model space distance between geometric entities at asserted c
onnectivities');
#288=UNCERTAINTY_MEASURE_WITH_UNIT(LENGTH_MEASURE(0.01),#291,
'DISTANCE_ACCURACY_VALUE',
'Maximum model space distance between geometric entities at asserted c
onnectivities');
#289=(
GEOMETRIC_REPRESENTATION_CONTEXT(3)
GLOBAL_UNCERTAINTY_ASSIGNED_CONTEXT((#287))
GLOBAL_UNIT_ASSIGNED_CONTEXT((#291,#293,#294))
REPRESENTATION_CONTEXT('','3D')
);
#290=(
GEOMETRIC_REPRESENTATION_CONTEXT(3)
GLOBAL_UNCERTAINTY_ASSIGNED_CONTEXT((#288))
GLOBAL_UNIT_ASSIGNED_CONTEXT((#291,#293,#294))
REPRESENTATION_CONTEXT('','3D')
);
#291=(
LENGTH_UNIT()
NAMED_UNIT(*)
SI_UNIT(.MILLI.,.METRE.)
);
#292=(
LENGTH_UNIT()
NAMED_UNIT(*)
SI_UNIT($,.METRE.)
);
#293=(
NAMED_UNIT(*)
PLANE_ANGLE_UNIT()
SI_UNIT($,.RADIAN.)
);
#294=(
NAMED_UNIT(*)
SI_UNIT($,.STERADIAN.)
SOLID_ANGLE_UNIT()
);
#295=SHAPE_DEFINITION_REPRESENTATION(#296,#297);
#296=PRODUCT_DEFINITION_SHAPE('',$,#299);
#297=SHAPE_REPRESENTATION('',(#176),#289);
#298=PRODUCT_DEFINITION_CONTEXT('part definition',#303,'design');
#299=PRODUCT_DEFINITION('Front Pivot Link','Front Pivot Link',#300,#298);
#300=PRODUCT_DEFINITION_FORMATION('',$,#305);
#301=PRODUCT_RELATED_PRODUCT_CATEGORY('Front Pivot Link',
'Front Pivot Link',(#305));
#302=APPLICATION_PROTOCOL_DEFINITION('international standard',
'automotive_design',2009,#303);
#303=APPLICATION_CONTEXT(
'Core Data for Automotive Mechanical Design Process');
#304=PRODUCT_CONTEXT('part definition',#303,'mechanical');
#305=PRODUCT('Front Pivot Link','Front Pivot Link',$,(#304));
#306=PRESENTATION_STYLE_ASSIGNMENT((#307));
#307=SURFACE_STYLE_USAGE(.BOTH.,#308);
#308=SURFACE_SIDE_STYLE('',(#309));
#309=SURFACE_STYLE_FILL_AREA(#310);
#310=FILL_AREA_STYLE('Steel - Satin',(#311));
#311=FILL_AREA_STYLE_COLOUR('Steel - Satin',#312);
#312=COLOUR_RGB('Steel - Satin',0.627450980392157,0.627450980392157,0.627450980392157);
ENDSEC;
END-ISO-10303-21;
