ISO-10303-21;
HEADER;
/* Generated by software containing ST-Developer
 * from STEP Tools, Inc. (www.steptools.com) 
 */

FILE_DESCRIPTION(
/* description */ (''),
/* implementation_level */ '2;1');

FILE_NAME(
/* name */ 'Front Triangle Coupler.step',
/* time_stamp */ '2026-05-09T18:34:09+02:00',
/* author */ (''),
/* organization */ (''),
/* preprocessor_version */ 'ST-DEVELOPER v20.1',
/* originating_system */ 'Autodesk Translation Framework v15.8.0.0',
/* authorisation */ '');

FILE_SCHEMA (('AUTOMOTIVE_DESIGN { 1 0 10303 214 3 1 1 }'));
ENDSEC;

DATA;
#10=MECHANICAL_DESIGN_GEOMETRIC_PRESENTATION_REPRESENTATION('',(#13),#535);
#11=SHAPE_REPRESENTATION_RELATIONSHIP('SRR','None',#542,#12);
#12=ADVANCED_BREP_SHAPE_REPRESENTATION('',(#14),#534);
#13=STYLED_ITEM('',(#551),#14);
#14=MANIFOLD_SOLID_BREP('Body1',#312);
#15=FACE_BOUND('',#57,.T.);
#16=FACE_BOUND('',#59,.T.);
#17=FACE_BOUND('',#61,.T.);
#18=FACE_BOUND('',#62,.T.);
#19=FACE_BOUND('',#69,.T.);
#20=FACE_BOUND('',#70,.T.);
#21=FACE_BOUND('',#71,.T.);
#22=FACE_BOUND('',#72,.T.);
#23=PLANE('',#329);
#24=PLANE('',#330);
#25=PLANE('',#331);
#26=PLANE('',#335);
#27=PLANE('',#341);
#28=PLANE('',#343);
#29=PLANE('',#346);
#30=PLANE('',#352);
#31=PLANE('',#355);
#32=PLANE('',#356);
#33=FACE_OUTER_BOUND('',#49,.T.);
#34=FACE_OUTER_BOUND('',#50,.T.);
#35=FACE_OUTER_BOUND('',#51,.T.);
#36=FACE_OUTER_BOUND('',#52,.T.);
#37=FACE_OUTER_BOUND('',#53,.T.);
#38=FACE_OUTER_BOUND('',#54,.T.);
#39=FACE_OUTER_BOUND('',#55,.T.);
#40=FACE_OUTER_BOUND('',#56,.T.);
#41=FACE_OUTER_BOUND('',#58,.T.);
#42=FACE_OUTER_BOUND('',#60,.T.);
#43=FACE_OUTER_BOUND('',#63,.T.);
#44=FACE_OUTER_BOUND('',#64,.T.);
#45=FACE_OUTER_BOUND('',#65,.T.);
#46=FACE_OUTER_BOUND('',#66,.T.);
#47=FACE_OUTER_BOUND('',#67,.T.);
#48=FACE_OUTER_BOUND('',#68,.T.);
#49=EDGE_LOOP('',(#208,#209,#210,#211));
#50=EDGE_LOOP('',(#212,#213,#214,#215));
#51=EDGE_LOOP('',(#216,#217,#218,#219));
#52=EDGE_LOOP('',(#220,#221,#222,#223));
#53=EDGE_LOOP('',(#224,#225,#226,#227));
#54=EDGE_LOOP('',(#228,#229,#230,#231));
#55=EDGE_LOOP('',(#232,#233,#234,#235,#236,#237,#238,#239));
#56=EDGE_LOOP('',(#240));
#57=EDGE_LOOP('',(#241));
#58=EDGE_LOOP('',(#242));
#59=EDGE_LOOP('',(#243));
#60=EDGE_LOOP('',(#244,#245,#246,#247,#248,#249,#250));
#61=EDGE_LOOP('',(#251,#252,#253));
#62=EDGE_LOOP('',(#254));
#63=EDGE_LOOP('',(#255,#256,#257,#258));
#64=EDGE_LOOP('',(#259,#260,#261,#262));
#65=EDGE_LOOP('',(#263,#264,#265,#266));
#66=EDGE_LOOP('',(#267,#268,#269,#270,#271,#272,#273));
#67=EDGE_LOOP('',(#274,#275,#276,#277));
#68=EDGE_LOOP('',(#278,#279,#280,#281,#282,#283));
#69=EDGE_LOOP('',(#284));
#70=EDGE_LOOP('',(#285));
#71=EDGE_LOOP('',(#286));
#72=EDGE_LOOP('',(#287,#288,#289));
#73=LINE('',#452,#99);
#74=LINE('',#457,#100);
#75=LINE('',#459,#101);
#76=LINE('',#461,#102);
#77=LINE('',#462,#103);
#78=LINE('',#465,#104);
#79=LINE('',#467,#105);
#80=LINE('',#468,#106);
#81=LINE('',#472,#107);
#82=LINE('',#474,#108);
#83=LINE('',#476,#109);
#84=LINE('',#477,#110);
#85=LINE('',#483,#111);
#86=LINE('',#486,#112);
#87=LINE('',#488,#113);
#88=LINE('',#489,#114);
#89=LINE('',#494,#115);
#90=LINE('',#498,#116);
#91=LINE('',#512,#117);
#92=LINE('',#513,#118);
#93=LINE('',#516,#119);
#94=LINE('',#520,#120);
#95=LINE('',#524,#121);
#96=LINE('',#525,#122);
#97=LINE('',#527,#123);
#98=LINE('',#530,#124);
#99=VECTOR('',#363,1.75);
#100=VECTOR('',#368,10.);
#101=VECTOR('',#369,10.);
#102=VECTOR('',#370,10.);
#103=VECTOR('',#371,10.);
#104=VECTOR('',#374,10.);
#105=VECTOR('',#375,10.);
#106=VECTOR('',#376,10.);
#107=VECTOR('',#379,10.);
#108=VECTOR('',#380,10.);
#109=VECTOR('',#381,10.);
#110=VECTOR('',#382,10.);
#111=VECTOR('',#389,10.);
#112=VECTOR('',#392,10.);
#113=VECTOR('',#393,10.);
#114=VECTOR('',#394,10.);
#115=VECTOR('',#399,2.5);
#116=VECTOR('',#402,10.);
#117=VECTOR('',#421,10.);
#118=VECTOR('',#422,10.);
#119=VECTOR('',#425,1.74999999999999);
#120=VECTOR('',#430,1.75);
#121=VECTOR('',#435,10.);
#122=VECTOR('',#436,10.);
#123=VECTOR('',#439,2.5);
#124=VECTOR('',#444,10.);
#125=CIRCLE('',#327,1.75);
#126=CIRCLE('',#328,1.75);
#127=CIRCLE('',#333,2.5);
#128=CIRCLE('',#334,2.5);
#129=CIRCLE('',#337,2.5);
#130=CIRCLE('',#338,2.5);
#131=CIRCLE('',#339,2.5);
#132=CIRCLE('',#340,2.5);
#133=CIRCLE('',#342,1.74999999999999);
#134=CIRCLE('',#344,2.5);
#135=CIRCLE('',#345,1.75);
#136=CIRCLE('',#347,2.5);
#137=CIRCLE('',#349,1.74999999999999);
#138=CIRCLE('',#351,1.75);
#139=CIRCLE('',#354,2.5);
#140=VERTEX_POINT('',#449);
#141=VERTEX_POINT('',#451);
#142=VERTEX_POINT('',#455);
#143=VERTEX_POINT('',#456);
#144=VERTEX_POINT('',#458);
#145=VERTEX_POINT('',#460);
#146=VERTEX_POINT('',#464);
#147=VERTEX_POINT('',#466);
#148=VERTEX_POINT('',#470);
#149=VERTEX_POINT('',#471);
#150=VERTEX_POINT('',#473);
#151=VERTEX_POINT('',#475);
#152=VERTEX_POINT('',#479);
#153=VERTEX_POINT('',#481);
#154=VERTEX_POINT('',#485);
#155=VERTEX_POINT('',#487);
#156=VERTEX_POINT('',#491);
#157=VERTEX_POINT('',#493);
#158=VERTEX_POINT('',#495);
#159=VERTEX_POINT('',#497);
#160=VERTEX_POINT('',#502);
#161=VERTEX_POINT('',#505);
#162=VERTEX_POINT('',#507);
#163=VERTEX_POINT('',#510);
#164=VERTEX_POINT('',#515);
#165=VERTEX_POINT('',#519);
#166=VERTEX_POINT('',#523);
#167=EDGE_CURVE('',#140,#140,#125,.T.);
#168=EDGE_CURVE('',#140,#141,#73,.T.);
#169=EDGE_CURVE('',#141,#141,#126,.T.);
#170=EDGE_CURVE('',#142,#143,#74,.T.);
#171=EDGE_CURVE('',#144,#142,#75,.T.);
#172=EDGE_CURVE('',#145,#144,#76,.T.);
#173=EDGE_CURVE('',#143,#145,#77,.T.);
#174=EDGE_CURVE('',#143,#146,#78,.T.);
#175=EDGE_CURVE('',#147,#145,#79,.T.);
#176=EDGE_CURVE('',#146,#147,#80,.T.);
#177=EDGE_CURVE('',#148,#149,#81,.T.);
#178=EDGE_CURVE('',#150,#148,#82,.T.);
#179=EDGE_CURVE('',#151,#150,#83,.T.);
#180=EDGE_CURVE('',#149,#151,#84,.T.);
#181=EDGE_CURVE('',#149,#152,#127,.T.);
#182=EDGE_CURVE('',#153,#151,#128,.T.);
#183=EDGE_CURVE('',#152,#153,#85,.T.);
#184=EDGE_CURVE('',#152,#154,#86,.T.);
#185=EDGE_CURVE('',#155,#153,#87,.T.);
#186=EDGE_CURVE('',#155,#154,#88,.T.);
#187=EDGE_CURVE('',#156,#156,#129,.T.);
#188=EDGE_CURVE('',#156,#157,#89,.T.);
#189=EDGE_CURVE('',#157,#158,#130,.T.);
#190=EDGE_CURVE('',#159,#158,#90,.T.);
#191=EDGE_CURVE('',#159,#150,#131,.T.);
#192=EDGE_CURVE('',#148,#157,#132,.T.);
#193=EDGE_CURVE('',#160,#160,#133,.T.);
#194=EDGE_CURVE('',#161,#161,#134,.T.);
#195=EDGE_CURVE('',#162,#162,#135,.T.);
#196=EDGE_CURVE('',#163,#154,#136,.T.);
#197=EDGE_CURVE('',#163,#158,#91,.T.);
#198=EDGE_CURVE('',#146,#142,#92,.T.);
#199=EDGE_CURVE('',#160,#164,#93,.T.);
#200=EDGE_CURVE('',#164,#164,#137,.T.);
#201=EDGE_CURVE('',#162,#165,#94,.T.);
#202=EDGE_CURVE('',#165,#165,#138,.T.);
#203=EDGE_CURVE('',#166,#159,#95,.T.);
#204=EDGE_CURVE('',#166,#163,#96,.T.);
#205=EDGE_CURVE('',#161,#163,#97,.T.);
#206=EDGE_CURVE('',#155,#166,#139,.T.);
#207=EDGE_CURVE('',#147,#144,#98,.T.);
#208=ORIENTED_EDGE('',*,*,#167,.F.);
#209=ORIENTED_EDGE('',*,*,#168,.T.);
#210=ORIENTED_EDGE('',*,*,#169,.F.);
#211=ORIENTED_EDGE('',*,*,#168,.F.);
#212=ORIENTED_EDGE('',*,*,#170,.F.);
#213=ORIENTED_EDGE('',*,*,#171,.F.);
#214=ORIENTED_EDGE('',*,*,#172,.F.);
#215=ORIENTED_EDGE('',*,*,#173,.F.);
#216=ORIENTED_EDGE('',*,*,#174,.F.);
#217=ORIENTED_EDGE('',*,*,#173,.T.);
#218=ORIENTED_EDGE('',*,*,#175,.F.);
#219=ORIENTED_EDGE('',*,*,#176,.F.);
#220=ORIENTED_EDGE('',*,*,#177,.F.);
#221=ORIENTED_EDGE('',*,*,#178,.F.);
#222=ORIENTED_EDGE('',*,*,#179,.F.);
#223=ORIENTED_EDGE('',*,*,#180,.F.);
#224=ORIENTED_EDGE('',*,*,#181,.F.);
#225=ORIENTED_EDGE('',*,*,#180,.T.);
#226=ORIENTED_EDGE('',*,*,#182,.F.);
#227=ORIENTED_EDGE('',*,*,#183,.F.);
#228=ORIENTED_EDGE('',*,*,#184,.F.);
#229=ORIENTED_EDGE('',*,*,#183,.T.);
#230=ORIENTED_EDGE('',*,*,#185,.F.);
#231=ORIENTED_EDGE('',*,*,#186,.T.);
#232=ORIENTED_EDGE('',*,*,#187,.F.);
#233=ORIENTED_EDGE('',*,*,#188,.T.);
#234=ORIENTED_EDGE('',*,*,#189,.T.);
#235=ORIENTED_EDGE('',*,*,#190,.F.);
#236=ORIENTED_EDGE('',*,*,#191,.T.);
#237=ORIENTED_EDGE('',*,*,#178,.T.);
#238=ORIENTED_EDGE('',*,*,#192,.T.);
#239=ORIENTED_EDGE('',*,*,#188,.F.);
#240=ORIENTED_EDGE('',*,*,#187,.T.);
#241=ORIENTED_EDGE('',*,*,#193,.T.);
#242=ORIENTED_EDGE('',*,*,#194,.T.);
#243=ORIENTED_EDGE('',*,*,#195,.T.);
#244=ORIENTED_EDGE('',*,*,#192,.F.);
#245=ORIENTED_EDGE('',*,*,#177,.T.);
#246=ORIENTED_EDGE('',*,*,#181,.T.);
#247=ORIENTED_EDGE('',*,*,#184,.T.);
#248=ORIENTED_EDGE('',*,*,#196,.F.);
#249=ORIENTED_EDGE('',*,*,#197,.T.);
#250=ORIENTED_EDGE('',*,*,#189,.F.);
#251=ORIENTED_EDGE('',*,*,#198,.T.);
#252=ORIENTED_EDGE('',*,*,#170,.T.);
#253=ORIENTED_EDGE('',*,*,#174,.T.);
#254=ORIENTED_EDGE('',*,*,#169,.T.);
#255=ORIENTED_EDGE('',*,*,#193,.F.);
#256=ORIENTED_EDGE('',*,*,#199,.T.);
#257=ORIENTED_EDGE('',*,*,#200,.T.);
#258=ORIENTED_EDGE('',*,*,#199,.F.);
#259=ORIENTED_EDGE('',*,*,#195,.F.);
#260=ORIENTED_EDGE('',*,*,#201,.T.);
#261=ORIENTED_EDGE('',*,*,#202,.T.);
#262=ORIENTED_EDGE('',*,*,#201,.F.);
#263=ORIENTED_EDGE('',*,*,#203,.T.);
#264=ORIENTED_EDGE('',*,*,#190,.T.);
#265=ORIENTED_EDGE('',*,*,#197,.F.);
#266=ORIENTED_EDGE('',*,*,#204,.F.);
#267=ORIENTED_EDGE('',*,*,#194,.F.);
#268=ORIENTED_EDGE('',*,*,#205,.T.);
#269=ORIENTED_EDGE('',*,*,#196,.T.);
#270=ORIENTED_EDGE('',*,*,#186,.F.);
#271=ORIENTED_EDGE('',*,*,#206,.T.);
#272=ORIENTED_EDGE('',*,*,#204,.T.);
#273=ORIENTED_EDGE('',*,*,#205,.F.);
#274=ORIENTED_EDGE('',*,*,#176,.T.);
#275=ORIENTED_EDGE('',*,*,#207,.T.);
#276=ORIENTED_EDGE('',*,*,#171,.T.);
#277=ORIENTED_EDGE('',*,*,#198,.F.);
#278=ORIENTED_EDGE('',*,*,#191,.F.);
#279=ORIENTED_EDGE('',*,*,#203,.F.);
#280=ORIENTED_EDGE('',*,*,#206,.F.);
#281=ORIENTED_EDGE('',*,*,#185,.T.);
#282=ORIENTED_EDGE('',*,*,#182,.T.);
#283=ORIENTED_EDGE('',*,*,#179,.T.);
#284=ORIENTED_EDGE('',*,*,#167,.T.);
#285=ORIENTED_EDGE('',*,*,#202,.F.);
#286=ORIENTED_EDGE('',*,*,#200,.F.);
#287=ORIENTED_EDGE('',*,*,#175,.T.);
#288=ORIENTED_EDGE('',*,*,#172,.T.);
#289=ORIENTED_EDGE('',*,*,#207,.F.);
#290=CYLINDRICAL_SURFACE('',#326,1.75);
#291=CYLINDRICAL_SURFACE('',#332,2.5);
#292=CYLINDRICAL_SURFACE('',#336,2.5);
#293=CYLINDRICAL_SURFACE('',#348,1.74999999999999);
#294=CYLINDRICAL_SURFACE('',#350,1.75);
#295=CYLINDRICAL_SURFACE('',#353,2.5);
#296=ADVANCED_FACE('',(#33),#290,.F.);
#297=ADVANCED_FACE('',(#34),#23,.T.);
#298=ADVANCED_FACE('',(#35),#24,.T.);
#299=ADVANCED_FACE('',(#36),#25,.T.);
#300=ADVANCED_FACE('',(#37),#291,.T.);
#301=ADVANCED_FACE('',(#38),#26,.T.);
#302=ADVANCED_FACE('',(#39),#292,.T.);
#303=ADVANCED_FACE('',(#40,#15),#27,.T.);
#304=ADVANCED_FACE('',(#41,#16),#28,.T.);
#305=ADVANCED_FACE('',(#42,#17,#18),#29,.T.);
#306=ADVANCED_FACE('',(#43),#293,.F.);
#307=ADVANCED_FACE('',(#44),#294,.F.);
#308=ADVANCED_FACE('',(#45),#30,.T.);
#309=ADVANCED_FACE('',(#46),#295,.T.);
#310=ADVANCED_FACE('',(#47),#31,.T.);
#311=ADVANCED_FACE('',(#48,#19,#20,#21,#22),#32,.F.);
#312=CLOSED_SHELL('',(#296,#297,#298,#299,#300,#301,#302,#303,#304,#305,
#306,#307,#308,#309,#310,#311));
#313=DERIVED_UNIT_ELEMENT(#315,1.);
#314=DERIVED_UNIT_ELEMENT(#537,-3.);
#315=(
MASS_UNIT()
NAMED_UNIT(*)
SI_UNIT(.KILO.,.GRAM.)
);
#316=DERIVED_UNIT((#313,#314));
#317=MEASURE_REPRESENTATION_ITEM('density measure',
POSITIVE_RATIO_MEASURE(7850.),#316);
#318=PROPERTY_DEFINITION_REPRESENTATION(#323,#320);
#319=PROPERTY_DEFINITION_REPRESENTATION(#324,#321);
#320=REPRESENTATION('material name',(#322),#534);
#321=REPRESENTATION('density',(#317),#534);
#322=DESCRIPTIVE_REPRESENTATION_ITEM('Steel','Steel');
#323=PROPERTY_DEFINITION('material property','material name',#544);
#324=PROPERTY_DEFINITION('material property','density of part',#544);
#325=AXIS2_PLACEMENT_3D('',#447,#357,#358);
#326=AXIS2_PLACEMENT_3D('',#448,#359,#360);
#327=AXIS2_PLACEMENT_3D('',#450,#361,#362);
#328=AXIS2_PLACEMENT_3D('',#453,#364,#365);
#329=AXIS2_PLACEMENT_3D('',#454,#366,#367);
#330=AXIS2_PLACEMENT_3D('',#463,#372,#373);
#331=AXIS2_PLACEMENT_3D('',#469,#377,#378);
#332=AXIS2_PLACEMENT_3D('',#478,#383,#384);
#333=AXIS2_PLACEMENT_3D('',#480,#385,#386);
#334=AXIS2_PLACEMENT_3D('',#482,#387,#388);
#335=AXIS2_PLACEMENT_3D('',#484,#390,#391);
#336=AXIS2_PLACEMENT_3D('',#490,#395,#396);
#337=AXIS2_PLACEMENT_3D('',#492,#397,#398);
#338=AXIS2_PLACEMENT_3D('',#496,#400,#401);
#339=AXIS2_PLACEMENT_3D('',#499,#403,#404);
#340=AXIS2_PLACEMENT_3D('',#500,#405,#406);
#341=AXIS2_PLACEMENT_3D('',#501,#407,#408);
#342=AXIS2_PLACEMENT_3D('',#503,#409,#410);
#343=AXIS2_PLACEMENT_3D('',#504,#411,#412);
#344=AXIS2_PLACEMENT_3D('',#506,#413,#414);
#345=AXIS2_PLACEMENT_3D('',#508,#415,#416);
#346=AXIS2_PLACEMENT_3D('',#509,#417,#418);
#347=AXIS2_PLACEMENT_3D('',#511,#419,#420);
#348=AXIS2_PLACEMENT_3D('',#514,#423,#424);
#349=AXIS2_PLACEMENT_3D('',#517,#426,#427);
#350=AXIS2_PLACEMENT_3D('',#518,#428,#429);
#351=AXIS2_PLACEMENT_3D('',#521,#431,#432);
#352=AXIS2_PLACEMENT_3D('',#522,#433,#434);
#353=AXIS2_PLACEMENT_3D('',#526,#437,#438);
#354=AXIS2_PLACEMENT_3D('',#528,#440,#441);
#355=AXIS2_PLACEMENT_3D('',#529,#442,#443);
#356=AXIS2_PLACEMENT_3D('',#531,#445,#446);
#357=DIRECTION('axis',(0.,0.,1.));
#358=DIRECTION('refdir',(1.,0.,0.));
#359=DIRECTION('center_axis',(0.,-1.,0.));
#360=DIRECTION('ref_axis',(-1.,0.,0.));
#361=DIRECTION('center_axis',(0.,1.,0.));
#362=DIRECTION('ref_axis',(-1.,0.,0.));
#363=DIRECTION('',(0.,1.,0.));
#364=DIRECTION('center_axis',(0.,-1.,0.));
#365=DIRECTION('ref_axis',(-1.,0.,0.));
#366=DIRECTION('center_axis',(0.838670567945424,0.,-0.544639035015027));
#367=DIRECTION('ref_axis',(0.544639035015027,0.,0.838670567945424));
#368=DIRECTION('',(-0.544639035015027,0.,-0.838670567945424));
#369=DIRECTION('',(0.,1.,0.));
#370=DIRECTION('',(0.544639035015027,0.,0.838670567945424));
#371=DIRECTION('',(0.,-1.,0.));
#372=DIRECTION('center_axis',(-0.282319780286854,0.,0.959320354031323));
#373=DIRECTION('ref_axis',(-0.959320354031323,0.,-0.282319780286854));
#374=DIRECTION('',(0.959320354031323,0.,0.282319780286854));
#375=DIRECTION('',(-0.959320354031323,0.,-0.282319780286854));
#376=DIRECTION('',(0.,-1.,0.));
#377=DIRECTION('center_axis',(0.282319780286854,0.,-0.959320354031323));
#378=DIRECTION('ref_axis',(0.959320354031323,0.,0.282319780286854));
#379=DIRECTION('',(-0.959320354031323,0.,-0.282319780286854));
#380=DIRECTION('',(0.,1.,0.));
#381=DIRECTION('',(0.959320354031323,0.,0.282319780286854));
#382=DIRECTION('',(0.,-1.,0.));
#383=DIRECTION('center_axis',(0.,-1.,0.));
#384=DIRECTION('ref_axis',(0.282319780286853,0.,-0.959320354031323));
#385=DIRECTION('center_axis',(0.,1.,0.));
#386=DIRECTION('ref_axis',(0.282319780286853,0.,-0.959320354031323));
#387=DIRECTION('center_axis',(0.,-1.,0.));
#388=DIRECTION('ref_axis',(0.282319780286853,0.,-0.959320354031323));
#389=DIRECTION('',(0.,-1.,0.));
#390=DIRECTION('center_axis',(-0.838670567945424,0.,0.544639035015027));
#391=DIRECTION('ref_axis',(-0.544639035015027,0.,-0.838670567945424));
#392=DIRECTION('',(0.544639035015027,0.,0.838670567945424));
#393=DIRECTION('',(-0.544639035015027,0.,-0.838670567945424));
#394=DIRECTION('',(0.,1.,0.));
#395=DIRECTION('center_axis',(0.,1.,0.));
#396=DIRECTION('ref_axis',(0.544639035015025,0.,0.838670567945425));
#397=DIRECTION('center_axis',(0.,1.,0.));
#398=DIRECTION('ref_axis',(-0.282319780286853,0.,0.959320354031323));
#399=DIRECTION('',(0.,-1.,0.));
#400=DIRECTION('center_axis',(0.,1.,0.));
#401=DIRECTION('ref_axis',(0.544639035015025,0.,0.838670567945425));
#402=DIRECTION('',(0.,1.,0.));
#403=DIRECTION('center_axis',(0.,1.,0.));
#404=DIRECTION('ref_axis',(0.544639035015025,0.,0.838670567945425));
#405=DIRECTION('center_axis',(0.,1.,0.));
#406=DIRECTION('ref_axis',(0.544639035015025,0.,0.838670567945425));
#407=DIRECTION('center_axis',(0.,1.,0.));
#408=DIRECTION('ref_axis',(-1.,0.,0.));
#409=DIRECTION('center_axis',(0.,-1.,0.));
#410=DIRECTION('ref_axis',(-1.,0.,0.));
#411=DIRECTION('center_axis',(0.,1.,0.));
#412=DIRECTION('ref_axis',(-1.,0.,0.));
#413=DIRECTION('center_axis',(0.,1.,0.));
#414=DIRECTION('ref_axis',(-0.838670567945424,0.,0.544639035015027));
#415=DIRECTION('center_axis',(0.,-1.,0.));
#416=DIRECTION('ref_axis',(-1.,0.,0.));
#417=DIRECTION('center_axis',(0.,1.,0.));
#418=DIRECTION('ref_axis',(1.,0.,0.));
#419=DIRECTION('center_axis',(0.,1.,0.));
#420=DIRECTION('ref_axis',(-0.544639035015025,0.,-0.838670567945426));
#421=DIRECTION('',(0.838670567945424,0.,-0.544639035015027));
#422=DIRECTION('',(-0.838670567945424,0.,0.544639035015027));
#423=DIRECTION('center_axis',(0.,1.,0.));
#424=DIRECTION('ref_axis',(1.,0.,0.));
#425=DIRECTION('',(0.,-1.,0.));
#426=DIRECTION('center_axis',(0.,-1.,0.));
#427=DIRECTION('ref_axis',(1.,0.,0.));
#428=DIRECTION('center_axis',(0.,1.,0.));
#429=DIRECTION('ref_axis',(1.,0.,0.));
#430=DIRECTION('',(0.,-1.,0.));
#431=DIRECTION('center_axis',(0.,-1.,0.));
#432=DIRECTION('ref_axis',(1.,0.,0.));
#433=DIRECTION('center_axis',(0.544639035015027,0.,0.838670567945424));
#434=DIRECTION('ref_axis',(0.838670567945424,0.,-0.544639035015027));
#435=DIRECTION('',(0.838670567945424,0.,-0.544639035015027));
#436=DIRECTION('',(0.,1.,0.));
#437=DIRECTION('center_axis',(0.,1.,0.));
#438=DIRECTION('ref_axis',(-0.544639035015025,0.,-0.838670567945426));
#439=DIRECTION('',(0.,-1.,0.));
#440=DIRECTION('center_axis',(0.,1.,0.));
#441=DIRECTION('ref_axis',(-0.544639035015025,0.,-0.838670567945426));
#442=DIRECTION('center_axis',(-0.544639035015027,0.,-0.838670567945424));
#443=DIRECTION('ref_axis',(-0.838670567945424,0.,0.544639035015027));
#444=DIRECTION('',(-0.838670567945424,0.,0.544639035015027));
#445=DIRECTION('center_axis',(0.,1.,0.));
#446=DIRECTION('ref_axis',(1.,0.,0.));
#447=CARTESIAN_POINT('',(0.,0.,0.));
#448=CARTESIAN_POINT('Origin',(-24.2224832638887,-51.,-13.014298827639));
#449=CARTESIAN_POINT('',(-22.4724832638887,-54.,-13.014298827639));
#450=CARTESIAN_POINT('Origin',(-24.2224832638887,-54.,-13.014298827639));
#451=CARTESIAN_POINT('',(-22.4724832638887,-51.,-13.014298827639));
#452=CARTESIAN_POINT('',(-22.4724832638887,-51.,-13.014298827639));
#453=CARTESIAN_POINT('Origin',(-24.2224832638887,-51.,-13.014298827639));
#454=CARTESIAN_POINT('Origin',(-18.4450580766904,-51.,-8.70804034775415));
#455=CARTESIAN_POINT('',(-4.42503820603672,-51.,12.8808970430497));
#456=CARTESIAN_POINT('',(-18.4450580766904,-51.,-8.70804034775415));
#457=CARTESIAN_POINT('',(-3.06344061849916,-51.,14.9775734629132));
#458=CARTESIAN_POINT('',(-4.42503820603672,-54.,12.8808970430497));
#459=CARTESIAN_POINT('',(-4.42503820603672,-52.5,12.8808970430497));
#460=CARTESIAN_POINT('',(-18.4450580766904,-54.,-8.70804034775415));
#461=CARTESIAN_POINT('',(-3.06344061849916,-54.,14.9775734629132));
#462=CARTESIAN_POINT('',(-18.4450580766904,-51.,-8.70804034775415));
#463=CARTESIAN_POINT('Origin',(14.0797652717951,-51.,0.863737153917978));
#464=CARTESIAN_POINT('',(14.0797652717951,-51.,0.863737153917978));
#465=CARTESIAN_POINT('',(-24.9282827146058,-51.,-10.6159979425607));
#466=CARTESIAN_POINT('',(14.0797652717951,-54.,0.863737153917978));
#467=CARTESIAN_POINT('',(-24.9282827146058,-54.,-10.6159979425607));
#468=CARTESIAN_POINT('',(14.0797652717951,-52.5,0.863737153917978));
#469=CARTESIAN_POINT('Origin',(-23.5166838131715,-51.,-15.4125997127173));
#470=CARTESIAN_POINT('',(20.7057994507171,-51.,-2.39830088507831));
#471=CARTESIAN_POINT('',(-23.5166838131715,-51.,-15.4125997127173));
#472=CARTESIAN_POINT('',(20.7057994507171,-51.,-2.39830088507831));
#473=CARTESIAN_POINT('',(20.7057994507171,-54.,-2.39830088507831));
#474=CARTESIAN_POINT('',(20.7057994507171,-54.,-2.39830088507831));
#475=CARTESIAN_POINT('',(-23.5166838131715,-54.,-15.4125997127173));
#476=CARTESIAN_POINT('',(20.7057994507171,-54.,-2.39830088507831));
#477=CARTESIAN_POINT('',(-23.5166838131715,-51.,-15.4125997127173));
#478=CARTESIAN_POINT('Origin',(-24.2224832638887,-51.,-13.014298827639));
#479=CARTESIAN_POINT('',(-26.3191596837522,-51.,-11.6527012401015));
#480=CARTESIAN_POINT('Origin',(-24.2224832638887,-51.,-13.014298827639));
#481=CARTESIAN_POINT('',(-26.3191596837522,-54.,-11.6527012401015));
#482=CARTESIAN_POINT('Origin',(-24.2224832638887,-54.,-13.014298827639));
#483=CARTESIAN_POINT('',(-26.3191596837522,-51.,-11.6527012401015));
#484=CARTESIAN_POINT('Origin',(-7.25679345822628,-51.,17.7007686379884));
#485=CARTESIAN_POINT('',(-7.25679345822628,-51.,17.7007686379884));
#486=CARTESIAN_POINT('',(-26.3191596837522,-51.,-11.6527012401015));
#487=CARTESIAN_POINT('',(-7.25679345822628,-54.,17.7007686379884));
#488=CARTESIAN_POINT('',(-26.3191596837522,-54.,-11.6527012401015));
#489=CARTESIAN_POINT('',(-7.25679345822628,-54.,17.7007686379884));
#490=CARTESIAN_POINT('Origin',(20.,-54.,0.));
#491=CARTESIAN_POINT('',(18.6384024124624,-47.,-2.09667641986356));
#492=CARTESIAN_POINT('Origin',(20.,-47.,0.));
#493=CARTESIAN_POINT('',(18.6384024124624,-51.,-2.09667641986356));
#494=CARTESIAN_POINT('',(18.6384024124624,-54.,-2.09667641986356));
#495=CARTESIAN_POINT('',(21.3615975875376,-51.,2.09667641986356));
#496=CARTESIAN_POINT('Origin',(20.,-51.,0.));
#497=CARTESIAN_POINT('',(21.3615975875376,-54.,2.09667641986356));
#498=CARTESIAN_POINT('',(21.3615975875376,-54.,2.09667641986356));
#499=CARTESIAN_POINT('Origin',(20.,-54.,0.));
#500=CARTESIAN_POINT('Origin',(20.,-51.,0.));
#501=CARTESIAN_POINT('Origin',(20.,-47.,2.4980018054066E-15));
#502=CARTESIAN_POINT('',(18.25,-47.,2.14313189850786E-16));
#503=CARTESIAN_POINT('Origin',(20.,-47.,0.));
#504=CARTESIAN_POINT('Origin',(-5.16011703836272,-47.,16.3391710504508));
#505=CARTESIAN_POINT('',(-3.79851945082516,-47.,18.4358474703144));
#506=CARTESIAN_POINT('Origin',(-5.16011703836272,-47.,16.3391710504508));
#507=CARTESIAN_POINT('',(-6.91011703836272,-47.,16.3391710504508));
#508=CARTESIAN_POINT('Origin',(-5.16011703836272,-47.,16.3391710504508));
#509=CARTESIAN_POINT('Origin',(7.41994148081864,-51.,8.16958552522541));
#510=CARTESIAN_POINT('',(-3.79851945082515,-51.,18.4358474703144));
#511=CARTESIAN_POINT('Origin',(-5.16011703836272,-51.,16.3391710504508));
#512=CARTESIAN_POINT('',(-3.79851945082515,-51.,18.4358474703144));
#513=CARTESIAN_POINT('',(18.6384024124624,-51.,-2.09667641986356));
#514=CARTESIAN_POINT('Origin',(20.,-54.,0.));
#515=CARTESIAN_POINT('',(18.25,-54.,2.14313189850786E-16));
#516=CARTESIAN_POINT('',(18.25,-54.,2.14313189850786E-16));
#517=CARTESIAN_POINT('Origin',(20.,-54.,0.));
#518=CARTESIAN_POINT('Origin',(-5.16011703836272,-54.,16.3391710504508));
#519=CARTESIAN_POINT('',(-6.91011703836272,-54.,16.3391710504508));
#520=CARTESIAN_POINT('',(-6.91011703836272,-54.,16.3391710504508));
#521=CARTESIAN_POINT('Origin',(-5.16011703836272,-54.,16.3391710504508));
#522=CARTESIAN_POINT('Origin',(-3.79851945082515,-54.,18.4358474703144));
#523=CARTESIAN_POINT('',(-3.79851945082515,-54.,18.4358474703144));
#524=CARTESIAN_POINT('',(-3.79851945082515,-54.,18.4358474703144));
#525=CARTESIAN_POINT('',(-3.79851945082515,-54.,18.4358474703144));
#526=CARTESIAN_POINT('Origin',(-5.16011703836272,-54.,16.3391710504508));
#527=CARTESIAN_POINT('',(-3.79851945082516,-54.,18.4358474703144));
#528=CARTESIAN_POINT('Origin',(-5.16011703836272,-54.,16.3391710504508));
#529=CARTESIAN_POINT('Origin',(18.6384024124624,-54.,-2.09667641986356));
#530=CARTESIAN_POINT('',(18.6384024124624,-54.,-2.09667641986356));
#531=CARTESIAN_POINT('Origin',(7.41994148081864,-54.,8.16958552522541));
#532=UNCERTAINTY_MEASURE_WITH_UNIT(LENGTH_MEASURE(0.01),#536,
'DISTANCE_ACCURACY_VALUE',
'Maximum model space distance between geometric entities at asserted c
onnectivities');
#533=UNCERTAINTY_MEASURE_WITH_UNIT(LENGTH_MEASURE(0.01),#536,
'DISTANCE_ACCURACY_VALUE',
'Maximum model space distance between geometric entities at asserted c
onnectivities');
#534=(
GEOMETRIC_REPRESENTATION_CONTEXT(3)
GLOBAL_UNCERTAINTY_ASSIGNED_CONTEXT((#532))
GLOBAL_UNIT_ASSIGNED_CONTEXT((#536,#538,#539))
REPRESENTATION_CONTEXT('','3D')
);
#535=(
GEOMETRIC_REPRESENTATION_CONTEXT(3)
GLOBAL_UNCERTAINTY_ASSIGNED_CONTEXT((#533))
GLOBAL_UNIT_ASSIGNED_CONTEXT((#536,#538,#539))
REPRESENTATION_CONTEXT('','3D')
);
#536=(
LENGTH_UNIT()
NAMED_UNIT(*)
SI_UNIT(.MILLI.,.METRE.)
);
#537=(
LENGTH_UNIT()
NAMED_UNIT(*)
SI_UNIT($,.METRE.)
);
#538=(
NAMED_UNIT(*)
PLANE_ANGLE_UNIT()
SI_UNIT($,.RADIAN.)
);
#539=(
NAMED_UNIT(*)
SI_UNIT($,.STERADIAN.)
SOLID_ANGLE_UNIT()
);
#540=SHAPE_DEFINITION_REPRESENTATION(#541,#542);
#541=PRODUCT_DEFINITION_SHAPE('',$,#544);
#542=SHAPE_REPRESENTATION('',(#325),#534);
#543=PRODUCT_DEFINITION_CONTEXT('part definition',#548,'design');
#544=PRODUCT_DEFINITION('Front Triangle Coupler',
'Front Triangle Coupler',#545,#543);
#545=PRODUCT_DEFINITION_FORMATION('',$,#550);
#546=PRODUCT_RELATED_PRODUCT_CATEGORY('Front Triangle Coupler',
'Front Triangle Coupler',(#550));
#547=APPLICATION_PROTOCOL_DEFINITION('international standard',
'automotive_design',2009,#548);
#548=APPLICATION_CONTEXT(
'Core Data for Automotive Mechanical Design Process');
#549=PRODUCT_CONTEXT('part definition',#548,'mechanical');
#550=PRODUCT('Front Triangle Coupler','Front Triangle Coupler',$,(#549));
#551=PRESENTATION_STYLE_ASSIGNMENT((#552));
#552=SURFACE_STYLE_USAGE(.BOTH.,#553);
#553=SURFACE_SIDE_STYLE('',(#554));
#554=SURFACE_STYLE_FILL_AREA(#555);
#555=FILL_AREA_STYLE('Steel - Satin',(#556));
#556=FILL_AREA_STYLE_COLOUR('Steel - Satin',#557);
#557=COLOUR_RGB('Steel - Satin',0.627450980392157,0.627450980392157,0.627450980392157);
ENDSEC;
END-ISO-10303-21;
