ISO-10303-21;
HEADER;
/* Generated by software containing ST-Developer
 * from STEP Tools, Inc. (www.steptools.com) 
 */

FILE_DESCRIPTION(
/* description */ (''),
/* implementation_level */ '2;1');

FILE_NAME(
/* name */ 'Placeholder Bar.step',
/* time_stamp */ '2026-05-09T18:34:09+02:00',
/* author */ (''),
/* organization */ (''),
/* preprocessor_version */ 'ST-DEVELOPER v20.1',
/* originating_system */ 'Autodesk Translation Framework v15.8.0.0',
/* authorisation */ '');

FILE_SCHEMA (('AUTOMOTIVE_DESIGN { 1 0 10303 214 3 1 1 }'));
ENDSEC;

DATA;
#10=MECHANICAL_DESIGN_GEOMETRIC_PRESENTATION_REPRESENTATION('',(#13),#226);
#11=SHAPE_REPRESENTATION_RELATIONSHIP('SRR','None',#233,#12);
#12=ADVANCED_BREP_SHAPE_REPRESENTATION('',(#14),#225);
#13=STYLED_ITEM('',(#242),#14);
#14=MANIFOLD_SOLID_BREP('Body1',#126);
#15=FACE_BOUND('',#34,.T.);
#16=FACE_BOUND('',#36,.T.);
#17=PLANE('',#143);
#18=PLANE('',#147);
#19=PLANE('',#151);
#20=PLANE('',#152);
#21=FACE_OUTER_BOUND('',#28,.T.);
#22=FACE_OUTER_BOUND('',#29,.T.);
#23=FACE_OUTER_BOUND('',#30,.T.);
#24=FACE_OUTER_BOUND('',#31,.T.);
#25=FACE_OUTER_BOUND('',#32,.T.);
#26=FACE_OUTER_BOUND('',#33,.T.);
#27=FACE_OUTER_BOUND('',#35,.T.);
#28=EDGE_LOOP('',(#86,#87,#88,#89));
#29=EDGE_LOOP('',(#90,#91,#92,#93));
#30=EDGE_LOOP('',(#94,#95,#96,#97));
#31=EDGE_LOOP('',(#98,#99,#100,#101));
#32=EDGE_LOOP('',(#102,#103,#104,#105));
#33=EDGE_LOOP('',(#106,#107,#108,#109));
#34=EDGE_LOOP('',(#110));
#35=EDGE_LOOP('',(#111,#112,#113,#114));
#36=EDGE_LOOP('',(#115));
#37=LINE('',#195,#46);
#38=LINE('',#200,#47);
#39=LINE('',#202,#48);
#40=LINE('',#204,#49);
#41=LINE('',#205,#50);
#42=LINE('',#211,#51);
#43=LINE('',#214,#52);
#44=LINE('',#216,#53);
#45=LINE('',#217,#54);
#46=VECTOR('',#159,1.75);
#47=VECTOR('',#164,10.);
#48=VECTOR('',#165,10.);
#49=VECTOR('',#166,10.);
#50=VECTOR('',#167,10.);
#51=VECTOR('',#174,10.);
#52=VECTOR('',#177,10.);
#53=VECTOR('',#178,10.);
#54=VECTOR('',#179,10.);
#55=CIRCLE('',#141,1.75);
#56=CIRCLE('',#142,1.75);
#57=CIRCLE('',#145,2.5);
#58=CIRCLE('',#146,2.5);
#59=CIRCLE('',#149,2.5);
#60=CIRCLE('',#150,2.5);
#61=VERTEX_POINT('',#192);
#62=VERTEX_POINT('',#194);
#63=VERTEX_POINT('',#198);
#64=VERTEX_POINT('',#199);
#65=VERTEX_POINT('',#201);
#66=VERTEX_POINT('',#203);
#67=VERTEX_POINT('',#207);
#68=VERTEX_POINT('',#209);
#69=VERTEX_POINT('',#213);
#70=VERTEX_POINT('',#215);
#71=EDGE_CURVE('',#61,#61,#55,.T.);
#72=EDGE_CURVE('',#61,#62,#37,.T.);
#73=EDGE_CURVE('',#62,#62,#56,.T.);
#74=EDGE_CURVE('',#63,#64,#38,.T.);
#75=EDGE_CURVE('',#64,#65,#39,.T.);
#76=EDGE_CURVE('',#66,#65,#40,.T.);
#77=EDGE_CURVE('',#63,#66,#41,.T.);
#78=EDGE_CURVE('',#67,#63,#57,.T.);
#79=EDGE_CURVE('',#68,#66,#58,.T.);
#80=EDGE_CURVE('',#67,#68,#42,.T.);
#81=EDGE_CURVE('',#69,#67,#43,.T.);
#82=EDGE_CURVE('',#70,#68,#44,.T.);
#83=EDGE_CURVE('',#69,#70,#45,.T.);
#84=EDGE_CURVE('',#64,#69,#59,.T.);
#85=EDGE_CURVE('',#65,#70,#60,.T.);
#86=ORIENTED_EDGE('',*,*,#71,.F.);
#87=ORIENTED_EDGE('',*,*,#72,.T.);
#88=ORIENTED_EDGE('',*,*,#73,.T.);
#89=ORIENTED_EDGE('',*,*,#72,.F.);
#90=ORIENTED_EDGE('',*,*,#74,.T.);
#91=ORIENTED_EDGE('',*,*,#75,.T.);
#92=ORIENTED_EDGE('',*,*,#76,.F.);
#93=ORIENTED_EDGE('',*,*,#77,.F.);
#94=ORIENTED_EDGE('',*,*,#78,.T.);
#95=ORIENTED_EDGE('',*,*,#77,.T.);
#96=ORIENTED_EDGE('',*,*,#79,.F.);
#97=ORIENTED_EDGE('',*,*,#80,.F.);
#98=ORIENTED_EDGE('',*,*,#81,.T.);
#99=ORIENTED_EDGE('',*,*,#80,.T.);
#100=ORIENTED_EDGE('',*,*,#82,.F.);
#101=ORIENTED_EDGE('',*,*,#83,.F.);
#102=ORIENTED_EDGE('',*,*,#84,.T.);
#103=ORIENTED_EDGE('',*,*,#83,.T.);
#104=ORIENTED_EDGE('',*,*,#85,.F.);
#105=ORIENTED_EDGE('',*,*,#75,.F.);
#106=ORIENTED_EDGE('',*,*,#85,.T.);
#107=ORIENTED_EDGE('',*,*,#82,.T.);
#108=ORIENTED_EDGE('',*,*,#79,.T.);
#109=ORIENTED_EDGE('',*,*,#76,.T.);
#110=ORIENTED_EDGE('',*,*,#71,.T.);
#111=ORIENTED_EDGE('',*,*,#84,.F.);
#112=ORIENTED_EDGE('',*,*,#74,.F.);
#113=ORIENTED_EDGE('',*,*,#78,.F.);
#114=ORIENTED_EDGE('',*,*,#81,.F.);
#115=ORIENTED_EDGE('',*,*,#73,.F.);
#116=CYLINDRICAL_SURFACE('',#140,1.75);
#117=CYLINDRICAL_SURFACE('',#144,2.5);
#118=CYLINDRICAL_SURFACE('',#148,2.5);
#119=ADVANCED_FACE('',(#21),#116,.F.);
#120=ADVANCED_FACE('',(#22),#17,.T.);
#121=ADVANCED_FACE('',(#23),#117,.T.);
#122=ADVANCED_FACE('',(#24),#18,.T.);
#123=ADVANCED_FACE('',(#25),#118,.T.);
#124=ADVANCED_FACE('',(#26,#15),#19,.T.);
#125=ADVANCED_FACE('',(#27,#16),#20,.F.);
#126=CLOSED_SHELL('',(#119,#120,#121,#122,#123,#124,#125));
#127=DERIVED_UNIT_ELEMENT(#129,1.);
#128=DERIVED_UNIT_ELEMENT(#228,-3.);
#129=(
MASS_UNIT()
NAMED_UNIT(*)
SI_UNIT(.KILO.,.GRAM.)
);
#130=DERIVED_UNIT((#127,#128));
#131=MEASURE_REPRESENTATION_ITEM('density measure',
POSITIVE_RATIO_MEASURE(7850.),#130);
#132=PROPERTY_DEFINITION_REPRESENTATION(#137,#134);
#133=PROPERTY_DEFINITION_REPRESENTATION(#138,#135);
#134=REPRESENTATION('material name',(#136),#225);
#135=REPRESENTATION('density',(#131),#225);
#136=DESCRIPTIVE_REPRESENTATION_ITEM('Steel','Steel');
#137=PROPERTY_DEFINITION('material property','material name',#235);
#138=PROPERTY_DEFINITION('material property','density of part',#235);
#139=AXIS2_PLACEMENT_3D('',#190,#153,#154);
#140=AXIS2_PLACEMENT_3D('',#191,#155,#156);
#141=AXIS2_PLACEMENT_3D('',#193,#157,#158);
#142=AXIS2_PLACEMENT_3D('',#196,#160,#161);
#143=AXIS2_PLACEMENT_3D('',#197,#162,#163);
#144=AXIS2_PLACEMENT_3D('',#206,#168,#169);
#145=AXIS2_PLACEMENT_3D('',#208,#170,#171);
#146=AXIS2_PLACEMENT_3D('',#210,#172,#173);
#147=AXIS2_PLACEMENT_3D('',#212,#175,#176);
#148=AXIS2_PLACEMENT_3D('',#218,#180,#181);
#149=AXIS2_PLACEMENT_3D('',#219,#182,#183);
#150=AXIS2_PLACEMENT_3D('',#220,#184,#185);
#151=AXIS2_PLACEMENT_3D('',#221,#186,#187);
#152=AXIS2_PLACEMENT_3D('',#222,#188,#189);
#153=DIRECTION('axis',(0.,0.,1.));
#154=DIRECTION('refdir',(1.,0.,0.));
#155=DIRECTION('center_axis',(0.,1.,0.));
#156=DIRECTION('ref_axis',(-1.,0.,6.27407168414735E-9));
#157=DIRECTION('center_axis',(0.,-1.,0.));
#158=DIRECTION('ref_axis',(-1.,0.,6.27407168414735E-9));
#159=DIRECTION('',(0.,-1.,0.));
#160=DIRECTION('center_axis',(0.,-1.,0.));
#161=DIRECTION('ref_axis',(-1.,0.,6.27407168414735E-9));
#162=DIRECTION('center_axis',(-6.27407168414735E-9,0.,-1.));
#163=DIRECTION('ref_axis',(-1.,0.,6.27407168414735E-9));
#164=DIRECTION('',(-1.,0.,6.27407168414735E-9));
#165=DIRECTION('',(0.,1.,0.));
#166=DIRECTION('',(-1.,0.,6.27407168414735E-9));
#167=DIRECTION('',(0.,1.,0.));
#168=DIRECTION('center_axis',(0.,1.,0.));
#169=DIRECTION('ref_axis',(6.27407168414735E-9,0.,1.));
#170=DIRECTION('center_axis',(0.,1.,0.));
#171=DIRECTION('ref_axis',(6.27407168414735E-9,0.,1.));
#172=DIRECTION('center_axis',(0.,1.,0.));
#173=DIRECTION('ref_axis',(6.27407168414735E-9,0.,1.));
#174=DIRECTION('',(0.,1.,0.));
#175=DIRECTION('center_axis',(6.27407168414735E-9,0.,1.));
#176=DIRECTION('ref_axis',(1.,0.,-6.27407168414735E-9));
#177=DIRECTION('',(1.,0.,-6.27407168414735E-9));
#178=DIRECTION('',(1.,0.,-6.27407168414735E-9));
#179=DIRECTION('',(0.,1.,0.));
#180=DIRECTION('center_axis',(0.,1.,0.));
#181=DIRECTION('ref_axis',(-6.27407168414735E-9,0.,-1.));
#182=DIRECTION('center_axis',(0.,1.,0.));
#183=DIRECTION('ref_axis',(-6.27407168414735E-9,0.,-1.));
#184=DIRECTION('center_axis',(0.,1.,0.));
#185=DIRECTION('ref_axis',(-6.27407168414735E-9,0.,-1.));
#186=DIRECTION('center_axis',(0.,1.,0.));
#187=DIRECTION('ref_axis',(-1.,0.,6.27407168414735E-9));
#188=DIRECTION('center_axis',(0.,1.,0.));
#189=DIRECTION('ref_axis',(-1.,0.,6.27407168414735E-9));
#190=CARTESIAN_POINT('',(0.,0.,0.));
#191=CARTESIAN_POINT('Origin',(45.0000004448682,-11.,6.74753197894775E-7));
#192=CARTESIAN_POINT('',(46.7500004448682,-8.,6.63773572233204E-7));
#193=CARTESIAN_POINT('Origin',(45.0000004448682,-8.,6.74753197894775E-7));
#194=CARTESIAN_POINT('',(46.7500004448682,-11.,6.63773572233204E-7));
#195=CARTESIAN_POINT('',(46.7500004448682,-11.,6.63773572233204E-7));
#196=CARTESIAN_POINT('Origin',(45.0000004448682,-11.,6.74753197894775E-7));
#197=CARTESIAN_POINT('Origin',(60.0000006527004,-11.,-2.49999941935788));
#198=CARTESIAN_POINT('',(60.0000006527004,-11.,-2.49999941935788));
#199=CARTESIAN_POINT('',(45.000000429183,-11.,-2.4999993252468));
#200=CARTESIAN_POINT('',(60.0000006527004,-11.,-2.49999941935788));
#201=CARTESIAN_POINT('',(45.000000429183,-8.,-2.4999993252468));
#202=CARTESIAN_POINT('',(45.000000429183,-11.,-2.4999993252468));
#203=CARTESIAN_POINT('',(60.0000006527004,-8.,-2.49999941935788));
#204=CARTESIAN_POINT('',(60.0000006527004,-8.,-2.49999941935788));
#205=CARTESIAN_POINT('',(60.0000006527004,-11.,-2.49999941935788));
#206=CARTESIAN_POINT('Origin',(60.0000006683856,-11.,5.806421212302E-7));
#207=CARTESIAN_POINT('',(60.0000006840708,-11.,2.50000058064212));
#208=CARTESIAN_POINT('Origin',(60.0000006683856,-11.,5.806421212302E-7));
#209=CARTESIAN_POINT('',(60.0000006840708,-8.,2.50000058064212));
#210=CARTESIAN_POINT('Origin',(60.0000006683856,-8.,5.806421212302E-7));
#211=CARTESIAN_POINT('',(60.0000006840708,-11.,2.50000058064212));
#212=CARTESIAN_POINT('Origin',(45.0000004605534,-11.,2.5000006747532));
#213=CARTESIAN_POINT('',(45.0000004605534,-11.,2.5000006747532));
#214=CARTESIAN_POINT('',(45.0000004605534,-11.,2.5000006747532));
#215=CARTESIAN_POINT('',(45.0000004605534,-8.,2.5000006747532));
#216=CARTESIAN_POINT('',(45.0000004605534,-8.,2.5000006747532));
#217=CARTESIAN_POINT('',(45.0000004605534,-11.,2.5000006747532));
#218=CARTESIAN_POINT('Origin',(45.0000004448682,-11.,6.74753197894775E-7));
#219=CARTESIAN_POINT('Origin',(45.0000004448682,-11.,6.74753197894775E-7));
#220=CARTESIAN_POINT('Origin',(45.0000004448682,-8.,6.74753197894775E-7));
#221=CARTESIAN_POINT('Origin',(52.5000005566269,-8.,6.27697659562487E-7));
#222=CARTESIAN_POINT('Origin',(52.5000005566269,-11.,6.27697659562487E-7));
#223=UNCERTAINTY_MEASURE_WITH_UNIT(LENGTH_MEASURE(0.01),#227,
'DISTANCE_ACCURACY_VALUE',
'Maximum model space distance between geometric entities at asserted c
onnectivities');
#224=UNCERTAINTY_MEASURE_WITH_UNIT(LENGTH_MEASURE(0.01),#227,
'DISTANCE_ACCURACY_VALUE',
'Maximum model space distance between geometric entities at asserted c
onnectivities');
#225=(
GEOMETRIC_REPRESENTATION_CONTEXT(3)
GLOBAL_UNCERTAINTY_ASSIGNED_CONTEXT((#223))
GLOBAL_UNIT_ASSIGNED_CONTEXT((#227,#229,#230))
REPRESENTATION_CONTEXT('','3D')
);
#226=(
GEOMETRIC_REPRESENTATION_CONTEXT(3)
GLOBAL_UNCERTAINTY_ASSIGNED_CONTEXT((#224))
GLOBAL_UNIT_ASSIGNED_CONTEXT((#227,#229,#230))
REPRESENTATION_CONTEXT('','3D')
);
#227=(
LENGTH_UNIT()
NAMED_UNIT(*)
SI_UNIT(.MILLI.,.METRE.)
);
#228=(
LENGTH_UNIT()
NAMED_UNIT(*)
SI_UNIT($,.METRE.)
);
#229=(
NAMED_UNIT(*)
PLANE_ANGLE_UNIT()
SI_UNIT($,.RADIAN.)
);
#230=(
NAMED_UNIT(*)
SI_UNIT($,.STERADIAN.)
SOLID_ANGLE_UNIT()
);
#231=SHAPE_DEFINITION_REPRESENTATION(#232,#233);
#232=PRODUCT_DEFINITION_SHAPE('',$,#235);
#233=SHAPE_REPRESENTATION('',(#139),#225);
#234=PRODUCT_DEFINITION_CONTEXT('part definition',#239,'design');
#235=PRODUCT_DEFINITION('Placeholder Bar','Placeholder Bar',#236,#234);
#236=PRODUCT_DEFINITION_FORMATION('',$,#241);
#237=PRODUCT_RELATED_PRODUCT_CATEGORY('Placeholder Bar',
'Placeholder Bar',(#241));
#238=APPLICATION_PROTOCOL_DEFINITION('international standard',
'automotive_design',2009,#239);
#239=APPLICATION_CONTEXT(
'Core Data for Automotive Mechanical Design Process');
#240=PRODUCT_CONTEXT('part definition',#239,'mechanical');
#241=PRODUCT('Placeholder Bar','Placeholder Bar',$,(#240));
#242=PRESENTATION_STYLE_ASSIGNMENT((#243));
#243=SURFACE_STYLE_USAGE(.BOTH.,#244);
#244=SURFACE_SIDE_STYLE('',(#245));
#245=SURFACE_STYLE_FILL_AREA(#246);
#246=FILL_AREA_STYLE('Steel - Satin',(#247));
#247=FILL_AREA_STYLE_COLOUR('Steel - Satin',#248);
#248=COLOUR_RGB('Steel - Satin',0.627450980392157,0.627450980392157,0.627450980392157);
ENDSEC;
END-ISO-10303-21;
