ISO-10303-21;
HEADER;
/* Generated by software containing ST-Developer
 * from STEP Tools, Inc. (www.steptools.com) 
 */

FILE_DESCRIPTION(
/* description */ (''),
/* implementation_level */ '2;1');

FILE_NAME(
/* name */ 'Rear Long Bar.step',
/* time_stamp */ '2026-05-09T18:34:09+02:00',
/* author */ (''),
/* organization */ (''),
/* preprocessor_version */ 'ST-DEVELOPER v20.1',
/* originating_system */ 'Autodesk Translation Framework v15.8.0.0',
/* authorisation */ '');

FILE_SCHEMA (('AUTOMOTIVE_DESIGN { 1 0 10303 214 3 1 1 }'));
ENDSEC;

DATA;
#10=MECHANICAL_DESIGN_GEOMETRIC_PRESENTATION_REPRESENTATION('',(#13),#290);
#11=SHAPE_REPRESENTATION_RELATIONSHIP('SRR','None',#297,#12);
#12=ADVANCED_BREP_SHAPE_REPRESENTATION('',(#14),#289);
#13=STYLED_ITEM('',(#306),#14);
#14=MANIFOLD_SOLID_BREP('Body1',#163);
#15=LINE('',#253,#26);
#16=LINE('',#258,#27);
#17=LINE('',#263,#28);
#18=LINE('',#265,#29);
#19=LINE('',#267,#30);
#20=LINE('',#268,#31);
#21=LINE('',#273,#32);
#22=LINE('',#274,#33);
#23=LINE('',#278,#34);
#24=LINE('',#280,#35);
#25=LINE('',#281,#36);
#26=VECTOR('',#207,1.75000000000001);
#27=VECTOR('',#212,1.75);
#28=VECTOR('',#217,10.);
#29=VECTOR('',#218,10.);
#30=VECTOR('',#219,10.);
#31=VECTOR('',#220,10.);
#32=VECTOR('',#225,10.);
#33=VECTOR('',#226,2.5);
#34=VECTOR('',#231,10.);
#35=VECTOR('',#232,10.);
#36=VECTOR('',#233,10.);
#37=CYLINDRICAL_SURFACE('',#180,1.75000000000001);
#38=CYLINDRICAL_SURFACE('',#182,1.75);
#39=CYLINDRICAL_SURFACE('',#186,2.5);
#40=CYLINDRICAL_SURFACE('',#190,2.5);
#41=FACE_BOUND('',#55,.T.);
#42=FACE_BOUND('',#63,.T.);
#43=FACE_BOUND('',#65,.T.);
#44=FACE_BOUND('',#66,.T.);
#45=FACE_OUTER_BOUND('',#54,.T.);
#46=FACE_OUTER_BOUND('',#56,.T.);
#47=FACE_OUTER_BOUND('',#57,.T.);
#48=FACE_OUTER_BOUND('',#58,.T.);
#49=FACE_OUTER_BOUND('',#59,.T.);
#50=FACE_OUTER_BOUND('',#60,.T.);
#51=FACE_OUTER_BOUND('',#61,.T.);
#52=FACE_OUTER_BOUND('',#62,.T.);
#53=FACE_OUTER_BOUND('',#64,.T.);
#54=EDGE_LOOP('',(#109));
#55=EDGE_LOOP('',(#110));
#56=EDGE_LOOP('',(#111,#112,#113,#114));
#57=EDGE_LOOP('',(#115,#116,#117,#118));
#58=EDGE_LOOP('',(#119,#120,#121,#122));
#59=EDGE_LOOP('',(#123,#124,#125,#126,#127,#128,#129));
#60=EDGE_LOOP('',(#130,#131,#132,#133));
#61=EDGE_LOOP('',(#134,#135,#136,#137));
#62=EDGE_LOOP('',(#138,#139,#140,#141));
#63=EDGE_LOOP('',(#142));
#64=EDGE_LOOP('',(#143,#144,#145,#146));
#65=EDGE_LOOP('',(#147));
#66=EDGE_LOOP('',(#148));
#67=CIRCLE('',#178,2.5);
#68=CIRCLE('',#179,1.75000000000001);
#69=CIRCLE('',#181,1.75000000000001);
#70=CIRCLE('',#183,1.75);
#71=CIRCLE('',#184,1.75);
#72=CIRCLE('',#187,2.5);
#73=CIRCLE('',#188,2.5);
#74=CIRCLE('',#191,2.5);
#75=CIRCLE('',#192,2.5);
#76=VERTEX_POINT('',#246);
#77=VERTEX_POINT('',#248);
#78=VERTEX_POINT('',#251);
#79=VERTEX_POINT('',#255);
#80=VERTEX_POINT('',#257);
#81=VERTEX_POINT('',#261);
#82=VERTEX_POINT('',#262);
#83=VERTEX_POINT('',#264);
#84=VERTEX_POINT('',#266);
#85=VERTEX_POINT('',#270);
#86=VERTEX_POINT('',#272);
#87=VERTEX_POINT('',#277);
#88=VERTEX_POINT('',#279);
#89=EDGE_CURVE('',#76,#76,#67,.T.);
#90=EDGE_CURVE('',#77,#77,#68,.T.);
#91=EDGE_CURVE('',#78,#78,#69,.T.);
#92=EDGE_CURVE('',#78,#77,#15,.T.);
#93=EDGE_CURVE('',#79,#79,#70,.T.);
#94=EDGE_CURVE('',#79,#80,#16,.T.);
#95=EDGE_CURVE('',#80,#80,#71,.T.);
#96=EDGE_CURVE('',#81,#82,#17,.T.);
#97=EDGE_CURVE('',#81,#83,#18,.T.);
#98=EDGE_CURVE('',#84,#83,#19,.T.);
#99=EDGE_CURVE('',#82,#84,#20,.T.);
#100=EDGE_CURVE('',#85,#84,#72,.T.);
#101=EDGE_CURVE('',#86,#85,#21,.T.);
#102=EDGE_CURVE('',#86,#76,#22,.T.);
#103=EDGE_CURVE('',#82,#86,#73,.T.);
#104=EDGE_CURVE('',#86,#87,#23,.T.);
#105=EDGE_CURVE('',#88,#85,#24,.T.);
#106=EDGE_CURVE('',#87,#88,#25,.T.);
#107=EDGE_CURVE('',#87,#81,#74,.T.);
#108=EDGE_CURVE('',#83,#88,#75,.T.);
#109=ORIENTED_EDGE('',*,*,#89,.T.);
#110=ORIENTED_EDGE('',*,*,#90,.T.);
#111=ORIENTED_EDGE('',*,*,#91,.F.);
#112=ORIENTED_EDGE('',*,*,#92,.T.);
#113=ORIENTED_EDGE('',*,*,#90,.F.);
#114=ORIENTED_EDGE('',*,*,#92,.F.);
#115=ORIENTED_EDGE('',*,*,#93,.F.);
#116=ORIENTED_EDGE('',*,*,#94,.T.);
#117=ORIENTED_EDGE('',*,*,#95,.F.);
#118=ORIENTED_EDGE('',*,*,#94,.F.);
#119=ORIENTED_EDGE('',*,*,#96,.F.);
#120=ORIENTED_EDGE('',*,*,#97,.T.);
#121=ORIENTED_EDGE('',*,*,#98,.F.);
#122=ORIENTED_EDGE('',*,*,#99,.F.);
#123=ORIENTED_EDGE('',*,*,#99,.T.);
#124=ORIENTED_EDGE('',*,*,#100,.F.);
#125=ORIENTED_EDGE('',*,*,#101,.F.);
#126=ORIENTED_EDGE('',*,*,#102,.T.);
#127=ORIENTED_EDGE('',*,*,#89,.F.);
#128=ORIENTED_EDGE('',*,*,#102,.F.);
#129=ORIENTED_EDGE('',*,*,#103,.F.);
#130=ORIENTED_EDGE('',*,*,#104,.F.);
#131=ORIENTED_EDGE('',*,*,#101,.T.);
#132=ORIENTED_EDGE('',*,*,#105,.F.);
#133=ORIENTED_EDGE('',*,*,#106,.F.);
#134=ORIENTED_EDGE('',*,*,#107,.F.);
#135=ORIENTED_EDGE('',*,*,#106,.T.);
#136=ORIENTED_EDGE('',*,*,#108,.F.);
#137=ORIENTED_EDGE('',*,*,#97,.F.);
#138=ORIENTED_EDGE('',*,*,#103,.T.);
#139=ORIENTED_EDGE('',*,*,#104,.T.);
#140=ORIENTED_EDGE('',*,*,#107,.T.);
#141=ORIENTED_EDGE('',*,*,#96,.T.);
#142=ORIENTED_EDGE('',*,*,#95,.T.);
#143=ORIENTED_EDGE('',*,*,#108,.T.);
#144=ORIENTED_EDGE('',*,*,#105,.T.);
#145=ORIENTED_EDGE('',*,*,#100,.T.);
#146=ORIENTED_EDGE('',*,*,#98,.T.);
#147=ORIENTED_EDGE('',*,*,#93,.T.);
#148=ORIENTED_EDGE('',*,*,#91,.T.);
#149=PLANE('',#177);
#150=PLANE('',#185);
#151=PLANE('',#189);
#152=PLANE('',#193);
#153=PLANE('',#194);
#154=ADVANCED_FACE('',(#45,#41),#149,.T.);
#155=ADVANCED_FACE('',(#46),#37,.F.);
#156=ADVANCED_FACE('',(#47),#38,.F.);
#157=ADVANCED_FACE('',(#48),#150,.T.);
#158=ADVANCED_FACE('',(#49),#39,.T.);
#159=ADVANCED_FACE('',(#50),#151,.T.);
#160=ADVANCED_FACE('',(#51),#40,.T.);
#161=ADVANCED_FACE('',(#52,#42),#152,.T.);
#162=ADVANCED_FACE('',(#53,#43,#44),#153,.F.);
#163=CLOSED_SHELL('',(#154,#155,#156,#157,#158,#159,#160,#161,#162));
#164=DERIVED_UNIT_ELEMENT(#166,1.);
#165=DERIVED_UNIT_ELEMENT(#292,-3.);
#166=(
MASS_UNIT()
NAMED_UNIT(*)
SI_UNIT(.KILO.,.GRAM.)
);
#167=DERIVED_UNIT((#164,#165));
#168=MEASURE_REPRESENTATION_ITEM('density measure',
POSITIVE_RATIO_MEASURE(7850.),#167);
#169=PROPERTY_DEFINITION_REPRESENTATION(#174,#171);
#170=PROPERTY_DEFINITION_REPRESENTATION(#175,#172);
#171=REPRESENTATION('material name',(#173),#289);
#172=REPRESENTATION('density',(#168),#289);
#173=DESCRIPTIVE_REPRESENTATION_ITEM('Steel','Steel');
#174=PROPERTY_DEFINITION('material property','material name',#299);
#175=PROPERTY_DEFINITION('material property','density of part',#299);
#176=AXIS2_PLACEMENT_3D('',#244,#195,#196);
#177=AXIS2_PLACEMENT_3D('',#245,#197,#198);
#178=AXIS2_PLACEMENT_3D('',#247,#199,#200);
#179=AXIS2_PLACEMENT_3D('',#249,#201,#202);
#180=AXIS2_PLACEMENT_3D('',#250,#203,#204);
#181=AXIS2_PLACEMENT_3D('',#252,#205,#206);
#182=AXIS2_PLACEMENT_3D('',#254,#208,#209);
#183=AXIS2_PLACEMENT_3D('',#256,#210,#211);
#184=AXIS2_PLACEMENT_3D('',#259,#213,#214);
#185=AXIS2_PLACEMENT_3D('',#260,#215,#216);
#186=AXIS2_PLACEMENT_3D('',#269,#221,#222);
#187=AXIS2_PLACEMENT_3D('',#271,#223,#224);
#188=AXIS2_PLACEMENT_3D('',#275,#227,#228);
#189=AXIS2_PLACEMENT_3D('',#276,#229,#230);
#190=AXIS2_PLACEMENT_3D('',#282,#234,#235);
#191=AXIS2_PLACEMENT_3D('',#283,#236,#237);
#192=AXIS2_PLACEMENT_3D('',#284,#238,#239);
#193=AXIS2_PLACEMENT_3D('',#285,#240,#241);
#194=AXIS2_PLACEMENT_3D('',#286,#242,#243);
#195=DIRECTION('axis',(0.,0.,1.));
#196=DIRECTION('refdir',(1.,0.,0.));
#197=DIRECTION('center_axis',(0.,-1.,0.));
#198=DIRECTION('ref_axis',(1.,0.,0.));
#199=DIRECTION('center_axis',(0.,-1.,0.));
#200=DIRECTION('ref_axis',(1.,0.,0.));
#201=DIRECTION('center_axis',(0.,1.,0.));
#202=DIRECTION('ref_axis',(1.,0.,0.));
#203=DIRECTION('center_axis',(0.,1.,0.));
#204=DIRECTION('ref_axis',(1.,0.,0.));
#205=DIRECTION('center_axis',(0.,-1.,0.));
#206=DIRECTION('ref_axis',(1.,0.,0.));
#207=DIRECTION('',(0.,-1.,0.));
#208=DIRECTION('center_axis',(0.,1.,0.));
#209=DIRECTION('ref_axis',(1.,0.,0.));
#210=DIRECTION('center_axis',(0.,-1.,0.));
#211=DIRECTION('ref_axis',(1.,0.,0.));
#212=DIRECTION('',(0.,-1.,0.));
#213=DIRECTION('center_axis',(0.,1.,0.));
#214=DIRECTION('ref_axis',(1.,0.,0.));
#215=DIRECTION('center_axis',(-1.,0.,0.));
#216=DIRECTION('ref_axis',(0.,0.,1.));
#217=DIRECTION('',(0.,0.,-1.));
#218=DIRECTION('',(0.,1.,0.));
#219=DIRECTION('',(0.,0.,1.));
#220=DIRECTION('',(0.,1.,0.));
#221=DIRECTION('center_axis',(0.,1.,0.));
#222=DIRECTION('ref_axis',(-1.,0.,0.));
#223=DIRECTION('center_axis',(0.,1.,0.));
#224=DIRECTION('ref_axis',(-1.,0.,0.));
#225=DIRECTION('',(0.,1.,0.));
#226=DIRECTION('',(0.,-1.,0.));
#227=DIRECTION('center_axis',(0.,1.,0.));
#228=DIRECTION('ref_axis',(1.,0.,0.));
#229=DIRECTION('center_axis',(1.,0.,0.));
#230=DIRECTION('ref_axis',(0.,0.,-1.));
#231=DIRECTION('',(0.,0.,1.));
#232=DIRECTION('',(0.,0.,-1.));
#233=DIRECTION('',(0.,1.,0.));
#234=DIRECTION('center_axis',(0.,1.,0.));
#235=DIRECTION('ref_axis',(1.,0.,0.));
#236=DIRECTION('center_axis',(0.,-1.,0.));
#237=DIRECTION('ref_axis',(1.,0.,0.));
#238=DIRECTION('center_axis',(0.,1.,0.));
#239=DIRECTION('ref_axis',(1.,0.,0.));
#240=DIRECTION('center_axis',(0.,-1.,0.));
#241=DIRECTION('ref_axis',(1.,0.,0.));
#242=DIRECTION('center_axis',(0.,-1.,0.));
#243=DIRECTION('ref_axis',(1.,0.,0.));
#244=CARTESIAN_POINT('',(0.,0.,0.));
#245=CARTESIAN_POINT('Origin',(45.0000006705523,-17.,-50.0000001490116));
#246=CARTESIAN_POINT('',(47.5000006705523,-17.,-50.0000001490116));
#247=CARTESIAN_POINT('Origin',(45.0000006705523,-17.,-50.0000001490116));
#248=CARTESIAN_POINT('',(43.2500006705522,-17.,-50.0000001490116));
#249=CARTESIAN_POINT('Origin',(45.0000006705523,-17.,-50.0000001490116));
#250=CARTESIAN_POINT('Origin',(45.0000006705523,-14.,-50.0000001490116));
#251=CARTESIAN_POINT('',(43.2500006705522,-11.,-50.0000001490116));
#252=CARTESIAN_POINT('Origin',(45.0000006705523,-11.,-50.0000001490116));
#253=CARTESIAN_POINT('',(43.2500006705522,-14.,-50.0000001490116));
#254=CARTESIAN_POINT('Origin',(45.0000006705523,-14.,-10.0000001490116));
#255=CARTESIAN_POINT('',(43.2500006705523,-11.,-10.0000001490116));
#256=CARTESIAN_POINT('Origin',(45.0000006705523,-11.,-10.0000001490116));
#257=CARTESIAN_POINT('',(43.2500006705523,-14.,-10.0000001490116));
#258=CARTESIAN_POINT('',(43.2500006705523,-14.,-10.0000001490116));
#259=CARTESIAN_POINT('Origin',(45.0000006705523,-14.,-10.0000001490116));
#260=CARTESIAN_POINT('Origin',(42.5000006705523,-14.,-50.0000001490116));
#261=CARTESIAN_POINT('',(42.5000006705523,-14.,-10.0000001490116));
#262=CARTESIAN_POINT('',(42.5000006705523,-14.,-50.0000001490116));
#263=CARTESIAN_POINT('',(42.5000006705523,-14.,-10.0000001490116));
#264=CARTESIAN_POINT('',(42.5000006705523,-11.,-10.0000001490116));
#265=CARTESIAN_POINT('',(42.5000006705523,-14.,-10.0000001490116));
#266=CARTESIAN_POINT('',(42.5000006705523,-11.,-50.0000001490116));
#267=CARTESIAN_POINT('',(42.5000006705523,-11.,-10.0000001490116));
#268=CARTESIAN_POINT('',(42.5000006705523,-14.,-50.0000001490116));
#269=CARTESIAN_POINT('Origin',(45.0000006705523,-14.,-50.0000001490116));
#270=CARTESIAN_POINT('',(47.5000006705523,-11.,-50.0000001490116));
#271=CARTESIAN_POINT('Origin',(45.0000006705523,-11.,-50.0000001490116));
#272=CARTESIAN_POINT('',(47.5000006705523,-14.,-50.0000001490116));
#273=CARTESIAN_POINT('',(47.5000006705523,-14.,-50.0000001490116));
#274=CARTESIAN_POINT('',(47.5000006705523,-14.,-50.0000001490116));
#275=CARTESIAN_POINT('Origin',(45.0000006705523,-14.,-50.0000001490116));
#276=CARTESIAN_POINT('Origin',(47.5000006705523,-14.,-10.0000001490116));
#277=CARTESIAN_POINT('',(47.5000006705523,-14.,-10.0000001490116));
#278=CARTESIAN_POINT('',(47.5000006705523,-14.,-50.0000001490116));
#279=CARTESIAN_POINT('',(47.5000006705523,-11.,-10.0000001490116));
#280=CARTESIAN_POINT('',(47.5000006705523,-11.,-50.0000001490116));
#281=CARTESIAN_POINT('',(47.5000006705523,-14.,-10.0000001490116));
#282=CARTESIAN_POINT('Origin',(45.0000006705523,-14.,-10.0000001490116));
#283=CARTESIAN_POINT('Origin',(45.0000006705523,-14.,-10.0000001490116));
#284=CARTESIAN_POINT('Origin',(45.0000006705523,-11.,-10.0000001490116));
#285=CARTESIAN_POINT('Origin',(45.0000006705523,-14.,-30.0000001490116));
#286=CARTESIAN_POINT('Origin',(45.0000006705523,-11.,-30.0000001490116));
#287=UNCERTAINTY_MEASURE_WITH_UNIT(LENGTH_MEASURE(0.01),#291,
'DISTANCE_ACCURACY_VALUE',
'Maximum model space distance between geometric entities at asserted c
onnectivities');
#288=UNCERTAINTY_MEASURE_WITH_UNIT(LENGTH_MEASURE(0.01),#291,
'DISTANCE_ACCURACY_VALUE',
'Maximum model space distance between geometric entities at asserted c
onnectivities');
#289=(
GEOMETRIC_REPRESENTATION_CONTEXT(3)
GLOBAL_UNCERTAINTY_ASSIGNED_CONTEXT((#287))
GLOBAL_UNIT_ASSIGNED_CONTEXT((#291,#293,#294))
REPRESENTATION_CONTEXT('','3D')
);
#290=(
GEOMETRIC_REPRESENTATION_CONTEXT(3)
GLOBAL_UNCERTAINTY_ASSIGNED_CONTEXT((#288))
GLOBAL_UNIT_ASSIGNED_CONTEXT((#291,#293,#294))
REPRESENTATION_CONTEXT('','3D')
);
#291=(
LENGTH_UNIT()
NAMED_UNIT(*)
SI_UNIT(.MILLI.,.METRE.)
);
#292=(
LENGTH_UNIT()
NAMED_UNIT(*)
SI_UNIT($,.METRE.)
);
#293=(
NAMED_UNIT(*)
PLANE_ANGLE_UNIT()
SI_UNIT($,.RADIAN.)
);
#294=(
NAMED_UNIT(*)
SI_UNIT($,.STERADIAN.)
SOLID_ANGLE_UNIT()
);
#295=SHAPE_DEFINITION_REPRESENTATION(#296,#297);
#296=PRODUCT_DEFINITION_SHAPE('',$,#299);
#297=SHAPE_REPRESENTATION('',(#176),#289);
#298=PRODUCT_DEFINITION_CONTEXT('part definition',#303,'design');
#299=PRODUCT_DEFINITION('Rear Long Bar','Rear Long Bar',#300,#298);
#300=PRODUCT_DEFINITION_FORMATION('',$,#305);
#301=PRODUCT_RELATED_PRODUCT_CATEGORY('Rear Long Bar','Rear Long Bar',(#305));
#302=APPLICATION_PROTOCOL_DEFINITION('international standard',
'automotive_design',2009,#303);
#303=APPLICATION_CONTEXT(
'Core Data for Automotive Mechanical Design Process');
#304=PRODUCT_CONTEXT('part definition',#303,'mechanical');
#305=PRODUCT('Rear Long Bar','Rear Long Bar',$,(#304));
#306=PRESENTATION_STYLE_ASSIGNMENT((#307));
#307=SURFACE_STYLE_USAGE(.BOTH.,#308);
#308=SURFACE_SIDE_STYLE('',(#309));
#309=SURFACE_STYLE_FILL_AREA(#310);
#310=FILL_AREA_STYLE('Steel - Satin',(#311));
#311=FILL_AREA_STYLE_COLOUR('Steel - Satin',#312);
#312=COLOUR_RGB('Steel - Satin',0.627450980392157,0.627450980392157,0.627450980392157);
ENDSEC;
END-ISO-10303-21;
