M48
; DRILL file {KiCad 9.0.6} date 2026-05-09T20:18:13+0200
; FORMAT={-:-/ absolute / metric / decimal}
; #@! TF.CreationDate,2026-05-09T20:18:13+02:00
; #@! TF.GenerationSoftware,Kicad,Pcbnew,9.0.6
; #@! TF.FileFunction,Plated,1,4,PTH
FMAT,2
METRIC
; #@! TA.AperFunction,Plated,PTH,ComponentDrill
T1C0.254
; #@! TA.AperFunction,Plated,PTH,ViaDrill
T2C0.300
; #@! TA.AperFunction,Plated,PTH,ComponentDrill
T3C0.610
; #@! TA.AperFunction,Plated,PTH,ComponentDrill
T4C0.750
; #@! TA.AperFunction,Plated,PTH,ComponentDrill
T5C0.889
; #@! TA.AperFunction,Plated,PTH,ComponentDrill
T6C1.000
; #@! TA.AperFunction,Plated,PTH,ComponentDrill
T7C1.346
%
G90
G05
T1
X153.641Y-109.856
X153.641Y-110.644
X154.429Y-109.856
X154.429Y-110.644
T2
X107.103Y-125.397
X107.669Y-124.831
X107.88Y-130.535
X107.88Y-148.035
X108.0Y-151.0
X108.085Y-122.415
X108.5Y-152.0
X109.0Y-155.0
X109.121Y-143.621
X109.873Y-124.0
X110.379Y-153.979
X110.4Y-117.0
X110.5Y-132.5
X110.635Y-114.125
X111.0Y-118.0
X111.0Y-119.5
X111.0Y-121.0
X111.0Y-136.0
X111.0Y-151.0
X111.02Y-128.5
X111.04Y-122.0
X111.176Y-154.05
X111.5Y-156.0
X111.6Y-117.0
X111.69Y-142.0
X111.69Y-148.035
X111.857Y-152.9
X111.98Y-123.0
X112.0Y-115.0
X112.0Y-122.0
X112.265Y-155.0
X112.698Y-126.607
X113.0Y-116.0
X113.0Y-118.0
X113.977Y-147.782
X114.0Y-114.0
X114.0Y-116.5
X114.0Y-124.5
X114.0Y-125.48
X114.0Y-136.0
X114.057Y-150.557
X114.23Y-130.535
X114.5Y-123.0
X114.9Y-150.5
X115.0Y-114.4
X115.0Y-115.395
X115.2Y-127.0
X115.5Y-128.5
X115.5Y-130.535
X115.6Y-139.385
X115.6Y-140.785
X115.6Y-142.185
X116.055Y-123.055
X116.5Y-115.0
X116.761Y-130.391
X117.0Y-126.178
X117.0Y-128.0
X117.0Y-128.885
X117.0Y-132.185
X117.0Y-139.385
X117.0Y-140.785
X117.0Y-142.185
X117.116Y-114.125
X117.4Y-117.0
X118.0Y-115.0
X118.0Y-118.0
X118.0Y-142.715
X118.04Y-148.035
X119.0Y-119.0
X119.5Y-116.0
X119.5Y-137.0
X121.0Y-114.5
X121.423Y-128.001
X121.789Y-112.309
X122.0Y-114.4
X122.51Y-150.0
X122.6Y-144.9
X123.0Y-126.0
X124.0Y-116.0
X124.356Y-123.533
X124.391Y-143.958
X124.497Y-130.0
X125.5Y-114.5
X125.51Y-150.0
X125.64Y-133.57
X126.42Y-122.58
X126.5Y-129.5
X126.54Y-150.0
X127.0Y-130.0
X127.045Y-126.762
X127.491Y-125.509
X127.5Y-150.0
X128.0Y-137.5
X128.0Y-138.5
X128.0Y-140.0
X128.0Y-141.0
X128.0Y-143.0
X128.19Y-142.0
X129.0Y-124.134
X129.39Y-142.25
X129.472Y-131.972
X129.5Y-124.908
X130.6Y-134.028
X130.6Y-136.3
X130.911Y-130.427
X130.99Y-142.5
X131.0Y-141.6
X131.125Y-137.1
X131.125Y-139.0
X131.841Y-128.0
X132.0Y-124.134
X132.0Y-140.0
X132.0Y-141.0
X132.0Y-144.0
X132.0Y-156.469
X132.5Y-124.908
X132.5Y-154.54
X132.9Y-148.365
X133.0Y-108.5
X133.0Y-130.0
X133.0Y-132.5
X133.0Y-138.05
X133.0Y-150.956
X133.0Y-152.156
X133.5Y-158.5
X133.6Y-137.0
X134.0Y-135.604
X134.063Y-149.059
X134.25Y-143.75
X134.5Y-139.0
X135.138Y-157.152
X135.648Y-152.497
X136.0Y-143.5
X136.0Y-144.75
X136.0Y-147.25
X136.5Y-157.177
X136.66Y-141.001
X137.45Y-137.95
X138.0Y-130.958
X138.0Y-136.5
X138.0Y-154.0
X139.726Y-139.726
X140.0Y-146.0
X140.269Y-132.731
X140.269Y-134.6
X142.0Y-135.0
X144.0Y-143.5
X145.0Y-113.123
X145.0Y-128.0
X145.0Y-142.0
X146.0Y-139.5
X146.0Y-142.0
X147.0Y-140.2
X147.931Y-141.931
X148.0Y-126.46
X148.0Y-147.0
X148.225Y-114.0
X149.49Y-112.0
X149.5Y-115.675
X149.519Y-111.0
X149.6Y-138.0
X149.6Y-143.6
X149.775Y-114.0
X149.875Y-139.0
X149.875Y-139.9
X149.875Y-142.5
X150.0Y-126.0
X150.0Y-131.5
X150.51Y-112.0
X150.95Y-115.5
X151.0Y-113.0
X152.5Y-115.5
X153.0Y-108.0
X153.279Y-113.222
X154.938Y-108.882
X155.0Y-114.0
X158.51Y-114.0
X158.825Y-108.0
X158.825Y-110.0
T4
X103.0Y-108.3
X103.0Y-110.3
X151.0Y-103.0
X151.0Y-105.0
T5
X120.0Y-101.7
X120.0Y-105.0
X122.5Y-101.7
X122.5Y-105.0
X125.0Y-101.7
X125.0Y-105.0
X137.65Y-104.8
X137.65Y-107.3
X137.65Y-109.8
X140.15Y-104.8
X140.15Y-107.3
X140.15Y-109.8
T6
X107.96Y-102.5
X110.5Y-102.5
X113.04Y-102.5
X157.0Y-126.96
X157.0Y-129.5
X157.0Y-132.04
T7
X136.8Y-101.6
X141.0Y-113.0
T3
G00X118.881Y-152.773
M15
G01X118.881Y-151.681
M16
G05
G00X118.881Y-156.77
M15
G01X118.881Y-155.983
M16
G05
G00X127.521Y-152.773
M15
G01X127.521Y-151.681
M16
G05
G00X127.521Y-156.77
M15
G01X127.521Y-155.983
M16
G05
M30
