%TF.GenerationSoftware,KiCad,Pcbnew,9.0.6*%
%TF.CreationDate,2026-05-09T20:18:15+02:00*%
%TF.ProjectId,Health One,4865616c-7468-4204-9f6e-652e6b696361,A*%
%TF.SameCoordinates,Original*%
%TF.FileFunction,Legend,Top*%
%TF.FilePolarity,Positive*%
%FSLAX46Y46*%
G04 Gerber Fmt 4.6, Leading zero omitted, Abs format (unit mm)*
G04 Created by KiCad (PCBNEW 9.0.6) date 2026-05-09 20:18:15*
%MOMM*%
%LPD*%
G01*
G04 APERTURE LIST*
%ADD10C,0.150000*%
%ADD11C,0.125000*%
%ADD12C,0.152400*%
%ADD13C,0.120000*%
%ADD14C,0.000000*%
%ADD15C,0.200000*%
%ADD16C,0.508000*%
%ADD17C,0.127000*%
G04 APERTURE END LIST*
D10*
X138934750Y-132404818D02*
X138934750Y-132642913D01*
X138696655Y-132547675D02*
X138934750Y-132642913D01*
X138934750Y-132642913D02*
X139172845Y-132547675D01*
X138791893Y-132833389D02*
X138934750Y-132642913D01*
X138934750Y-132642913D02*
X139077607Y-132833389D01*
D11*
X149416666Y-118724809D02*
X149250000Y-118486714D01*
X149130952Y-118724809D02*
X149130952Y-118224809D01*
X149130952Y-118224809D02*
X149321428Y-118224809D01*
X149321428Y-118224809D02*
X149369047Y-118248619D01*
X149369047Y-118248619D02*
X149392857Y-118272428D01*
X149392857Y-118272428D02*
X149416666Y-118320047D01*
X149416666Y-118320047D02*
X149416666Y-118391476D01*
X149416666Y-118391476D02*
X149392857Y-118439095D01*
X149392857Y-118439095D02*
X149369047Y-118462904D01*
X149369047Y-118462904D02*
X149321428Y-118486714D01*
X149321428Y-118486714D02*
X149130952Y-118486714D01*
X149702381Y-118439095D02*
X149654762Y-118415285D01*
X149654762Y-118415285D02*
X149630952Y-118391476D01*
X149630952Y-118391476D02*
X149607143Y-118343857D01*
X149607143Y-118343857D02*
X149607143Y-118320047D01*
X149607143Y-118320047D02*
X149630952Y-118272428D01*
X149630952Y-118272428D02*
X149654762Y-118248619D01*
X149654762Y-118248619D02*
X149702381Y-118224809D01*
X149702381Y-118224809D02*
X149797619Y-118224809D01*
X149797619Y-118224809D02*
X149845238Y-118248619D01*
X149845238Y-118248619D02*
X149869047Y-118272428D01*
X149869047Y-118272428D02*
X149892857Y-118320047D01*
X149892857Y-118320047D02*
X149892857Y-118343857D01*
X149892857Y-118343857D02*
X149869047Y-118391476D01*
X149869047Y-118391476D02*
X149845238Y-118415285D01*
X149845238Y-118415285D02*
X149797619Y-118439095D01*
X149797619Y-118439095D02*
X149702381Y-118439095D01*
X149702381Y-118439095D02*
X149654762Y-118462904D01*
X149654762Y-118462904D02*
X149630952Y-118486714D01*
X149630952Y-118486714D02*
X149607143Y-118534333D01*
X149607143Y-118534333D02*
X149607143Y-118629571D01*
X149607143Y-118629571D02*
X149630952Y-118677190D01*
X149630952Y-118677190D02*
X149654762Y-118701000D01*
X149654762Y-118701000D02*
X149702381Y-118724809D01*
X149702381Y-118724809D02*
X149797619Y-118724809D01*
X149797619Y-118724809D02*
X149845238Y-118701000D01*
X149845238Y-118701000D02*
X149869047Y-118677190D01*
X149869047Y-118677190D02*
X149892857Y-118629571D01*
X149892857Y-118629571D02*
X149892857Y-118534333D01*
X149892857Y-118534333D02*
X149869047Y-118486714D01*
X149869047Y-118486714D02*
X149845238Y-118462904D01*
X149845238Y-118462904D02*
X149797619Y-118439095D01*
D10*
X155180179Y-107714811D02*
X154942084Y-107714811D01*
X155037322Y-107476716D02*
X154942084Y-107714811D01*
X154942084Y-107714811D02*
X155037322Y-107952906D01*
X154751608Y-107571954D02*
X154942084Y-107714811D01*
X154942084Y-107714811D02*
X154751608Y-107857668D01*
D11*
X125216666Y-149324809D02*
X125050000Y-149086714D01*
X124930952Y-149324809D02*
X124930952Y-148824809D01*
X124930952Y-148824809D02*
X125121428Y-148824809D01*
X125121428Y-148824809D02*
X125169047Y-148848619D01*
X125169047Y-148848619D02*
X125192857Y-148872428D01*
X125192857Y-148872428D02*
X125216666Y-148920047D01*
X125216666Y-148920047D02*
X125216666Y-148991476D01*
X125216666Y-148991476D02*
X125192857Y-149039095D01*
X125192857Y-149039095D02*
X125169047Y-149062904D01*
X125169047Y-149062904D02*
X125121428Y-149086714D01*
X125121428Y-149086714D02*
X124930952Y-149086714D01*
X125383333Y-148824809D02*
X125692857Y-148824809D01*
X125692857Y-148824809D02*
X125526190Y-149015285D01*
X125526190Y-149015285D02*
X125597619Y-149015285D01*
X125597619Y-149015285D02*
X125645238Y-149039095D01*
X125645238Y-149039095D02*
X125669047Y-149062904D01*
X125669047Y-149062904D02*
X125692857Y-149110523D01*
X125692857Y-149110523D02*
X125692857Y-149229571D01*
X125692857Y-149229571D02*
X125669047Y-149277190D01*
X125669047Y-149277190D02*
X125645238Y-149301000D01*
X125645238Y-149301000D02*
X125597619Y-149324809D01*
X125597619Y-149324809D02*
X125454762Y-149324809D01*
X125454762Y-149324809D02*
X125407143Y-149301000D01*
X125407143Y-149301000D02*
X125383333Y-149277190D01*
X156880952Y-114824809D02*
X156880952Y-115229571D01*
X156880952Y-115229571D02*
X156904762Y-115277190D01*
X156904762Y-115277190D02*
X156928571Y-115301000D01*
X156928571Y-115301000D02*
X156976190Y-115324809D01*
X156976190Y-115324809D02*
X157071428Y-115324809D01*
X157071428Y-115324809D02*
X157119047Y-115301000D01*
X157119047Y-115301000D02*
X157142857Y-115277190D01*
X157142857Y-115277190D02*
X157166666Y-115229571D01*
X157166666Y-115229571D02*
X157166666Y-114824809D01*
X157666667Y-115324809D02*
X157380953Y-115324809D01*
X157523810Y-115324809D02*
X157523810Y-114824809D01*
X157523810Y-114824809D02*
X157476191Y-114896238D01*
X157476191Y-114896238D02*
X157428572Y-114943857D01*
X157428572Y-114943857D02*
X157380953Y-114967666D01*
X158095238Y-114991476D02*
X158095238Y-115324809D01*
X157976190Y-114801000D02*
X157857143Y-115158142D01*
X157857143Y-115158142D02*
X158166666Y-115158142D01*
X110095238Y-104924809D02*
X110095238Y-104424809D01*
X110095238Y-104424809D02*
X110261905Y-104781952D01*
X110261905Y-104781952D02*
X110428571Y-104424809D01*
X110428571Y-104424809D02*
X110428571Y-104924809D01*
X110928572Y-104924809D02*
X110642858Y-104924809D01*
X110785715Y-104924809D02*
X110785715Y-104424809D01*
X110785715Y-104424809D02*
X110738096Y-104496238D01*
X110738096Y-104496238D02*
X110690477Y-104543857D01*
X110690477Y-104543857D02*
X110642858Y-104567666D01*
X146916666Y-114677190D02*
X146892857Y-114701000D01*
X146892857Y-114701000D02*
X146821428Y-114724809D01*
X146821428Y-114724809D02*
X146773809Y-114724809D01*
X146773809Y-114724809D02*
X146702381Y-114701000D01*
X146702381Y-114701000D02*
X146654762Y-114653380D01*
X146654762Y-114653380D02*
X146630952Y-114605761D01*
X146630952Y-114605761D02*
X146607143Y-114510523D01*
X146607143Y-114510523D02*
X146607143Y-114439095D01*
X146607143Y-114439095D02*
X146630952Y-114343857D01*
X146630952Y-114343857D02*
X146654762Y-114296238D01*
X146654762Y-114296238D02*
X146702381Y-114248619D01*
X146702381Y-114248619D02*
X146773809Y-114224809D01*
X146773809Y-114224809D02*
X146821428Y-114224809D01*
X146821428Y-114224809D02*
X146892857Y-114248619D01*
X146892857Y-114248619D02*
X146916666Y-114272428D01*
X147083333Y-114224809D02*
X147392857Y-114224809D01*
X147392857Y-114224809D02*
X147226190Y-114415285D01*
X147226190Y-114415285D02*
X147297619Y-114415285D01*
X147297619Y-114415285D02*
X147345238Y-114439095D01*
X147345238Y-114439095D02*
X147369047Y-114462904D01*
X147369047Y-114462904D02*
X147392857Y-114510523D01*
X147392857Y-114510523D02*
X147392857Y-114629571D01*
X147392857Y-114629571D02*
X147369047Y-114677190D01*
X147369047Y-114677190D02*
X147345238Y-114701000D01*
X147345238Y-114701000D02*
X147297619Y-114724809D01*
X147297619Y-114724809D02*
X147154762Y-114724809D01*
X147154762Y-114724809D02*
X147107143Y-114701000D01*
X147107143Y-114701000D02*
X147083333Y-114677190D01*
D10*
X141954819Y-140199999D02*
X142192914Y-140199999D01*
X142097676Y-140438094D02*
X142192914Y-140199999D01*
X142192914Y-140199999D02*
X142097676Y-139961904D01*
X142383390Y-140342856D02*
X142192914Y-140199999D01*
X142192914Y-140199999D02*
X142383390Y-140057142D01*
X134083700Y-154954819D02*
X134083700Y-155192914D01*
X133845605Y-155097676D02*
X134083700Y-155192914D01*
X134083700Y-155192914D02*
X134321795Y-155097676D01*
X133940843Y-155383390D02*
X134083700Y-155192914D01*
X134083700Y-155192914D02*
X134226557Y-155383390D01*
D11*
X112816666Y-123177190D02*
X112792857Y-123201000D01*
X112792857Y-123201000D02*
X112721428Y-123224809D01*
X112721428Y-123224809D02*
X112673809Y-123224809D01*
X112673809Y-123224809D02*
X112602381Y-123201000D01*
X112602381Y-123201000D02*
X112554762Y-123153380D01*
X112554762Y-123153380D02*
X112530952Y-123105761D01*
X112530952Y-123105761D02*
X112507143Y-123010523D01*
X112507143Y-123010523D02*
X112507143Y-122939095D01*
X112507143Y-122939095D02*
X112530952Y-122843857D01*
X112530952Y-122843857D02*
X112554762Y-122796238D01*
X112554762Y-122796238D02*
X112602381Y-122748619D01*
X112602381Y-122748619D02*
X112673809Y-122724809D01*
X112673809Y-122724809D02*
X112721428Y-122724809D01*
X112721428Y-122724809D02*
X112792857Y-122748619D01*
X112792857Y-122748619D02*
X112816666Y-122772428D01*
X113269047Y-122724809D02*
X113030952Y-122724809D01*
X113030952Y-122724809D02*
X113007143Y-122962904D01*
X113007143Y-122962904D02*
X113030952Y-122939095D01*
X113030952Y-122939095D02*
X113078571Y-122915285D01*
X113078571Y-122915285D02*
X113197619Y-122915285D01*
X113197619Y-122915285D02*
X113245238Y-122939095D01*
X113245238Y-122939095D02*
X113269047Y-122962904D01*
X113269047Y-122962904D02*
X113292857Y-123010523D01*
X113292857Y-123010523D02*
X113292857Y-123129571D01*
X113292857Y-123129571D02*
X113269047Y-123177190D01*
X113269047Y-123177190D02*
X113245238Y-123201000D01*
X113245238Y-123201000D02*
X113197619Y-123224809D01*
X113197619Y-123224809D02*
X113078571Y-123224809D01*
X113078571Y-123224809D02*
X113030952Y-123201000D01*
X113030952Y-123201000D02*
X113007143Y-123177190D01*
X157916666Y-107024809D02*
X157750000Y-106786714D01*
X157630952Y-107024809D02*
X157630952Y-106524809D01*
X157630952Y-106524809D02*
X157821428Y-106524809D01*
X157821428Y-106524809D02*
X157869047Y-106548619D01*
X157869047Y-106548619D02*
X157892857Y-106572428D01*
X157892857Y-106572428D02*
X157916666Y-106620047D01*
X157916666Y-106620047D02*
X157916666Y-106691476D01*
X157916666Y-106691476D02*
X157892857Y-106739095D01*
X157892857Y-106739095D02*
X157869047Y-106762904D01*
X157869047Y-106762904D02*
X157821428Y-106786714D01*
X157821428Y-106786714D02*
X157630952Y-106786714D01*
X158345238Y-106524809D02*
X158250000Y-106524809D01*
X158250000Y-106524809D02*
X158202381Y-106548619D01*
X158202381Y-106548619D02*
X158178571Y-106572428D01*
X158178571Y-106572428D02*
X158130952Y-106643857D01*
X158130952Y-106643857D02*
X158107143Y-106739095D01*
X158107143Y-106739095D02*
X158107143Y-106929571D01*
X158107143Y-106929571D02*
X158130952Y-106977190D01*
X158130952Y-106977190D02*
X158154762Y-107001000D01*
X158154762Y-107001000D02*
X158202381Y-107024809D01*
X158202381Y-107024809D02*
X158297619Y-107024809D01*
X158297619Y-107024809D02*
X158345238Y-107001000D01*
X158345238Y-107001000D02*
X158369047Y-106977190D01*
X158369047Y-106977190D02*
X158392857Y-106929571D01*
X158392857Y-106929571D02*
X158392857Y-106810523D01*
X158392857Y-106810523D02*
X158369047Y-106762904D01*
X158369047Y-106762904D02*
X158345238Y-106739095D01*
X158345238Y-106739095D02*
X158297619Y-106715285D01*
X158297619Y-106715285D02*
X158202381Y-106715285D01*
X158202381Y-106715285D02*
X158154762Y-106739095D01*
X158154762Y-106739095D02*
X158130952Y-106762904D01*
X158130952Y-106762904D02*
X158107143Y-106810523D01*
X112816666Y-122277190D02*
X112792857Y-122301000D01*
X112792857Y-122301000D02*
X112721428Y-122324809D01*
X112721428Y-122324809D02*
X112673809Y-122324809D01*
X112673809Y-122324809D02*
X112602381Y-122301000D01*
X112602381Y-122301000D02*
X112554762Y-122253380D01*
X112554762Y-122253380D02*
X112530952Y-122205761D01*
X112530952Y-122205761D02*
X112507143Y-122110523D01*
X112507143Y-122110523D02*
X112507143Y-122039095D01*
X112507143Y-122039095D02*
X112530952Y-121943857D01*
X112530952Y-121943857D02*
X112554762Y-121896238D01*
X112554762Y-121896238D02*
X112602381Y-121848619D01*
X112602381Y-121848619D02*
X112673809Y-121824809D01*
X112673809Y-121824809D02*
X112721428Y-121824809D01*
X112721428Y-121824809D02*
X112792857Y-121848619D01*
X112792857Y-121848619D02*
X112816666Y-121872428D01*
X113245238Y-121991476D02*
X113245238Y-122324809D01*
X113126190Y-121801000D02*
X113007143Y-122158142D01*
X113007143Y-122158142D02*
X113316666Y-122158142D01*
X125333334Y-106701000D02*
X125404762Y-106724809D01*
X125404762Y-106724809D02*
X125523810Y-106724809D01*
X125523810Y-106724809D02*
X125571429Y-106701000D01*
X125571429Y-106701000D02*
X125595238Y-106677190D01*
X125595238Y-106677190D02*
X125619048Y-106629571D01*
X125619048Y-106629571D02*
X125619048Y-106581952D01*
X125619048Y-106581952D02*
X125595238Y-106534333D01*
X125595238Y-106534333D02*
X125571429Y-106510523D01*
X125571429Y-106510523D02*
X125523810Y-106486714D01*
X125523810Y-106486714D02*
X125428572Y-106462904D01*
X125428572Y-106462904D02*
X125380953Y-106439095D01*
X125380953Y-106439095D02*
X125357143Y-106415285D01*
X125357143Y-106415285D02*
X125333334Y-106367666D01*
X125333334Y-106367666D02*
X125333334Y-106320047D01*
X125333334Y-106320047D02*
X125357143Y-106272428D01*
X125357143Y-106272428D02*
X125380953Y-106248619D01*
X125380953Y-106248619D02*
X125428572Y-106224809D01*
X125428572Y-106224809D02*
X125547619Y-106224809D01*
X125547619Y-106224809D02*
X125619048Y-106248619D01*
X125785714Y-106224809D02*
X125904762Y-106724809D01*
X125904762Y-106724809D02*
X126000000Y-106367666D01*
X126000000Y-106367666D02*
X126095238Y-106724809D01*
X126095238Y-106724809D02*
X126214286Y-106224809D01*
X126666667Y-106724809D02*
X126380953Y-106724809D01*
X126523810Y-106724809D02*
X126523810Y-106224809D01*
X126523810Y-106224809D02*
X126476191Y-106296238D01*
X126476191Y-106296238D02*
X126428572Y-106343857D01*
X126428572Y-106343857D02*
X126380953Y-106367666D01*
D10*
X124454819Y-100599999D02*
X124692914Y-100599999D01*
X124597676Y-100838094D02*
X124692914Y-100599999D01*
X124692914Y-100599999D02*
X124597676Y-100361904D01*
X124883390Y-100742856D02*
X124692914Y-100599999D01*
X124692914Y-100599999D02*
X124883390Y-100457142D01*
D11*
X132906666Y-144394809D02*
X132740000Y-144156714D01*
X132620952Y-144394809D02*
X132620952Y-143894809D01*
X132620952Y-143894809D02*
X132811428Y-143894809D01*
X132811428Y-143894809D02*
X132859047Y-143918619D01*
X132859047Y-143918619D02*
X132882857Y-143942428D01*
X132882857Y-143942428D02*
X132906666Y-143990047D01*
X132906666Y-143990047D02*
X132906666Y-144061476D01*
X132906666Y-144061476D02*
X132882857Y-144109095D01*
X132882857Y-144109095D02*
X132859047Y-144132904D01*
X132859047Y-144132904D02*
X132811428Y-144156714D01*
X132811428Y-144156714D02*
X132620952Y-144156714D01*
X133382857Y-144394809D02*
X133097143Y-144394809D01*
X133240000Y-144394809D02*
X133240000Y-143894809D01*
X133240000Y-143894809D02*
X133192381Y-143966238D01*
X133192381Y-143966238D02*
X133144762Y-144013857D01*
X133144762Y-144013857D02*
X133097143Y-144037666D01*
X129478571Y-135824809D02*
X129311905Y-135586714D01*
X129192857Y-135824809D02*
X129192857Y-135324809D01*
X129192857Y-135324809D02*
X129383333Y-135324809D01*
X129383333Y-135324809D02*
X129430952Y-135348619D01*
X129430952Y-135348619D02*
X129454762Y-135372428D01*
X129454762Y-135372428D02*
X129478571Y-135420047D01*
X129478571Y-135420047D02*
X129478571Y-135491476D01*
X129478571Y-135491476D02*
X129454762Y-135539095D01*
X129454762Y-135539095D02*
X129430952Y-135562904D01*
X129430952Y-135562904D02*
X129383333Y-135586714D01*
X129383333Y-135586714D02*
X129192857Y-135586714D01*
X129954762Y-135824809D02*
X129669048Y-135824809D01*
X129811905Y-135824809D02*
X129811905Y-135324809D01*
X129811905Y-135324809D02*
X129764286Y-135396238D01*
X129764286Y-135396238D02*
X129716667Y-135443857D01*
X129716667Y-135443857D02*
X129669048Y-135467666D01*
X130383333Y-135491476D02*
X130383333Y-135824809D01*
X130264285Y-135301000D02*
X130145238Y-135658142D01*
X130145238Y-135658142D02*
X130454761Y-135658142D01*
X154195238Y-126624809D02*
X154195238Y-126124809D01*
X154195238Y-126124809D02*
X154361905Y-126481952D01*
X154361905Y-126481952D02*
X154528571Y-126124809D01*
X154528571Y-126124809D02*
X154528571Y-126624809D01*
X154742858Y-126172428D02*
X154766667Y-126148619D01*
X154766667Y-126148619D02*
X154814286Y-126124809D01*
X154814286Y-126124809D02*
X154933334Y-126124809D01*
X154933334Y-126124809D02*
X154980953Y-126148619D01*
X154980953Y-126148619D02*
X155004762Y-126172428D01*
X155004762Y-126172428D02*
X155028572Y-126220047D01*
X155028572Y-126220047D02*
X155028572Y-126267666D01*
X155028572Y-126267666D02*
X155004762Y-126339095D01*
X155004762Y-126339095D02*
X154719048Y-126624809D01*
X154719048Y-126624809D02*
X155028572Y-126624809D01*
X128516666Y-150277190D02*
X128492857Y-150301000D01*
X128492857Y-150301000D02*
X128421428Y-150324809D01*
X128421428Y-150324809D02*
X128373809Y-150324809D01*
X128373809Y-150324809D02*
X128302381Y-150301000D01*
X128302381Y-150301000D02*
X128254762Y-150253380D01*
X128254762Y-150253380D02*
X128230952Y-150205761D01*
X128230952Y-150205761D02*
X128207143Y-150110523D01*
X128207143Y-150110523D02*
X128207143Y-150039095D01*
X128207143Y-150039095D02*
X128230952Y-149943857D01*
X128230952Y-149943857D02*
X128254762Y-149896238D01*
X128254762Y-149896238D02*
X128302381Y-149848619D01*
X128302381Y-149848619D02*
X128373809Y-149824809D01*
X128373809Y-149824809D02*
X128421428Y-149824809D01*
X128421428Y-149824809D02*
X128492857Y-149848619D01*
X128492857Y-149848619D02*
X128516666Y-149872428D01*
X128992857Y-150324809D02*
X128707143Y-150324809D01*
X128850000Y-150324809D02*
X128850000Y-149824809D01*
X128850000Y-149824809D02*
X128802381Y-149896238D01*
X128802381Y-149896238D02*
X128754762Y-149943857D01*
X128754762Y-149943857D02*
X128707143Y-149967666D01*
D10*
X134434750Y-136704820D02*
X134434750Y-136942915D01*
X134196655Y-136847677D02*
X134434750Y-136942915D01*
X134434750Y-136942915D02*
X134672845Y-136847677D01*
X134291893Y-137133391D02*
X134434750Y-136942915D01*
X134434750Y-136942915D02*
X134577607Y-137133391D01*
D11*
X150216666Y-120324809D02*
X149978571Y-120324809D01*
X149978571Y-120324809D02*
X149978571Y-119824809D01*
X150645238Y-120324809D02*
X150359524Y-120324809D01*
X150502381Y-120324809D02*
X150502381Y-119824809D01*
X150502381Y-119824809D02*
X150454762Y-119896238D01*
X150454762Y-119896238D02*
X150407143Y-119943857D01*
X150407143Y-119943857D02*
X150359524Y-119967666D01*
X121916666Y-149424809D02*
X121750000Y-149186714D01*
X121630952Y-149424809D02*
X121630952Y-148924809D01*
X121630952Y-148924809D02*
X121821428Y-148924809D01*
X121821428Y-148924809D02*
X121869047Y-148948619D01*
X121869047Y-148948619D02*
X121892857Y-148972428D01*
X121892857Y-148972428D02*
X121916666Y-149020047D01*
X121916666Y-149020047D02*
X121916666Y-149091476D01*
X121916666Y-149091476D02*
X121892857Y-149139095D01*
X121892857Y-149139095D02*
X121869047Y-149162904D01*
X121869047Y-149162904D02*
X121821428Y-149186714D01*
X121821428Y-149186714D02*
X121630952Y-149186714D01*
X122345238Y-149091476D02*
X122345238Y-149424809D01*
X122226190Y-148901000D02*
X122107143Y-149258142D01*
X122107143Y-149258142D02*
X122416666Y-149258142D01*
X156619047Y-154074809D02*
X156619047Y-153574809D01*
X156619047Y-153812904D02*
X156904761Y-153812904D01*
X156904761Y-154074809D02*
X156904761Y-153574809D01*
X157357143Y-153741476D02*
X157357143Y-154074809D01*
X157238095Y-153551000D02*
X157119048Y-153908142D01*
X157119048Y-153908142D02*
X157428571Y-153908142D01*
X133633334Y-105101000D02*
X133704762Y-105124809D01*
X133704762Y-105124809D02*
X133823810Y-105124809D01*
X133823810Y-105124809D02*
X133871429Y-105101000D01*
X133871429Y-105101000D02*
X133895238Y-105077190D01*
X133895238Y-105077190D02*
X133919048Y-105029571D01*
X133919048Y-105029571D02*
X133919048Y-104981952D01*
X133919048Y-104981952D02*
X133895238Y-104934333D01*
X133895238Y-104934333D02*
X133871429Y-104910523D01*
X133871429Y-104910523D02*
X133823810Y-104886714D01*
X133823810Y-104886714D02*
X133728572Y-104862904D01*
X133728572Y-104862904D02*
X133680953Y-104839095D01*
X133680953Y-104839095D02*
X133657143Y-104815285D01*
X133657143Y-104815285D02*
X133633334Y-104767666D01*
X133633334Y-104767666D02*
X133633334Y-104720047D01*
X133633334Y-104720047D02*
X133657143Y-104672428D01*
X133657143Y-104672428D02*
X133680953Y-104648619D01*
X133680953Y-104648619D02*
X133728572Y-104624809D01*
X133728572Y-104624809D02*
X133847619Y-104624809D01*
X133847619Y-104624809D02*
X133919048Y-104648619D01*
X134085714Y-104624809D02*
X134204762Y-105124809D01*
X134204762Y-105124809D02*
X134300000Y-104767666D01*
X134300000Y-104767666D02*
X134395238Y-105124809D01*
X134395238Y-105124809D02*
X134514286Y-104624809D01*
X134680953Y-104672428D02*
X134704762Y-104648619D01*
X134704762Y-104648619D02*
X134752381Y-104624809D01*
X134752381Y-104624809D02*
X134871429Y-104624809D01*
X134871429Y-104624809D02*
X134919048Y-104648619D01*
X134919048Y-104648619D02*
X134942857Y-104672428D01*
X134942857Y-104672428D02*
X134966667Y-104720047D01*
X134966667Y-104720047D02*
X134966667Y-104767666D01*
X134966667Y-104767666D02*
X134942857Y-104839095D01*
X134942857Y-104839095D02*
X134657143Y-105124809D01*
X134657143Y-105124809D02*
X134966667Y-105124809D01*
X151641666Y-116677190D02*
X151617857Y-116701000D01*
X151617857Y-116701000D02*
X151546428Y-116724809D01*
X151546428Y-116724809D02*
X151498809Y-116724809D01*
X151498809Y-116724809D02*
X151427381Y-116701000D01*
X151427381Y-116701000D02*
X151379762Y-116653380D01*
X151379762Y-116653380D02*
X151355952Y-116605761D01*
X151355952Y-116605761D02*
X151332143Y-116510523D01*
X151332143Y-116510523D02*
X151332143Y-116439095D01*
X151332143Y-116439095D02*
X151355952Y-116343857D01*
X151355952Y-116343857D02*
X151379762Y-116296238D01*
X151379762Y-116296238D02*
X151427381Y-116248619D01*
X151427381Y-116248619D02*
X151498809Y-116224809D01*
X151498809Y-116224809D02*
X151546428Y-116224809D01*
X151546428Y-116224809D02*
X151617857Y-116248619D01*
X151617857Y-116248619D02*
X151641666Y-116272428D01*
X151832143Y-116272428D02*
X151855952Y-116248619D01*
X151855952Y-116248619D02*
X151903571Y-116224809D01*
X151903571Y-116224809D02*
X152022619Y-116224809D01*
X152022619Y-116224809D02*
X152070238Y-116248619D01*
X152070238Y-116248619D02*
X152094047Y-116272428D01*
X152094047Y-116272428D02*
X152117857Y-116320047D01*
X152117857Y-116320047D02*
X152117857Y-116367666D01*
X152117857Y-116367666D02*
X152094047Y-116439095D01*
X152094047Y-116439095D02*
X151808333Y-116724809D01*
X151808333Y-116724809D02*
X152117857Y-116724809D01*
X131406666Y-145394809D02*
X131240000Y-145156714D01*
X131120952Y-145394809D02*
X131120952Y-144894809D01*
X131120952Y-144894809D02*
X131311428Y-144894809D01*
X131311428Y-144894809D02*
X131359047Y-144918619D01*
X131359047Y-144918619D02*
X131382857Y-144942428D01*
X131382857Y-144942428D02*
X131406666Y-144990047D01*
X131406666Y-144990047D02*
X131406666Y-145061476D01*
X131406666Y-145061476D02*
X131382857Y-145109095D01*
X131382857Y-145109095D02*
X131359047Y-145132904D01*
X131359047Y-145132904D02*
X131311428Y-145156714D01*
X131311428Y-145156714D02*
X131120952Y-145156714D01*
X131597143Y-144942428D02*
X131620952Y-144918619D01*
X131620952Y-144918619D02*
X131668571Y-144894809D01*
X131668571Y-144894809D02*
X131787619Y-144894809D01*
X131787619Y-144894809D02*
X131835238Y-144918619D01*
X131835238Y-144918619D02*
X131859047Y-144942428D01*
X131859047Y-144942428D02*
X131882857Y-144990047D01*
X131882857Y-144990047D02*
X131882857Y-145037666D01*
X131882857Y-145037666D02*
X131859047Y-145109095D01*
X131859047Y-145109095D02*
X131573333Y-145394809D01*
X131573333Y-145394809D02*
X131882857Y-145394809D01*
X105919047Y-157224809D02*
X105919047Y-156724809D01*
X105919047Y-156962904D02*
X106204761Y-156962904D01*
X106204761Y-157224809D02*
X106204761Y-156724809D01*
X106395238Y-156724809D02*
X106704762Y-156724809D01*
X106704762Y-156724809D02*
X106538095Y-156915285D01*
X106538095Y-156915285D02*
X106609524Y-156915285D01*
X106609524Y-156915285D02*
X106657143Y-156939095D01*
X106657143Y-156939095D02*
X106680952Y-156962904D01*
X106680952Y-156962904D02*
X106704762Y-157010523D01*
X106704762Y-157010523D02*
X106704762Y-157129571D01*
X106704762Y-157129571D02*
X106680952Y-157177190D01*
X106680952Y-157177190D02*
X106657143Y-157201000D01*
X106657143Y-157201000D02*
X106609524Y-157224809D01*
X106609524Y-157224809D02*
X106466667Y-157224809D01*
X106466667Y-157224809D02*
X106419048Y-157201000D01*
X106419048Y-157201000D02*
X106395238Y-157177190D01*
X158719047Y-101024809D02*
X158719047Y-100524809D01*
X158719047Y-100762904D02*
X159004761Y-100762904D01*
X159004761Y-101024809D02*
X159004761Y-100524809D01*
X159219048Y-100572428D02*
X159242857Y-100548619D01*
X159242857Y-100548619D02*
X159290476Y-100524809D01*
X159290476Y-100524809D02*
X159409524Y-100524809D01*
X159409524Y-100524809D02*
X159457143Y-100548619D01*
X159457143Y-100548619D02*
X159480952Y-100572428D01*
X159480952Y-100572428D02*
X159504762Y-100620047D01*
X159504762Y-100620047D02*
X159504762Y-100667666D01*
X159504762Y-100667666D02*
X159480952Y-100739095D01*
X159480952Y-100739095D02*
X159195238Y-101024809D01*
X159195238Y-101024809D02*
X159504762Y-101024809D01*
X147933333Y-103724809D02*
X147933333Y-104081952D01*
X147933333Y-104081952D02*
X147909524Y-104153380D01*
X147909524Y-104153380D02*
X147861905Y-104201000D01*
X147861905Y-104201000D02*
X147790476Y-104224809D01*
X147790476Y-104224809D02*
X147742857Y-104224809D01*
X148433333Y-104224809D02*
X148147619Y-104224809D01*
X148290476Y-104224809D02*
X148290476Y-103724809D01*
X148290476Y-103724809D02*
X148242857Y-103796238D01*
X148242857Y-103796238D02*
X148195238Y-103843857D01*
X148195238Y-103843857D02*
X148147619Y-103867666D01*
X103078571Y-113724809D02*
X102840476Y-113724809D01*
X102840476Y-113724809D02*
X102840476Y-113224809D01*
X103221429Y-113701000D02*
X103292857Y-113724809D01*
X103292857Y-113724809D02*
X103411905Y-113724809D01*
X103411905Y-113724809D02*
X103459524Y-113701000D01*
X103459524Y-113701000D02*
X103483333Y-113677190D01*
X103483333Y-113677190D02*
X103507143Y-113629571D01*
X103507143Y-113629571D02*
X103507143Y-113581952D01*
X103507143Y-113581952D02*
X103483333Y-113534333D01*
X103483333Y-113534333D02*
X103459524Y-113510523D01*
X103459524Y-113510523D02*
X103411905Y-113486714D01*
X103411905Y-113486714D02*
X103316667Y-113462904D01*
X103316667Y-113462904D02*
X103269048Y-113439095D01*
X103269048Y-113439095D02*
X103245238Y-113415285D01*
X103245238Y-113415285D02*
X103221429Y-113367666D01*
X103221429Y-113367666D02*
X103221429Y-113320047D01*
X103221429Y-113320047D02*
X103245238Y-113272428D01*
X103245238Y-113272428D02*
X103269048Y-113248619D01*
X103269048Y-113248619D02*
X103316667Y-113224809D01*
X103316667Y-113224809D02*
X103435714Y-113224809D01*
X103435714Y-113224809D02*
X103507143Y-113248619D01*
X103983333Y-113724809D02*
X103697619Y-113724809D01*
X103840476Y-113724809D02*
X103840476Y-113224809D01*
X103840476Y-113224809D02*
X103792857Y-113296238D01*
X103792857Y-113296238D02*
X103745238Y-113343857D01*
X103745238Y-113343857D02*
X103697619Y-113367666D01*
X157916666Y-113224809D02*
X157750000Y-112986714D01*
X157630952Y-113224809D02*
X157630952Y-112724809D01*
X157630952Y-112724809D02*
X157821428Y-112724809D01*
X157821428Y-112724809D02*
X157869047Y-112748619D01*
X157869047Y-112748619D02*
X157892857Y-112772428D01*
X157892857Y-112772428D02*
X157916666Y-112820047D01*
X157916666Y-112820047D02*
X157916666Y-112891476D01*
X157916666Y-112891476D02*
X157892857Y-112939095D01*
X157892857Y-112939095D02*
X157869047Y-112962904D01*
X157869047Y-112962904D02*
X157821428Y-112986714D01*
X157821428Y-112986714D02*
X157630952Y-112986714D01*
X158369047Y-112724809D02*
X158130952Y-112724809D01*
X158130952Y-112724809D02*
X158107143Y-112962904D01*
X158107143Y-112962904D02*
X158130952Y-112939095D01*
X158130952Y-112939095D02*
X158178571Y-112915285D01*
X158178571Y-112915285D02*
X158297619Y-112915285D01*
X158297619Y-112915285D02*
X158345238Y-112939095D01*
X158345238Y-112939095D02*
X158369047Y-112962904D01*
X158369047Y-112962904D02*
X158392857Y-113010523D01*
X158392857Y-113010523D02*
X158392857Y-113129571D01*
X158392857Y-113129571D02*
X158369047Y-113177190D01*
X158369047Y-113177190D02*
X158345238Y-113201000D01*
X158345238Y-113201000D02*
X158297619Y-113224809D01*
X158297619Y-113224809D02*
X158178571Y-113224809D01*
X158178571Y-113224809D02*
X158130952Y-113201000D01*
X158130952Y-113201000D02*
X158107143Y-113177190D01*
X118419047Y-128424809D02*
X118419047Y-128829571D01*
X118419047Y-128829571D02*
X118442857Y-128877190D01*
X118442857Y-128877190D02*
X118466666Y-128901000D01*
X118466666Y-128901000D02*
X118514285Y-128924809D01*
X118514285Y-128924809D02*
X118609523Y-128924809D01*
X118609523Y-128924809D02*
X118657142Y-128901000D01*
X118657142Y-128901000D02*
X118680952Y-128877190D01*
X118680952Y-128877190D02*
X118704761Y-128829571D01*
X118704761Y-128829571D02*
X118704761Y-128424809D01*
X119204762Y-128924809D02*
X118919048Y-128924809D01*
X119061905Y-128924809D02*
X119061905Y-128424809D01*
X119061905Y-128424809D02*
X119014286Y-128496238D01*
X119014286Y-128496238D02*
X118966667Y-128543857D01*
X118966667Y-128543857D02*
X118919048Y-128567666D01*
D10*
X107494819Y-149419299D02*
X107732914Y-149419299D01*
X107637676Y-149657394D02*
X107732914Y-149419299D01*
X107732914Y-149419299D02*
X107637676Y-149181204D01*
X107923390Y-149562156D02*
X107732914Y-149419299D01*
X107732914Y-149419299D02*
X107923390Y-149276442D01*
D11*
X157916666Y-111424809D02*
X157750000Y-111186714D01*
X157630952Y-111424809D02*
X157630952Y-110924809D01*
X157630952Y-110924809D02*
X157821428Y-110924809D01*
X157821428Y-110924809D02*
X157869047Y-110948619D01*
X157869047Y-110948619D02*
X157892857Y-110972428D01*
X157892857Y-110972428D02*
X157916666Y-111020047D01*
X157916666Y-111020047D02*
X157916666Y-111091476D01*
X157916666Y-111091476D02*
X157892857Y-111139095D01*
X157892857Y-111139095D02*
X157869047Y-111162904D01*
X157869047Y-111162904D02*
X157821428Y-111186714D01*
X157821428Y-111186714D02*
X157630952Y-111186714D01*
X158083333Y-110924809D02*
X158416666Y-110924809D01*
X158416666Y-110924809D02*
X158202381Y-111424809D01*
X147357143Y-111724809D02*
X147642857Y-111724809D01*
X147500000Y-112224809D02*
X147500000Y-111724809D01*
X147809523Y-112224809D02*
X147809523Y-111724809D01*
X147809523Y-111962904D02*
X148095237Y-111962904D01*
X148095237Y-112224809D02*
X148095237Y-111724809D01*
X148595238Y-112224809D02*
X148309524Y-112224809D01*
X148452381Y-112224809D02*
X148452381Y-111724809D01*
X148452381Y-111724809D02*
X148404762Y-111796238D01*
X148404762Y-111796238D02*
X148357143Y-111843857D01*
X148357143Y-111843857D02*
X148309524Y-111867666D01*
D10*
X113739199Y-126185019D02*
X113739199Y-126423114D01*
X113501104Y-126327876D02*
X113739199Y-126423114D01*
X113739199Y-126423114D02*
X113977294Y-126327876D01*
X113596342Y-126613590D02*
X113739199Y-126423114D01*
X113739199Y-126423114D02*
X113882056Y-126613590D01*
D11*
X129219047Y-155224809D02*
X129219047Y-155629571D01*
X129219047Y-155629571D02*
X129242857Y-155677190D01*
X129242857Y-155677190D02*
X129266666Y-155701000D01*
X129266666Y-155701000D02*
X129314285Y-155724809D01*
X129314285Y-155724809D02*
X129409523Y-155724809D01*
X129409523Y-155724809D02*
X129457142Y-155701000D01*
X129457142Y-155701000D02*
X129480952Y-155677190D01*
X129480952Y-155677190D02*
X129504761Y-155629571D01*
X129504761Y-155629571D02*
X129504761Y-155224809D01*
X129957143Y-155391476D02*
X129957143Y-155724809D01*
X129838095Y-155201000D02*
X129719048Y-155558142D01*
X129719048Y-155558142D02*
X130028571Y-155558142D01*
X146416666Y-115724809D02*
X146250000Y-115486714D01*
X146130952Y-115724809D02*
X146130952Y-115224809D01*
X146130952Y-115224809D02*
X146321428Y-115224809D01*
X146321428Y-115224809D02*
X146369047Y-115248619D01*
X146369047Y-115248619D02*
X146392857Y-115272428D01*
X146392857Y-115272428D02*
X146416666Y-115320047D01*
X146416666Y-115320047D02*
X146416666Y-115391476D01*
X146416666Y-115391476D02*
X146392857Y-115439095D01*
X146392857Y-115439095D02*
X146369047Y-115462904D01*
X146369047Y-115462904D02*
X146321428Y-115486714D01*
X146321428Y-115486714D02*
X146130952Y-115486714D01*
X146654762Y-115724809D02*
X146750000Y-115724809D01*
X146750000Y-115724809D02*
X146797619Y-115701000D01*
X146797619Y-115701000D02*
X146821428Y-115677190D01*
X146821428Y-115677190D02*
X146869047Y-115605761D01*
X146869047Y-115605761D02*
X146892857Y-115510523D01*
X146892857Y-115510523D02*
X146892857Y-115320047D01*
X146892857Y-115320047D02*
X146869047Y-115272428D01*
X146869047Y-115272428D02*
X146845238Y-115248619D01*
X146845238Y-115248619D02*
X146797619Y-115224809D01*
X146797619Y-115224809D02*
X146702381Y-115224809D01*
X146702381Y-115224809D02*
X146654762Y-115248619D01*
X146654762Y-115248619D02*
X146630952Y-115272428D01*
X146630952Y-115272428D02*
X146607143Y-115320047D01*
X146607143Y-115320047D02*
X146607143Y-115439095D01*
X146607143Y-115439095D02*
X146630952Y-115486714D01*
X146630952Y-115486714D02*
X146654762Y-115510523D01*
X146654762Y-115510523D02*
X146702381Y-115534333D01*
X146702381Y-115534333D02*
X146797619Y-115534333D01*
X146797619Y-115534333D02*
X146845238Y-115510523D01*
X146845238Y-115510523D02*
X146869047Y-115486714D01*
X146869047Y-115486714D02*
X146892857Y-115439095D01*
X133578571Y-116424809D02*
X133411905Y-116186714D01*
X133292857Y-116424809D02*
X133292857Y-115924809D01*
X133292857Y-115924809D02*
X133483333Y-115924809D01*
X133483333Y-115924809D02*
X133530952Y-115948619D01*
X133530952Y-115948619D02*
X133554762Y-115972428D01*
X133554762Y-115972428D02*
X133578571Y-116020047D01*
X133578571Y-116020047D02*
X133578571Y-116091476D01*
X133578571Y-116091476D02*
X133554762Y-116139095D01*
X133554762Y-116139095D02*
X133530952Y-116162904D01*
X133530952Y-116162904D02*
X133483333Y-116186714D01*
X133483333Y-116186714D02*
X133292857Y-116186714D01*
X134054762Y-116424809D02*
X133769048Y-116424809D01*
X133911905Y-116424809D02*
X133911905Y-115924809D01*
X133911905Y-115924809D02*
X133864286Y-115996238D01*
X133864286Y-115996238D02*
X133816667Y-116043857D01*
X133816667Y-116043857D02*
X133769048Y-116067666D01*
X134483333Y-115924809D02*
X134388095Y-115924809D01*
X134388095Y-115924809D02*
X134340476Y-115948619D01*
X134340476Y-115948619D02*
X134316666Y-115972428D01*
X134316666Y-115972428D02*
X134269047Y-116043857D01*
X134269047Y-116043857D02*
X134245238Y-116139095D01*
X134245238Y-116139095D02*
X134245238Y-116329571D01*
X134245238Y-116329571D02*
X134269047Y-116377190D01*
X134269047Y-116377190D02*
X134292857Y-116401000D01*
X134292857Y-116401000D02*
X134340476Y-116424809D01*
X134340476Y-116424809D02*
X134435714Y-116424809D01*
X134435714Y-116424809D02*
X134483333Y-116401000D01*
X134483333Y-116401000D02*
X134507142Y-116377190D01*
X134507142Y-116377190D02*
X134530952Y-116329571D01*
X134530952Y-116329571D02*
X134530952Y-116210523D01*
X134530952Y-116210523D02*
X134507142Y-116162904D01*
X134507142Y-116162904D02*
X134483333Y-116139095D01*
X134483333Y-116139095D02*
X134435714Y-116115285D01*
X134435714Y-116115285D02*
X134340476Y-116115285D01*
X134340476Y-116115285D02*
X134292857Y-116139095D01*
X134292857Y-116139095D02*
X134269047Y-116162904D01*
X134269047Y-116162904D02*
X134245238Y-116210523D01*
X130219047Y-152924809D02*
X130219047Y-153329571D01*
X130219047Y-153329571D02*
X130242857Y-153377190D01*
X130242857Y-153377190D02*
X130266666Y-153401000D01*
X130266666Y-153401000D02*
X130314285Y-153424809D01*
X130314285Y-153424809D02*
X130409523Y-153424809D01*
X130409523Y-153424809D02*
X130457142Y-153401000D01*
X130457142Y-153401000D02*
X130480952Y-153377190D01*
X130480952Y-153377190D02*
X130504761Y-153329571D01*
X130504761Y-153329571D02*
X130504761Y-152924809D01*
X130695238Y-152924809D02*
X131004762Y-152924809D01*
X131004762Y-152924809D02*
X130838095Y-153115285D01*
X130838095Y-153115285D02*
X130909524Y-153115285D01*
X130909524Y-153115285D02*
X130957143Y-153139095D01*
X130957143Y-153139095D02*
X130980952Y-153162904D01*
X130980952Y-153162904D02*
X131004762Y-153210523D01*
X131004762Y-153210523D02*
X131004762Y-153329571D01*
X131004762Y-153329571D02*
X130980952Y-153377190D01*
X130980952Y-153377190D02*
X130957143Y-153401000D01*
X130957143Y-153401000D02*
X130909524Y-153424809D01*
X130909524Y-153424809D02*
X130766667Y-153424809D01*
X130766667Y-153424809D02*
X130719048Y-153401000D01*
X130719048Y-153401000D02*
X130695238Y-153377190D01*
X153024809Y-114521428D02*
X152786714Y-114688094D01*
X153024809Y-114807142D02*
X152524809Y-114807142D01*
X152524809Y-114807142D02*
X152524809Y-114616666D01*
X152524809Y-114616666D02*
X152548619Y-114569047D01*
X152548619Y-114569047D02*
X152572428Y-114545237D01*
X152572428Y-114545237D02*
X152620047Y-114521428D01*
X152620047Y-114521428D02*
X152691476Y-114521428D01*
X152691476Y-114521428D02*
X152739095Y-114545237D01*
X152739095Y-114545237D02*
X152762904Y-114569047D01*
X152762904Y-114569047D02*
X152786714Y-114616666D01*
X152786714Y-114616666D02*
X152786714Y-114807142D01*
X153024809Y-114045237D02*
X153024809Y-114330951D01*
X153024809Y-114188094D02*
X152524809Y-114188094D01*
X152524809Y-114188094D02*
X152596238Y-114235713D01*
X152596238Y-114235713D02*
X152643857Y-114283332D01*
X152643857Y-114283332D02*
X152667666Y-114330951D01*
X152524809Y-113735714D02*
X152524809Y-113688095D01*
X152524809Y-113688095D02*
X152548619Y-113640476D01*
X152548619Y-113640476D02*
X152572428Y-113616666D01*
X152572428Y-113616666D02*
X152620047Y-113592857D01*
X152620047Y-113592857D02*
X152715285Y-113569047D01*
X152715285Y-113569047D02*
X152834333Y-113569047D01*
X152834333Y-113569047D02*
X152929571Y-113592857D01*
X152929571Y-113592857D02*
X152977190Y-113616666D01*
X152977190Y-113616666D02*
X153001000Y-113640476D01*
X153001000Y-113640476D02*
X153024809Y-113688095D01*
X153024809Y-113688095D02*
X153024809Y-113735714D01*
X153024809Y-113735714D02*
X153001000Y-113783333D01*
X153001000Y-113783333D02*
X152977190Y-113807142D01*
X152977190Y-113807142D02*
X152929571Y-113830952D01*
X152929571Y-113830952D02*
X152834333Y-113854761D01*
X152834333Y-113854761D02*
X152715285Y-113854761D01*
X152715285Y-113854761D02*
X152620047Y-113830952D01*
X152620047Y-113830952D02*
X152572428Y-113807142D01*
X152572428Y-113807142D02*
X152548619Y-113783333D01*
X152548619Y-113783333D02*
X152524809Y-113735714D01*
X130462227Y-121212813D02*
X130428555Y-121212813D01*
X130428555Y-121212813D02*
X130361212Y-121179142D01*
X130361212Y-121179142D02*
X130327540Y-121145470D01*
X130327540Y-121145470D02*
X130293868Y-121078126D01*
X130293868Y-121078126D02*
X130293868Y-121010783D01*
X130293868Y-121010783D02*
X130310704Y-120960275D01*
X130310704Y-120960275D02*
X130361212Y-120876096D01*
X130361212Y-120876096D02*
X130411719Y-120825588D01*
X130411719Y-120825588D02*
X130495899Y-120775081D01*
X130495899Y-120775081D02*
X130546407Y-120758245D01*
X130546407Y-120758245D02*
X130613750Y-120758245D01*
X130613750Y-120758245D02*
X130681094Y-120791916D01*
X130681094Y-120791916D02*
X130714765Y-120825588D01*
X130714765Y-120825588D02*
X130748437Y-120892932D01*
X130748437Y-120892932D02*
X130748437Y-120926603D01*
X130664258Y-121280157D02*
X130832616Y-121448516D01*
X130529571Y-121347500D02*
X131000975Y-121111798D01*
X131000975Y-121111798D02*
X130765273Y-121583203D01*
X130883124Y-121701053D02*
X131236677Y-121347500D01*
X131236677Y-121347500D02*
X131101990Y-121717889D01*
X131101990Y-121717889D02*
X131472379Y-121583202D01*
X131472379Y-121583202D02*
X131118826Y-121936756D01*
X131472380Y-122290309D02*
X131270349Y-122088279D01*
X131371364Y-122189294D02*
X131724918Y-121835741D01*
X131724918Y-121835741D02*
X131640738Y-121852577D01*
X131640738Y-121852577D02*
X131573395Y-121852577D01*
X131573395Y-121852577D02*
X131522887Y-121835741D01*
X117945238Y-124824809D02*
X117945238Y-124324809D01*
X117945238Y-124324809D02*
X118111905Y-124681952D01*
X118111905Y-124681952D02*
X118278571Y-124324809D01*
X118278571Y-124324809D02*
X118278571Y-124824809D01*
X118516667Y-124824809D02*
X118516667Y-124324809D01*
X118802381Y-124824809D02*
X118588096Y-124539095D01*
X118802381Y-124324809D02*
X118516667Y-124610523D01*
X119278572Y-124824809D02*
X118992858Y-124824809D01*
X119135715Y-124824809D02*
X119135715Y-124324809D01*
X119135715Y-124324809D02*
X119088096Y-124396238D01*
X119088096Y-124396238D02*
X119040477Y-124443857D01*
X119040477Y-124443857D02*
X118992858Y-124467666D01*
X129452380Y-139172428D02*
X129404761Y-139148619D01*
X129404761Y-139148619D02*
X129357142Y-139101000D01*
X129357142Y-139101000D02*
X129285714Y-139029571D01*
X129285714Y-139029571D02*
X129238095Y-139005761D01*
X129238095Y-139005761D02*
X129190476Y-139005761D01*
X129214285Y-139124809D02*
X129166666Y-139101000D01*
X129166666Y-139101000D02*
X129119047Y-139053380D01*
X129119047Y-139053380D02*
X129095238Y-138958142D01*
X129095238Y-138958142D02*
X129095238Y-138791476D01*
X129095238Y-138791476D02*
X129119047Y-138696238D01*
X129119047Y-138696238D02*
X129166666Y-138648619D01*
X129166666Y-138648619D02*
X129214285Y-138624809D01*
X129214285Y-138624809D02*
X129309523Y-138624809D01*
X129309523Y-138624809D02*
X129357142Y-138648619D01*
X129357142Y-138648619D02*
X129404761Y-138696238D01*
X129404761Y-138696238D02*
X129428571Y-138791476D01*
X129428571Y-138791476D02*
X129428571Y-138958142D01*
X129428571Y-138958142D02*
X129404761Y-139053380D01*
X129404761Y-139053380D02*
X129357142Y-139101000D01*
X129357142Y-139101000D02*
X129309523Y-139124809D01*
X129309523Y-139124809D02*
X129214285Y-139124809D01*
X129904762Y-139124809D02*
X129619048Y-139124809D01*
X129761905Y-139124809D02*
X129761905Y-138624809D01*
X129761905Y-138624809D02*
X129714286Y-138696238D01*
X129714286Y-138696238D02*
X129666667Y-138743857D01*
X129666667Y-138743857D02*
X129619048Y-138767666D01*
X148178571Y-110224809D02*
X148011905Y-109986714D01*
X147892857Y-110224809D02*
X147892857Y-109724809D01*
X147892857Y-109724809D02*
X148083333Y-109724809D01*
X148083333Y-109724809D02*
X148130952Y-109748619D01*
X148130952Y-109748619D02*
X148154762Y-109772428D01*
X148154762Y-109772428D02*
X148178571Y-109820047D01*
X148178571Y-109820047D02*
X148178571Y-109891476D01*
X148178571Y-109891476D02*
X148154762Y-109939095D01*
X148154762Y-109939095D02*
X148130952Y-109962904D01*
X148130952Y-109962904D02*
X148083333Y-109986714D01*
X148083333Y-109986714D02*
X147892857Y-109986714D01*
X148654762Y-110224809D02*
X148369048Y-110224809D01*
X148511905Y-110224809D02*
X148511905Y-109724809D01*
X148511905Y-109724809D02*
X148464286Y-109796238D01*
X148464286Y-109796238D02*
X148416667Y-109843857D01*
X148416667Y-109843857D02*
X148369048Y-109867666D01*
X148821428Y-109724809D02*
X149130952Y-109724809D01*
X149130952Y-109724809D02*
X148964285Y-109915285D01*
X148964285Y-109915285D02*
X149035714Y-109915285D01*
X149035714Y-109915285D02*
X149083333Y-109939095D01*
X149083333Y-109939095D02*
X149107142Y-109962904D01*
X149107142Y-109962904D02*
X149130952Y-110010523D01*
X149130952Y-110010523D02*
X149130952Y-110129571D01*
X149130952Y-110129571D02*
X149107142Y-110177190D01*
X149107142Y-110177190D02*
X149083333Y-110201000D01*
X149083333Y-110201000D02*
X149035714Y-110224809D01*
X149035714Y-110224809D02*
X148892857Y-110224809D01*
X148892857Y-110224809D02*
X148845238Y-110201000D01*
X148845238Y-110201000D02*
X148821428Y-110177190D01*
X149678571Y-113224809D02*
X149511905Y-112986714D01*
X149392857Y-113224809D02*
X149392857Y-112724809D01*
X149392857Y-112724809D02*
X149583333Y-112724809D01*
X149583333Y-112724809D02*
X149630952Y-112748619D01*
X149630952Y-112748619D02*
X149654762Y-112772428D01*
X149654762Y-112772428D02*
X149678571Y-112820047D01*
X149678571Y-112820047D02*
X149678571Y-112891476D01*
X149678571Y-112891476D02*
X149654762Y-112939095D01*
X149654762Y-112939095D02*
X149630952Y-112962904D01*
X149630952Y-112962904D02*
X149583333Y-112986714D01*
X149583333Y-112986714D02*
X149392857Y-112986714D01*
X150154762Y-113224809D02*
X149869048Y-113224809D01*
X150011905Y-113224809D02*
X150011905Y-112724809D01*
X150011905Y-112724809D02*
X149964286Y-112796238D01*
X149964286Y-112796238D02*
X149916667Y-112843857D01*
X149916667Y-112843857D02*
X149869048Y-112867666D01*
X150345238Y-112772428D02*
X150369047Y-112748619D01*
X150369047Y-112748619D02*
X150416666Y-112724809D01*
X150416666Y-112724809D02*
X150535714Y-112724809D01*
X150535714Y-112724809D02*
X150583333Y-112748619D01*
X150583333Y-112748619D02*
X150607142Y-112772428D01*
X150607142Y-112772428D02*
X150630952Y-112820047D01*
X150630952Y-112820047D02*
X150630952Y-112867666D01*
X150630952Y-112867666D02*
X150607142Y-112939095D01*
X150607142Y-112939095D02*
X150321428Y-113224809D01*
X150321428Y-113224809D02*
X150630952Y-113224809D01*
X105019047Y-101024809D02*
X105019047Y-100524809D01*
X105019047Y-100762904D02*
X105304761Y-100762904D01*
X105304761Y-101024809D02*
X105304761Y-100524809D01*
X105804762Y-101024809D02*
X105519048Y-101024809D01*
X105661905Y-101024809D02*
X105661905Y-100524809D01*
X105661905Y-100524809D02*
X105614286Y-100596238D01*
X105614286Y-100596238D02*
X105566667Y-100643857D01*
X105566667Y-100643857D02*
X105519048Y-100667666D01*
X113816666Y-123777190D02*
X113792857Y-123801000D01*
X113792857Y-123801000D02*
X113721428Y-123824809D01*
X113721428Y-123824809D02*
X113673809Y-123824809D01*
X113673809Y-123824809D02*
X113602381Y-123801000D01*
X113602381Y-123801000D02*
X113554762Y-123753380D01*
X113554762Y-123753380D02*
X113530952Y-123705761D01*
X113530952Y-123705761D02*
X113507143Y-123610523D01*
X113507143Y-123610523D02*
X113507143Y-123539095D01*
X113507143Y-123539095D02*
X113530952Y-123443857D01*
X113530952Y-123443857D02*
X113554762Y-123396238D01*
X113554762Y-123396238D02*
X113602381Y-123348619D01*
X113602381Y-123348619D02*
X113673809Y-123324809D01*
X113673809Y-123324809D02*
X113721428Y-123324809D01*
X113721428Y-123324809D02*
X113792857Y-123348619D01*
X113792857Y-123348619D02*
X113816666Y-123372428D01*
X114245238Y-123324809D02*
X114150000Y-123324809D01*
X114150000Y-123324809D02*
X114102381Y-123348619D01*
X114102381Y-123348619D02*
X114078571Y-123372428D01*
X114078571Y-123372428D02*
X114030952Y-123443857D01*
X114030952Y-123443857D02*
X114007143Y-123539095D01*
X114007143Y-123539095D02*
X114007143Y-123729571D01*
X114007143Y-123729571D02*
X114030952Y-123777190D01*
X114030952Y-123777190D02*
X114054762Y-123801000D01*
X114054762Y-123801000D02*
X114102381Y-123824809D01*
X114102381Y-123824809D02*
X114197619Y-123824809D01*
X114197619Y-123824809D02*
X114245238Y-123801000D01*
X114245238Y-123801000D02*
X114269047Y-123777190D01*
X114269047Y-123777190D02*
X114292857Y-123729571D01*
X114292857Y-123729571D02*
X114292857Y-123610523D01*
X114292857Y-123610523D02*
X114269047Y-123562904D01*
X114269047Y-123562904D02*
X114245238Y-123539095D01*
X114245238Y-123539095D02*
X114197619Y-123515285D01*
X114197619Y-123515285D02*
X114102381Y-123515285D01*
X114102381Y-123515285D02*
X114054762Y-123539095D01*
X114054762Y-123539095D02*
X114030952Y-123562904D01*
X114030952Y-123562904D02*
X114007143Y-123610523D01*
X147678571Y-118724809D02*
X147511905Y-118486714D01*
X147392857Y-118724809D02*
X147392857Y-118224809D01*
X147392857Y-118224809D02*
X147583333Y-118224809D01*
X147583333Y-118224809D02*
X147630952Y-118248619D01*
X147630952Y-118248619D02*
X147654762Y-118272428D01*
X147654762Y-118272428D02*
X147678571Y-118320047D01*
X147678571Y-118320047D02*
X147678571Y-118391476D01*
X147678571Y-118391476D02*
X147654762Y-118439095D01*
X147654762Y-118439095D02*
X147630952Y-118462904D01*
X147630952Y-118462904D02*
X147583333Y-118486714D01*
X147583333Y-118486714D02*
X147392857Y-118486714D01*
X148154762Y-118724809D02*
X147869048Y-118724809D01*
X148011905Y-118724809D02*
X148011905Y-118224809D01*
X148011905Y-118224809D02*
X147964286Y-118296238D01*
X147964286Y-118296238D02*
X147916667Y-118343857D01*
X147916667Y-118343857D02*
X147869048Y-118367666D01*
X148630952Y-118724809D02*
X148345238Y-118724809D01*
X148488095Y-118724809D02*
X148488095Y-118224809D01*
X148488095Y-118224809D02*
X148440476Y-118296238D01*
X148440476Y-118296238D02*
X148392857Y-118343857D01*
X148392857Y-118343857D02*
X148345238Y-118367666D01*
D12*
%TO.C,U15*%
X140631450Y-135300999D02*
X142638050Y-135300999D01*
X142638050Y-131998999D02*
X140631450Y-131998999D01*
X142638050Y-134013260D02*
X142638050Y-133286738D01*
D13*
%TO.C,R8*%
X148977500Y-116262742D02*
X148977500Y-116737258D01*
X150022500Y-116262742D02*
X150022500Y-116737258D01*
D12*
%TO.C,U8*%
X152206000Y-108420812D02*
X152206000Y-109026882D01*
X152206000Y-111472740D02*
X152206000Y-112078810D01*
X152206000Y-112078810D02*
X152812258Y-112078810D01*
X152812258Y-108420812D02*
X152206000Y-108420812D01*
X155257740Y-112078810D02*
X155863998Y-112078810D01*
X155863998Y-108420812D02*
X155257740Y-108420812D01*
X155863998Y-109026882D02*
X155863998Y-108420812D01*
X155863998Y-112078810D02*
X155863998Y-111472740D01*
D14*
G36*
X153975500Y-112657810D02*
G01*
X153594499Y-112657810D01*
X153594499Y-112403810D01*
X153975500Y-112403810D01*
X153975500Y-112657810D01*
G37*
D13*
%TO.C,R3*%
X124846359Y-149620000D02*
X125153641Y-149620000D01*
X124846359Y-150380000D02*
X125153641Y-150380000D01*
D15*
%TO.C,U14*%
X153350000Y-113249998D02*
X153350000Y-115250000D01*
X156649998Y-113249998D02*
X156649998Y-115250000D01*
D14*
G36*
X156349999Y-113043285D02*
G01*
X156099999Y-113043285D01*
X156099999Y-112643283D01*
X156349999Y-112643283D01*
X156349999Y-113043285D01*
G37*
D13*
%TO.C,M1*%
X106580000Y-103880000D02*
X106580000Y-102500000D01*
X107960000Y-103880000D02*
X106580000Y-103880000D01*
X109230000Y-101120000D02*
X114420000Y-101120000D01*
X109230000Y-103880000D02*
X109230000Y-101120000D01*
X109230000Y-103880000D02*
X114420000Y-103880000D01*
X114420000Y-103880000D02*
X114420000Y-101120000D01*
%TO.C,C3*%
X149140580Y-113490000D02*
X148859420Y-113490000D01*
X149140580Y-114510000D02*
X148859420Y-114510000D01*
D12*
%TO.C,U6*%
X134678700Y-140678700D02*
X134678700Y-151321300D01*
X134678700Y-151321300D02*
X145321300Y-151321300D01*
X145321300Y-140678700D02*
X134678700Y-140678700D01*
X145321300Y-151321300D02*
X145321300Y-140678700D01*
%TO.C,U5*%
X134642500Y-154827600D02*
X134642500Y-155105818D01*
X134642500Y-157394182D02*
X134642500Y-157672400D01*
X134642500Y-157672400D02*
X135424720Y-157672400D01*
X135424720Y-154827600D02*
X134642500Y-154827600D01*
X137213080Y-157672400D02*
X137995300Y-157672400D01*
X137995300Y-154827600D02*
X137213080Y-154827600D01*
X137995300Y-155105818D02*
X137995300Y-154827600D01*
X137995300Y-157672400D02*
X137995300Y-157394182D01*
D14*
G36*
X138274700Y-156190501D02*
G01*
X138020700Y-156190501D01*
X138020700Y-155809500D01*
X138274700Y-155809500D01*
X138274700Y-156190501D01*
G37*
D12*
%TO.C,U7*%
X116025001Y-115187538D02*
X116025001Y-118093000D01*
X116025001Y-118093000D02*
X122375001Y-118093000D01*
X122375001Y-118093000D02*
X122375001Y-115187538D01*
D16*
X116900001Y-112570500D02*
G75*
G02*
X116138001Y-112570500I-381000J0D01*
G01*
X116138001Y-112570500D02*
G75*
G02*
X116900001Y-112570500I381000J0D01*
G01*
D12*
%TO.C,U9*%
X109025001Y-115187538D02*
X109025001Y-118093000D01*
X109025001Y-118093000D02*
X115375001Y-118093000D01*
X115375001Y-118093000D02*
X115375001Y-115187538D01*
D16*
X109900001Y-112570500D02*
G75*
G02*
X109138001Y-112570500I-381000J0D01*
G01*
X109138001Y-112570500D02*
G75*
G02*
X109900001Y-112570500I381000J0D01*
G01*
D13*
%TO.C,C5*%
X111392164Y-122640000D02*
X111607836Y-122640000D01*
X111392164Y-123360000D02*
X111607836Y-123360000D01*
%TO.C,R6*%
X157762742Y-107477500D02*
X158237258Y-107477500D01*
X157762742Y-108522500D02*
X158237258Y-108522500D01*
%TO.C,C4*%
X111412164Y-121640000D02*
X111627836Y-121640000D01*
X111412164Y-122360000D02*
X111627836Y-122360000D01*
D12*
%TO.C,SW1*%
X117877200Y-101419600D02*
X117877200Y-105280400D01*
X117877200Y-105280400D02*
X119007613Y-105280400D01*
X119007613Y-101419600D02*
X117877200Y-101419600D01*
X120992387Y-105280400D02*
X121507613Y-105280400D01*
X121507613Y-101419600D02*
X120992387Y-101419600D01*
X123492387Y-105280400D02*
X124007613Y-105280400D01*
X124007613Y-101419600D02*
X123492387Y-101419600D01*
X125992387Y-105280400D02*
X127122800Y-105280400D01*
X127122800Y-101419600D02*
X125992387Y-101419600D01*
X127122800Y-105280400D02*
X127122800Y-101419600D01*
D13*
%TO.C,R1*%
X133143641Y-142620000D02*
X132836359Y-142620000D01*
X133143641Y-143380000D02*
X132836359Y-143380000D01*
%TO.C,R14*%
X131663641Y-135120000D02*
X131356359Y-135120000D01*
X131663641Y-135880000D02*
X131356359Y-135880000D01*
%TO.C,M2*%
X155620000Y-125580000D02*
X157000000Y-125580000D01*
X155620000Y-126960000D02*
X155620000Y-125580000D01*
X155620000Y-128230000D02*
X155620000Y-133420000D01*
X155620000Y-128230000D02*
X158380000Y-128230000D01*
X155620000Y-133420000D02*
X158380000Y-133420000D01*
X158380000Y-128230000D02*
X158380000Y-133420000D01*
%TO.C,C1*%
X126912164Y-149640000D02*
X127127836Y-149640000D01*
X126912164Y-150360000D02*
X127127836Y-150360000D01*
D12*
%TO.C,U2*%
X135172901Y-152323600D02*
X135172901Y-154177800D01*
X137027101Y-154177800D02*
X137027101Y-152323600D01*
X135801601Y-154850700D02*
G75*
G02*
X135598401Y-154850700I-101600J0D01*
G01*
X135598401Y-154850700D02*
G75*
G02*
X135801601Y-154850700I101600J0D01*
G01*
%TO.C,U16*%
X136131450Y-139601001D02*
X138138050Y-139601001D01*
X138138050Y-136299001D02*
X136131450Y-136299001D01*
X138138050Y-138313262D02*
X138138050Y-137586740D01*
%TO.C,L1*%
X151228100Y-116969400D02*
X151228100Y-118516260D01*
X151228100Y-122483740D02*
X151228100Y-124030600D01*
X151228100Y-124030600D02*
X158771900Y-124030600D01*
X158771900Y-116969400D02*
X151228100Y-116969400D01*
X158771900Y-118516260D02*
X158771900Y-116969400D01*
X158771900Y-124030600D02*
X158771900Y-122483740D01*
X159476200Y-120500000D02*
G75*
G02*
X159323800Y-120500000I-76200J0D01*
G01*
X159323800Y-120500000D02*
G75*
G02*
X159476200Y-120500000I76200J0D01*
G01*
D13*
%TO.C,R4*%
X121846359Y-149620000D02*
X122153641Y-149620000D01*
X121846359Y-150380000D02*
X122153641Y-150380000D01*
D12*
%TO.C,SW2*%
X135471000Y-101172998D02*
X135471000Y-123423398D01*
X135471000Y-123423398D02*
X142329000Y-123423398D01*
X142329000Y-101172998D02*
X137985271Y-101172998D01*
X142329000Y-123423398D02*
X142329000Y-101172998D01*
D16*
X143345000Y-104799999D02*
G75*
G02*
X142583000Y-104799999I-381000J0D01*
G01*
X142583000Y-104799999D02*
G75*
G02*
X143345000Y-104799999I381000J0D01*
G01*
D13*
%TO.C,C2*%
X151865580Y-114990000D02*
X151584420Y-114990000D01*
X151865580Y-116010000D02*
X151584420Y-116010000D01*
%TO.C,R2*%
X131643641Y-143620000D02*
X131336359Y-143620000D01*
X131643641Y-144380000D02*
X131336359Y-144380000D01*
%TO.C,J1*%
X148890000Y-106110000D02*
X148890000Y-107360000D01*
X148890000Y-107360000D02*
X150140000Y-107360000D01*
X148990000Y-105300000D02*
X148990000Y-105600000D01*
X148990000Y-105600000D02*
X149190000Y-105600000D01*
X149090000Y-105300000D02*
X149090000Y-105600000D01*
X149190000Y-100940000D02*
X149190000Y-107060000D01*
X149190000Y-104500000D02*
X149800000Y-104500000D01*
X149190000Y-105300000D02*
X148990000Y-105300000D01*
X149190000Y-107060000D02*
X153910000Y-107060000D01*
X149800000Y-101550000D02*
X149800000Y-103500000D01*
X149800000Y-103500000D02*
X149190000Y-103500000D01*
X149800000Y-104500000D02*
X149800000Y-106450000D01*
X149800000Y-106450000D02*
X153300000Y-106450000D01*
X150500000Y-100940000D02*
X150500000Y-101550000D01*
X150500000Y-107060000D02*
X150500000Y-106450000D01*
X151800000Y-100940000D02*
X151800000Y-101550000D01*
X151800000Y-107060000D02*
X151800000Y-106450000D01*
X152800000Y-103900000D02*
X153300000Y-103900000D01*
X152800000Y-104100000D02*
X152800000Y-103900000D01*
X153300000Y-101550000D02*
X149800000Y-101550000D01*
X153300000Y-104000000D02*
X152800000Y-104000000D01*
X153300000Y-104100000D02*
X152800000Y-104100000D01*
X153300000Y-106450000D02*
X153300000Y-101550000D01*
X153910000Y-100940000D02*
X149190000Y-100940000D01*
X153910000Y-107060000D02*
X153910000Y-100940000D01*
%TO.C,LS1*%
X100890000Y-111410000D02*
X100890000Y-112660000D01*
X100890000Y-112660000D02*
X102140000Y-112660000D01*
X100990000Y-110600000D02*
X100990000Y-110900000D01*
X100990000Y-110900000D02*
X101190000Y-110900000D01*
X101090000Y-110600000D02*
X101090000Y-110900000D01*
X101190000Y-106240000D02*
X101190000Y-112360000D01*
X101190000Y-109800000D02*
X101800000Y-109800000D01*
X101190000Y-110600000D02*
X100990000Y-110600000D01*
X101190000Y-112360000D02*
X105910000Y-112360000D01*
X101800000Y-106850000D02*
X101800000Y-108800000D01*
X101800000Y-108800000D02*
X101190000Y-108800000D01*
X101800000Y-109800000D02*
X101800000Y-111750000D01*
X101800000Y-111750000D02*
X105300000Y-111750000D01*
X102500000Y-106240000D02*
X102500000Y-106850000D01*
X102500000Y-112360000D02*
X102500000Y-111750000D01*
X103800000Y-106240000D02*
X103800000Y-106850000D01*
X103800000Y-112360000D02*
X103800000Y-111750000D01*
X104800000Y-109200000D02*
X105300000Y-109200000D01*
X104800000Y-109400000D02*
X104800000Y-109200000D01*
X105300000Y-106850000D02*
X101800000Y-106850000D01*
X105300000Y-109300000D02*
X104800000Y-109300000D01*
X105300000Y-109400000D02*
X104800000Y-109400000D01*
X105300000Y-111750000D02*
X105300000Y-106850000D01*
X105910000Y-106240000D02*
X101190000Y-106240000D01*
X105910000Y-112360000D02*
X105910000Y-106240000D01*
%TO.C,R5*%
X157846359Y-113620000D02*
X158153641Y-113620000D01*
X157846359Y-114380000D02*
X158153641Y-114380000D01*
D12*
%TO.C,U1*%
X125129140Y-148416300D02*
X126017800Y-148416300D01*
X126017800Y-130153700D02*
X125129140Y-130153700D01*
X126017800Y-131560860D02*
X126017800Y-130153700D01*
X126017800Y-148416300D02*
X126017800Y-147009140D01*
D13*
%TO.C,R7*%
X157762742Y-109477500D02*
X158237258Y-109477500D01*
X157762742Y-110522500D02*
X158237258Y-110522500D01*
%TO.C,TH1*%
X149846359Y-111620000D02*
X150153641Y-111620000D01*
X149846359Y-112380000D02*
X150153641Y-112380000D01*
D12*
%TO.C,U13*%
X109573599Y-124053800D02*
X109573599Y-124520459D01*
X109573599Y-126939941D02*
X109573599Y-127406600D01*
X109573599Y-127406600D02*
X110040258Y-127406600D01*
X110040258Y-124053800D02*
X109573599Y-124053800D01*
X112459740Y-127406600D02*
X112926399Y-127406600D01*
X112926399Y-124053800D02*
X112459740Y-124053800D01*
X112926399Y-124520459D02*
X112926399Y-124053800D01*
X112926399Y-127406600D02*
X112926399Y-126939941D01*
D14*
G36*
X109141799Y-125670701D02*
G01*
X108887799Y-125670701D01*
X108887799Y-125289700D01*
X109141799Y-125289700D01*
X109141799Y-125670701D01*
G37*
D17*
%TO.C,U4*%
X130405001Y-154719200D02*
X130405001Y-157719200D01*
X133595001Y-157719200D02*
X133595001Y-154719200D01*
D15*
X133100001Y-153919200D02*
G75*
G02*
X132900001Y-153919200I-100000J0D01*
G01*
X132900001Y-153919200D02*
G75*
G02*
X133100001Y-153919200I100000J0D01*
G01*
D13*
%TO.C,R9*%
X145977500Y-117262742D02*
X145977500Y-117737258D01*
X147022500Y-117262742D02*
X147022500Y-117737258D01*
%TO.C,R16*%
X133620000Y-114336359D02*
X133620000Y-114643641D01*
X134380000Y-114336359D02*
X134380000Y-114643641D01*
D12*
%TO.C,J2*%
X118603283Y-153620195D02*
X118603283Y-155135802D01*
X118603283Y-157617794D02*
X118603283Y-159103800D01*
X118603283Y-159103800D02*
X127798083Y-159103800D01*
X127798083Y-155135802D02*
X127798083Y-153620184D01*
X127798083Y-159103800D02*
X127798083Y-157617794D01*
D16*
X117206283Y-151433000D02*
G75*
G02*
X116444283Y-151433000I-381000J0D01*
G01*
X116444283Y-151433000D02*
G75*
G02*
X117206283Y-151433000I381000J0D01*
G01*
D17*
%TO.C,U3*%
X130500000Y-145600000D02*
X133500000Y-145600000D01*
X130500000Y-152400000D02*
X130500000Y-145600000D01*
X133500000Y-145600000D02*
X133500000Y-146425000D01*
X133500000Y-151575000D02*
X133500000Y-152400000D01*
X133500000Y-152400000D02*
X130500000Y-152400000D01*
D15*
X134300000Y-150905000D02*
G75*
G02*
X134100000Y-150905000I-100000J0D01*
G01*
X134100000Y-150905000D02*
G75*
G02*
X134300000Y-150905000I100000J0D01*
G01*
D13*
%TO.C,R10*%
X151336359Y-113620000D02*
X151643641Y-113620000D01*
X151336359Y-114380000D02*
X151643641Y-114380000D01*
D17*
%TO.C,CAM1*%
X121630835Y-121711597D02*
X121828825Y-121909587D01*
X124812816Y-118529616D02*
X121630835Y-121711597D01*
X135080006Y-135160768D02*
X135277996Y-135358758D01*
X135277996Y-135358758D02*
X138459977Y-132176777D01*
X138459977Y-132176777D02*
X124812816Y-118529616D01*
D15*
X131241422Y-133979899D02*
G75*
G02*
X131041422Y-133979899I-100000J0D01*
G01*
X131041422Y-133979899D02*
G75*
G02*
X131241422Y-133979899I100000J0D01*
G01*
D13*
%TO.C,MK1*%
X114675000Y-123786000D02*
X117525000Y-123786000D01*
X114675000Y-127486000D02*
X114675000Y-123786000D01*
X117225000Y-127486000D02*
X114675000Y-127486000D01*
X117525000Y-123786000D02*
X117525000Y-127186000D01*
X117525000Y-127766000D02*
X117525000Y-127486000D01*
X117805000Y-127486000D01*
X117525000Y-127766000D01*
G36*
X117525000Y-127766000D02*
G01*
X117525000Y-127486000D01*
X117805000Y-127486000D01*
X117525000Y-127766000D01*
G37*
D12*
%TO.C,U12*%
X107525001Y-151031999D02*
X107525001Y-153937461D01*
X113875001Y-151031999D02*
X107525001Y-151031999D01*
X113875001Y-153937461D02*
X113875001Y-151031999D01*
D16*
X113762001Y-156554499D02*
G75*
G02*
X113000001Y-156554499I-381000J0D01*
G01*
X113000001Y-156554499D02*
G75*
G02*
X113762001Y-156554499I381000J0D01*
G01*
D13*
%TO.C,Q1*%
X131302500Y-136490000D02*
X132822500Y-136490000D01*
X131302500Y-136540000D02*
X131302500Y-136490000D01*
X131302500Y-138440000D02*
X131302500Y-137660000D01*
X131302500Y-139610000D02*
X131302500Y-139560000D01*
X132822500Y-136490000D02*
X132822500Y-137490000D01*
X132822500Y-138610000D02*
X132822500Y-139610000D01*
X132822500Y-139610000D02*
X131302500Y-139610000D01*
X131002500Y-138000000D02*
X130522500Y-138000000D01*
X130762500Y-137670000D01*
X131002500Y-138000000D01*
G36*
X131002500Y-138000000D02*
G01*
X130522500Y-138000000D01*
X130762500Y-137670000D01*
X131002500Y-138000000D01*
G37*
D12*
%TO.C,U10*%
X145907000Y-137624999D02*
X145907000Y-143974999D01*
X145907000Y-143974999D02*
X148812462Y-143974999D01*
X148812462Y-137624999D02*
X145907000Y-137624999D01*
D16*
X151810500Y-138118999D02*
G75*
G02*
X151048500Y-138118999I-381000J0D01*
G01*
X151048500Y-138118999D02*
G75*
G02*
X151810500Y-138118999I381000J0D01*
G01*
D13*
%TO.C,R13*%
X149846359Y-110620000D02*
X150153641Y-110620000D01*
X149846359Y-111380000D02*
X150153641Y-111380000D01*
%TO.C,R12*%
X151846359Y-112620000D02*
X152153641Y-112620000D01*
X151846359Y-113380000D02*
X152153641Y-113380000D01*
%TO.C,C6*%
X113640000Y-125107836D02*
X113640000Y-124892164D01*
X114360000Y-125107836D02*
X114360000Y-124892164D01*
%TO.C,R11*%
X147620000Y-117153641D02*
X147620000Y-116846359D01*
X148380000Y-117153641D02*
X148380000Y-116846359D01*
%TD*%
M02*
