%TF.GenerationSoftware,KiCad,Pcbnew,9.0.6*%
%TF.CreationDate,2026-05-17T20:15:04+02:00*%
%TF.ProjectId,Cube OS,43756265-204f-4532-9e6b-696361645f70,A*%
%TF.SameCoordinates,Original*%
%TF.FileFunction,Paste,Top*%
%TF.FilePolarity,Positive*%
%FSLAX46Y46*%
G04 Gerber Fmt 4.6, Leading zero omitted, Abs format (unit mm)*
G04 Created by KiCad (PCBNEW 9.0.6) date 2026-05-17 20:15:04*
%MOMM*%
%LPD*%
G01*
G04 APERTURE LIST*
G04 Aperture macros list*
%AMRoundRect*
0 Rectangle with rounded corners*
0 $1 Rounding radius*
0 $2 $3 $4 $5 $6 $7 $8 $9 X,Y pos of 4 corners*
0 Add a 4 corners polygon primitive as box body*
4,1,4,$2,$3,$4,$5,$6,$7,$8,$9,$2,$3,0*
0 Add four circle primitives for the rounded corners*
1,1,$1+$1,$2,$3*
1,1,$1+$1,$4,$5*
1,1,$1+$1,$6,$7*
1,1,$1+$1,$8,$9*
0 Add four rect primitives between the rounded corners*
20,1,$1+$1,$2,$3,$4,$5,0*
20,1,$1+$1,$4,$5,$6,$7,0*
20,1,$1+$1,$6,$7,$8,$9,0*
20,1,$1+$1,$8,$9,$2,$3,0*%
%AMRotRect*
0 Rectangle, with rotation*
0 The origin of the aperture is its center*
0 $1 length*
0 $2 width*
0 $3 Rotation angle, in degrees counterclockwise*
0 Add horizontal line*
21,1,$1,$2,0,0,$3*%
G04 Aperture macros list end*
%ADD10C,0.000000*%
%ADD11C,0.010000*%
%ADD12RoundRect,0.135000X-0.135000X-0.185000X0.135000X-0.185000X0.135000X0.185000X-0.135000X0.185000X0*%
%ADD13RoundRect,0.200000X-0.275000X0.200000X-0.275000X-0.200000X0.275000X-0.200000X0.275000X0.200000X0*%
%ADD14RoundRect,0.200000X0.200000X0.275000X-0.200000X0.275000X-0.200000X-0.275000X0.200000X-0.275000X0*%
%ADD15RoundRect,0.250000X0.475000X-0.250000X0.475000X0.250000X-0.475000X0.250000X-0.475000X-0.250000X0*%
%ADD16R,0.300000X0.700000*%
%ADD17R,0.300000X1.000000*%
%ADD18R,0.249999X0.599999*%
%ADD19R,0.249999X0.900001*%
%ADD20RoundRect,0.225000X0.225000X0.250000X-0.225000X0.250000X-0.225000X-0.250000X0.225000X-0.250000X0*%
%ADD21R,0.533400X0.304800*%
%ADD22R,0.304800X0.533400*%
%ADD23RoundRect,0.140000X-0.170000X0.140000X-0.170000X-0.140000X0.170000X-0.140000X0.170000X0.140000X0*%
%ADD24RoundRect,0.140000X-0.140000X-0.170000X0.140000X-0.170000X0.140000X0.170000X-0.140000X0.170000X0*%
%ADD25RoundRect,0.200000X-0.200000X-0.275000X0.200000X-0.275000X0.200000X0.275000X-0.200000X0.275000X0*%
%ADD26RoundRect,0.135000X0.135000X0.185000X-0.135000X0.185000X-0.135000X-0.185000X0.135000X-0.185000X0*%
%ADD27C,0.152400*%
%ADD28R,0.304800X0.711200*%
%ADD29R,1.092200X0.508000*%
%ADD30R,0.977900X0.508000*%
%ADD31R,2.565400X3.302000*%
%ADD32RoundRect,0.200000X0.275000X-0.200000X0.275000X0.200000X-0.275000X0.200000X-0.275000X-0.200000X0*%
%ADD33R,0.812800X1.498600*%
%ADD34R,1.498600X0.812800*%
%ADD35R,0.889000X0.889000*%
%ADD36R,1.244600X1.244600*%
%ADD37RoundRect,0.135000X0.185000X-0.135000X0.185000X0.135000X-0.185000X0.135000X-0.185000X-0.135000X0*%
%ADD38R,0.812800X0.254000*%
%ADD39R,0.254000X0.812800*%
%ADD40RoundRect,0.135000X-0.185000X0.135000X-0.185000X-0.135000X0.185000X-0.135000X0.185000X0.135000X0*%
%ADD41R,0.254000X1.143000*%
%ADD42R,0.304800X1.143000*%
%ADD43R,1.600000X0.700000*%
%ADD44RotRect,0.300000X1.100000X135.000000*%
%ADD45RoundRect,0.140000X0.170000X-0.140000X0.170000X0.140000X-0.170000X0.140000X-0.170000X-0.140000X0*%
%ADD46RoundRect,0.150000X-0.587500X-0.150000X0.587500X-0.150000X0.587500X0.150000X-0.587500X0.150000X0*%
%ADD47R,0.700000X0.300000*%
%ADD48R,1.000000X0.300000*%
G04 APERTURE END LIST*
D10*
%TO.C,U8*%
G36*
X152960107Y-109614730D02*
G01*
X152159892Y-109614730D01*
X152159892Y-109384514D01*
X152960107Y-109384514D01*
X152960107Y-109614730D01*
G37*
G36*
X152960107Y-110114856D02*
G01*
X152159892Y-110114856D01*
X152159892Y-109884640D01*
X152960107Y-109884640D01*
X152960107Y-110114856D01*
G37*
G36*
X152960107Y-110614982D02*
G01*
X152159892Y-110614982D01*
X152159892Y-110384766D01*
X152960107Y-110384766D01*
X152960107Y-110614982D01*
G37*
G36*
X152960107Y-111115108D02*
G01*
X152159892Y-111115108D01*
X152159892Y-110884892D01*
X152960107Y-110884892D01*
X152960107Y-111115108D01*
G37*
G36*
X153400108Y-109174919D02*
G01*
X153169890Y-109174919D01*
X153169890Y-108374704D01*
X153400108Y-108374704D01*
X153400108Y-109174919D01*
G37*
G36*
X153400108Y-112124918D02*
G01*
X153169890Y-112124918D01*
X153169890Y-111324703D01*
X153400108Y-111324703D01*
X153400108Y-112124918D01*
G37*
G36*
X153900107Y-109174919D02*
G01*
X153669892Y-109174919D01*
X153669892Y-108374704D01*
X153900107Y-108374704D01*
X153900107Y-109174919D01*
G37*
G36*
X153900107Y-112124918D02*
G01*
X153669892Y-112124918D01*
X153669892Y-111324703D01*
X153900107Y-111324703D01*
X153900107Y-112124918D01*
G37*
G36*
X154400106Y-109174919D02*
G01*
X154169891Y-109174919D01*
X154169891Y-108374704D01*
X154400106Y-108374704D01*
X154400106Y-109174919D01*
G37*
G36*
X154400106Y-112124918D02*
G01*
X154169891Y-112124918D01*
X154169891Y-111324703D01*
X154400106Y-111324703D01*
X154400106Y-112124918D01*
G37*
G36*
X154900108Y-109174919D02*
G01*
X154669890Y-109174919D01*
X154669890Y-108374704D01*
X154900108Y-108374704D01*
X154900108Y-109174919D01*
G37*
G36*
X154900108Y-112124918D02*
G01*
X154669890Y-112124918D01*
X154669890Y-111324703D01*
X154900108Y-111324703D01*
X154900108Y-112124918D01*
G37*
G36*
X155910106Y-109614730D02*
G01*
X155109891Y-109614730D01*
X155109891Y-109384514D01*
X155910106Y-109384514D01*
X155910106Y-109614730D01*
G37*
G36*
X155910106Y-110114856D02*
G01*
X155109891Y-110114856D01*
X155109891Y-109884640D01*
X155910106Y-109884640D01*
X155910106Y-110114856D01*
G37*
G36*
X155910106Y-110614982D02*
G01*
X155109891Y-110614982D01*
X155109891Y-110384766D01*
X155910106Y-110384766D01*
X155910106Y-110614982D01*
G37*
G36*
X155910106Y-111115108D02*
G01*
X155109891Y-111115108D01*
X155109891Y-110884892D01*
X155910106Y-110884892D01*
X155910106Y-111115108D01*
G37*
G36*
X153541299Y-109614690D02*
G01*
X153399878Y-109756111D01*
X153259929Y-109756111D01*
X153259929Y-109474741D01*
X153541299Y-109474741D01*
X153541299Y-109614690D01*
G37*
G36*
X153541299Y-110884932D02*
G01*
X153541299Y-111024881D01*
X153259929Y-111024881D01*
X153259929Y-110743511D01*
X153399878Y-110743511D01*
X153541299Y-110884932D01*
G37*
G36*
X154810069Y-109756111D02*
G01*
X154670120Y-109756111D01*
X154528699Y-109614690D01*
X154528699Y-109474741D01*
X154810069Y-109474741D01*
X154810069Y-109756111D01*
G37*
G36*
X154810069Y-111024881D02*
G01*
X154528699Y-111024881D01*
X154528699Y-110884932D01*
X154670120Y-110743511D01*
X154810069Y-110743511D01*
X154810069Y-111024881D01*
G37*
G36*
X153541299Y-110097532D02*
G01*
X153541299Y-110402090D01*
X153399878Y-110543511D01*
X153259929Y-110543511D01*
X153259929Y-109956111D01*
X153399878Y-109956111D01*
X153541299Y-110097532D01*
G37*
G36*
X154328699Y-109614690D02*
G01*
X154187278Y-109756111D01*
X153882720Y-109756111D01*
X153741299Y-109614690D01*
X153741299Y-109474741D01*
X154328699Y-109474741D01*
X154328699Y-109614690D01*
G37*
G36*
X154328699Y-110884932D02*
G01*
X154328699Y-111024881D01*
X153741299Y-111024881D01*
X153741299Y-110884932D01*
X153882720Y-110743511D01*
X154187278Y-110743511D01*
X154328699Y-110884932D01*
G37*
G36*
X154810069Y-110543511D02*
G01*
X154670120Y-110543511D01*
X154528699Y-110402090D01*
X154528699Y-110097532D01*
X154670120Y-109956111D01*
X154810069Y-109956111D01*
X154810069Y-110543511D01*
G37*
G36*
X154328699Y-110097532D02*
G01*
X154328699Y-110402090D01*
X154187278Y-110543511D01*
X153882720Y-110543511D01*
X153741299Y-110402090D01*
X153741299Y-110097532D01*
X153882720Y-109956111D01*
X154187278Y-109956111D01*
X154328699Y-110097532D01*
G37*
%TO.C,U7*%
G36*
X140400109Y-120115110D02*
G01*
X139599894Y-120115110D01*
X139599894Y-119884892D01*
X140400109Y-119884892D01*
X140400109Y-120115110D01*
G37*
G36*
X140400109Y-120615109D02*
G01*
X139599894Y-120615109D01*
X139599894Y-120384894D01*
X140400109Y-120384894D01*
X140400109Y-120615109D01*
G37*
G36*
X140400109Y-121115108D02*
G01*
X139599894Y-121115108D01*
X139599894Y-120884893D01*
X140400109Y-120884893D01*
X140400109Y-121115108D01*
G37*
G36*
X140400109Y-121615110D02*
G01*
X139599894Y-121615110D01*
X139599894Y-121384892D01*
X140400109Y-121384892D01*
X140400109Y-121615110D01*
G37*
G36*
X140839920Y-119675109D02*
G01*
X140609704Y-119675109D01*
X140609704Y-118874894D01*
X140839920Y-118874894D01*
X140839920Y-119675109D01*
G37*
G36*
X140839920Y-122625108D02*
G01*
X140609704Y-122625108D01*
X140609704Y-121824893D01*
X140839920Y-121824893D01*
X140839920Y-122625108D01*
G37*
G36*
X141340046Y-119675109D02*
G01*
X141109830Y-119675109D01*
X141109830Y-118874894D01*
X141340046Y-118874894D01*
X141340046Y-119675109D01*
G37*
G36*
X141340046Y-122625108D02*
G01*
X141109830Y-122625108D01*
X141109830Y-121824893D01*
X141340046Y-121824893D01*
X141340046Y-122625108D01*
G37*
G36*
X141840172Y-119675109D02*
G01*
X141609956Y-119675109D01*
X141609956Y-118874894D01*
X141840172Y-118874894D01*
X141840172Y-119675109D01*
G37*
G36*
X141840172Y-122625108D02*
G01*
X141609956Y-122625108D01*
X141609956Y-121824893D01*
X141840172Y-121824893D01*
X141840172Y-122625108D01*
G37*
G36*
X142340298Y-119675109D02*
G01*
X142110082Y-119675109D01*
X142110082Y-118874894D01*
X142340298Y-118874894D01*
X142340298Y-119675109D01*
G37*
G36*
X142340298Y-122625108D02*
G01*
X142110082Y-122625108D01*
X142110082Y-121824893D01*
X142340298Y-121824893D01*
X142340298Y-122625108D01*
G37*
G36*
X143350108Y-120115110D02*
G01*
X142549893Y-120115110D01*
X142549893Y-119884892D01*
X143350108Y-119884892D01*
X143350108Y-120115110D01*
G37*
G36*
X143350108Y-120615109D02*
G01*
X142549893Y-120615109D01*
X142549893Y-120384894D01*
X143350108Y-120384894D01*
X143350108Y-120615109D01*
G37*
G36*
X143350108Y-121115108D02*
G01*
X142549893Y-121115108D01*
X142549893Y-120884893D01*
X143350108Y-120884893D01*
X143350108Y-121115108D01*
G37*
G36*
X143350108Y-121615110D02*
G01*
X142549893Y-121615110D01*
X142549893Y-121384892D01*
X143350108Y-121384892D01*
X143350108Y-121615110D01*
G37*
G36*
X141375001Y-120508580D02*
G01*
X141233580Y-120650001D01*
X140824931Y-120650001D01*
X140824931Y-120099931D01*
X141375001Y-120099931D01*
X141375001Y-120508580D01*
G37*
G36*
X141375001Y-120991422D02*
G01*
X141375001Y-121400071D01*
X140824931Y-121400071D01*
X140824931Y-120850001D01*
X141233580Y-120850001D01*
X141375001Y-120991422D01*
G37*
G36*
X142125071Y-120650001D02*
G01*
X141716422Y-120650001D01*
X141575001Y-120508580D01*
X141575001Y-120099931D01*
X142125071Y-120099931D01*
X142125071Y-120650001D01*
G37*
G36*
X142125071Y-121400071D02*
G01*
X141575001Y-121400071D01*
X141575001Y-120991422D01*
X141716422Y-120850001D01*
X142125071Y-120850001D01*
X142125071Y-121400071D01*
G37*
%TO.C,J2*%
G36*
X120221390Y-152004500D02*
G01*
X119611790Y-152004500D01*
X119611790Y-150861500D01*
X120221390Y-150861500D01*
X120221390Y-152004500D01*
G37*
D11*
%TO.C,CAM1*%
X123398602Y-121923729D02*
X123646090Y-121676241D01*
X124565328Y-122595480D01*
X123186470Y-123974339D01*
X121701546Y-122489414D01*
X122832917Y-121358043D01*
X123398602Y-121923729D01*
G36*
X123398602Y-121923729D02*
G01*
X123646090Y-121676241D01*
X124565328Y-122595480D01*
X123186470Y-123974339D01*
X121701546Y-122489414D01*
X122832917Y-121358043D01*
X123398602Y-121923729D01*
G37*
X135313352Y-133343503D02*
X135065864Y-133590991D01*
X135631550Y-134156676D01*
X134500179Y-135288047D01*
X133015254Y-133803123D01*
X134394113Y-132424265D01*
X135313352Y-133343503D01*
G36*
X135313352Y-133343503D02*
G01*
X135065864Y-133590991D01*
X135631550Y-134156676D01*
X134500179Y-135288047D01*
X133015254Y-133803123D01*
X134394113Y-132424265D01*
X135313352Y-133343503D01*
G37*
%TO.C,MK1*%
G36*
X114950000Y-127211000D02*
G01*
X115450000Y-127211000D01*
X115450000Y-126789000D01*
X114950000Y-126789000D01*
X114950000Y-127211000D01*
G37*
G36*
X115450000Y-126389000D02*
G01*
X114950000Y-126389000D01*
X114950000Y-125967000D01*
X115450000Y-125967000D01*
X115450000Y-126389000D01*
G37*
G36*
X116350000Y-127211000D02*
G01*
X115850000Y-127211000D01*
X115850000Y-126789000D01*
X116350000Y-126789000D01*
X116350000Y-127211000D01*
G37*
G36*
X116750000Y-126389000D02*
G01*
X117250000Y-126389000D01*
X117250000Y-125967000D01*
X116750000Y-125967000D01*
X116750000Y-126389000D01*
G37*
G36*
X117250000Y-127211000D02*
G01*
X116750000Y-127211000D01*
X116750000Y-126789000D01*
X117250000Y-126789000D01*
X117250000Y-127211000D01*
G37*
D10*
G36*
X116050000Y-124365700D02*
G01*
X115940200Y-124386700D01*
X115836800Y-124428900D01*
X115743700Y-124490700D01*
X115664700Y-124569700D01*
X115602900Y-124662800D01*
X115560700Y-124766200D01*
X115539700Y-124876000D01*
X115289000Y-124876000D01*
X115316600Y-124710500D01*
X115377500Y-124554300D01*
X115469200Y-124413800D01*
X115587800Y-124295200D01*
X115728300Y-124203500D01*
X115884500Y-124142600D01*
X116050000Y-124115000D01*
X116050000Y-124365700D01*
G37*
G36*
X115560700Y-125085800D02*
G01*
X115602900Y-125189200D01*
X115664700Y-125282300D01*
X115743700Y-125361300D01*
X115836800Y-125423100D01*
X115940200Y-125465300D01*
X116050000Y-125486300D01*
X116050000Y-125737000D01*
X115884500Y-125709400D01*
X115728300Y-125648500D01*
X115587800Y-125556800D01*
X115469200Y-125438200D01*
X115377500Y-125297700D01*
X115316600Y-125141500D01*
X115289000Y-124976000D01*
X115539700Y-124976000D01*
X115560700Y-125085800D01*
G37*
G36*
X116315500Y-124142600D02*
G01*
X116471700Y-124203500D01*
X116612200Y-124295200D01*
X116730800Y-124413800D01*
X116822500Y-124554300D01*
X116883400Y-124710500D01*
X116911000Y-124876000D01*
X116660300Y-124876000D01*
X116639300Y-124766200D01*
X116597100Y-124662800D01*
X116535300Y-124569700D01*
X116456300Y-124490700D01*
X116363200Y-124428900D01*
X116259800Y-124386700D01*
X116150000Y-124365700D01*
X116150000Y-124115000D01*
X116315500Y-124142600D01*
G37*
G36*
X116883400Y-125141500D02*
G01*
X116822500Y-125297700D01*
X116730800Y-125438200D01*
X116612200Y-125556800D01*
X116471700Y-125648500D01*
X116315500Y-125709400D01*
X116150000Y-125737000D01*
X116150000Y-125486300D01*
X116259800Y-125465300D01*
X116363200Y-125423100D01*
X116456300Y-125361300D01*
X116535300Y-125282300D01*
X116597100Y-125189200D01*
X116639300Y-125085800D01*
X116660300Y-124976000D01*
X116911000Y-124976000D01*
X116883400Y-125141500D01*
G37*
%TD*%
D12*
%TO.C,R20*%
X137500000Y-121000000D03*
X138520000Y-121000000D03*
%TD*%
D13*
%TO.C,R8*%
X149500000Y-115675000D03*
X149500000Y-117325000D03*
%TD*%
D14*
%TO.C,R19*%
X149325000Y-134750000D03*
X147675000Y-134750000D03*
%TD*%
D12*
%TO.C,R3*%
X124490000Y-150000000D03*
X125510000Y-150000000D03*
%TD*%
D15*
%TO.C,C11*%
X153250000Y-107000000D03*
X153250000Y-105100000D03*
%TD*%
D16*
%TO.C,U11*%
X129249992Y-115750000D03*
X128749993Y-115750000D03*
X128249991Y-115750000D03*
X127749992Y-115750000D03*
X127249993Y-115750000D03*
X126749992Y-115750000D03*
X126249993Y-115750000D03*
X125749991Y-115750000D03*
X125249992Y-115750000D03*
X124749993Y-115750000D03*
X124249992Y-115750000D03*
X123749993Y-115750000D03*
D17*
X130039992Y-113100000D03*
X122960007Y-113100000D03*
%TD*%
D18*
%TO.C,U14*%
X156000000Y-113349998D03*
X155499998Y-113349998D03*
X154999999Y-113349998D03*
X154500000Y-113349998D03*
X153999998Y-113349998D03*
D19*
X153999998Y-115000000D03*
X154500000Y-115000000D03*
X155499998Y-115000000D03*
X156000000Y-115000000D03*
%TD*%
D20*
%TO.C,C3*%
X149775000Y-114000000D03*
X148225000Y-114000000D03*
%TD*%
D21*
%TO.C,U5*%
X130000000Y-155499998D03*
X130000000Y-155999999D03*
X130000000Y-156499999D03*
X130000000Y-157000000D03*
D22*
X130681101Y-157177099D03*
X131181100Y-157177099D03*
X131681099Y-157177099D03*
D21*
X132362200Y-157000000D03*
X132362200Y-156499999D03*
X132362200Y-155999999D03*
X132362200Y-155499998D03*
D22*
X131681099Y-155322899D03*
X131181100Y-155322899D03*
X130681101Y-155322899D03*
%TD*%
D23*
%TO.C,C8*%
X128000000Y-131500000D03*
X128000000Y-132460000D03*
%TD*%
D16*
%TO.C,U9*%
X114949993Y-117370500D03*
X114449994Y-117370500D03*
X113949992Y-117370500D03*
X113449993Y-117370500D03*
X112949994Y-117370500D03*
X112449993Y-117370500D03*
X111949994Y-117370500D03*
X111449992Y-117370500D03*
X110949993Y-117370500D03*
X110449994Y-117370500D03*
X109949993Y-117370500D03*
X109449994Y-117370500D03*
D17*
X115739993Y-114720500D03*
X108660008Y-114720500D03*
%TD*%
D24*
%TO.C,C5*%
X111020000Y-123000000D03*
X111980000Y-123000000D03*
%TD*%
D12*
%TO.C,R22*%
X117480000Y-123000000D03*
X118500000Y-123000000D03*
%TD*%
D25*
%TO.C,R6*%
X157175000Y-108000000D03*
X158825000Y-108000000D03*
%TD*%
D24*
%TO.C,C4*%
X111040000Y-122000000D03*
X112000000Y-122000000D03*
%TD*%
D25*
%TO.C,R18*%
X115425000Y-158500000D03*
X117075000Y-158500000D03*
%TD*%
D26*
%TO.C,R1*%
X133500000Y-143000000D03*
X132480000Y-143000000D03*
%TD*%
%TO.C,R14*%
X132020000Y-135500000D03*
X131000000Y-135500000D03*
%TD*%
D24*
%TO.C,C1*%
X126540000Y-150000000D03*
X127500000Y-150000000D03*
%TD*%
D27*
%TO.C,U4*%
X142150000Y-133000000D03*
X142150000Y-132650000D03*
X142500000Y-133000000D03*
X142500000Y-132650000D03*
%TD*%
D28*
%TO.C,U2*%
X135700002Y-154000000D03*
X136500000Y-154000000D03*
X136500000Y-152501400D03*
X135700002Y-152501400D03*
D29*
X136100001Y-153250700D03*
%TD*%
D30*
%TO.C,U16*%
X135769500Y-137000000D03*
X135769500Y-137950001D03*
X135769500Y-138900002D03*
X138500000Y-138900002D03*
X138500000Y-137000000D03*
%TD*%
D31*
%TO.C,L1*%
X157514600Y-120500000D03*
X152485400Y-120500000D03*
%TD*%
D12*
%TO.C,R4*%
X121490000Y-150000000D03*
X122510000Y-150000000D03*
%TD*%
D20*
%TO.C,C2*%
X152500000Y-115500000D03*
X150950000Y-115500000D03*
%TD*%
D26*
%TO.C,R2*%
X132000000Y-144000000D03*
X130980000Y-144000000D03*
%TD*%
D32*
%TO.C,R23*%
X132750000Y-114250000D03*
X132750000Y-112600000D03*
%TD*%
D24*
%TO.C,C7*%
X140020000Y-137500000D03*
X140980000Y-137500000D03*
%TD*%
D12*
%TO.C,R21*%
X143980000Y-123500000D03*
X145000000Y-123500000D03*
%TD*%
D26*
%TO.C,R24*%
X133510000Y-103000000D03*
X132490000Y-103000000D03*
%TD*%
D12*
%TO.C,R5*%
X157490000Y-114000000D03*
X158510000Y-114000000D03*
%TD*%
D33*
%TO.C,U1*%
X107880000Y-148035000D03*
X109150000Y-148035000D03*
X110420000Y-148035000D03*
X111690000Y-148035000D03*
X112960000Y-148035000D03*
X114230000Y-148035000D03*
X115500000Y-148035000D03*
X116770000Y-148035000D03*
X118040000Y-148035000D03*
X119310000Y-148035000D03*
X120580000Y-148035000D03*
X121850000Y-148035000D03*
X123120000Y-148035000D03*
X124390000Y-148035000D03*
D34*
X125640000Y-146270000D03*
X125640000Y-145000000D03*
X125640000Y-143730000D03*
X125640000Y-142460000D03*
X125640000Y-141190000D03*
X125640000Y-139920000D03*
X125640000Y-138650000D03*
X125640000Y-137380000D03*
X125640000Y-136110000D03*
X125640000Y-134840000D03*
X125640000Y-133570000D03*
X125640000Y-132300000D03*
D33*
X124390000Y-130535000D03*
X123120000Y-130535000D03*
X121850000Y-130535000D03*
X120580000Y-130535000D03*
X119310000Y-130535000D03*
X118040000Y-130535000D03*
X116770000Y-130535000D03*
X115500000Y-130535000D03*
X114230000Y-130535000D03*
X112960000Y-130535000D03*
X111690000Y-130535000D03*
X110420000Y-130535000D03*
X109150000Y-130535000D03*
X107880000Y-130535000D03*
D35*
X115600000Y-140785000D03*
X114200000Y-142185000D03*
X115600000Y-142185000D03*
X117000000Y-142185000D03*
X117000000Y-140785000D03*
X117000000Y-139385000D03*
X115600000Y-139385000D03*
X114200000Y-139385000D03*
X114200000Y-140785000D03*
%TD*%
D36*
%TO.C,SW3*%
X139400000Y-107000000D03*
X134929600Y-107000000D03*
%TD*%
D25*
%TO.C,R7*%
X157175000Y-110000000D03*
X158825000Y-110000000D03*
%TD*%
D36*
%TO.C,SW4*%
X139435200Y-103000000D03*
X134964800Y-103000000D03*
%TD*%
D32*
%TO.C,R17*%
X118500000Y-114400000D03*
X118500000Y-112750000D03*
%TD*%
D37*
%TO.C,TH1*%
X156200000Y-142310000D03*
X156200000Y-141290000D03*
%TD*%
D38*
%TO.C,U13*%
X112697799Y-126480201D03*
X112697799Y-125980200D03*
X112697799Y-125480200D03*
X112697799Y-124980199D03*
D39*
X112000000Y-124282400D03*
X111499999Y-124282400D03*
X110999999Y-124282400D03*
X110499998Y-124282400D03*
D38*
X109802199Y-124980199D03*
X109802199Y-125480200D03*
X109802199Y-125980200D03*
X109802199Y-126480201D03*
D39*
X110499998Y-127178000D03*
X110999999Y-127178000D03*
X111499999Y-127178000D03*
X112000000Y-127178000D03*
D36*
X111249999Y-125730200D03*
%TD*%
D13*
%TO.C,R9*%
X146500000Y-116675000D03*
X146500000Y-118325000D03*
%TD*%
D12*
%TO.C,R15*%
X132490000Y-107000000D03*
X133510000Y-107000000D03*
%TD*%
D40*
%TO.C,R16*%
X146500000Y-152480000D03*
X146500000Y-153500000D03*
%TD*%
D41*
%TO.C,J2*%
X119738790Y-151648798D03*
X120594516Y-151648798D03*
D42*
X121950368Y-151648798D03*
X122950620Y-151648798D03*
X123450746Y-151648798D03*
X124450998Y-151648798D03*
D41*
X125806850Y-151648798D03*
X126662576Y-151648798D03*
X126306976Y-151648798D03*
X125451250Y-151648798D03*
D42*
X124951124Y-151648798D03*
X123950872Y-151648798D03*
X122450494Y-151648798D03*
X121450242Y-151648798D03*
D41*
X120950116Y-151648798D03*
X120094390Y-151648798D03*
%TD*%
D43*
%TO.C,U3*%
X132900000Y-150905000D03*
X132900000Y-149635000D03*
X132900000Y-148365000D03*
X132900000Y-147095000D03*
%TD*%
D12*
%TO.C,R10*%
X150980000Y-114000000D03*
X152000000Y-114000000D03*
%TD*%
D44*
%TO.C,CAM1*%
X132060660Y-133060661D03*
X131707107Y-132707107D03*
X131353554Y-132353554D03*
X131000000Y-132000000D03*
X130646447Y-131646447D03*
X130292893Y-131292894D03*
X129939340Y-130939340D03*
X129585787Y-130585787D03*
X129232233Y-130232234D03*
X128878680Y-129878680D03*
X128525126Y-129525127D03*
X128171573Y-129171573D03*
X127818020Y-128818020D03*
X127464466Y-128464467D03*
X127110913Y-128110913D03*
X126757359Y-127757360D03*
X126403806Y-127403806D03*
X126050253Y-127050253D03*
X125696699Y-126696700D03*
X125343146Y-126343146D03*
X124989593Y-125989593D03*
X124636039Y-125636039D03*
X124282486Y-125282486D03*
X123928932Y-124928933D03*
%TD*%
D16*
%TO.C,U12*%
X107950009Y-151754499D03*
X108450008Y-151754499D03*
X108950010Y-151754499D03*
X109450009Y-151754499D03*
X109950008Y-151754499D03*
X110450009Y-151754499D03*
X110950008Y-151754499D03*
X111450010Y-151754499D03*
X111950009Y-151754499D03*
X112450008Y-151754499D03*
X112950009Y-151754499D03*
X113450008Y-151754499D03*
D17*
X107160009Y-154404499D03*
X114239994Y-154404499D03*
%TD*%
D45*
%TO.C,C10*%
X151750000Y-107000000D03*
X151750000Y-106040000D03*
%TD*%
D46*
%TO.C,Q1*%
X131125000Y-137100000D03*
X131125000Y-139000000D03*
X133000000Y-138050000D03*
%TD*%
D47*
%TO.C,U10*%
X146629500Y-143549991D03*
X146629500Y-143049992D03*
X146629500Y-142549990D03*
X146629500Y-142049991D03*
X146629500Y-141549992D03*
X146629500Y-141049991D03*
X146629500Y-140549992D03*
X146629500Y-140049990D03*
X146629500Y-139549991D03*
X146629500Y-139049992D03*
X146629500Y-138549991D03*
X146629500Y-138049992D03*
D48*
X149279500Y-144339991D03*
X149279500Y-137260006D03*
%TD*%
D12*
%TO.C,R13*%
X149490000Y-111000000D03*
X150510000Y-111000000D03*
%TD*%
D23*
%TO.C,C9*%
X127500000Y-135000000D03*
X127500000Y-135960000D03*
%TD*%
D26*
%TO.C,R12*%
X152200000Y-113000000D03*
X151180000Y-113000000D03*
%TD*%
D45*
%TO.C,C6*%
X114000000Y-125480000D03*
X114000000Y-124520000D03*
%TD*%
D37*
%TO.C,R11*%
X148000000Y-117510000D03*
X148000000Y-116490000D03*
%TD*%
M02*
