M48
; DRILL file {KiCad 9.0.6} date 2026-05-23T13:13:27+0200
; FORMAT={-:-/ absolute / metric / decimal}
; #@! TF.CreationDate,2026-05-23T13:13:27+02:00
; #@! TF.GenerationSoftware,Kicad,Pcbnew,9.0.6
; #@! TF.FileFunction,Plated,1,4,PTH
FMAT,2
METRIC
; #@! TA.AperFunction,Plated,PTH,ComponentDrill
T1C0.254
; #@! TA.AperFunction,Plated,PTH,ViaDrill
T2C0.300
; #@! TA.AperFunction,Plated,PTH,ComponentDrill
T3C0.610
; #@! TA.AperFunction,Plated,PTH,ComponentDrill
T4C0.750
; #@! TA.AperFunction,Plated,PTH,ComponentDrill
T5C0.889
; #@! TA.AperFunction,Plated,PTH,ComponentDrill
T6C1.000
; #@! TA.AperFunction,Plated,PTH,ComponentDrill
T7C1.346
%
G90
G05
T1
X141.475Y-120.75
X153.641Y-109.856
X153.641Y-110.644
X154.429Y-109.856
X154.429Y-110.644
T2
X102.515Y-105.055
X102.515Y-112.675
X102.515Y-153.315
X105.055Y-102.515
X105.055Y-105.055
X105.055Y-107.595
X105.055Y-112.675
X105.055Y-153.315
X105.055Y-155.855
X105.055Y-158.395
X107.103Y-125.397
X107.595Y-102.515
X107.595Y-105.055
X107.595Y-107.595
X107.595Y-132.995
X107.595Y-135.535
X107.595Y-138.075
X107.595Y-140.615
X107.595Y-143.155
X107.595Y-153.315
X107.595Y-155.855
X107.595Y-158.395
X107.669Y-124.831
X107.88Y-130.535
X107.88Y-148.035
X107.9Y-151.754
X108.085Y-122.415
X108.75Y-146.25
X109.121Y-143.621
X109.873Y-124.0
X110.135Y-102.515
X110.135Y-105.055
X110.135Y-107.595
X110.135Y-110.135
X110.135Y-155.855
X110.135Y-158.395
X110.42Y-148.035
X110.5Y-117.37
X110.5Y-132.5
X111.0Y-121.0
X111.0Y-136.0
X111.02Y-128.5
X111.69Y-142.0
X111.69Y-148.035
X111.98Y-123.0
X112.0Y-122.0
X112.0Y-151.754
X112.15Y-110.6
X112.675Y-102.515
X112.675Y-105.055
X112.675Y-107.595
X112.675Y-138.075
X112.675Y-140.615
X112.675Y-158.395
X112.698Y-126.607
X113.0Y-113.0
X113.0Y-150.75
X113.357Y-116.62
X113.977Y-147.782
X114.0Y-119.0
X114.0Y-124.5
X114.0Y-125.48
X114.0Y-136.0
X114.057Y-150.557
X114.23Y-130.535
X114.25Y-139.45
X114.25Y-140.85
X114.25Y-142.25
X114.5Y-116.75
X114.5Y-123.0
X115.0Y-118.121
X115.2Y-127.0
X115.215Y-102.515
X115.215Y-105.055
X115.215Y-107.595
X115.215Y-132.995
X115.215Y-138.075
X115.5Y-128.5
X115.5Y-130.535
X115.5Y-155.5
X115.6Y-139.385
X115.6Y-140.785
X115.6Y-142.185
X115.852Y-114.833
X116.0Y-110.6
X116.25Y-152.75
X116.75Y-115.25
X116.761Y-130.391
X117.0Y-126.178
X117.0Y-128.0
X117.0Y-128.885
X117.0Y-132.185
X117.0Y-139.385
X117.0Y-140.785
X117.0Y-142.185
X117.0Y-156.75
X117.755Y-102.515
X117.755Y-105.055
X117.755Y-135.535
X118.0Y-142.715
X118.0Y-146.0
X118.04Y-148.035
X118.5Y-112.5
X118.5Y-155.4
X119.0Y-119.0
X119.016Y-117.484
X119.43Y-119.68
X119.495Y-122.995
X119.5Y-137.0
X120.295Y-102.515
X120.295Y-105.055
X120.295Y-132.995
X120.295Y-138.075
X120.5Y-126.5
X120.646Y-117.354
X120.875Y-114.375
X121.256Y-113.314
X121.423Y-128.001
X121.5Y-116.5
X121.62Y-112.0
X122.51Y-150.0
X122.6Y-144.9
X122.835Y-102.515
X122.835Y-105.055
X122.835Y-117.755
X122.835Y-132.995
X122.835Y-135.535
X122.835Y-138.075
X122.835Y-155.855
X123.0Y-115.75
X123.0Y-126.0
X123.01Y-122.666
X123.75Y-116.374
X123.875Y-117.375
X124.099Y-119.099
X124.356Y-123.533
X124.39Y-130.5
X124.8Y-115.75
X125.375Y-102.515
X125.375Y-105.055
X125.375Y-155.855
X125.51Y-150.0
X125.64Y-133.57
X125.75Y-115.0
X126.14Y-128.375
X126.42Y-122.58
X126.5Y-129.5
X126.54Y-148.5
X126.54Y-150.0
X126.75Y-116.5
X127.5Y-134.5
X127.5Y-135.96
X127.5Y-150.0
X127.607Y-127.181
X127.915Y-102.515
X127.915Y-105.055
X127.915Y-117.755
X127.915Y-120.295
X128.0Y-124.908
X128.0Y-132.46
X128.0Y-137.5
X128.0Y-138.5
X128.0Y-140.0
X128.0Y-141.0
X128.0Y-143.0
X128.19Y-142.0
X128.5Y-134.0
X128.5Y-154.75
X128.75Y-112.5
X128.8Y-114.55
X129.0Y-116.5
X129.0Y-135.0
X129.39Y-142.25
X129.472Y-131.972
X129.5Y-124.908
X129.5Y-127.0
X129.5Y-133.25
X130.455Y-102.515
X130.455Y-105.055
X130.455Y-115.215
X130.455Y-117.755
X130.455Y-122.835
X130.6Y-134.028
X130.6Y-136.3
X130.911Y-130.427
X130.99Y-142.5
X131.0Y-141.6
X131.125Y-137.1
X131.125Y-139.0
X131.287Y-125.713
X131.328Y-157.145
X131.5Y-156.019
X131.841Y-128.0
X132.0Y-134.0
X132.0Y-140.0
X132.0Y-141.0
X132.0Y-144.0
X132.49Y-107.0
X132.5Y-128.25
X132.75Y-112.5
X132.75Y-114.25
X132.9Y-148.365
X132.995Y-117.755
X132.995Y-120.295
X132.995Y-125.375
X133.0Y-130.0
X133.0Y-132.5
X133.0Y-138.05
X133.6Y-137.0
X133.626Y-132.187
X134.0Y-129.936
X134.0Y-135.604
X134.063Y-149.059
X134.25Y-143.75
X134.5Y-139.5
X134.5Y-155.5
X134.965Y-103.0
X135.0Y-153.652
X135.535Y-105.055
X135.535Y-115.215
X135.535Y-117.755
X135.535Y-120.295
X135.535Y-122.835
X136.0Y-143.5
X136.0Y-144.75
X136.0Y-147.25
X136.39Y-152.597
X136.5Y-150.5
X136.66Y-141.001
X137.45Y-137.95
X137.5Y-121.0
X137.5Y-125.75
X138.0Y-126.46
X138.0Y-130.958
X138.0Y-136.5
X138.0Y-154.0
X138.075Y-102.515
X138.075Y-105.055
X138.075Y-107.595
X138.075Y-115.215
X138.075Y-117.755
X138.075Y-143.155
X138.075Y-148.235
X138.075Y-155.855
X138.075Y-158.395
X138.25Y-111.5
X138.849Y-122.0
X139.4Y-107.0
X139.435Y-103.0
X139.5Y-127.5
X139.952Y-139.502
X140.0Y-146.0
X140.615Y-102.515
X140.615Y-105.055
X140.615Y-107.595
X140.615Y-117.755
X140.615Y-130.455
X140.615Y-143.155
X140.615Y-148.235
X140.615Y-150.775
X140.615Y-153.315
X140.615Y-155.855
X141.0Y-137.5
X141.5Y-122.075
X142.0Y-131.5
X142.0Y-135.0
X142.0Y-136.0
X142.0Y-137.055
X142.75Y-123.25
X143.155Y-102.515
X143.155Y-105.055
X143.155Y-115.215
X143.155Y-125.375
X143.155Y-143.155
X143.155Y-145.695
X143.155Y-148.235
X143.155Y-150.775
X143.155Y-153.315
X143.304Y-132.304
X143.75Y-139.55
X144.0Y-120.5
X144.0Y-121.25
X144.0Y-140.55
X145.0Y-128.0
X145.0Y-134.5
X145.459Y-120.449
X145.5Y-139.55
X145.5Y-141.55
X145.695Y-102.515
X145.695Y-105.055
X145.695Y-115.215
X145.695Y-122.835
X145.695Y-130.455
X145.695Y-135.535
X145.695Y-145.695
X145.695Y-148.235
X145.695Y-150.775
X145.695Y-155.855
X145.695Y-158.395
X145.88Y-142.212
X145.993Y-143.542
X146.5Y-153.5
X146.722Y-131.722
X146.75Y-126.25
X146.75Y-128.0
X147.331Y-138.709
X147.863Y-111.863
X148.0Y-113.0
X148.0Y-147.0
X148.225Y-114.0
X148.235Y-102.515
X148.235Y-105.055
X148.235Y-153.315
X148.235Y-155.855
X149.0Y-109.421
X149.22Y-144.28
X149.25Y-130.889
X149.25Y-138.95
X149.325Y-134.75
X149.5Y-115.675
X149.5Y-128.0
X149.775Y-114.0
X150.51Y-111.0
X150.775Y-102.515
X150.775Y-105.055
X150.775Y-150.775
X150.832Y-116.942
X150.95Y-115.5
X151.039Y-110.45
X151.18Y-113.0
X151.5Y-112.0
X151.5Y-140.306
X151.5Y-143.5
X152.5Y-115.5
X153.0Y-108.0
X153.2Y-113.4
X153.315Y-102.515
X153.315Y-132.995
X153.315Y-155.855
X153.315Y-158.395
X154.6Y-152.2
X154.938Y-108.882
X155.0Y-114.0
X155.855Y-105.055
X155.855Y-107.595
X155.855Y-145.695
X155.855Y-158.395
X156.2Y-141.29
X156.626Y-115.4
X157.226Y-114.705
X158.395Y-105.055
X158.395Y-132.995
X158.395Y-138.075
X158.395Y-140.615
X158.395Y-143.155
X158.395Y-153.315
X158.395Y-155.855
X158.395Y-158.395
X158.51Y-114.0
X158.825Y-108.0
X158.825Y-110.0
X158.831Y-112.673
T4
X103.0Y-108.3
X103.0Y-110.3
X156.0Y-149.0
X156.0Y-151.0
T5
X139.65Y-149.8
X139.65Y-152.3
X139.65Y-154.8
X142.15Y-149.8
X142.15Y-152.3
X142.15Y-154.8
X147.0Y-155.5
X147.0Y-158.8
X149.5Y-155.5
X149.5Y-158.8
X152.0Y-155.5
X152.0Y-158.8
T6
X153.02Y-135.7
X155.56Y-135.7
X157.0Y-126.96
X157.0Y-129.5
X157.0Y-132.04
X158.1Y-135.7
T7
X138.8Y-146.6
X143.0Y-158.0
T3
G00X118.881Y-152.773
M15
G01X118.881Y-151.681
M16
G05
G00X118.881Y-156.77
M15
G01X118.881Y-155.983
M16
G05
G00X127.521Y-152.773
M15
G01X127.521Y-151.681
M16
G05
G00X127.521Y-156.77
M15
G01X127.521Y-155.983
M16
G05
M30
