%TF.GenerationSoftware,KiCad,Pcbnew,9.0.6*%
%TF.CreationDate,2026-05-23T13:13:30+02:00*%
%TF.ProjectId,Cube OS,43756265-204f-4532-9e6b-696361645f70,A*%
%TF.SameCoordinates,Original*%
%TF.FileFunction,Legend,Top*%
%TF.FilePolarity,Positive*%
%FSLAX46Y46*%
G04 Gerber Fmt 4.6, Leading zero omitted, Abs format (unit mm)*
G04 Created by KiCad (PCBNEW 9.0.6) date 2026-05-23 13:13:30*
%MOMM*%
%LPD*%
G01*
G04 APERTURE LIST*
%ADD10C,0.250000*%
%ADD11C,0.125000*%
%ADD12C,0.150000*%
%ADD13C,0.120000*%
%ADD14C,0.152400*%
%ADD15C,0.000000*%
%ADD16C,0.200000*%
%ADD17C,0.100000*%
%ADD18C,0.508000*%
%ADD19C,0.127000*%
G04 APERTURE END LIST*
D10*
X156426377Y-153412238D02*
X156331139Y-153364619D01*
X156331139Y-153364619D02*
X156188282Y-153364619D01*
X156188282Y-153364619D02*
X156045425Y-153412238D01*
X156045425Y-153412238D02*
X155950187Y-153507476D01*
X155950187Y-153507476D02*
X155902568Y-153602714D01*
X155902568Y-153602714D02*
X155854949Y-153793190D01*
X155854949Y-153793190D02*
X155854949Y-153936047D01*
X155854949Y-153936047D02*
X155902568Y-154126523D01*
X155902568Y-154126523D02*
X155950187Y-154221761D01*
X155950187Y-154221761D02*
X156045425Y-154317000D01*
X156045425Y-154317000D02*
X156188282Y-154364619D01*
X156188282Y-154364619D02*
X156283520Y-154364619D01*
X156283520Y-154364619D02*
X156426377Y-154317000D01*
X156426377Y-154317000D02*
X156473996Y-154269380D01*
X156473996Y-154269380D02*
X156473996Y-153936047D01*
X156473996Y-153936047D02*
X156283520Y-153936047D01*
X156902568Y-154364619D02*
X156902568Y-153364619D01*
X156902568Y-153364619D02*
X157473996Y-154364619D01*
X157473996Y-154364619D02*
X157473996Y-153364619D01*
X157950187Y-154364619D02*
X157950187Y-153364619D01*
X157950187Y-153364619D02*
X158188282Y-153364619D01*
X158188282Y-153364619D02*
X158331139Y-153412238D01*
X158331139Y-153412238D02*
X158426377Y-153507476D01*
X158426377Y-153507476D02*
X158473996Y-153602714D01*
X158473996Y-153602714D02*
X158521615Y-153793190D01*
X158521615Y-153793190D02*
X158521615Y-153936047D01*
X158521615Y-153936047D02*
X158473996Y-154126523D01*
X158473996Y-154126523D02*
X158426377Y-154221761D01*
X158426377Y-154221761D02*
X158331139Y-154317000D01*
X158331139Y-154317000D02*
X158188282Y-154364619D01*
X158188282Y-154364619D02*
X157950187Y-154364619D01*
X153402568Y-145983666D02*
X154164473Y-145983666D01*
X153783520Y-146364619D02*
X153783520Y-145602714D01*
X154973996Y-145840809D02*
X155116853Y-145888428D01*
X155116853Y-145888428D02*
X155164472Y-145936047D01*
X155164472Y-145936047D02*
X155212091Y-146031285D01*
X155212091Y-146031285D02*
X155212091Y-146174142D01*
X155212091Y-146174142D02*
X155164472Y-146269380D01*
X155164472Y-146269380D02*
X155116853Y-146317000D01*
X155116853Y-146317000D02*
X155021615Y-146364619D01*
X155021615Y-146364619D02*
X154640663Y-146364619D01*
X154640663Y-146364619D02*
X154640663Y-145364619D01*
X154640663Y-145364619D02*
X154973996Y-145364619D01*
X154973996Y-145364619D02*
X155069234Y-145412238D01*
X155069234Y-145412238D02*
X155116853Y-145459857D01*
X155116853Y-145459857D02*
X155164472Y-145555095D01*
X155164472Y-145555095D02*
X155164472Y-145650333D01*
X155164472Y-145650333D02*
X155116853Y-145745571D01*
X155116853Y-145745571D02*
X155069234Y-145793190D01*
X155069234Y-145793190D02*
X154973996Y-145840809D01*
X154973996Y-145840809D02*
X154640663Y-145840809D01*
X155593044Y-146078904D02*
X156069234Y-146078904D01*
X155497806Y-146364619D02*
X155831139Y-145364619D01*
X155831139Y-145364619D02*
X156164472Y-146364619D01*
X156354949Y-145364619D02*
X156926377Y-145364619D01*
X156640663Y-146364619D02*
X156640663Y-145364619D01*
D11*
X136678571Y-122224809D02*
X136511905Y-121986714D01*
X136392857Y-122224809D02*
X136392857Y-121724809D01*
X136392857Y-121724809D02*
X136583333Y-121724809D01*
X136583333Y-121724809D02*
X136630952Y-121748619D01*
X136630952Y-121748619D02*
X136654762Y-121772428D01*
X136654762Y-121772428D02*
X136678571Y-121820047D01*
X136678571Y-121820047D02*
X136678571Y-121891476D01*
X136678571Y-121891476D02*
X136654762Y-121939095D01*
X136654762Y-121939095D02*
X136630952Y-121962904D01*
X136630952Y-121962904D02*
X136583333Y-121986714D01*
X136583333Y-121986714D02*
X136392857Y-121986714D01*
X136869048Y-121772428D02*
X136892857Y-121748619D01*
X136892857Y-121748619D02*
X136940476Y-121724809D01*
X136940476Y-121724809D02*
X137059524Y-121724809D01*
X137059524Y-121724809D02*
X137107143Y-121748619D01*
X137107143Y-121748619D02*
X137130952Y-121772428D01*
X137130952Y-121772428D02*
X137154762Y-121820047D01*
X137154762Y-121820047D02*
X137154762Y-121867666D01*
X137154762Y-121867666D02*
X137130952Y-121939095D01*
X137130952Y-121939095D02*
X136845238Y-122224809D01*
X136845238Y-122224809D02*
X137154762Y-122224809D01*
X137464285Y-121724809D02*
X137511904Y-121724809D01*
X137511904Y-121724809D02*
X137559523Y-121748619D01*
X137559523Y-121748619D02*
X137583333Y-121772428D01*
X137583333Y-121772428D02*
X137607142Y-121820047D01*
X137607142Y-121820047D02*
X137630952Y-121915285D01*
X137630952Y-121915285D02*
X137630952Y-122034333D01*
X137630952Y-122034333D02*
X137607142Y-122129571D01*
X137607142Y-122129571D02*
X137583333Y-122177190D01*
X137583333Y-122177190D02*
X137559523Y-122201000D01*
X137559523Y-122201000D02*
X137511904Y-122224809D01*
X137511904Y-122224809D02*
X137464285Y-122224809D01*
X137464285Y-122224809D02*
X137416666Y-122201000D01*
X137416666Y-122201000D02*
X137392857Y-122177190D01*
X137392857Y-122177190D02*
X137369047Y-122129571D01*
X137369047Y-122129571D02*
X137345238Y-122034333D01*
X137345238Y-122034333D02*
X137345238Y-121915285D01*
X137345238Y-121915285D02*
X137369047Y-121820047D01*
X137369047Y-121820047D02*
X137392857Y-121772428D01*
X137392857Y-121772428D02*
X137416666Y-121748619D01*
X137416666Y-121748619D02*
X137464285Y-121724809D01*
X149416666Y-118724809D02*
X149250000Y-118486714D01*
X149130952Y-118724809D02*
X149130952Y-118224809D01*
X149130952Y-118224809D02*
X149321428Y-118224809D01*
X149321428Y-118224809D02*
X149369047Y-118248619D01*
X149369047Y-118248619D02*
X149392857Y-118272428D01*
X149392857Y-118272428D02*
X149416666Y-118320047D01*
X149416666Y-118320047D02*
X149416666Y-118391476D01*
X149416666Y-118391476D02*
X149392857Y-118439095D01*
X149392857Y-118439095D02*
X149369047Y-118462904D01*
X149369047Y-118462904D02*
X149321428Y-118486714D01*
X149321428Y-118486714D02*
X149130952Y-118486714D01*
X149702381Y-118439095D02*
X149654762Y-118415285D01*
X149654762Y-118415285D02*
X149630952Y-118391476D01*
X149630952Y-118391476D02*
X149607143Y-118343857D01*
X149607143Y-118343857D02*
X149607143Y-118320047D01*
X149607143Y-118320047D02*
X149630952Y-118272428D01*
X149630952Y-118272428D02*
X149654762Y-118248619D01*
X149654762Y-118248619D02*
X149702381Y-118224809D01*
X149702381Y-118224809D02*
X149797619Y-118224809D01*
X149797619Y-118224809D02*
X149845238Y-118248619D01*
X149845238Y-118248619D02*
X149869047Y-118272428D01*
X149869047Y-118272428D02*
X149892857Y-118320047D01*
X149892857Y-118320047D02*
X149892857Y-118343857D01*
X149892857Y-118343857D02*
X149869047Y-118391476D01*
X149869047Y-118391476D02*
X149845238Y-118415285D01*
X149845238Y-118415285D02*
X149797619Y-118439095D01*
X149797619Y-118439095D02*
X149702381Y-118439095D01*
X149702381Y-118439095D02*
X149654762Y-118462904D01*
X149654762Y-118462904D02*
X149630952Y-118486714D01*
X149630952Y-118486714D02*
X149607143Y-118534333D01*
X149607143Y-118534333D02*
X149607143Y-118629571D01*
X149607143Y-118629571D02*
X149630952Y-118677190D01*
X149630952Y-118677190D02*
X149654762Y-118701000D01*
X149654762Y-118701000D02*
X149702381Y-118724809D01*
X149702381Y-118724809D02*
X149797619Y-118724809D01*
X149797619Y-118724809D02*
X149845238Y-118701000D01*
X149845238Y-118701000D02*
X149869047Y-118677190D01*
X149869047Y-118677190D02*
X149892857Y-118629571D01*
X149892857Y-118629571D02*
X149892857Y-118534333D01*
X149892857Y-118534333D02*
X149869047Y-118486714D01*
X149869047Y-118486714D02*
X149845238Y-118462904D01*
X149845238Y-118462904D02*
X149797619Y-118439095D01*
X148178571Y-133474809D02*
X148011905Y-133236714D01*
X147892857Y-133474809D02*
X147892857Y-132974809D01*
X147892857Y-132974809D02*
X148083333Y-132974809D01*
X148083333Y-132974809D02*
X148130952Y-132998619D01*
X148130952Y-132998619D02*
X148154762Y-133022428D01*
X148154762Y-133022428D02*
X148178571Y-133070047D01*
X148178571Y-133070047D02*
X148178571Y-133141476D01*
X148178571Y-133141476D02*
X148154762Y-133189095D01*
X148154762Y-133189095D02*
X148130952Y-133212904D01*
X148130952Y-133212904D02*
X148083333Y-133236714D01*
X148083333Y-133236714D02*
X147892857Y-133236714D01*
X148654762Y-133474809D02*
X148369048Y-133474809D01*
X148511905Y-133474809D02*
X148511905Y-132974809D01*
X148511905Y-132974809D02*
X148464286Y-133046238D01*
X148464286Y-133046238D02*
X148416667Y-133093857D01*
X148416667Y-133093857D02*
X148369048Y-133117666D01*
X148892857Y-133474809D02*
X148988095Y-133474809D01*
X148988095Y-133474809D02*
X149035714Y-133451000D01*
X149035714Y-133451000D02*
X149059523Y-133427190D01*
X149059523Y-133427190D02*
X149107142Y-133355761D01*
X149107142Y-133355761D02*
X149130952Y-133260523D01*
X149130952Y-133260523D02*
X149130952Y-133070047D01*
X149130952Y-133070047D02*
X149107142Y-133022428D01*
X149107142Y-133022428D02*
X149083333Y-132998619D01*
X149083333Y-132998619D02*
X149035714Y-132974809D01*
X149035714Y-132974809D02*
X148940476Y-132974809D01*
X148940476Y-132974809D02*
X148892857Y-132998619D01*
X148892857Y-132998619D02*
X148869047Y-133022428D01*
X148869047Y-133022428D02*
X148845238Y-133070047D01*
X148845238Y-133070047D02*
X148845238Y-133189095D01*
X148845238Y-133189095D02*
X148869047Y-133236714D01*
X148869047Y-133236714D02*
X148892857Y-133260523D01*
X148892857Y-133260523D02*
X148940476Y-133284333D01*
X148940476Y-133284333D02*
X149035714Y-133284333D01*
X149035714Y-133284333D02*
X149083333Y-133260523D01*
X149083333Y-133260523D02*
X149107142Y-133236714D01*
X149107142Y-133236714D02*
X149130952Y-133189095D01*
D12*
X155180179Y-107714811D02*
X154942084Y-107714811D01*
X155037322Y-107476716D02*
X154942084Y-107714811D01*
X154942084Y-107714811D02*
X155037322Y-107952906D01*
X154751608Y-107571954D02*
X154942084Y-107714811D01*
X154942084Y-107714811D02*
X154751608Y-107857668D01*
D11*
X125216666Y-149324809D02*
X125050000Y-149086714D01*
X124930952Y-149324809D02*
X124930952Y-148824809D01*
X124930952Y-148824809D02*
X125121428Y-148824809D01*
X125121428Y-148824809D02*
X125169047Y-148848619D01*
X125169047Y-148848619D02*
X125192857Y-148872428D01*
X125192857Y-148872428D02*
X125216666Y-148920047D01*
X125216666Y-148920047D02*
X125216666Y-148991476D01*
X125216666Y-148991476D02*
X125192857Y-149039095D01*
X125192857Y-149039095D02*
X125169047Y-149062904D01*
X125169047Y-149062904D02*
X125121428Y-149086714D01*
X125121428Y-149086714D02*
X124930952Y-149086714D01*
X125383333Y-148824809D02*
X125692857Y-148824809D01*
X125692857Y-148824809D02*
X125526190Y-149015285D01*
X125526190Y-149015285D02*
X125597619Y-149015285D01*
X125597619Y-149015285D02*
X125645238Y-149039095D01*
X125645238Y-149039095D02*
X125669047Y-149062904D01*
X125669047Y-149062904D02*
X125692857Y-149110523D01*
X125692857Y-149110523D02*
X125692857Y-149229571D01*
X125692857Y-149229571D02*
X125669047Y-149277190D01*
X125669047Y-149277190D02*
X125645238Y-149301000D01*
X125645238Y-149301000D02*
X125597619Y-149324809D01*
X125597619Y-149324809D02*
X125454762Y-149324809D01*
X125454762Y-149324809D02*
X125407143Y-149301000D01*
X125407143Y-149301000D02*
X125383333Y-149277190D01*
X152678571Y-104027190D02*
X152654762Y-104051000D01*
X152654762Y-104051000D02*
X152583333Y-104074809D01*
X152583333Y-104074809D02*
X152535714Y-104074809D01*
X152535714Y-104074809D02*
X152464286Y-104051000D01*
X152464286Y-104051000D02*
X152416667Y-104003380D01*
X152416667Y-104003380D02*
X152392857Y-103955761D01*
X152392857Y-103955761D02*
X152369048Y-103860523D01*
X152369048Y-103860523D02*
X152369048Y-103789095D01*
X152369048Y-103789095D02*
X152392857Y-103693857D01*
X152392857Y-103693857D02*
X152416667Y-103646238D01*
X152416667Y-103646238D02*
X152464286Y-103598619D01*
X152464286Y-103598619D02*
X152535714Y-103574809D01*
X152535714Y-103574809D02*
X152583333Y-103574809D01*
X152583333Y-103574809D02*
X152654762Y-103598619D01*
X152654762Y-103598619D02*
X152678571Y-103622428D01*
X153154762Y-104074809D02*
X152869048Y-104074809D01*
X153011905Y-104074809D02*
X153011905Y-103574809D01*
X153011905Y-103574809D02*
X152964286Y-103646238D01*
X152964286Y-103646238D02*
X152916667Y-103693857D01*
X152916667Y-103693857D02*
X152869048Y-103717666D01*
X153630952Y-104074809D02*
X153345238Y-104074809D01*
X153488095Y-104074809D02*
X153488095Y-103574809D01*
X153488095Y-103574809D02*
X153440476Y-103646238D01*
X153440476Y-103646238D02*
X153392857Y-103693857D01*
X153392857Y-103693857D02*
X153345238Y-103717666D01*
X132130952Y-116474809D02*
X132130952Y-116879571D01*
X132130952Y-116879571D02*
X132154762Y-116927190D01*
X132154762Y-116927190D02*
X132178571Y-116951000D01*
X132178571Y-116951000D02*
X132226190Y-116974809D01*
X132226190Y-116974809D02*
X132321428Y-116974809D01*
X132321428Y-116974809D02*
X132369047Y-116951000D01*
X132369047Y-116951000D02*
X132392857Y-116927190D01*
X132392857Y-116927190D02*
X132416666Y-116879571D01*
X132416666Y-116879571D02*
X132416666Y-116474809D01*
X132916667Y-116974809D02*
X132630953Y-116974809D01*
X132773810Y-116974809D02*
X132773810Y-116474809D01*
X132773810Y-116474809D02*
X132726191Y-116546238D01*
X132726191Y-116546238D02*
X132678572Y-116593857D01*
X132678572Y-116593857D02*
X132630953Y-116617666D01*
X133392857Y-116974809D02*
X133107143Y-116974809D01*
X133250000Y-116974809D02*
X133250000Y-116474809D01*
X133250000Y-116474809D02*
X133202381Y-116546238D01*
X133202381Y-116546238D02*
X133154762Y-116593857D01*
X133154762Y-116593857D02*
X133107143Y-116617666D01*
X116369048Y-155026809D02*
X116654762Y-155026809D01*
X116511905Y-155526809D02*
X116511905Y-155026809D01*
X116821428Y-155526809D02*
X116821428Y-155026809D01*
X116821428Y-155026809D02*
X117011904Y-155026809D01*
X117011904Y-155026809D02*
X117059523Y-155050619D01*
X117059523Y-155050619D02*
X117083333Y-155074428D01*
X117083333Y-155074428D02*
X117107142Y-155122047D01*
X117107142Y-155122047D02*
X117107142Y-155193476D01*
X117107142Y-155193476D02*
X117083333Y-155241095D01*
X117083333Y-155241095D02*
X117059523Y-155264904D01*
X117059523Y-155264904D02*
X117011904Y-155288714D01*
X117011904Y-155288714D02*
X116821428Y-155288714D01*
X117535714Y-155193476D02*
X117535714Y-155526809D01*
X117416666Y-155003000D02*
X117297619Y-155360142D01*
X117297619Y-155360142D02*
X117607142Y-155360142D01*
X112250000Y-156962904D02*
X112416667Y-156962904D01*
X112488095Y-157224809D02*
X112250000Y-157224809D01*
X112250000Y-157224809D02*
X112250000Y-156724809D01*
X112250000Y-156724809D02*
X112488095Y-156724809D01*
X112678572Y-157201000D02*
X112750000Y-157224809D01*
X112750000Y-157224809D02*
X112869048Y-157224809D01*
X112869048Y-157224809D02*
X112916667Y-157201000D01*
X112916667Y-157201000D02*
X112940476Y-157177190D01*
X112940476Y-157177190D02*
X112964286Y-157129571D01*
X112964286Y-157129571D02*
X112964286Y-157081952D01*
X112964286Y-157081952D02*
X112940476Y-157034333D01*
X112940476Y-157034333D02*
X112916667Y-157010523D01*
X112916667Y-157010523D02*
X112869048Y-156986714D01*
X112869048Y-156986714D02*
X112773810Y-156962904D01*
X112773810Y-156962904D02*
X112726191Y-156939095D01*
X112726191Y-156939095D02*
X112702381Y-156915285D01*
X112702381Y-156915285D02*
X112678572Y-156867666D01*
X112678572Y-156867666D02*
X112678572Y-156820047D01*
X112678572Y-156820047D02*
X112702381Y-156772428D01*
X112702381Y-156772428D02*
X112726191Y-156748619D01*
X112726191Y-156748619D02*
X112773810Y-156724809D01*
X112773810Y-156724809D02*
X112892857Y-156724809D01*
X112892857Y-156724809D02*
X112964286Y-156748619D01*
X113178571Y-157224809D02*
X113178571Y-156724809D01*
X113178571Y-156724809D02*
X113369047Y-156724809D01*
X113369047Y-156724809D02*
X113416666Y-156748619D01*
X113416666Y-156748619D02*
X113440476Y-156772428D01*
X113440476Y-156772428D02*
X113464285Y-156820047D01*
X113464285Y-156820047D02*
X113464285Y-156891476D01*
X113464285Y-156891476D02*
X113440476Y-156939095D01*
X113440476Y-156939095D02*
X113416666Y-156962904D01*
X113416666Y-156962904D02*
X113369047Y-156986714D01*
X113369047Y-156986714D02*
X113178571Y-156986714D01*
X113630952Y-156724809D02*
X113940476Y-156724809D01*
X113940476Y-156724809D02*
X113773809Y-156915285D01*
X113773809Y-156915285D02*
X113845238Y-156915285D01*
X113845238Y-156915285D02*
X113892857Y-156939095D01*
X113892857Y-156939095D02*
X113916666Y-156962904D01*
X113916666Y-156962904D02*
X113940476Y-157010523D01*
X113940476Y-157010523D02*
X113940476Y-157129571D01*
X113940476Y-157129571D02*
X113916666Y-157177190D01*
X113916666Y-157177190D02*
X113892857Y-157201000D01*
X113892857Y-157201000D02*
X113845238Y-157224809D01*
X113845238Y-157224809D02*
X113702381Y-157224809D01*
X113702381Y-157224809D02*
X113654762Y-157201000D01*
X113654762Y-157201000D02*
X113630952Y-157177190D01*
X114130952Y-156772428D02*
X114154761Y-156748619D01*
X114154761Y-156748619D02*
X114202380Y-156724809D01*
X114202380Y-156724809D02*
X114321428Y-156724809D01*
X114321428Y-156724809D02*
X114369047Y-156748619D01*
X114369047Y-156748619D02*
X114392856Y-156772428D01*
X114392856Y-156772428D02*
X114416666Y-156820047D01*
X114416666Y-156820047D02*
X114416666Y-156867666D01*
X114416666Y-156867666D02*
X114392856Y-156939095D01*
X114392856Y-156939095D02*
X114107142Y-157224809D01*
X114107142Y-157224809D02*
X114416666Y-157224809D01*
X114511904Y-157272428D02*
X114892856Y-157272428D01*
X115011903Y-156962904D02*
X115178570Y-156962904D01*
X115249998Y-157224809D02*
X115011903Y-157224809D01*
X115011903Y-157224809D02*
X115011903Y-156724809D01*
X115011903Y-156724809D02*
X115249998Y-156724809D01*
X115464284Y-157224809D02*
X115464284Y-156724809D01*
X115464284Y-156724809D02*
X115749998Y-157224809D01*
X115749998Y-157224809D02*
X115749998Y-156724809D01*
X140119047Y-117724809D02*
X140119047Y-118129571D01*
X140119047Y-118129571D02*
X140142857Y-118177190D01*
X140142857Y-118177190D02*
X140166666Y-118201000D01*
X140166666Y-118201000D02*
X140214285Y-118224809D01*
X140214285Y-118224809D02*
X140309523Y-118224809D01*
X140309523Y-118224809D02*
X140357142Y-118201000D01*
X140357142Y-118201000D02*
X140380952Y-118177190D01*
X140380952Y-118177190D02*
X140404761Y-118129571D01*
X140404761Y-118129571D02*
X140404761Y-117724809D01*
X140595238Y-117724809D02*
X140928571Y-117724809D01*
X140928571Y-117724809D02*
X140714286Y-118224809D01*
D12*
X144010000Y-122676181D02*
X144010000Y-122438086D01*
X144248095Y-122533324D02*
X144010000Y-122438086D01*
X144010000Y-122438086D02*
X143771905Y-122533324D01*
X144152857Y-122247610D02*
X144010000Y-122438086D01*
X144010000Y-122438086D02*
X143867143Y-122247610D01*
D11*
X156880952Y-114824809D02*
X156880952Y-115229571D01*
X156880952Y-115229571D02*
X156904762Y-115277190D01*
X156904762Y-115277190D02*
X156928571Y-115301000D01*
X156928571Y-115301000D02*
X156976190Y-115324809D01*
X156976190Y-115324809D02*
X157071428Y-115324809D01*
X157071428Y-115324809D02*
X157119047Y-115301000D01*
X157119047Y-115301000D02*
X157142857Y-115277190D01*
X157142857Y-115277190D02*
X157166666Y-115229571D01*
X157166666Y-115229571D02*
X157166666Y-114824809D01*
X157666667Y-115324809D02*
X157380953Y-115324809D01*
X157523810Y-115324809D02*
X157523810Y-114824809D01*
X157523810Y-114824809D02*
X157476191Y-114896238D01*
X157476191Y-114896238D02*
X157428572Y-114943857D01*
X157428572Y-114943857D02*
X157380953Y-114967666D01*
X158095238Y-114991476D02*
X158095238Y-115324809D01*
X157976190Y-114801000D02*
X157857143Y-115158142D01*
X157857143Y-115158142D02*
X158166666Y-115158142D01*
X155155238Y-138124809D02*
X155155238Y-137624809D01*
X155155238Y-137624809D02*
X155321905Y-137981952D01*
X155321905Y-137981952D02*
X155488571Y-137624809D01*
X155488571Y-137624809D02*
X155488571Y-138124809D01*
X155988572Y-138124809D02*
X155702858Y-138124809D01*
X155845715Y-138124809D02*
X155845715Y-137624809D01*
X155845715Y-137624809D02*
X155798096Y-137696238D01*
X155798096Y-137696238D02*
X155750477Y-137743857D01*
X155750477Y-137743857D02*
X155702858Y-137767666D01*
X145869048Y-108776809D02*
X146154762Y-108776809D01*
X146011905Y-109276809D02*
X146011905Y-108776809D01*
X146321428Y-109276809D02*
X146321428Y-108776809D01*
X146321428Y-108776809D02*
X146511904Y-108776809D01*
X146511904Y-108776809D02*
X146559523Y-108800619D01*
X146559523Y-108800619D02*
X146583333Y-108824428D01*
X146583333Y-108824428D02*
X146607142Y-108872047D01*
X146607142Y-108872047D02*
X146607142Y-108943476D01*
X146607142Y-108943476D02*
X146583333Y-108991095D01*
X146583333Y-108991095D02*
X146559523Y-109014904D01*
X146559523Y-109014904D02*
X146511904Y-109038714D01*
X146511904Y-109038714D02*
X146321428Y-109038714D01*
X147035714Y-108776809D02*
X146940476Y-108776809D01*
X146940476Y-108776809D02*
X146892857Y-108800619D01*
X146892857Y-108800619D02*
X146869047Y-108824428D01*
X146869047Y-108824428D02*
X146821428Y-108895857D01*
X146821428Y-108895857D02*
X146797619Y-108991095D01*
X146797619Y-108991095D02*
X146797619Y-109181571D01*
X146797619Y-109181571D02*
X146821428Y-109229190D01*
X146821428Y-109229190D02*
X146845238Y-109253000D01*
X146845238Y-109253000D02*
X146892857Y-109276809D01*
X146892857Y-109276809D02*
X146988095Y-109276809D01*
X146988095Y-109276809D02*
X147035714Y-109253000D01*
X147035714Y-109253000D02*
X147059523Y-109229190D01*
X147059523Y-109229190D02*
X147083333Y-109181571D01*
X147083333Y-109181571D02*
X147083333Y-109062523D01*
X147083333Y-109062523D02*
X147059523Y-109014904D01*
X147059523Y-109014904D02*
X147035714Y-108991095D01*
X147035714Y-108991095D02*
X146988095Y-108967285D01*
X146988095Y-108967285D02*
X146892857Y-108967285D01*
X146892857Y-108967285D02*
X146845238Y-108991095D01*
X146845238Y-108991095D02*
X146821428Y-109014904D01*
X146821428Y-109014904D02*
X146797619Y-109062523D01*
X144988096Y-107462904D02*
X145059524Y-107486714D01*
X145059524Y-107486714D02*
X145083334Y-107510523D01*
X145083334Y-107510523D02*
X145107143Y-107558142D01*
X145107143Y-107558142D02*
X145107143Y-107629571D01*
X145107143Y-107629571D02*
X145083334Y-107677190D01*
X145083334Y-107677190D02*
X145059524Y-107701000D01*
X145059524Y-107701000D02*
X145011905Y-107724809D01*
X145011905Y-107724809D02*
X144821429Y-107724809D01*
X144821429Y-107724809D02*
X144821429Y-107224809D01*
X144821429Y-107224809D02*
X144988096Y-107224809D01*
X144988096Y-107224809D02*
X145035715Y-107248619D01*
X145035715Y-107248619D02*
X145059524Y-107272428D01*
X145059524Y-107272428D02*
X145083334Y-107320047D01*
X145083334Y-107320047D02*
X145083334Y-107367666D01*
X145083334Y-107367666D02*
X145059524Y-107415285D01*
X145059524Y-107415285D02*
X145035715Y-107439095D01*
X145035715Y-107439095D02*
X144988096Y-107462904D01*
X144988096Y-107462904D02*
X144821429Y-107462904D01*
X145535715Y-107391476D02*
X145535715Y-107724809D01*
X145321429Y-107391476D02*
X145321429Y-107653380D01*
X145321429Y-107653380D02*
X145345239Y-107701000D01*
X145345239Y-107701000D02*
X145392858Y-107724809D01*
X145392858Y-107724809D02*
X145464286Y-107724809D01*
X145464286Y-107724809D02*
X145511905Y-107701000D01*
X145511905Y-107701000D02*
X145535715Y-107677190D01*
X145988096Y-107701000D02*
X145940477Y-107724809D01*
X145940477Y-107724809D02*
X145845239Y-107724809D01*
X145845239Y-107724809D02*
X145797620Y-107701000D01*
X145797620Y-107701000D02*
X145773810Y-107677190D01*
X145773810Y-107677190D02*
X145750001Y-107629571D01*
X145750001Y-107629571D02*
X145750001Y-107486714D01*
X145750001Y-107486714D02*
X145773810Y-107439095D01*
X145773810Y-107439095D02*
X145797620Y-107415285D01*
X145797620Y-107415285D02*
X145845239Y-107391476D01*
X145845239Y-107391476D02*
X145940477Y-107391476D01*
X145940477Y-107391476D02*
X145988096Y-107415285D01*
X146202381Y-107724809D02*
X146202381Y-107224809D01*
X146250000Y-107534333D02*
X146392857Y-107724809D01*
X146392857Y-107391476D02*
X146202381Y-107581952D01*
X146488096Y-107772428D02*
X146869048Y-107772428D01*
X147083333Y-107224809D02*
X147178571Y-107224809D01*
X147178571Y-107224809D02*
X147226190Y-107248619D01*
X147226190Y-107248619D02*
X147273809Y-107296238D01*
X147273809Y-107296238D02*
X147297619Y-107391476D01*
X147297619Y-107391476D02*
X147297619Y-107558142D01*
X147297619Y-107558142D02*
X147273809Y-107653380D01*
X147273809Y-107653380D02*
X147226190Y-107701000D01*
X147226190Y-107701000D02*
X147178571Y-107724809D01*
X147178571Y-107724809D02*
X147083333Y-107724809D01*
X147083333Y-107724809D02*
X147035714Y-107701000D01*
X147035714Y-107701000D02*
X146988095Y-107653380D01*
X146988095Y-107653380D02*
X146964286Y-107558142D01*
X146964286Y-107558142D02*
X146964286Y-107391476D01*
X146964286Y-107391476D02*
X146988095Y-107296238D01*
X146988095Y-107296238D02*
X147035714Y-107248619D01*
X147035714Y-107248619D02*
X147083333Y-107224809D01*
X147511905Y-107224809D02*
X147511905Y-107629571D01*
X147511905Y-107629571D02*
X147535715Y-107677190D01*
X147535715Y-107677190D02*
X147559524Y-107701000D01*
X147559524Y-107701000D02*
X147607143Y-107724809D01*
X147607143Y-107724809D02*
X147702381Y-107724809D01*
X147702381Y-107724809D02*
X147750000Y-107701000D01*
X147750000Y-107701000D02*
X147773810Y-107677190D01*
X147773810Y-107677190D02*
X147797619Y-107629571D01*
X147797619Y-107629571D02*
X147797619Y-107224809D01*
X147964287Y-107224809D02*
X148250001Y-107224809D01*
X148107144Y-107724809D02*
X148107144Y-107224809D01*
X148297620Y-107772428D02*
X148678572Y-107772428D01*
X148750000Y-107224809D02*
X149059524Y-107224809D01*
X149059524Y-107224809D02*
X148892857Y-107415285D01*
X148892857Y-107415285D02*
X148964286Y-107415285D01*
X148964286Y-107415285D02*
X149011905Y-107439095D01*
X149011905Y-107439095D02*
X149035714Y-107462904D01*
X149035714Y-107462904D02*
X149059524Y-107510523D01*
X149059524Y-107510523D02*
X149059524Y-107629571D01*
X149059524Y-107629571D02*
X149035714Y-107677190D01*
X149035714Y-107677190D02*
X149011905Y-107701000D01*
X149011905Y-107701000D02*
X148964286Y-107724809D01*
X148964286Y-107724809D02*
X148821429Y-107724809D01*
X148821429Y-107724809D02*
X148773810Y-107701000D01*
X148773810Y-107701000D02*
X148750000Y-107677190D01*
X149273809Y-107677190D02*
X149297619Y-107701000D01*
X149297619Y-107701000D02*
X149273809Y-107724809D01*
X149273809Y-107724809D02*
X149250000Y-107701000D01*
X149250000Y-107701000D02*
X149273809Y-107677190D01*
X149273809Y-107677190D02*
X149273809Y-107724809D01*
X149464285Y-107224809D02*
X149773809Y-107224809D01*
X149773809Y-107224809D02*
X149607142Y-107415285D01*
X149607142Y-107415285D02*
X149678571Y-107415285D01*
X149678571Y-107415285D02*
X149726190Y-107439095D01*
X149726190Y-107439095D02*
X149749999Y-107462904D01*
X149749999Y-107462904D02*
X149773809Y-107510523D01*
X149773809Y-107510523D02*
X149773809Y-107629571D01*
X149773809Y-107629571D02*
X149749999Y-107677190D01*
X149749999Y-107677190D02*
X149726190Y-107701000D01*
X149726190Y-107701000D02*
X149678571Y-107724809D01*
X149678571Y-107724809D02*
X149535714Y-107724809D01*
X149535714Y-107724809D02*
X149488095Y-107701000D01*
X149488095Y-107701000D02*
X149464285Y-107677190D01*
X149916666Y-107224809D02*
X150083332Y-107724809D01*
X150083332Y-107724809D02*
X150249999Y-107224809D01*
X146916666Y-114677190D02*
X146892857Y-114701000D01*
X146892857Y-114701000D02*
X146821428Y-114724809D01*
X146821428Y-114724809D02*
X146773809Y-114724809D01*
X146773809Y-114724809D02*
X146702381Y-114701000D01*
X146702381Y-114701000D02*
X146654762Y-114653380D01*
X146654762Y-114653380D02*
X146630952Y-114605761D01*
X146630952Y-114605761D02*
X146607143Y-114510523D01*
X146607143Y-114510523D02*
X146607143Y-114439095D01*
X146607143Y-114439095D02*
X146630952Y-114343857D01*
X146630952Y-114343857D02*
X146654762Y-114296238D01*
X146654762Y-114296238D02*
X146702381Y-114248619D01*
X146702381Y-114248619D02*
X146773809Y-114224809D01*
X146773809Y-114224809D02*
X146821428Y-114224809D01*
X146821428Y-114224809D02*
X146892857Y-114248619D01*
X146892857Y-114248619D02*
X146916666Y-114272428D01*
X147083333Y-114224809D02*
X147392857Y-114224809D01*
X147392857Y-114224809D02*
X147226190Y-114415285D01*
X147226190Y-114415285D02*
X147297619Y-114415285D01*
X147297619Y-114415285D02*
X147345238Y-114439095D01*
X147345238Y-114439095D02*
X147369047Y-114462904D01*
X147369047Y-114462904D02*
X147392857Y-114510523D01*
X147392857Y-114510523D02*
X147392857Y-114629571D01*
X147392857Y-114629571D02*
X147369047Y-114677190D01*
X147369047Y-114677190D02*
X147345238Y-114701000D01*
X147345238Y-114701000D02*
X147297619Y-114724809D01*
X147297619Y-114724809D02*
X147154762Y-114724809D01*
X147154762Y-114724809D02*
X147107143Y-114701000D01*
X147107143Y-114701000D02*
X147083333Y-114677190D01*
D12*
X128945900Y-154954818D02*
X128945900Y-155192913D01*
X128707805Y-155097675D02*
X128945900Y-155192913D01*
X128945900Y-155192913D02*
X129183995Y-155097675D01*
X128803043Y-155383389D02*
X128945900Y-155192913D01*
X128945900Y-155192913D02*
X129088757Y-155383389D01*
D11*
X127916666Y-133677190D02*
X127892857Y-133701000D01*
X127892857Y-133701000D02*
X127821428Y-133724809D01*
X127821428Y-133724809D02*
X127773809Y-133724809D01*
X127773809Y-133724809D02*
X127702381Y-133701000D01*
X127702381Y-133701000D02*
X127654762Y-133653380D01*
X127654762Y-133653380D02*
X127630952Y-133605761D01*
X127630952Y-133605761D02*
X127607143Y-133510523D01*
X127607143Y-133510523D02*
X127607143Y-133439095D01*
X127607143Y-133439095D02*
X127630952Y-133343857D01*
X127630952Y-133343857D02*
X127654762Y-133296238D01*
X127654762Y-133296238D02*
X127702381Y-133248619D01*
X127702381Y-133248619D02*
X127773809Y-133224809D01*
X127773809Y-133224809D02*
X127821428Y-133224809D01*
X127821428Y-133224809D02*
X127892857Y-133248619D01*
X127892857Y-133248619D02*
X127916666Y-133272428D01*
X128202381Y-133439095D02*
X128154762Y-133415285D01*
X128154762Y-133415285D02*
X128130952Y-133391476D01*
X128130952Y-133391476D02*
X128107143Y-133343857D01*
X128107143Y-133343857D02*
X128107143Y-133320047D01*
X128107143Y-133320047D02*
X128130952Y-133272428D01*
X128130952Y-133272428D02*
X128154762Y-133248619D01*
X128154762Y-133248619D02*
X128202381Y-133224809D01*
X128202381Y-133224809D02*
X128297619Y-133224809D01*
X128297619Y-133224809D02*
X128345238Y-133248619D01*
X128345238Y-133248619D02*
X128369047Y-133272428D01*
X128369047Y-133272428D02*
X128392857Y-133320047D01*
X128392857Y-133320047D02*
X128392857Y-133343857D01*
X128392857Y-133343857D02*
X128369047Y-133391476D01*
X128369047Y-133391476D02*
X128345238Y-133415285D01*
X128345238Y-133415285D02*
X128297619Y-133439095D01*
X128297619Y-133439095D02*
X128202381Y-133439095D01*
X128202381Y-133439095D02*
X128154762Y-133462904D01*
X128154762Y-133462904D02*
X128130952Y-133486714D01*
X128130952Y-133486714D02*
X128107143Y-133534333D01*
X128107143Y-133534333D02*
X128107143Y-133629571D01*
X128107143Y-133629571D02*
X128130952Y-133677190D01*
X128130952Y-133677190D02*
X128154762Y-133701000D01*
X128154762Y-133701000D02*
X128202381Y-133724809D01*
X128202381Y-133724809D02*
X128297619Y-133724809D01*
X128297619Y-133724809D02*
X128345238Y-133701000D01*
X128345238Y-133701000D02*
X128369047Y-133677190D01*
X128369047Y-133677190D02*
X128392857Y-133629571D01*
X128392857Y-133629571D02*
X128392857Y-133534333D01*
X128392857Y-133534333D02*
X128369047Y-133486714D01*
X128369047Y-133486714D02*
X128345238Y-133462904D01*
X128345238Y-133462904D02*
X128297619Y-133439095D01*
X112580953Y-121225690D02*
X112580953Y-120820928D01*
X112580953Y-120820928D02*
X112557143Y-120773309D01*
X112557143Y-120773309D02*
X112533334Y-120749500D01*
X112533334Y-120749500D02*
X112485715Y-120725690D01*
X112485715Y-120725690D02*
X112390477Y-120725690D01*
X112390477Y-120725690D02*
X112342858Y-120749500D01*
X112342858Y-120749500D02*
X112319048Y-120773309D01*
X112319048Y-120773309D02*
X112295239Y-120820928D01*
X112295239Y-120820928D02*
X112295239Y-121225690D01*
X112033333Y-120725690D02*
X111938095Y-120725690D01*
X111938095Y-120725690D02*
X111890476Y-120749500D01*
X111890476Y-120749500D02*
X111866667Y-120773309D01*
X111866667Y-120773309D02*
X111819048Y-120844738D01*
X111819048Y-120844738D02*
X111795238Y-120939976D01*
X111795238Y-120939976D02*
X111795238Y-121130452D01*
X111795238Y-121130452D02*
X111819048Y-121178071D01*
X111819048Y-121178071D02*
X111842857Y-121201880D01*
X111842857Y-121201880D02*
X111890476Y-121225690D01*
X111890476Y-121225690D02*
X111985714Y-121225690D01*
X111985714Y-121225690D02*
X112033333Y-121201880D01*
X112033333Y-121201880D02*
X112057143Y-121178071D01*
X112057143Y-121178071D02*
X112080952Y-121130452D01*
X112080952Y-121130452D02*
X112080952Y-121011404D01*
X112080952Y-121011404D02*
X112057143Y-120963785D01*
X112057143Y-120963785D02*
X112033333Y-120939976D01*
X112033333Y-120939976D02*
X111985714Y-120916166D01*
X111985714Y-120916166D02*
X111890476Y-120916166D01*
X111890476Y-120916166D02*
X111842857Y-120939976D01*
X111842857Y-120939976D02*
X111819048Y-120963785D01*
X111819048Y-120963785D02*
X111795238Y-121011404D01*
X112816666Y-123177190D02*
X112792857Y-123201000D01*
X112792857Y-123201000D02*
X112721428Y-123224809D01*
X112721428Y-123224809D02*
X112673809Y-123224809D01*
X112673809Y-123224809D02*
X112602381Y-123201000D01*
X112602381Y-123201000D02*
X112554762Y-123153380D01*
X112554762Y-123153380D02*
X112530952Y-123105761D01*
X112530952Y-123105761D02*
X112507143Y-123010523D01*
X112507143Y-123010523D02*
X112507143Y-122939095D01*
X112507143Y-122939095D02*
X112530952Y-122843857D01*
X112530952Y-122843857D02*
X112554762Y-122796238D01*
X112554762Y-122796238D02*
X112602381Y-122748619D01*
X112602381Y-122748619D02*
X112673809Y-122724809D01*
X112673809Y-122724809D02*
X112721428Y-122724809D01*
X112721428Y-122724809D02*
X112792857Y-122748619D01*
X112792857Y-122748619D02*
X112816666Y-122772428D01*
X113269047Y-122724809D02*
X113030952Y-122724809D01*
X113030952Y-122724809D02*
X113007143Y-122962904D01*
X113007143Y-122962904D02*
X113030952Y-122939095D01*
X113030952Y-122939095D02*
X113078571Y-122915285D01*
X113078571Y-122915285D02*
X113197619Y-122915285D01*
X113197619Y-122915285D02*
X113245238Y-122939095D01*
X113245238Y-122939095D02*
X113269047Y-122962904D01*
X113269047Y-122962904D02*
X113292857Y-123010523D01*
X113292857Y-123010523D02*
X113292857Y-123129571D01*
X113292857Y-123129571D02*
X113269047Y-123177190D01*
X113269047Y-123177190D02*
X113245238Y-123201000D01*
X113245238Y-123201000D02*
X113197619Y-123224809D01*
X113197619Y-123224809D02*
X113078571Y-123224809D01*
X113078571Y-123224809D02*
X113030952Y-123201000D01*
X113030952Y-123201000D02*
X113007143Y-123177190D01*
X117678571Y-122224809D02*
X117511905Y-121986714D01*
X117392857Y-122224809D02*
X117392857Y-121724809D01*
X117392857Y-121724809D02*
X117583333Y-121724809D01*
X117583333Y-121724809D02*
X117630952Y-121748619D01*
X117630952Y-121748619D02*
X117654762Y-121772428D01*
X117654762Y-121772428D02*
X117678571Y-121820047D01*
X117678571Y-121820047D02*
X117678571Y-121891476D01*
X117678571Y-121891476D02*
X117654762Y-121939095D01*
X117654762Y-121939095D02*
X117630952Y-121962904D01*
X117630952Y-121962904D02*
X117583333Y-121986714D01*
X117583333Y-121986714D02*
X117392857Y-121986714D01*
X117869048Y-121772428D02*
X117892857Y-121748619D01*
X117892857Y-121748619D02*
X117940476Y-121724809D01*
X117940476Y-121724809D02*
X118059524Y-121724809D01*
X118059524Y-121724809D02*
X118107143Y-121748619D01*
X118107143Y-121748619D02*
X118130952Y-121772428D01*
X118130952Y-121772428D02*
X118154762Y-121820047D01*
X118154762Y-121820047D02*
X118154762Y-121867666D01*
X118154762Y-121867666D02*
X118130952Y-121939095D01*
X118130952Y-121939095D02*
X117845238Y-122224809D01*
X117845238Y-122224809D02*
X118154762Y-122224809D01*
X118345238Y-121772428D02*
X118369047Y-121748619D01*
X118369047Y-121748619D02*
X118416666Y-121724809D01*
X118416666Y-121724809D02*
X118535714Y-121724809D01*
X118535714Y-121724809D02*
X118583333Y-121748619D01*
X118583333Y-121748619D02*
X118607142Y-121772428D01*
X118607142Y-121772428D02*
X118630952Y-121820047D01*
X118630952Y-121820047D02*
X118630952Y-121867666D01*
X118630952Y-121867666D02*
X118607142Y-121939095D01*
X118607142Y-121939095D02*
X118321428Y-122224809D01*
X118321428Y-122224809D02*
X118630952Y-122224809D01*
X142630953Y-108776809D02*
X142916667Y-108776809D01*
X142773810Y-109276809D02*
X142773810Y-108776809D01*
X143083333Y-109276809D02*
X143083333Y-108776809D01*
X143083333Y-108776809D02*
X143273809Y-108776809D01*
X143273809Y-108776809D02*
X143321428Y-108800619D01*
X143321428Y-108800619D02*
X143345238Y-108824428D01*
X143345238Y-108824428D02*
X143369047Y-108872047D01*
X143369047Y-108872047D02*
X143369047Y-108943476D01*
X143369047Y-108943476D02*
X143345238Y-108991095D01*
X143345238Y-108991095D02*
X143321428Y-109014904D01*
X143321428Y-109014904D02*
X143273809Y-109038714D01*
X143273809Y-109038714D02*
X143083333Y-109038714D01*
X143845238Y-109276809D02*
X143559524Y-109276809D01*
X143702381Y-109276809D02*
X143702381Y-108776809D01*
X143702381Y-108776809D02*
X143654762Y-108848238D01*
X143654762Y-108848238D02*
X143607143Y-108895857D01*
X143607143Y-108895857D02*
X143559524Y-108919666D01*
X144154761Y-108776809D02*
X144202380Y-108776809D01*
X144202380Y-108776809D02*
X144249999Y-108800619D01*
X144249999Y-108800619D02*
X144273809Y-108824428D01*
X144273809Y-108824428D02*
X144297618Y-108872047D01*
X144297618Y-108872047D02*
X144321428Y-108967285D01*
X144321428Y-108967285D02*
X144321428Y-109086333D01*
X144321428Y-109086333D02*
X144297618Y-109181571D01*
X144297618Y-109181571D02*
X144273809Y-109229190D01*
X144273809Y-109229190D02*
X144249999Y-109253000D01*
X144249999Y-109253000D02*
X144202380Y-109276809D01*
X144202380Y-109276809D02*
X144154761Y-109276809D01*
X144154761Y-109276809D02*
X144107142Y-109253000D01*
X144107142Y-109253000D02*
X144083333Y-109229190D01*
X144083333Y-109229190D02*
X144059523Y-109181571D01*
X144059523Y-109181571D02*
X144035714Y-109086333D01*
X144035714Y-109086333D02*
X144035714Y-108967285D01*
X144035714Y-108967285D02*
X144059523Y-108872047D01*
X144059523Y-108872047D02*
X144083333Y-108824428D01*
X144083333Y-108824428D02*
X144107142Y-108800619D01*
X144107142Y-108800619D02*
X144154761Y-108776809D01*
X138178570Y-110177190D02*
X138154761Y-110201000D01*
X138154761Y-110201000D02*
X138083332Y-110224809D01*
X138083332Y-110224809D02*
X138035713Y-110224809D01*
X138035713Y-110224809D02*
X137964285Y-110201000D01*
X137964285Y-110201000D02*
X137916666Y-110153380D01*
X137916666Y-110153380D02*
X137892856Y-110105761D01*
X137892856Y-110105761D02*
X137869047Y-110010523D01*
X137869047Y-110010523D02*
X137869047Y-109939095D01*
X137869047Y-109939095D02*
X137892856Y-109843857D01*
X137892856Y-109843857D02*
X137916666Y-109796238D01*
X137916666Y-109796238D02*
X137964285Y-109748619D01*
X137964285Y-109748619D02*
X138035713Y-109724809D01*
X138035713Y-109724809D02*
X138083332Y-109724809D01*
X138083332Y-109724809D02*
X138154761Y-109748619D01*
X138154761Y-109748619D02*
X138178570Y-109772428D01*
X138392856Y-110224809D02*
X138392856Y-109724809D01*
X138392856Y-109962904D02*
X138678570Y-109962904D01*
X138678570Y-110224809D02*
X138678570Y-109724809D01*
X139178571Y-109748619D02*
X139130952Y-109724809D01*
X139130952Y-109724809D02*
X139059523Y-109724809D01*
X139059523Y-109724809D02*
X138988095Y-109748619D01*
X138988095Y-109748619D02*
X138940476Y-109796238D01*
X138940476Y-109796238D02*
X138916666Y-109843857D01*
X138916666Y-109843857D02*
X138892857Y-109939095D01*
X138892857Y-109939095D02*
X138892857Y-110010523D01*
X138892857Y-110010523D02*
X138916666Y-110105761D01*
X138916666Y-110105761D02*
X138940476Y-110153380D01*
X138940476Y-110153380D02*
X138988095Y-110201000D01*
X138988095Y-110201000D02*
X139059523Y-110224809D01*
X139059523Y-110224809D02*
X139107142Y-110224809D01*
X139107142Y-110224809D02*
X139178571Y-110201000D01*
X139178571Y-110201000D02*
X139202380Y-110177190D01*
X139202380Y-110177190D02*
X139202380Y-110010523D01*
X139202380Y-110010523D02*
X139107142Y-110010523D01*
X139297619Y-110272428D02*
X139678571Y-110272428D01*
X139797618Y-110224809D02*
X139797618Y-109724809D01*
X139797618Y-109724809D02*
X139988094Y-109724809D01*
X139988094Y-109724809D02*
X140035713Y-109748619D01*
X140035713Y-109748619D02*
X140059523Y-109772428D01*
X140059523Y-109772428D02*
X140083332Y-109820047D01*
X140083332Y-109820047D02*
X140083332Y-109891476D01*
X140083332Y-109891476D02*
X140059523Y-109939095D01*
X140059523Y-109939095D02*
X140035713Y-109962904D01*
X140035713Y-109962904D02*
X139988094Y-109986714D01*
X139988094Y-109986714D02*
X139797618Y-109986714D01*
X140559523Y-109748619D02*
X140511904Y-109724809D01*
X140511904Y-109724809D02*
X140440475Y-109724809D01*
X140440475Y-109724809D02*
X140369047Y-109748619D01*
X140369047Y-109748619D02*
X140321428Y-109796238D01*
X140321428Y-109796238D02*
X140297618Y-109843857D01*
X140297618Y-109843857D02*
X140273809Y-109939095D01*
X140273809Y-109939095D02*
X140273809Y-110010523D01*
X140273809Y-110010523D02*
X140297618Y-110105761D01*
X140297618Y-110105761D02*
X140321428Y-110153380D01*
X140321428Y-110153380D02*
X140369047Y-110201000D01*
X140369047Y-110201000D02*
X140440475Y-110224809D01*
X140440475Y-110224809D02*
X140488094Y-110224809D01*
X140488094Y-110224809D02*
X140559523Y-110201000D01*
X140559523Y-110201000D02*
X140583332Y-110177190D01*
X140583332Y-110177190D02*
X140583332Y-110010523D01*
X140583332Y-110010523D02*
X140488094Y-110010523D01*
X140892856Y-109724809D02*
X140988094Y-109724809D01*
X140988094Y-109724809D02*
X141035713Y-109748619D01*
X141035713Y-109748619D02*
X141083332Y-109796238D01*
X141083332Y-109796238D02*
X141107142Y-109891476D01*
X141107142Y-109891476D02*
X141107142Y-110058142D01*
X141107142Y-110058142D02*
X141083332Y-110153380D01*
X141083332Y-110153380D02*
X141035713Y-110201000D01*
X141035713Y-110201000D02*
X140988094Y-110224809D01*
X140988094Y-110224809D02*
X140892856Y-110224809D01*
X140892856Y-110224809D02*
X140845237Y-110201000D01*
X140845237Y-110201000D02*
X140797618Y-110153380D01*
X140797618Y-110153380D02*
X140773809Y-110058142D01*
X140773809Y-110058142D02*
X140773809Y-109891476D01*
X140773809Y-109891476D02*
X140797618Y-109796238D01*
X140797618Y-109796238D02*
X140845237Y-109748619D01*
X140845237Y-109748619D02*
X140892856Y-109724809D01*
X141416666Y-109724809D02*
X141511904Y-109724809D01*
X141511904Y-109724809D02*
X141559523Y-109748619D01*
X141559523Y-109748619D02*
X141607142Y-109796238D01*
X141607142Y-109796238D02*
X141630952Y-109891476D01*
X141630952Y-109891476D02*
X141630952Y-110058142D01*
X141630952Y-110058142D02*
X141607142Y-110153380D01*
X141607142Y-110153380D02*
X141559523Y-110201000D01*
X141559523Y-110201000D02*
X141511904Y-110224809D01*
X141511904Y-110224809D02*
X141416666Y-110224809D01*
X141416666Y-110224809D02*
X141369047Y-110201000D01*
X141369047Y-110201000D02*
X141321428Y-110153380D01*
X141321428Y-110153380D02*
X141297619Y-110058142D01*
X141297619Y-110058142D02*
X141297619Y-109891476D01*
X141297619Y-109891476D02*
X141321428Y-109796238D01*
X141321428Y-109796238D02*
X141369047Y-109748619D01*
X141369047Y-109748619D02*
X141416666Y-109724809D01*
X141845238Y-110224809D02*
X141845238Y-109724809D01*
X141845238Y-109724809D02*
X141964286Y-109724809D01*
X141964286Y-109724809D02*
X142035714Y-109748619D01*
X142035714Y-109748619D02*
X142083333Y-109796238D01*
X142083333Y-109796238D02*
X142107143Y-109843857D01*
X142107143Y-109843857D02*
X142130952Y-109939095D01*
X142130952Y-109939095D02*
X142130952Y-110010523D01*
X142130952Y-110010523D02*
X142107143Y-110105761D01*
X142107143Y-110105761D02*
X142083333Y-110153380D01*
X142083333Y-110153380D02*
X142035714Y-110201000D01*
X142035714Y-110201000D02*
X141964286Y-110224809D01*
X141964286Y-110224809D02*
X141845238Y-110224809D01*
X157916666Y-107024809D02*
X157750000Y-106786714D01*
X157630952Y-107024809D02*
X157630952Y-106524809D01*
X157630952Y-106524809D02*
X157821428Y-106524809D01*
X157821428Y-106524809D02*
X157869047Y-106548619D01*
X157869047Y-106548619D02*
X157892857Y-106572428D01*
X157892857Y-106572428D02*
X157916666Y-106620047D01*
X157916666Y-106620047D02*
X157916666Y-106691476D01*
X157916666Y-106691476D02*
X157892857Y-106739095D01*
X157892857Y-106739095D02*
X157869047Y-106762904D01*
X157869047Y-106762904D02*
X157821428Y-106786714D01*
X157821428Y-106786714D02*
X157630952Y-106786714D01*
X158345238Y-106524809D02*
X158250000Y-106524809D01*
X158250000Y-106524809D02*
X158202381Y-106548619D01*
X158202381Y-106548619D02*
X158178571Y-106572428D01*
X158178571Y-106572428D02*
X158130952Y-106643857D01*
X158130952Y-106643857D02*
X158107143Y-106739095D01*
X158107143Y-106739095D02*
X158107143Y-106929571D01*
X158107143Y-106929571D02*
X158130952Y-106977190D01*
X158130952Y-106977190D02*
X158154762Y-107001000D01*
X158154762Y-107001000D02*
X158202381Y-107024809D01*
X158202381Y-107024809D02*
X158297619Y-107024809D01*
X158297619Y-107024809D02*
X158345238Y-107001000D01*
X158345238Y-107001000D02*
X158369047Y-106977190D01*
X158369047Y-106977190D02*
X158392857Y-106929571D01*
X158392857Y-106929571D02*
X158392857Y-106810523D01*
X158392857Y-106810523D02*
X158369047Y-106762904D01*
X158369047Y-106762904D02*
X158345238Y-106739095D01*
X158345238Y-106739095D02*
X158297619Y-106715285D01*
X158297619Y-106715285D02*
X158202381Y-106715285D01*
X158202381Y-106715285D02*
X158154762Y-106739095D01*
X158154762Y-106739095D02*
X158130952Y-106762904D01*
X158130952Y-106762904D02*
X158107143Y-106810523D01*
X112816666Y-122277190D02*
X112792857Y-122301000D01*
X112792857Y-122301000D02*
X112721428Y-122324809D01*
X112721428Y-122324809D02*
X112673809Y-122324809D01*
X112673809Y-122324809D02*
X112602381Y-122301000D01*
X112602381Y-122301000D02*
X112554762Y-122253380D01*
X112554762Y-122253380D02*
X112530952Y-122205761D01*
X112530952Y-122205761D02*
X112507143Y-122110523D01*
X112507143Y-122110523D02*
X112507143Y-122039095D01*
X112507143Y-122039095D02*
X112530952Y-121943857D01*
X112530952Y-121943857D02*
X112554762Y-121896238D01*
X112554762Y-121896238D02*
X112602381Y-121848619D01*
X112602381Y-121848619D02*
X112673809Y-121824809D01*
X112673809Y-121824809D02*
X112721428Y-121824809D01*
X112721428Y-121824809D02*
X112792857Y-121848619D01*
X112792857Y-121848619D02*
X112816666Y-121872428D01*
X113245238Y-121991476D02*
X113245238Y-122324809D01*
X113126190Y-121801000D02*
X113007143Y-122158142D01*
X113007143Y-122158142D02*
X113316666Y-122158142D01*
X113428571Y-159474809D02*
X113261905Y-159236714D01*
X113142857Y-159474809D02*
X113142857Y-158974809D01*
X113142857Y-158974809D02*
X113333333Y-158974809D01*
X113333333Y-158974809D02*
X113380952Y-158998619D01*
X113380952Y-158998619D02*
X113404762Y-159022428D01*
X113404762Y-159022428D02*
X113428571Y-159070047D01*
X113428571Y-159070047D02*
X113428571Y-159141476D01*
X113428571Y-159141476D02*
X113404762Y-159189095D01*
X113404762Y-159189095D02*
X113380952Y-159212904D01*
X113380952Y-159212904D02*
X113333333Y-159236714D01*
X113333333Y-159236714D02*
X113142857Y-159236714D01*
X113904762Y-159474809D02*
X113619048Y-159474809D01*
X113761905Y-159474809D02*
X113761905Y-158974809D01*
X113761905Y-158974809D02*
X113714286Y-159046238D01*
X113714286Y-159046238D02*
X113666667Y-159093857D01*
X113666667Y-159093857D02*
X113619048Y-159117666D01*
X114190476Y-159189095D02*
X114142857Y-159165285D01*
X114142857Y-159165285D02*
X114119047Y-159141476D01*
X114119047Y-159141476D02*
X114095238Y-159093857D01*
X114095238Y-159093857D02*
X114095238Y-159070047D01*
X114095238Y-159070047D02*
X114119047Y-159022428D01*
X114119047Y-159022428D02*
X114142857Y-158998619D01*
X114142857Y-158998619D02*
X114190476Y-158974809D01*
X114190476Y-158974809D02*
X114285714Y-158974809D01*
X114285714Y-158974809D02*
X114333333Y-158998619D01*
X114333333Y-158998619D02*
X114357142Y-159022428D01*
X114357142Y-159022428D02*
X114380952Y-159070047D01*
X114380952Y-159070047D02*
X114380952Y-159093857D01*
X114380952Y-159093857D02*
X114357142Y-159141476D01*
X114357142Y-159141476D02*
X114333333Y-159165285D01*
X114333333Y-159165285D02*
X114285714Y-159189095D01*
X114285714Y-159189095D02*
X114190476Y-159189095D01*
X114190476Y-159189095D02*
X114142857Y-159212904D01*
X114142857Y-159212904D02*
X114119047Y-159236714D01*
X114119047Y-159236714D02*
X114095238Y-159284333D01*
X114095238Y-159284333D02*
X114095238Y-159379571D01*
X114095238Y-159379571D02*
X114119047Y-159427190D01*
X114119047Y-159427190D02*
X114142857Y-159451000D01*
X114142857Y-159451000D02*
X114190476Y-159474809D01*
X114190476Y-159474809D02*
X114285714Y-159474809D01*
X114285714Y-159474809D02*
X114333333Y-159451000D01*
X114333333Y-159451000D02*
X114357142Y-159427190D01*
X114357142Y-159427190D02*
X114380952Y-159379571D01*
X114380952Y-159379571D02*
X114380952Y-159284333D01*
X114380952Y-159284333D02*
X114357142Y-159236714D01*
X114357142Y-159236714D02*
X114333333Y-159212904D01*
X114333333Y-159212904D02*
X114285714Y-159189095D01*
X147333334Y-154201000D02*
X147404762Y-154224809D01*
X147404762Y-154224809D02*
X147523810Y-154224809D01*
X147523810Y-154224809D02*
X147571429Y-154201000D01*
X147571429Y-154201000D02*
X147595238Y-154177190D01*
X147595238Y-154177190D02*
X147619048Y-154129571D01*
X147619048Y-154129571D02*
X147619048Y-154081952D01*
X147619048Y-154081952D02*
X147595238Y-154034333D01*
X147595238Y-154034333D02*
X147571429Y-154010523D01*
X147571429Y-154010523D02*
X147523810Y-153986714D01*
X147523810Y-153986714D02*
X147428572Y-153962904D01*
X147428572Y-153962904D02*
X147380953Y-153939095D01*
X147380953Y-153939095D02*
X147357143Y-153915285D01*
X147357143Y-153915285D02*
X147333334Y-153867666D01*
X147333334Y-153867666D02*
X147333334Y-153820047D01*
X147333334Y-153820047D02*
X147357143Y-153772428D01*
X147357143Y-153772428D02*
X147380953Y-153748619D01*
X147380953Y-153748619D02*
X147428572Y-153724809D01*
X147428572Y-153724809D02*
X147547619Y-153724809D01*
X147547619Y-153724809D02*
X147619048Y-153748619D01*
X147785714Y-153724809D02*
X147904762Y-154224809D01*
X147904762Y-154224809D02*
X148000000Y-153867666D01*
X148000000Y-153867666D02*
X148095238Y-154224809D01*
X148095238Y-154224809D02*
X148214286Y-153724809D01*
X148666667Y-154224809D02*
X148380953Y-154224809D01*
X148523810Y-154224809D02*
X148523810Y-153724809D01*
X148523810Y-153724809D02*
X148476191Y-153796238D01*
X148476191Y-153796238D02*
X148428572Y-153843857D01*
X148428572Y-153843857D02*
X148380953Y-153867666D01*
D12*
X151454819Y-154399999D02*
X151692914Y-154399999D01*
X151597676Y-154638094D02*
X151692914Y-154399999D01*
X151692914Y-154399999D02*
X151597676Y-154161904D01*
X151883390Y-154542856D02*
X151692914Y-154399999D01*
X151692914Y-154399999D02*
X151883390Y-154257142D01*
D11*
X132906666Y-144394809D02*
X132740000Y-144156714D01*
X132620952Y-144394809D02*
X132620952Y-143894809D01*
X132620952Y-143894809D02*
X132811428Y-143894809D01*
X132811428Y-143894809D02*
X132859047Y-143918619D01*
X132859047Y-143918619D02*
X132882857Y-143942428D01*
X132882857Y-143942428D02*
X132906666Y-143990047D01*
X132906666Y-143990047D02*
X132906666Y-144061476D01*
X132906666Y-144061476D02*
X132882857Y-144109095D01*
X132882857Y-144109095D02*
X132859047Y-144132904D01*
X132859047Y-144132904D02*
X132811428Y-144156714D01*
X132811428Y-144156714D02*
X132620952Y-144156714D01*
X133382857Y-144394809D02*
X133097143Y-144394809D01*
X133240000Y-144394809D02*
X133240000Y-143894809D01*
X133240000Y-143894809D02*
X133192381Y-143966238D01*
X133192381Y-143966238D02*
X133144762Y-144013857D01*
X133144762Y-144013857D02*
X133097143Y-144037666D01*
X129478571Y-135824809D02*
X129311905Y-135586714D01*
X129192857Y-135824809D02*
X129192857Y-135324809D01*
X129192857Y-135324809D02*
X129383333Y-135324809D01*
X129383333Y-135324809D02*
X129430952Y-135348619D01*
X129430952Y-135348619D02*
X129454762Y-135372428D01*
X129454762Y-135372428D02*
X129478571Y-135420047D01*
X129478571Y-135420047D02*
X129478571Y-135491476D01*
X129478571Y-135491476D02*
X129454762Y-135539095D01*
X129454762Y-135539095D02*
X129430952Y-135562904D01*
X129430952Y-135562904D02*
X129383333Y-135586714D01*
X129383333Y-135586714D02*
X129192857Y-135586714D01*
X129954762Y-135824809D02*
X129669048Y-135824809D01*
X129811905Y-135824809D02*
X129811905Y-135324809D01*
X129811905Y-135324809D02*
X129764286Y-135396238D01*
X129764286Y-135396238D02*
X129716667Y-135443857D01*
X129716667Y-135443857D02*
X129669048Y-135467666D01*
X130383333Y-135491476D02*
X130383333Y-135824809D01*
X130264285Y-135301000D02*
X130145238Y-135658142D01*
X130145238Y-135658142D02*
X130454761Y-135658142D01*
X148630953Y-146276809D02*
X148916667Y-146276809D01*
X148773810Y-146776809D02*
X148773810Y-146276809D01*
X149083333Y-146776809D02*
X149083333Y-146276809D01*
X149083333Y-146276809D02*
X149273809Y-146276809D01*
X149273809Y-146276809D02*
X149321428Y-146300619D01*
X149321428Y-146300619D02*
X149345238Y-146324428D01*
X149345238Y-146324428D02*
X149369047Y-146372047D01*
X149369047Y-146372047D02*
X149369047Y-146443476D01*
X149369047Y-146443476D02*
X149345238Y-146491095D01*
X149345238Y-146491095D02*
X149321428Y-146514904D01*
X149321428Y-146514904D02*
X149273809Y-146538714D01*
X149273809Y-146538714D02*
X149083333Y-146538714D01*
X149845238Y-146776809D02*
X149559524Y-146776809D01*
X149702381Y-146776809D02*
X149702381Y-146276809D01*
X149702381Y-146276809D02*
X149654762Y-146348238D01*
X149654762Y-146348238D02*
X149607143Y-146395857D01*
X149607143Y-146395857D02*
X149559524Y-146419666D01*
X150011904Y-146276809D02*
X150321428Y-146276809D01*
X150321428Y-146276809D02*
X150154761Y-146467285D01*
X150154761Y-146467285D02*
X150226190Y-146467285D01*
X150226190Y-146467285D02*
X150273809Y-146491095D01*
X150273809Y-146491095D02*
X150297618Y-146514904D01*
X150297618Y-146514904D02*
X150321428Y-146562523D01*
X150321428Y-146562523D02*
X150321428Y-146681571D01*
X150321428Y-146681571D02*
X150297618Y-146729190D01*
X150297618Y-146729190D02*
X150273809Y-146753000D01*
X150273809Y-146753000D02*
X150226190Y-146776809D01*
X150226190Y-146776809D02*
X150083333Y-146776809D01*
X150083333Y-146776809D02*
X150035714Y-146753000D01*
X150035714Y-146753000D02*
X150011904Y-146729190D01*
X146666667Y-149724809D02*
X146666667Y-149224809D01*
X146666667Y-149224809D02*
X146785715Y-149224809D01*
X146785715Y-149224809D02*
X146857143Y-149248619D01*
X146857143Y-149248619D02*
X146904762Y-149296238D01*
X146904762Y-149296238D02*
X146928572Y-149343857D01*
X146928572Y-149343857D02*
X146952381Y-149439095D01*
X146952381Y-149439095D02*
X146952381Y-149510523D01*
X146952381Y-149510523D02*
X146928572Y-149605761D01*
X146928572Y-149605761D02*
X146904762Y-149653380D01*
X146904762Y-149653380D02*
X146857143Y-149701000D01*
X146857143Y-149701000D02*
X146785715Y-149724809D01*
X146785715Y-149724809D02*
X146666667Y-149724809D01*
X147166667Y-149724809D02*
X147166667Y-149224809D01*
X147380953Y-149701000D02*
X147452381Y-149724809D01*
X147452381Y-149724809D02*
X147571429Y-149724809D01*
X147571429Y-149724809D02*
X147619048Y-149701000D01*
X147619048Y-149701000D02*
X147642857Y-149677190D01*
X147642857Y-149677190D02*
X147666667Y-149629571D01*
X147666667Y-149629571D02*
X147666667Y-149581952D01*
X147666667Y-149581952D02*
X147642857Y-149534333D01*
X147642857Y-149534333D02*
X147619048Y-149510523D01*
X147619048Y-149510523D02*
X147571429Y-149486714D01*
X147571429Y-149486714D02*
X147476191Y-149462904D01*
X147476191Y-149462904D02*
X147428572Y-149439095D01*
X147428572Y-149439095D02*
X147404762Y-149415285D01*
X147404762Y-149415285D02*
X147380953Y-149367666D01*
X147380953Y-149367666D02*
X147380953Y-149320047D01*
X147380953Y-149320047D02*
X147404762Y-149272428D01*
X147404762Y-149272428D02*
X147428572Y-149248619D01*
X147428572Y-149248619D02*
X147476191Y-149224809D01*
X147476191Y-149224809D02*
X147595238Y-149224809D01*
X147595238Y-149224809D02*
X147666667Y-149248619D01*
X147880952Y-149724809D02*
X147880952Y-149224809D01*
X147880952Y-149224809D02*
X148071428Y-149224809D01*
X148071428Y-149224809D02*
X148119047Y-149248619D01*
X148119047Y-149248619D02*
X148142857Y-149272428D01*
X148142857Y-149272428D02*
X148166666Y-149320047D01*
X148166666Y-149320047D02*
X148166666Y-149391476D01*
X148166666Y-149391476D02*
X148142857Y-149439095D01*
X148142857Y-149439095D02*
X148119047Y-149462904D01*
X148119047Y-149462904D02*
X148071428Y-149486714D01*
X148071428Y-149486714D02*
X147880952Y-149486714D01*
X148261905Y-149772428D02*
X148642857Y-149772428D01*
X148761904Y-149724809D02*
X148761904Y-149224809D01*
X148761904Y-149224809D02*
X148928571Y-149581952D01*
X148928571Y-149581952D02*
X149095237Y-149224809D01*
X149095237Y-149224809D02*
X149095237Y-149724809D01*
X149428571Y-149224809D02*
X149523809Y-149224809D01*
X149523809Y-149224809D02*
X149571428Y-149248619D01*
X149571428Y-149248619D02*
X149619047Y-149296238D01*
X149619047Y-149296238D02*
X149642857Y-149391476D01*
X149642857Y-149391476D02*
X149642857Y-149558142D01*
X149642857Y-149558142D02*
X149619047Y-149653380D01*
X149619047Y-149653380D02*
X149571428Y-149701000D01*
X149571428Y-149701000D02*
X149523809Y-149724809D01*
X149523809Y-149724809D02*
X149428571Y-149724809D01*
X149428571Y-149724809D02*
X149380952Y-149701000D01*
X149380952Y-149701000D02*
X149333333Y-149653380D01*
X149333333Y-149653380D02*
X149309524Y-149558142D01*
X149309524Y-149558142D02*
X149309524Y-149391476D01*
X149309524Y-149391476D02*
X149333333Y-149296238D01*
X149333333Y-149296238D02*
X149380952Y-149248619D01*
X149380952Y-149248619D02*
X149428571Y-149224809D01*
X149833334Y-149701000D02*
X149904762Y-149724809D01*
X149904762Y-149724809D02*
X150023810Y-149724809D01*
X150023810Y-149724809D02*
X150071429Y-149701000D01*
X150071429Y-149701000D02*
X150095238Y-149677190D01*
X150095238Y-149677190D02*
X150119048Y-149629571D01*
X150119048Y-149629571D02*
X150119048Y-149581952D01*
X150119048Y-149581952D02*
X150095238Y-149534333D01*
X150095238Y-149534333D02*
X150071429Y-149510523D01*
X150071429Y-149510523D02*
X150023810Y-149486714D01*
X150023810Y-149486714D02*
X149928572Y-149462904D01*
X149928572Y-149462904D02*
X149880953Y-149439095D01*
X149880953Y-149439095D02*
X149857143Y-149415285D01*
X149857143Y-149415285D02*
X149833334Y-149367666D01*
X149833334Y-149367666D02*
X149833334Y-149320047D01*
X149833334Y-149320047D02*
X149857143Y-149272428D01*
X149857143Y-149272428D02*
X149880953Y-149248619D01*
X149880953Y-149248619D02*
X149928572Y-149224809D01*
X149928572Y-149224809D02*
X150047619Y-149224809D01*
X150047619Y-149224809D02*
X150119048Y-149248619D01*
X150333333Y-149724809D02*
X150333333Y-149224809D01*
X154195238Y-126624809D02*
X154195238Y-126124809D01*
X154195238Y-126124809D02*
X154361905Y-126481952D01*
X154361905Y-126481952D02*
X154528571Y-126124809D01*
X154528571Y-126124809D02*
X154528571Y-126624809D01*
X154742858Y-126172428D02*
X154766667Y-126148619D01*
X154766667Y-126148619D02*
X154814286Y-126124809D01*
X154814286Y-126124809D02*
X154933334Y-126124809D01*
X154933334Y-126124809D02*
X154980953Y-126148619D01*
X154980953Y-126148619D02*
X155004762Y-126172428D01*
X155004762Y-126172428D02*
X155028572Y-126220047D01*
X155028572Y-126220047D02*
X155028572Y-126267666D01*
X155028572Y-126267666D02*
X155004762Y-126339095D01*
X155004762Y-126339095D02*
X154719048Y-126624809D01*
X154719048Y-126624809D02*
X155028572Y-126624809D01*
X128516666Y-150277190D02*
X128492857Y-150301000D01*
X128492857Y-150301000D02*
X128421428Y-150324809D01*
X128421428Y-150324809D02*
X128373809Y-150324809D01*
X128373809Y-150324809D02*
X128302381Y-150301000D01*
X128302381Y-150301000D02*
X128254762Y-150253380D01*
X128254762Y-150253380D02*
X128230952Y-150205761D01*
X128230952Y-150205761D02*
X128207143Y-150110523D01*
X128207143Y-150110523D02*
X128207143Y-150039095D01*
X128207143Y-150039095D02*
X128230952Y-149943857D01*
X128230952Y-149943857D02*
X128254762Y-149896238D01*
X128254762Y-149896238D02*
X128302381Y-149848619D01*
X128302381Y-149848619D02*
X128373809Y-149824809D01*
X128373809Y-149824809D02*
X128421428Y-149824809D01*
X128421428Y-149824809D02*
X128492857Y-149848619D01*
X128492857Y-149848619D02*
X128516666Y-149872428D01*
X128992857Y-150324809D02*
X128707143Y-150324809D01*
X128850000Y-150324809D02*
X128850000Y-149824809D01*
X128850000Y-149824809D02*
X128802381Y-149896238D01*
X128802381Y-149896238D02*
X128754762Y-149943857D01*
X128754762Y-149943857D02*
X128707143Y-149967666D01*
X143619047Y-132724809D02*
X143619047Y-133129571D01*
X143619047Y-133129571D02*
X143642857Y-133177190D01*
X143642857Y-133177190D02*
X143666666Y-133201000D01*
X143666666Y-133201000D02*
X143714285Y-133224809D01*
X143714285Y-133224809D02*
X143809523Y-133224809D01*
X143809523Y-133224809D02*
X143857142Y-133201000D01*
X143857142Y-133201000D02*
X143880952Y-133177190D01*
X143880952Y-133177190D02*
X143904761Y-133129571D01*
X143904761Y-133129571D02*
X143904761Y-132724809D01*
X144357143Y-132891476D02*
X144357143Y-133224809D01*
X144238095Y-132701000D02*
X144119048Y-133058142D01*
X144119048Y-133058142D02*
X144428571Y-133058142D01*
X138869048Y-141276809D02*
X139154762Y-141276809D01*
X139011905Y-141776809D02*
X139011905Y-141276809D01*
X139321428Y-141776809D02*
X139321428Y-141276809D01*
X139321428Y-141276809D02*
X139511904Y-141276809D01*
X139511904Y-141276809D02*
X139559523Y-141300619D01*
X139559523Y-141300619D02*
X139583333Y-141324428D01*
X139583333Y-141324428D02*
X139607142Y-141372047D01*
X139607142Y-141372047D02*
X139607142Y-141443476D01*
X139607142Y-141443476D02*
X139583333Y-141491095D01*
X139583333Y-141491095D02*
X139559523Y-141514904D01*
X139559523Y-141514904D02*
X139511904Y-141538714D01*
X139511904Y-141538714D02*
X139321428Y-141538714D01*
X139845238Y-141776809D02*
X139940476Y-141776809D01*
X139940476Y-141776809D02*
X139988095Y-141753000D01*
X139988095Y-141753000D02*
X140011904Y-141729190D01*
X140011904Y-141729190D02*
X140059523Y-141657761D01*
X140059523Y-141657761D02*
X140083333Y-141562523D01*
X140083333Y-141562523D02*
X140083333Y-141372047D01*
X140083333Y-141372047D02*
X140059523Y-141324428D01*
X140059523Y-141324428D02*
X140035714Y-141300619D01*
X140035714Y-141300619D02*
X139988095Y-141276809D01*
X139988095Y-141276809D02*
X139892857Y-141276809D01*
X139892857Y-141276809D02*
X139845238Y-141300619D01*
X139845238Y-141300619D02*
X139821428Y-141324428D01*
X139821428Y-141324428D02*
X139797619Y-141372047D01*
X139797619Y-141372047D02*
X139797619Y-141491095D01*
X139797619Y-141491095D02*
X139821428Y-141538714D01*
X139821428Y-141538714D02*
X139845238Y-141562523D01*
X139845238Y-141562523D02*
X139892857Y-141586333D01*
X139892857Y-141586333D02*
X139988095Y-141586333D01*
X139988095Y-141586333D02*
X140035714Y-141562523D01*
X140035714Y-141562523D02*
X140059523Y-141538714D01*
X140059523Y-141538714D02*
X140083333Y-141491095D01*
X138130953Y-144774809D02*
X138130953Y-144274809D01*
X138345239Y-144322428D02*
X138369048Y-144298619D01*
X138369048Y-144298619D02*
X138416667Y-144274809D01*
X138416667Y-144274809D02*
X138535715Y-144274809D01*
X138535715Y-144274809D02*
X138583334Y-144298619D01*
X138583334Y-144298619D02*
X138607143Y-144322428D01*
X138607143Y-144322428D02*
X138630953Y-144370047D01*
X138630953Y-144370047D02*
X138630953Y-144417666D01*
X138630953Y-144417666D02*
X138607143Y-144489095D01*
X138607143Y-144489095D02*
X138321429Y-144774809D01*
X138321429Y-144774809D02*
X138630953Y-144774809D01*
X139130952Y-144727190D02*
X139107143Y-144751000D01*
X139107143Y-144751000D02*
X139035714Y-144774809D01*
X139035714Y-144774809D02*
X138988095Y-144774809D01*
X138988095Y-144774809D02*
X138916667Y-144751000D01*
X138916667Y-144751000D02*
X138869048Y-144703380D01*
X138869048Y-144703380D02*
X138845238Y-144655761D01*
X138845238Y-144655761D02*
X138821429Y-144560523D01*
X138821429Y-144560523D02*
X138821429Y-144489095D01*
X138821429Y-144489095D02*
X138845238Y-144393857D01*
X138845238Y-144393857D02*
X138869048Y-144346238D01*
X138869048Y-144346238D02*
X138916667Y-144298619D01*
X138916667Y-144298619D02*
X138988095Y-144274809D01*
X138988095Y-144274809D02*
X139035714Y-144274809D01*
X139035714Y-144274809D02*
X139107143Y-144298619D01*
X139107143Y-144298619D02*
X139130952Y-144322428D01*
X139226191Y-144822428D02*
X139607143Y-144822428D01*
X139702381Y-144751000D02*
X139773809Y-144774809D01*
X139773809Y-144774809D02*
X139892857Y-144774809D01*
X139892857Y-144774809D02*
X139940476Y-144751000D01*
X139940476Y-144751000D02*
X139964285Y-144727190D01*
X139964285Y-144727190D02*
X139988095Y-144679571D01*
X139988095Y-144679571D02*
X139988095Y-144631952D01*
X139988095Y-144631952D02*
X139964285Y-144584333D01*
X139964285Y-144584333D02*
X139940476Y-144560523D01*
X139940476Y-144560523D02*
X139892857Y-144536714D01*
X139892857Y-144536714D02*
X139797619Y-144512904D01*
X139797619Y-144512904D02*
X139750000Y-144489095D01*
X139750000Y-144489095D02*
X139726190Y-144465285D01*
X139726190Y-144465285D02*
X139702381Y-144417666D01*
X139702381Y-144417666D02*
X139702381Y-144370047D01*
X139702381Y-144370047D02*
X139726190Y-144322428D01*
X139726190Y-144322428D02*
X139750000Y-144298619D01*
X139750000Y-144298619D02*
X139797619Y-144274809D01*
X139797619Y-144274809D02*
X139916666Y-144274809D01*
X139916666Y-144274809D02*
X139988095Y-144298619D01*
X140488094Y-144727190D02*
X140464285Y-144751000D01*
X140464285Y-144751000D02*
X140392856Y-144774809D01*
X140392856Y-144774809D02*
X140345237Y-144774809D01*
X140345237Y-144774809D02*
X140273809Y-144751000D01*
X140273809Y-144751000D02*
X140226190Y-144703380D01*
X140226190Y-144703380D02*
X140202380Y-144655761D01*
X140202380Y-144655761D02*
X140178571Y-144560523D01*
X140178571Y-144560523D02*
X140178571Y-144489095D01*
X140178571Y-144489095D02*
X140202380Y-144393857D01*
X140202380Y-144393857D02*
X140226190Y-144346238D01*
X140226190Y-144346238D02*
X140273809Y-144298619D01*
X140273809Y-144298619D02*
X140345237Y-144274809D01*
X140345237Y-144274809D02*
X140392856Y-144274809D01*
X140392856Y-144274809D02*
X140464285Y-144298619D01*
X140464285Y-144298619D02*
X140488094Y-144322428D01*
X140940475Y-144774809D02*
X140702380Y-144774809D01*
X140702380Y-144774809D02*
X140702380Y-144274809D01*
D12*
X134434750Y-136704820D02*
X134434750Y-136942915D01*
X134196655Y-136847677D02*
X134434750Y-136942915D01*
X134434750Y-136942915D02*
X134672845Y-136847677D01*
X134291893Y-137133391D02*
X134434750Y-136942915D01*
X134434750Y-136942915D02*
X134577607Y-137133391D01*
D11*
X150216666Y-120324809D02*
X149978571Y-120324809D01*
X149978571Y-120324809D02*
X149978571Y-119824809D01*
X150645238Y-120324809D02*
X150359524Y-120324809D01*
X150502381Y-120324809D02*
X150502381Y-119824809D01*
X150502381Y-119824809D02*
X150454762Y-119896238D01*
X150454762Y-119896238D02*
X150407143Y-119943857D01*
X150407143Y-119943857D02*
X150359524Y-119967666D01*
X144630953Y-111776809D02*
X144916667Y-111776809D01*
X144773810Y-112276809D02*
X144773810Y-111776809D01*
X145083333Y-112276809D02*
X145083333Y-111776809D01*
X145083333Y-111776809D02*
X145273809Y-111776809D01*
X145273809Y-111776809D02*
X145321428Y-111800619D01*
X145321428Y-111800619D02*
X145345238Y-111824428D01*
X145345238Y-111824428D02*
X145369047Y-111872047D01*
X145369047Y-111872047D02*
X145369047Y-111943476D01*
X145369047Y-111943476D02*
X145345238Y-111991095D01*
X145345238Y-111991095D02*
X145321428Y-112014904D01*
X145321428Y-112014904D02*
X145273809Y-112038714D01*
X145273809Y-112038714D02*
X145083333Y-112038714D01*
X145845238Y-112276809D02*
X145559524Y-112276809D01*
X145702381Y-112276809D02*
X145702381Y-111776809D01*
X145702381Y-111776809D02*
X145654762Y-111848238D01*
X145654762Y-111848238D02*
X145607143Y-111895857D01*
X145607143Y-111895857D02*
X145559524Y-111919666D01*
X146321428Y-112276809D02*
X146035714Y-112276809D01*
X146178571Y-112276809D02*
X146178571Y-111776809D01*
X146178571Y-111776809D02*
X146130952Y-111848238D01*
X146130952Y-111848238D02*
X146083333Y-111895857D01*
X146083333Y-111895857D02*
X146035714Y-111919666D01*
X142619048Y-115177190D02*
X142595239Y-115201000D01*
X142595239Y-115201000D02*
X142523810Y-115224809D01*
X142523810Y-115224809D02*
X142476191Y-115224809D01*
X142476191Y-115224809D02*
X142404763Y-115201000D01*
X142404763Y-115201000D02*
X142357144Y-115153380D01*
X142357144Y-115153380D02*
X142333334Y-115105761D01*
X142333334Y-115105761D02*
X142309525Y-115010523D01*
X142309525Y-115010523D02*
X142309525Y-114939095D01*
X142309525Y-114939095D02*
X142333334Y-114843857D01*
X142333334Y-114843857D02*
X142357144Y-114796238D01*
X142357144Y-114796238D02*
X142404763Y-114748619D01*
X142404763Y-114748619D02*
X142476191Y-114724809D01*
X142476191Y-114724809D02*
X142523810Y-114724809D01*
X142523810Y-114724809D02*
X142595239Y-114748619D01*
X142595239Y-114748619D02*
X142619048Y-114772428D01*
X142833334Y-115224809D02*
X142833334Y-114724809D01*
X142833334Y-114962904D02*
X143119048Y-114962904D01*
X143119048Y-115224809D02*
X143119048Y-114724809D01*
X143619049Y-114748619D02*
X143571430Y-114724809D01*
X143571430Y-114724809D02*
X143500001Y-114724809D01*
X143500001Y-114724809D02*
X143428573Y-114748619D01*
X143428573Y-114748619D02*
X143380954Y-114796238D01*
X143380954Y-114796238D02*
X143357144Y-114843857D01*
X143357144Y-114843857D02*
X143333335Y-114939095D01*
X143333335Y-114939095D02*
X143333335Y-115010523D01*
X143333335Y-115010523D02*
X143357144Y-115105761D01*
X143357144Y-115105761D02*
X143380954Y-115153380D01*
X143380954Y-115153380D02*
X143428573Y-115201000D01*
X143428573Y-115201000D02*
X143500001Y-115224809D01*
X143500001Y-115224809D02*
X143547620Y-115224809D01*
X143547620Y-115224809D02*
X143619049Y-115201000D01*
X143619049Y-115201000D02*
X143642858Y-115177190D01*
X143642858Y-115177190D02*
X143642858Y-115010523D01*
X143642858Y-115010523D02*
X143547620Y-115010523D01*
X143738097Y-115272428D02*
X144119049Y-115272428D01*
X144214287Y-115201000D02*
X144285715Y-115224809D01*
X144285715Y-115224809D02*
X144404763Y-115224809D01*
X144404763Y-115224809D02*
X144452382Y-115201000D01*
X144452382Y-115201000D02*
X144476191Y-115177190D01*
X144476191Y-115177190D02*
X144500001Y-115129571D01*
X144500001Y-115129571D02*
X144500001Y-115081952D01*
X144500001Y-115081952D02*
X144476191Y-115034333D01*
X144476191Y-115034333D02*
X144452382Y-115010523D01*
X144452382Y-115010523D02*
X144404763Y-114986714D01*
X144404763Y-114986714D02*
X144309525Y-114962904D01*
X144309525Y-114962904D02*
X144261906Y-114939095D01*
X144261906Y-114939095D02*
X144238096Y-114915285D01*
X144238096Y-114915285D02*
X144214287Y-114867666D01*
X144214287Y-114867666D02*
X144214287Y-114820047D01*
X144214287Y-114820047D02*
X144238096Y-114772428D01*
X144238096Y-114772428D02*
X144261906Y-114748619D01*
X144261906Y-114748619D02*
X144309525Y-114724809D01*
X144309525Y-114724809D02*
X144428572Y-114724809D01*
X144428572Y-114724809D02*
X144500001Y-114748619D01*
X144642858Y-114724809D02*
X144928572Y-114724809D01*
X144785715Y-115224809D02*
X144785715Y-114724809D01*
X145071429Y-115081952D02*
X145309524Y-115081952D01*
X145023810Y-115224809D02*
X145190476Y-114724809D01*
X145190476Y-114724809D02*
X145357143Y-115224809D01*
X145452381Y-114724809D02*
X145738095Y-114724809D01*
X145595238Y-115224809D02*
X145595238Y-114724809D01*
X151380953Y-144276809D02*
X151666667Y-144276809D01*
X151523810Y-144776809D02*
X151523810Y-144276809D01*
X151833333Y-144776809D02*
X151833333Y-144276809D01*
X151833333Y-144276809D02*
X152023809Y-144276809D01*
X152023809Y-144276809D02*
X152071428Y-144300619D01*
X152071428Y-144300619D02*
X152095238Y-144324428D01*
X152095238Y-144324428D02*
X152119047Y-144372047D01*
X152119047Y-144372047D02*
X152119047Y-144443476D01*
X152119047Y-144443476D02*
X152095238Y-144491095D01*
X152095238Y-144491095D02*
X152071428Y-144514904D01*
X152071428Y-144514904D02*
X152023809Y-144538714D01*
X152023809Y-144538714D02*
X151833333Y-144538714D01*
X152595238Y-144776809D02*
X152309524Y-144776809D01*
X152452381Y-144776809D02*
X152452381Y-144276809D01*
X152452381Y-144276809D02*
X152404762Y-144348238D01*
X152404762Y-144348238D02*
X152357143Y-144395857D01*
X152357143Y-144395857D02*
X152309524Y-144419666D01*
X152785714Y-144324428D02*
X152809523Y-144300619D01*
X152809523Y-144300619D02*
X152857142Y-144276809D01*
X152857142Y-144276809D02*
X152976190Y-144276809D01*
X152976190Y-144276809D02*
X153023809Y-144300619D01*
X153023809Y-144300619D02*
X153047618Y-144324428D01*
X153047618Y-144324428D02*
X153071428Y-144372047D01*
X153071428Y-144372047D02*
X153071428Y-144419666D01*
X153071428Y-144419666D02*
X153047618Y-144491095D01*
X153047618Y-144491095D02*
X152761904Y-144776809D01*
X152761904Y-144776809D02*
X153071428Y-144776809D01*
X151724809Y-151119046D02*
X151224809Y-151119046D01*
X151224809Y-151119046D02*
X151224809Y-150999998D01*
X151224809Y-150999998D02*
X151248619Y-150928570D01*
X151248619Y-150928570D02*
X151296238Y-150880951D01*
X151296238Y-150880951D02*
X151343857Y-150857141D01*
X151343857Y-150857141D02*
X151439095Y-150833332D01*
X151439095Y-150833332D02*
X151510523Y-150833332D01*
X151510523Y-150833332D02*
X151605761Y-150857141D01*
X151605761Y-150857141D02*
X151653380Y-150880951D01*
X151653380Y-150880951D02*
X151701000Y-150928570D01*
X151701000Y-150928570D02*
X151724809Y-150999998D01*
X151724809Y-150999998D02*
X151724809Y-151119046D01*
X151724809Y-150619046D02*
X151224809Y-150619046D01*
X151701000Y-150404760D02*
X151724809Y-150333332D01*
X151724809Y-150333332D02*
X151724809Y-150214284D01*
X151724809Y-150214284D02*
X151701000Y-150166665D01*
X151701000Y-150166665D02*
X151677190Y-150142856D01*
X151677190Y-150142856D02*
X151629571Y-150119046D01*
X151629571Y-150119046D02*
X151581952Y-150119046D01*
X151581952Y-150119046D02*
X151534333Y-150142856D01*
X151534333Y-150142856D02*
X151510523Y-150166665D01*
X151510523Y-150166665D02*
X151486714Y-150214284D01*
X151486714Y-150214284D02*
X151462904Y-150309522D01*
X151462904Y-150309522D02*
X151439095Y-150357141D01*
X151439095Y-150357141D02*
X151415285Y-150380951D01*
X151415285Y-150380951D02*
X151367666Y-150404760D01*
X151367666Y-150404760D02*
X151320047Y-150404760D01*
X151320047Y-150404760D02*
X151272428Y-150380951D01*
X151272428Y-150380951D02*
X151248619Y-150357141D01*
X151248619Y-150357141D02*
X151224809Y-150309522D01*
X151224809Y-150309522D02*
X151224809Y-150190475D01*
X151224809Y-150190475D02*
X151248619Y-150119046D01*
X151724809Y-149904761D02*
X151224809Y-149904761D01*
X151224809Y-149904761D02*
X151224809Y-149714285D01*
X151224809Y-149714285D02*
X151248619Y-149666666D01*
X151248619Y-149666666D02*
X151272428Y-149642856D01*
X151272428Y-149642856D02*
X151320047Y-149619047D01*
X151320047Y-149619047D02*
X151391476Y-149619047D01*
X151391476Y-149619047D02*
X151439095Y-149642856D01*
X151439095Y-149642856D02*
X151462904Y-149666666D01*
X151462904Y-149666666D02*
X151486714Y-149714285D01*
X151486714Y-149714285D02*
X151486714Y-149904761D01*
X151772428Y-149523809D02*
X151772428Y-149142856D01*
X151701000Y-149047618D02*
X151724809Y-148976190D01*
X151724809Y-148976190D02*
X151724809Y-148857142D01*
X151724809Y-148857142D02*
X151701000Y-148809523D01*
X151701000Y-148809523D02*
X151677190Y-148785714D01*
X151677190Y-148785714D02*
X151629571Y-148761904D01*
X151629571Y-148761904D02*
X151581952Y-148761904D01*
X151581952Y-148761904D02*
X151534333Y-148785714D01*
X151534333Y-148785714D02*
X151510523Y-148809523D01*
X151510523Y-148809523D02*
X151486714Y-148857142D01*
X151486714Y-148857142D02*
X151462904Y-148952380D01*
X151462904Y-148952380D02*
X151439095Y-148999999D01*
X151439095Y-148999999D02*
X151415285Y-149023809D01*
X151415285Y-149023809D02*
X151367666Y-149047618D01*
X151367666Y-149047618D02*
X151320047Y-149047618D01*
X151320047Y-149047618D02*
X151272428Y-149023809D01*
X151272428Y-149023809D02*
X151248619Y-148999999D01*
X151248619Y-148999999D02*
X151224809Y-148952380D01*
X151224809Y-148952380D02*
X151224809Y-148833333D01*
X151224809Y-148833333D02*
X151248619Y-148761904D01*
X151677190Y-148261905D02*
X151701000Y-148285714D01*
X151701000Y-148285714D02*
X151724809Y-148357143D01*
X151724809Y-148357143D02*
X151724809Y-148404762D01*
X151724809Y-148404762D02*
X151701000Y-148476190D01*
X151701000Y-148476190D02*
X151653380Y-148523809D01*
X151653380Y-148523809D02*
X151605761Y-148547619D01*
X151605761Y-148547619D02*
X151510523Y-148571428D01*
X151510523Y-148571428D02*
X151439095Y-148571428D01*
X151439095Y-148571428D02*
X151343857Y-148547619D01*
X151343857Y-148547619D02*
X151296238Y-148523809D01*
X151296238Y-148523809D02*
X151248619Y-148476190D01*
X151248619Y-148476190D02*
X151224809Y-148404762D01*
X151224809Y-148404762D02*
X151224809Y-148357143D01*
X151224809Y-148357143D02*
X151248619Y-148285714D01*
X151248619Y-148285714D02*
X151272428Y-148261905D01*
X151724809Y-147809524D02*
X151724809Y-148047619D01*
X151724809Y-148047619D02*
X151224809Y-148047619D01*
X151724809Y-147642857D02*
X151224809Y-147642857D01*
X151724809Y-147357143D02*
X151439095Y-147571428D01*
X151224809Y-147357143D02*
X151510523Y-147642857D01*
X121916666Y-149424809D02*
X121750000Y-149186714D01*
X121630952Y-149424809D02*
X121630952Y-148924809D01*
X121630952Y-148924809D02*
X121821428Y-148924809D01*
X121821428Y-148924809D02*
X121869047Y-148948619D01*
X121869047Y-148948619D02*
X121892857Y-148972428D01*
X121892857Y-148972428D02*
X121916666Y-149020047D01*
X121916666Y-149020047D02*
X121916666Y-149091476D01*
X121916666Y-149091476D02*
X121892857Y-149139095D01*
X121892857Y-149139095D02*
X121869047Y-149162904D01*
X121869047Y-149162904D02*
X121821428Y-149186714D01*
X121821428Y-149186714D02*
X121630952Y-149186714D01*
X122345238Y-149091476D02*
X122345238Y-149424809D01*
X122226190Y-148901000D02*
X122107143Y-149258142D01*
X122107143Y-149258142D02*
X122416666Y-149258142D01*
X158619047Y-159724809D02*
X158619047Y-159224809D01*
X158619047Y-159462904D02*
X158904761Y-159462904D01*
X158904761Y-159724809D02*
X158904761Y-159224809D01*
X159357143Y-159391476D02*
X159357143Y-159724809D01*
X159238095Y-159201000D02*
X159119048Y-159558142D01*
X159119048Y-159558142D02*
X159428571Y-159558142D01*
X142083334Y-145201000D02*
X142154762Y-145224809D01*
X142154762Y-145224809D02*
X142273810Y-145224809D01*
X142273810Y-145224809D02*
X142321429Y-145201000D01*
X142321429Y-145201000D02*
X142345238Y-145177190D01*
X142345238Y-145177190D02*
X142369048Y-145129571D01*
X142369048Y-145129571D02*
X142369048Y-145081952D01*
X142369048Y-145081952D02*
X142345238Y-145034333D01*
X142345238Y-145034333D02*
X142321429Y-145010523D01*
X142321429Y-145010523D02*
X142273810Y-144986714D01*
X142273810Y-144986714D02*
X142178572Y-144962904D01*
X142178572Y-144962904D02*
X142130953Y-144939095D01*
X142130953Y-144939095D02*
X142107143Y-144915285D01*
X142107143Y-144915285D02*
X142083334Y-144867666D01*
X142083334Y-144867666D02*
X142083334Y-144820047D01*
X142083334Y-144820047D02*
X142107143Y-144772428D01*
X142107143Y-144772428D02*
X142130953Y-144748619D01*
X142130953Y-144748619D02*
X142178572Y-144724809D01*
X142178572Y-144724809D02*
X142297619Y-144724809D01*
X142297619Y-144724809D02*
X142369048Y-144748619D01*
X142535714Y-144724809D02*
X142654762Y-145224809D01*
X142654762Y-145224809D02*
X142750000Y-144867666D01*
X142750000Y-144867666D02*
X142845238Y-145224809D01*
X142845238Y-145224809D02*
X142964286Y-144724809D01*
X143130953Y-144772428D02*
X143154762Y-144748619D01*
X143154762Y-144748619D02*
X143202381Y-144724809D01*
X143202381Y-144724809D02*
X143321429Y-144724809D01*
X143321429Y-144724809D02*
X143369048Y-144748619D01*
X143369048Y-144748619D02*
X143392857Y-144772428D01*
X143392857Y-144772428D02*
X143416667Y-144820047D01*
X143416667Y-144820047D02*
X143416667Y-144867666D01*
X143416667Y-144867666D02*
X143392857Y-144939095D01*
X143392857Y-144939095D02*
X143107143Y-145224809D01*
X143107143Y-145224809D02*
X143416667Y-145224809D01*
X151641666Y-116677190D02*
X151617857Y-116701000D01*
X151617857Y-116701000D02*
X151546428Y-116724809D01*
X151546428Y-116724809D02*
X151498809Y-116724809D01*
X151498809Y-116724809D02*
X151427381Y-116701000D01*
X151427381Y-116701000D02*
X151379762Y-116653380D01*
X151379762Y-116653380D02*
X151355952Y-116605761D01*
X151355952Y-116605761D02*
X151332143Y-116510523D01*
X151332143Y-116510523D02*
X151332143Y-116439095D01*
X151332143Y-116439095D02*
X151355952Y-116343857D01*
X151355952Y-116343857D02*
X151379762Y-116296238D01*
X151379762Y-116296238D02*
X151427381Y-116248619D01*
X151427381Y-116248619D02*
X151498809Y-116224809D01*
X151498809Y-116224809D02*
X151546428Y-116224809D01*
X151546428Y-116224809D02*
X151617857Y-116248619D01*
X151617857Y-116248619D02*
X151641666Y-116272428D01*
X151832143Y-116272428D02*
X151855952Y-116248619D01*
X151855952Y-116248619D02*
X151903571Y-116224809D01*
X151903571Y-116224809D02*
X152022619Y-116224809D01*
X152022619Y-116224809D02*
X152070238Y-116248619D01*
X152070238Y-116248619D02*
X152094047Y-116272428D01*
X152094047Y-116272428D02*
X152117857Y-116320047D01*
X152117857Y-116320047D02*
X152117857Y-116367666D01*
X152117857Y-116367666D02*
X152094047Y-116439095D01*
X152094047Y-116439095D02*
X151808333Y-116724809D01*
X151808333Y-116724809D02*
X152117857Y-116724809D01*
X131406666Y-145394809D02*
X131240000Y-145156714D01*
X131120952Y-145394809D02*
X131120952Y-144894809D01*
X131120952Y-144894809D02*
X131311428Y-144894809D01*
X131311428Y-144894809D02*
X131359047Y-144918619D01*
X131359047Y-144918619D02*
X131382857Y-144942428D01*
X131382857Y-144942428D02*
X131406666Y-144990047D01*
X131406666Y-144990047D02*
X131406666Y-145061476D01*
X131406666Y-145061476D02*
X131382857Y-145109095D01*
X131382857Y-145109095D02*
X131359047Y-145132904D01*
X131359047Y-145132904D02*
X131311428Y-145156714D01*
X131311428Y-145156714D02*
X131120952Y-145156714D01*
X131597143Y-144942428D02*
X131620952Y-144918619D01*
X131620952Y-144918619D02*
X131668571Y-144894809D01*
X131668571Y-144894809D02*
X131787619Y-144894809D01*
X131787619Y-144894809D02*
X131835238Y-144918619D01*
X131835238Y-144918619D02*
X131859047Y-144942428D01*
X131859047Y-144942428D02*
X131882857Y-144990047D01*
X131882857Y-144990047D02*
X131882857Y-145037666D01*
X131882857Y-145037666D02*
X131859047Y-145109095D01*
X131859047Y-145109095D02*
X131573333Y-145394809D01*
X131573333Y-145394809D02*
X131882857Y-145394809D01*
X105919047Y-157224809D02*
X105919047Y-156724809D01*
X105919047Y-156962904D02*
X106204761Y-156962904D01*
X106204761Y-157224809D02*
X106204761Y-156724809D01*
X106395238Y-156724809D02*
X106704762Y-156724809D01*
X106704762Y-156724809D02*
X106538095Y-156915285D01*
X106538095Y-156915285D02*
X106609524Y-156915285D01*
X106609524Y-156915285D02*
X106657143Y-156939095D01*
X106657143Y-156939095D02*
X106680952Y-156962904D01*
X106680952Y-156962904D02*
X106704762Y-157010523D01*
X106704762Y-157010523D02*
X106704762Y-157129571D01*
X106704762Y-157129571D02*
X106680952Y-157177190D01*
X106680952Y-157177190D02*
X106657143Y-157201000D01*
X106657143Y-157201000D02*
X106609524Y-157224809D01*
X106609524Y-157224809D02*
X106466667Y-157224809D01*
X106466667Y-157224809D02*
X106419048Y-157201000D01*
X106419048Y-157201000D02*
X106395238Y-157177190D01*
X158719047Y-101024809D02*
X158719047Y-100524809D01*
X158719047Y-100762904D02*
X159004761Y-100762904D01*
X159004761Y-101024809D02*
X159004761Y-100524809D01*
X159219048Y-100572428D02*
X159242857Y-100548619D01*
X159242857Y-100548619D02*
X159290476Y-100524809D01*
X159290476Y-100524809D02*
X159409524Y-100524809D01*
X159409524Y-100524809D02*
X159457143Y-100548619D01*
X159457143Y-100548619D02*
X159480952Y-100572428D01*
X159480952Y-100572428D02*
X159504762Y-100620047D01*
X159504762Y-100620047D02*
X159504762Y-100667666D01*
X159504762Y-100667666D02*
X159480952Y-100739095D01*
X159480952Y-100739095D02*
X159195238Y-101024809D01*
X159195238Y-101024809D02*
X159504762Y-101024809D01*
X152933333Y-149724809D02*
X152933333Y-150081952D01*
X152933333Y-150081952D02*
X152909524Y-150153380D01*
X152909524Y-150153380D02*
X152861905Y-150201000D01*
X152861905Y-150201000D02*
X152790476Y-150224809D01*
X152790476Y-150224809D02*
X152742857Y-150224809D01*
X153433333Y-150224809D02*
X153147619Y-150224809D01*
X153290476Y-150224809D02*
X153290476Y-149724809D01*
X153290476Y-149724809D02*
X153242857Y-149796238D01*
X153242857Y-149796238D02*
X153195238Y-149843857D01*
X153195238Y-149843857D02*
X153147619Y-149867666D01*
X103078571Y-113724809D02*
X102840476Y-113724809D01*
X102840476Y-113724809D02*
X102840476Y-113224809D01*
X103221429Y-113701000D02*
X103292857Y-113724809D01*
X103292857Y-113724809D02*
X103411905Y-113724809D01*
X103411905Y-113724809D02*
X103459524Y-113701000D01*
X103459524Y-113701000D02*
X103483333Y-113677190D01*
X103483333Y-113677190D02*
X103507143Y-113629571D01*
X103507143Y-113629571D02*
X103507143Y-113581952D01*
X103507143Y-113581952D02*
X103483333Y-113534333D01*
X103483333Y-113534333D02*
X103459524Y-113510523D01*
X103459524Y-113510523D02*
X103411905Y-113486714D01*
X103411905Y-113486714D02*
X103316667Y-113462904D01*
X103316667Y-113462904D02*
X103269048Y-113439095D01*
X103269048Y-113439095D02*
X103245238Y-113415285D01*
X103245238Y-113415285D02*
X103221429Y-113367666D01*
X103221429Y-113367666D02*
X103221429Y-113320047D01*
X103221429Y-113320047D02*
X103245238Y-113272428D01*
X103245238Y-113272428D02*
X103269048Y-113248619D01*
X103269048Y-113248619D02*
X103316667Y-113224809D01*
X103316667Y-113224809D02*
X103435714Y-113224809D01*
X103435714Y-113224809D02*
X103507143Y-113248619D01*
X103983333Y-113724809D02*
X103697619Y-113724809D01*
X103840476Y-113724809D02*
X103840476Y-113224809D01*
X103840476Y-113224809D02*
X103792857Y-113296238D01*
X103792857Y-113296238D02*
X103745238Y-113343857D01*
X103745238Y-113343857D02*
X103697619Y-113367666D01*
X131544809Y-113746428D02*
X131306714Y-113913094D01*
X131544809Y-114032142D02*
X131044809Y-114032142D01*
X131044809Y-114032142D02*
X131044809Y-113841666D01*
X131044809Y-113841666D02*
X131068619Y-113794047D01*
X131068619Y-113794047D02*
X131092428Y-113770237D01*
X131092428Y-113770237D02*
X131140047Y-113746428D01*
X131140047Y-113746428D02*
X131211476Y-113746428D01*
X131211476Y-113746428D02*
X131259095Y-113770237D01*
X131259095Y-113770237D02*
X131282904Y-113794047D01*
X131282904Y-113794047D02*
X131306714Y-113841666D01*
X131306714Y-113841666D02*
X131306714Y-114032142D01*
X131092428Y-113555951D02*
X131068619Y-113532142D01*
X131068619Y-113532142D02*
X131044809Y-113484523D01*
X131044809Y-113484523D02*
X131044809Y-113365475D01*
X131044809Y-113365475D02*
X131068619Y-113317856D01*
X131068619Y-113317856D02*
X131092428Y-113294047D01*
X131092428Y-113294047D02*
X131140047Y-113270237D01*
X131140047Y-113270237D02*
X131187666Y-113270237D01*
X131187666Y-113270237D02*
X131259095Y-113294047D01*
X131259095Y-113294047D02*
X131544809Y-113579761D01*
X131544809Y-113579761D02*
X131544809Y-113270237D01*
X131044809Y-113103571D02*
X131044809Y-112794047D01*
X131044809Y-112794047D02*
X131235285Y-112960714D01*
X131235285Y-112960714D02*
X131235285Y-112889285D01*
X131235285Y-112889285D02*
X131259095Y-112841666D01*
X131259095Y-112841666D02*
X131282904Y-112817857D01*
X131282904Y-112817857D02*
X131330523Y-112794047D01*
X131330523Y-112794047D02*
X131449571Y-112794047D01*
X131449571Y-112794047D02*
X131497190Y-112817857D01*
X131497190Y-112817857D02*
X131521000Y-112841666D01*
X131521000Y-112841666D02*
X131544809Y-112889285D01*
X131544809Y-112889285D02*
X131544809Y-113032142D01*
X131544809Y-113032142D02*
X131521000Y-113079761D01*
X131521000Y-113079761D02*
X131497190Y-113103571D01*
X140416666Y-136517190D02*
X140392857Y-136541000D01*
X140392857Y-136541000D02*
X140321428Y-136564809D01*
X140321428Y-136564809D02*
X140273809Y-136564809D01*
X140273809Y-136564809D02*
X140202381Y-136541000D01*
X140202381Y-136541000D02*
X140154762Y-136493380D01*
X140154762Y-136493380D02*
X140130952Y-136445761D01*
X140130952Y-136445761D02*
X140107143Y-136350523D01*
X140107143Y-136350523D02*
X140107143Y-136279095D01*
X140107143Y-136279095D02*
X140130952Y-136183857D01*
X140130952Y-136183857D02*
X140154762Y-136136238D01*
X140154762Y-136136238D02*
X140202381Y-136088619D01*
X140202381Y-136088619D02*
X140273809Y-136064809D01*
X140273809Y-136064809D02*
X140321428Y-136064809D01*
X140321428Y-136064809D02*
X140392857Y-136088619D01*
X140392857Y-136088619D02*
X140416666Y-136112428D01*
X140583333Y-136064809D02*
X140916666Y-136064809D01*
X140916666Y-136064809D02*
X140702381Y-136564809D01*
X143678571Y-124724809D02*
X143511905Y-124486714D01*
X143392857Y-124724809D02*
X143392857Y-124224809D01*
X143392857Y-124224809D02*
X143583333Y-124224809D01*
X143583333Y-124224809D02*
X143630952Y-124248619D01*
X143630952Y-124248619D02*
X143654762Y-124272428D01*
X143654762Y-124272428D02*
X143678571Y-124320047D01*
X143678571Y-124320047D02*
X143678571Y-124391476D01*
X143678571Y-124391476D02*
X143654762Y-124439095D01*
X143654762Y-124439095D02*
X143630952Y-124462904D01*
X143630952Y-124462904D02*
X143583333Y-124486714D01*
X143583333Y-124486714D02*
X143392857Y-124486714D01*
X143869048Y-124272428D02*
X143892857Y-124248619D01*
X143892857Y-124248619D02*
X143940476Y-124224809D01*
X143940476Y-124224809D02*
X144059524Y-124224809D01*
X144059524Y-124224809D02*
X144107143Y-124248619D01*
X144107143Y-124248619D02*
X144130952Y-124272428D01*
X144130952Y-124272428D02*
X144154762Y-124320047D01*
X144154762Y-124320047D02*
X144154762Y-124367666D01*
X144154762Y-124367666D02*
X144130952Y-124439095D01*
X144130952Y-124439095D02*
X143845238Y-124724809D01*
X143845238Y-124724809D02*
X144154762Y-124724809D01*
X144630952Y-124724809D02*
X144345238Y-124724809D01*
X144488095Y-124724809D02*
X144488095Y-124224809D01*
X144488095Y-124224809D02*
X144440476Y-124296238D01*
X144440476Y-124296238D02*
X144392857Y-124343857D01*
X144392857Y-124343857D02*
X144345238Y-124367666D01*
X132678571Y-104394809D02*
X132511905Y-104156714D01*
X132392857Y-104394809D02*
X132392857Y-103894809D01*
X132392857Y-103894809D02*
X132583333Y-103894809D01*
X132583333Y-103894809D02*
X132630952Y-103918619D01*
X132630952Y-103918619D02*
X132654762Y-103942428D01*
X132654762Y-103942428D02*
X132678571Y-103990047D01*
X132678571Y-103990047D02*
X132678571Y-104061476D01*
X132678571Y-104061476D02*
X132654762Y-104109095D01*
X132654762Y-104109095D02*
X132630952Y-104132904D01*
X132630952Y-104132904D02*
X132583333Y-104156714D01*
X132583333Y-104156714D02*
X132392857Y-104156714D01*
X132869048Y-103942428D02*
X132892857Y-103918619D01*
X132892857Y-103918619D02*
X132940476Y-103894809D01*
X132940476Y-103894809D02*
X133059524Y-103894809D01*
X133059524Y-103894809D02*
X133107143Y-103918619D01*
X133107143Y-103918619D02*
X133130952Y-103942428D01*
X133130952Y-103942428D02*
X133154762Y-103990047D01*
X133154762Y-103990047D02*
X133154762Y-104037666D01*
X133154762Y-104037666D02*
X133130952Y-104109095D01*
X133130952Y-104109095D02*
X132845238Y-104394809D01*
X132845238Y-104394809D02*
X133154762Y-104394809D01*
X133583333Y-104061476D02*
X133583333Y-104394809D01*
X133464285Y-103871000D02*
X133345238Y-104228142D01*
X133345238Y-104228142D02*
X133654761Y-104228142D01*
X157916666Y-113224809D02*
X157750000Y-112986714D01*
X157630952Y-113224809D02*
X157630952Y-112724809D01*
X157630952Y-112724809D02*
X157821428Y-112724809D01*
X157821428Y-112724809D02*
X157869047Y-112748619D01*
X157869047Y-112748619D02*
X157892857Y-112772428D01*
X157892857Y-112772428D02*
X157916666Y-112820047D01*
X157916666Y-112820047D02*
X157916666Y-112891476D01*
X157916666Y-112891476D02*
X157892857Y-112939095D01*
X157892857Y-112939095D02*
X157869047Y-112962904D01*
X157869047Y-112962904D02*
X157821428Y-112986714D01*
X157821428Y-112986714D02*
X157630952Y-112986714D01*
X158369047Y-112724809D02*
X158130952Y-112724809D01*
X158130952Y-112724809D02*
X158107143Y-112962904D01*
X158107143Y-112962904D02*
X158130952Y-112939095D01*
X158130952Y-112939095D02*
X158178571Y-112915285D01*
X158178571Y-112915285D02*
X158297619Y-112915285D01*
X158297619Y-112915285D02*
X158345238Y-112939095D01*
X158345238Y-112939095D02*
X158369047Y-112962904D01*
X158369047Y-112962904D02*
X158392857Y-113010523D01*
X158392857Y-113010523D02*
X158392857Y-113129571D01*
X158392857Y-113129571D02*
X158369047Y-113177190D01*
X158369047Y-113177190D02*
X158345238Y-113201000D01*
X158345238Y-113201000D02*
X158297619Y-113224809D01*
X158297619Y-113224809D02*
X158178571Y-113224809D01*
X158178571Y-113224809D02*
X158130952Y-113201000D01*
X158130952Y-113201000D02*
X158107143Y-113177190D01*
X118419047Y-128424809D02*
X118419047Y-128829571D01*
X118419047Y-128829571D02*
X118442857Y-128877190D01*
X118442857Y-128877190D02*
X118466666Y-128901000D01*
X118466666Y-128901000D02*
X118514285Y-128924809D01*
X118514285Y-128924809D02*
X118609523Y-128924809D01*
X118609523Y-128924809D02*
X118657142Y-128901000D01*
X118657142Y-128901000D02*
X118680952Y-128877190D01*
X118680952Y-128877190D02*
X118704761Y-128829571D01*
X118704761Y-128829571D02*
X118704761Y-128424809D01*
X119204762Y-128924809D02*
X118919048Y-128924809D01*
X119061905Y-128924809D02*
X119061905Y-128424809D01*
X119061905Y-128424809D02*
X119014286Y-128496238D01*
X119014286Y-128496238D02*
X118966667Y-128543857D01*
X118966667Y-128543857D02*
X118919048Y-128567666D01*
D12*
X107494819Y-149419299D02*
X107732914Y-149419299D01*
X107637676Y-149657394D02*
X107732914Y-149419299D01*
X107732914Y-149419299D02*
X107637676Y-149181204D01*
X107923390Y-149562156D02*
X107732914Y-149419299D01*
X107732914Y-149419299D02*
X107923390Y-149276442D01*
D11*
X139833334Y-105701000D02*
X139904762Y-105724809D01*
X139904762Y-105724809D02*
X140023810Y-105724809D01*
X140023810Y-105724809D02*
X140071429Y-105701000D01*
X140071429Y-105701000D02*
X140095238Y-105677190D01*
X140095238Y-105677190D02*
X140119048Y-105629571D01*
X140119048Y-105629571D02*
X140119048Y-105581952D01*
X140119048Y-105581952D02*
X140095238Y-105534333D01*
X140095238Y-105534333D02*
X140071429Y-105510523D01*
X140071429Y-105510523D02*
X140023810Y-105486714D01*
X140023810Y-105486714D02*
X139928572Y-105462904D01*
X139928572Y-105462904D02*
X139880953Y-105439095D01*
X139880953Y-105439095D02*
X139857143Y-105415285D01*
X139857143Y-105415285D02*
X139833334Y-105367666D01*
X139833334Y-105367666D02*
X139833334Y-105320047D01*
X139833334Y-105320047D02*
X139857143Y-105272428D01*
X139857143Y-105272428D02*
X139880953Y-105248619D01*
X139880953Y-105248619D02*
X139928572Y-105224809D01*
X139928572Y-105224809D02*
X140047619Y-105224809D01*
X140047619Y-105224809D02*
X140119048Y-105248619D01*
X140285714Y-105224809D02*
X140404762Y-105724809D01*
X140404762Y-105724809D02*
X140500000Y-105367666D01*
X140500000Y-105367666D02*
X140595238Y-105724809D01*
X140595238Y-105724809D02*
X140714286Y-105224809D01*
X140857143Y-105224809D02*
X141166667Y-105224809D01*
X141166667Y-105224809D02*
X141000000Y-105415285D01*
X141000000Y-105415285D02*
X141071429Y-105415285D01*
X141071429Y-105415285D02*
X141119048Y-105439095D01*
X141119048Y-105439095D02*
X141142857Y-105462904D01*
X141142857Y-105462904D02*
X141166667Y-105510523D01*
X141166667Y-105510523D02*
X141166667Y-105629571D01*
X141166667Y-105629571D02*
X141142857Y-105677190D01*
X141142857Y-105677190D02*
X141119048Y-105701000D01*
X141119048Y-105701000D02*
X141071429Y-105724809D01*
X141071429Y-105724809D02*
X140928572Y-105724809D01*
X140928572Y-105724809D02*
X140880953Y-105701000D01*
X140880953Y-105701000D02*
X140857143Y-105677190D01*
X140773809Y-107224809D02*
X140607143Y-106986714D01*
X140488095Y-107224809D02*
X140488095Y-106724809D01*
X140488095Y-106724809D02*
X140678571Y-106724809D01*
X140678571Y-106724809D02*
X140726190Y-106748619D01*
X140726190Y-106748619D02*
X140750000Y-106772428D01*
X140750000Y-106772428D02*
X140773809Y-106820047D01*
X140773809Y-106820047D02*
X140773809Y-106891476D01*
X140773809Y-106891476D02*
X140750000Y-106939095D01*
X140750000Y-106939095D02*
X140726190Y-106962904D01*
X140726190Y-106962904D02*
X140678571Y-106986714D01*
X140678571Y-106986714D02*
X140488095Y-106986714D01*
X140988095Y-106962904D02*
X141154762Y-106962904D01*
X141226190Y-107224809D02*
X140988095Y-107224809D01*
X140988095Y-107224809D02*
X140988095Y-106724809D01*
X140988095Y-106724809D02*
X141226190Y-106724809D01*
X141416667Y-107201000D02*
X141488095Y-107224809D01*
X141488095Y-107224809D02*
X141607143Y-107224809D01*
X141607143Y-107224809D02*
X141654762Y-107201000D01*
X141654762Y-107201000D02*
X141678571Y-107177190D01*
X141678571Y-107177190D02*
X141702381Y-107129571D01*
X141702381Y-107129571D02*
X141702381Y-107081952D01*
X141702381Y-107081952D02*
X141678571Y-107034333D01*
X141678571Y-107034333D02*
X141654762Y-107010523D01*
X141654762Y-107010523D02*
X141607143Y-106986714D01*
X141607143Y-106986714D02*
X141511905Y-106962904D01*
X141511905Y-106962904D02*
X141464286Y-106939095D01*
X141464286Y-106939095D02*
X141440476Y-106915285D01*
X141440476Y-106915285D02*
X141416667Y-106867666D01*
X141416667Y-106867666D02*
X141416667Y-106820047D01*
X141416667Y-106820047D02*
X141440476Y-106772428D01*
X141440476Y-106772428D02*
X141464286Y-106748619D01*
X141464286Y-106748619D02*
X141511905Y-106724809D01*
X141511905Y-106724809D02*
X141630952Y-106724809D01*
X141630952Y-106724809D02*
X141702381Y-106748619D01*
X141916666Y-106962904D02*
X142083333Y-106962904D01*
X142154761Y-107224809D02*
X141916666Y-107224809D01*
X141916666Y-107224809D02*
X141916666Y-106724809D01*
X141916666Y-106724809D02*
X142154761Y-106724809D01*
X142297619Y-106724809D02*
X142583333Y-106724809D01*
X142440476Y-107224809D02*
X142440476Y-106724809D01*
X157916666Y-111424809D02*
X157750000Y-111186714D01*
X157630952Y-111424809D02*
X157630952Y-110924809D01*
X157630952Y-110924809D02*
X157821428Y-110924809D01*
X157821428Y-110924809D02*
X157869047Y-110948619D01*
X157869047Y-110948619D02*
X157892857Y-110972428D01*
X157892857Y-110972428D02*
X157916666Y-111020047D01*
X157916666Y-111020047D02*
X157916666Y-111091476D01*
X157916666Y-111091476D02*
X157892857Y-111139095D01*
X157892857Y-111139095D02*
X157869047Y-111162904D01*
X157869047Y-111162904D02*
X157821428Y-111186714D01*
X157821428Y-111186714D02*
X157630952Y-111186714D01*
X158083333Y-110924809D02*
X158416666Y-110924809D01*
X158416666Y-110924809D02*
X158202381Y-111424809D01*
X119119048Y-122776809D02*
X119404762Y-122776809D01*
X119261905Y-123276809D02*
X119261905Y-122776809D01*
X119571428Y-123276809D02*
X119571428Y-122776809D01*
X119571428Y-122776809D02*
X119761904Y-122776809D01*
X119761904Y-122776809D02*
X119809523Y-122800619D01*
X119809523Y-122800619D02*
X119833333Y-122824428D01*
X119833333Y-122824428D02*
X119857142Y-122872047D01*
X119857142Y-122872047D02*
X119857142Y-122943476D01*
X119857142Y-122943476D02*
X119833333Y-122991095D01*
X119833333Y-122991095D02*
X119809523Y-123014904D01*
X119809523Y-123014904D02*
X119761904Y-123038714D01*
X119761904Y-123038714D02*
X119571428Y-123038714D01*
X120023809Y-122776809D02*
X120357142Y-122776809D01*
X120357142Y-122776809D02*
X120142857Y-123276809D01*
X119899616Y-122047923D02*
X120017467Y-121930072D01*
X120253169Y-122064759D02*
X120084810Y-122233117D01*
X120084810Y-122233117D02*
X119731257Y-121879564D01*
X119731257Y-121879564D02*
X119899616Y-121711205D01*
X120371020Y-121913236D02*
X120438364Y-121879564D01*
X120438364Y-121879564D02*
X120522543Y-121795385D01*
X120522543Y-121795385D02*
X120539379Y-121744877D01*
X120539379Y-121744877D02*
X120539379Y-121711205D01*
X120539379Y-121711205D02*
X120522543Y-121660698D01*
X120522543Y-121660698D02*
X120488871Y-121627026D01*
X120488871Y-121627026D02*
X120438364Y-121610190D01*
X120438364Y-121610190D02*
X120404692Y-121610190D01*
X120404692Y-121610190D02*
X120354184Y-121627026D01*
X120354184Y-121627026D02*
X120270005Y-121677534D01*
X120270005Y-121677534D02*
X120219497Y-121694369D01*
X120219497Y-121694369D02*
X120185826Y-121694369D01*
X120185826Y-121694369D02*
X120135318Y-121677534D01*
X120135318Y-121677534D02*
X120101646Y-121643862D01*
X120101646Y-121643862D02*
X120084810Y-121593354D01*
X120084810Y-121593354D02*
X120084810Y-121559682D01*
X120084810Y-121559682D02*
X120101646Y-121509175D01*
X120101646Y-121509175D02*
X120185826Y-121424995D01*
X120185826Y-121424995D02*
X120253169Y-121391324D01*
X120741409Y-121576519D02*
X120387856Y-121222965D01*
X120387856Y-121222965D02*
X120522543Y-121088278D01*
X120522543Y-121088278D02*
X120573050Y-121071442D01*
X120573050Y-121071442D02*
X120606722Y-121071442D01*
X120606722Y-121071442D02*
X120657230Y-121088278D01*
X120657230Y-121088278D02*
X120707737Y-121138786D01*
X120707737Y-121138786D02*
X120724573Y-121189293D01*
X120724573Y-121189293D02*
X120724573Y-121222965D01*
X120724573Y-121222965D02*
X120707737Y-121273473D01*
X120707737Y-121273473D02*
X120573050Y-121408160D01*
X120707737Y-120903084D02*
X120926604Y-120684217D01*
X120926604Y-120684217D02*
X120943440Y-120936755D01*
X120943440Y-120936755D02*
X120993947Y-120886248D01*
X120993947Y-120886248D02*
X121044455Y-120869412D01*
X121044455Y-120869412D02*
X121078127Y-120869412D01*
X121078127Y-120869412D02*
X121128634Y-120886248D01*
X121128634Y-120886248D02*
X121212814Y-120970427D01*
X121212814Y-120970427D02*
X121229649Y-121020935D01*
X121229649Y-121020935D02*
X121229649Y-121054606D01*
X121229649Y-121054606D02*
X121212814Y-121105114D01*
X121212814Y-121105114D02*
X121111798Y-121206129D01*
X121111798Y-121206129D02*
X121061291Y-121222965D01*
X121061291Y-121222965D02*
X121027619Y-121222965D01*
X121094962Y-120583202D02*
X121094962Y-120549531D01*
X121094962Y-120549531D02*
X121111798Y-120499023D01*
X121111798Y-120499023D02*
X121195977Y-120414844D01*
X121195977Y-120414844D02*
X121246485Y-120398008D01*
X121246485Y-120398008D02*
X121280157Y-120398008D01*
X121280157Y-120398008D02*
X121330664Y-120414844D01*
X121330664Y-120414844D02*
X121364336Y-120448515D01*
X121364336Y-120448515D02*
X121398008Y-120515859D01*
X121398008Y-120515859D02*
X121398008Y-120919920D01*
X121398008Y-120919920D02*
X121616874Y-120701053D01*
X121717889Y-120667382D02*
X121987263Y-120398008D01*
X121970427Y-119977111D02*
X122037771Y-119943440D01*
X122037771Y-119943440D02*
X122071442Y-119943440D01*
X122071442Y-119943440D02*
X122121950Y-119960275D01*
X122121950Y-119960275D02*
X122172458Y-120010783D01*
X122172458Y-120010783D02*
X122189293Y-120061291D01*
X122189293Y-120061291D02*
X122189293Y-120094962D01*
X122189293Y-120094962D02*
X122172458Y-120145470D01*
X122172458Y-120145470D02*
X122037771Y-120280157D01*
X122037771Y-120280157D02*
X121684217Y-119926604D01*
X121684217Y-119926604D02*
X121802068Y-119808753D01*
X121802068Y-119808753D02*
X121852576Y-119791917D01*
X121852576Y-119791917D02*
X121886248Y-119791917D01*
X121886248Y-119791917D02*
X121936755Y-119808753D01*
X121936755Y-119808753D02*
X121970427Y-119842424D01*
X121970427Y-119842424D02*
X121987263Y-119892932D01*
X121987263Y-119892932D02*
X121987263Y-119926604D01*
X121987263Y-119926604D02*
X121970427Y-119977111D01*
X121970427Y-119977111D02*
X121852576Y-120094962D01*
X122105114Y-119505707D02*
X122172458Y-119438363D01*
X122172458Y-119438363D02*
X122222965Y-119421527D01*
X122222965Y-119421527D02*
X122290309Y-119421527D01*
X122290309Y-119421527D02*
X122374488Y-119472035D01*
X122374488Y-119472035D02*
X122492339Y-119589886D01*
X122492339Y-119589886D02*
X122542847Y-119674066D01*
X122542847Y-119674066D02*
X122542847Y-119741409D01*
X122542847Y-119741409D02*
X122526011Y-119791917D01*
X122526011Y-119791917D02*
X122458667Y-119859260D01*
X122458667Y-119859260D02*
X122408160Y-119876096D01*
X122408160Y-119876096D02*
X122340816Y-119876096D01*
X122340816Y-119876096D02*
X122256637Y-119825588D01*
X122256637Y-119825588D02*
X122138786Y-119707737D01*
X122138786Y-119707737D02*
X122088278Y-119623558D01*
X122088278Y-119623558D02*
X122088278Y-119556214D01*
X122088278Y-119556214D02*
X122105114Y-119505707D01*
X122475504Y-119135317D02*
X122542847Y-119067974D01*
X122542847Y-119067974D02*
X122593355Y-119051138D01*
X122593355Y-119051138D02*
X122660698Y-119051138D01*
X122660698Y-119051138D02*
X122744878Y-119101645D01*
X122744878Y-119101645D02*
X122862729Y-119219497D01*
X122862729Y-119219497D02*
X122913236Y-119303676D01*
X122913236Y-119303676D02*
X122913236Y-119371019D01*
X122913236Y-119371019D02*
X122896401Y-119421527D01*
X122896401Y-119421527D02*
X122829057Y-119488871D01*
X122829057Y-119488871D02*
X122778549Y-119505706D01*
X122778549Y-119505706D02*
X122711206Y-119505706D01*
X122711206Y-119505706D02*
X122627027Y-119455199D01*
X122627027Y-119455199D02*
X122509175Y-119337348D01*
X122509175Y-119337348D02*
X122458668Y-119253168D01*
X122458668Y-119253168D02*
X122458668Y-119185825D01*
X122458668Y-119185825D02*
X122475504Y-119135317D01*
X122728042Y-118882779D02*
X122930073Y-118680748D01*
X123182611Y-119135317D02*
X122829057Y-118781763D01*
X151869048Y-150776809D02*
X152154762Y-150776809D01*
X152011905Y-151276809D02*
X152011905Y-150776809D01*
X152321428Y-151276809D02*
X152321428Y-150776809D01*
X152321428Y-150776809D02*
X152511904Y-150776809D01*
X152511904Y-150776809D02*
X152559523Y-150800619D01*
X152559523Y-150800619D02*
X152583333Y-150824428D01*
X152583333Y-150824428D02*
X152607142Y-150872047D01*
X152607142Y-150872047D02*
X152607142Y-150943476D01*
X152607142Y-150943476D02*
X152583333Y-150991095D01*
X152583333Y-150991095D02*
X152559523Y-151014904D01*
X152559523Y-151014904D02*
X152511904Y-151038714D01*
X152511904Y-151038714D02*
X152321428Y-151038714D01*
X152773809Y-150776809D02*
X153083333Y-150776809D01*
X153083333Y-150776809D02*
X152916666Y-150967285D01*
X152916666Y-150967285D02*
X152988095Y-150967285D01*
X152988095Y-150967285D02*
X153035714Y-150991095D01*
X153035714Y-150991095D02*
X153059523Y-151014904D01*
X153059523Y-151014904D02*
X153083333Y-151062523D01*
X153083333Y-151062523D02*
X153083333Y-151181571D01*
X153083333Y-151181571D02*
X153059523Y-151229190D01*
X153059523Y-151229190D02*
X153035714Y-151253000D01*
X153035714Y-151253000D02*
X152988095Y-151276809D01*
X152988095Y-151276809D02*
X152845238Y-151276809D01*
X152845238Y-151276809D02*
X152797619Y-151253000D01*
X152797619Y-151253000D02*
X152773809Y-151229190D01*
X150559524Y-153712904D02*
X150630952Y-153736714D01*
X150630952Y-153736714D02*
X150654762Y-153760523D01*
X150654762Y-153760523D02*
X150678571Y-153808142D01*
X150678571Y-153808142D02*
X150678571Y-153879571D01*
X150678571Y-153879571D02*
X150654762Y-153927190D01*
X150654762Y-153927190D02*
X150630952Y-153951000D01*
X150630952Y-153951000D02*
X150583333Y-153974809D01*
X150583333Y-153974809D02*
X150392857Y-153974809D01*
X150392857Y-153974809D02*
X150392857Y-153474809D01*
X150392857Y-153474809D02*
X150559524Y-153474809D01*
X150559524Y-153474809D02*
X150607143Y-153498619D01*
X150607143Y-153498619D02*
X150630952Y-153522428D01*
X150630952Y-153522428D02*
X150654762Y-153570047D01*
X150654762Y-153570047D02*
X150654762Y-153617666D01*
X150654762Y-153617666D02*
X150630952Y-153665285D01*
X150630952Y-153665285D02*
X150607143Y-153689095D01*
X150607143Y-153689095D02*
X150559524Y-153712904D01*
X150559524Y-153712904D02*
X150392857Y-153712904D01*
X150869048Y-153831952D02*
X151107143Y-153831952D01*
X150821429Y-153974809D02*
X150988095Y-153474809D01*
X150988095Y-153474809D02*
X151154762Y-153974809D01*
X151250000Y-153474809D02*
X151535714Y-153474809D01*
X151392857Y-153974809D02*
X151392857Y-153474809D01*
X151583333Y-154022428D02*
X151964285Y-154022428D01*
X152083332Y-153974809D02*
X152083332Y-153474809D01*
X152321427Y-153974809D02*
X152321427Y-153474809D01*
X152321427Y-153474809D02*
X152607141Y-153974809D01*
X152607141Y-153974809D02*
X152607141Y-153474809D01*
X139833334Y-101701000D02*
X139904762Y-101724809D01*
X139904762Y-101724809D02*
X140023810Y-101724809D01*
X140023810Y-101724809D02*
X140071429Y-101701000D01*
X140071429Y-101701000D02*
X140095238Y-101677190D01*
X140095238Y-101677190D02*
X140119048Y-101629571D01*
X140119048Y-101629571D02*
X140119048Y-101581952D01*
X140119048Y-101581952D02*
X140095238Y-101534333D01*
X140095238Y-101534333D02*
X140071429Y-101510523D01*
X140071429Y-101510523D02*
X140023810Y-101486714D01*
X140023810Y-101486714D02*
X139928572Y-101462904D01*
X139928572Y-101462904D02*
X139880953Y-101439095D01*
X139880953Y-101439095D02*
X139857143Y-101415285D01*
X139857143Y-101415285D02*
X139833334Y-101367666D01*
X139833334Y-101367666D02*
X139833334Y-101320047D01*
X139833334Y-101320047D02*
X139857143Y-101272428D01*
X139857143Y-101272428D02*
X139880953Y-101248619D01*
X139880953Y-101248619D02*
X139928572Y-101224809D01*
X139928572Y-101224809D02*
X140047619Y-101224809D01*
X140047619Y-101224809D02*
X140119048Y-101248619D01*
X140285714Y-101224809D02*
X140404762Y-101724809D01*
X140404762Y-101724809D02*
X140500000Y-101367666D01*
X140500000Y-101367666D02*
X140595238Y-101724809D01*
X140595238Y-101724809D02*
X140714286Y-101224809D01*
X141119048Y-101391476D02*
X141119048Y-101724809D01*
X141000000Y-101201000D02*
X140880953Y-101558142D01*
X140880953Y-101558142D02*
X141190476Y-101558142D01*
X140821428Y-102962904D02*
X140892856Y-102986714D01*
X140892856Y-102986714D02*
X140916666Y-103010523D01*
X140916666Y-103010523D02*
X140940475Y-103058142D01*
X140940475Y-103058142D02*
X140940475Y-103129571D01*
X140940475Y-103129571D02*
X140916666Y-103177190D01*
X140916666Y-103177190D02*
X140892856Y-103201000D01*
X140892856Y-103201000D02*
X140845237Y-103224809D01*
X140845237Y-103224809D02*
X140654761Y-103224809D01*
X140654761Y-103224809D02*
X140654761Y-102724809D01*
X140654761Y-102724809D02*
X140821428Y-102724809D01*
X140821428Y-102724809D02*
X140869047Y-102748619D01*
X140869047Y-102748619D02*
X140892856Y-102772428D01*
X140892856Y-102772428D02*
X140916666Y-102820047D01*
X140916666Y-102820047D02*
X140916666Y-102867666D01*
X140916666Y-102867666D02*
X140892856Y-102915285D01*
X140892856Y-102915285D02*
X140869047Y-102939095D01*
X140869047Y-102939095D02*
X140821428Y-102962904D01*
X140821428Y-102962904D02*
X140654761Y-102962904D01*
X141249999Y-102724809D02*
X141345237Y-102724809D01*
X141345237Y-102724809D02*
X141392856Y-102748619D01*
X141392856Y-102748619D02*
X141440475Y-102796238D01*
X141440475Y-102796238D02*
X141464285Y-102891476D01*
X141464285Y-102891476D02*
X141464285Y-103058142D01*
X141464285Y-103058142D02*
X141440475Y-103153380D01*
X141440475Y-103153380D02*
X141392856Y-103201000D01*
X141392856Y-103201000D02*
X141345237Y-103224809D01*
X141345237Y-103224809D02*
X141249999Y-103224809D01*
X141249999Y-103224809D02*
X141202380Y-103201000D01*
X141202380Y-103201000D02*
X141154761Y-103153380D01*
X141154761Y-103153380D02*
X141130952Y-103058142D01*
X141130952Y-103058142D02*
X141130952Y-102891476D01*
X141130952Y-102891476D02*
X141154761Y-102796238D01*
X141154761Y-102796238D02*
X141202380Y-102748619D01*
X141202380Y-102748619D02*
X141249999Y-102724809D01*
X141773809Y-102724809D02*
X141869047Y-102724809D01*
X141869047Y-102724809D02*
X141916666Y-102748619D01*
X141916666Y-102748619D02*
X141964285Y-102796238D01*
X141964285Y-102796238D02*
X141988095Y-102891476D01*
X141988095Y-102891476D02*
X141988095Y-103058142D01*
X141988095Y-103058142D02*
X141964285Y-103153380D01*
X141964285Y-103153380D02*
X141916666Y-103201000D01*
X141916666Y-103201000D02*
X141869047Y-103224809D01*
X141869047Y-103224809D02*
X141773809Y-103224809D01*
X141773809Y-103224809D02*
X141726190Y-103201000D01*
X141726190Y-103201000D02*
X141678571Y-103153380D01*
X141678571Y-103153380D02*
X141654762Y-103058142D01*
X141654762Y-103058142D02*
X141654762Y-102891476D01*
X141654762Y-102891476D02*
X141678571Y-102796238D01*
X141678571Y-102796238D02*
X141726190Y-102748619D01*
X141726190Y-102748619D02*
X141773809Y-102724809D01*
X142130953Y-102724809D02*
X142416667Y-102724809D01*
X142273810Y-103224809D02*
X142273810Y-102724809D01*
X118178571Y-111724809D02*
X118011905Y-111486714D01*
X117892857Y-111724809D02*
X117892857Y-111224809D01*
X117892857Y-111224809D02*
X118083333Y-111224809D01*
X118083333Y-111224809D02*
X118130952Y-111248619D01*
X118130952Y-111248619D02*
X118154762Y-111272428D01*
X118154762Y-111272428D02*
X118178571Y-111320047D01*
X118178571Y-111320047D02*
X118178571Y-111391476D01*
X118178571Y-111391476D02*
X118154762Y-111439095D01*
X118154762Y-111439095D02*
X118130952Y-111462904D01*
X118130952Y-111462904D02*
X118083333Y-111486714D01*
X118083333Y-111486714D02*
X117892857Y-111486714D01*
X118654762Y-111724809D02*
X118369048Y-111724809D01*
X118511905Y-111724809D02*
X118511905Y-111224809D01*
X118511905Y-111224809D02*
X118464286Y-111296238D01*
X118464286Y-111296238D02*
X118416667Y-111343857D01*
X118416667Y-111343857D02*
X118369048Y-111367666D01*
X118821428Y-111224809D02*
X119154761Y-111224809D01*
X119154761Y-111224809D02*
X118940476Y-111724809D01*
X155557143Y-143124809D02*
X155842857Y-143124809D01*
X155700000Y-143624809D02*
X155700000Y-143124809D01*
X156009523Y-143624809D02*
X156009523Y-143124809D01*
X156009523Y-143362904D02*
X156295237Y-143362904D01*
X156295237Y-143624809D02*
X156295237Y-143124809D01*
X156795238Y-143624809D02*
X156509524Y-143624809D01*
X156652381Y-143624809D02*
X156652381Y-143124809D01*
X156652381Y-143124809D02*
X156604762Y-143196238D01*
X156604762Y-143196238D02*
X156557143Y-143243857D01*
X156557143Y-143243857D02*
X156509524Y-143267666D01*
X157369048Y-143776809D02*
X157654762Y-143776809D01*
X157511905Y-144276809D02*
X157511905Y-143776809D01*
X157821428Y-144276809D02*
X157821428Y-143776809D01*
X157821428Y-143776809D02*
X158011904Y-143776809D01*
X158011904Y-143776809D02*
X158059523Y-143800619D01*
X158059523Y-143800619D02*
X158083333Y-143824428D01*
X158083333Y-143824428D02*
X158107142Y-143872047D01*
X158107142Y-143872047D02*
X158107142Y-143943476D01*
X158107142Y-143943476D02*
X158083333Y-143991095D01*
X158083333Y-143991095D02*
X158059523Y-144014904D01*
X158059523Y-144014904D02*
X158011904Y-144038714D01*
X158011904Y-144038714D02*
X157821428Y-144038714D01*
X158583333Y-144276809D02*
X158297619Y-144276809D01*
X158440476Y-144276809D02*
X158440476Y-143776809D01*
X158440476Y-143776809D02*
X158392857Y-143848238D01*
X158392857Y-143848238D02*
X158345238Y-143895857D01*
X158345238Y-143895857D02*
X158297619Y-143919666D01*
X157619047Y-142748619D02*
X157571428Y-142724809D01*
X157571428Y-142724809D02*
X157499999Y-142724809D01*
X157499999Y-142724809D02*
X157428571Y-142748619D01*
X157428571Y-142748619D02*
X157380952Y-142796238D01*
X157380952Y-142796238D02*
X157357142Y-142843857D01*
X157357142Y-142843857D02*
X157333333Y-142939095D01*
X157333333Y-142939095D02*
X157333333Y-143010523D01*
X157333333Y-143010523D02*
X157357142Y-143105761D01*
X157357142Y-143105761D02*
X157380952Y-143153380D01*
X157380952Y-143153380D02*
X157428571Y-143201000D01*
X157428571Y-143201000D02*
X157499999Y-143224809D01*
X157499999Y-143224809D02*
X157547618Y-143224809D01*
X157547618Y-143224809D02*
X157619047Y-143201000D01*
X157619047Y-143201000D02*
X157642856Y-143177190D01*
X157642856Y-143177190D02*
X157642856Y-143010523D01*
X157642856Y-143010523D02*
X157547618Y-143010523D01*
X157857142Y-143224809D02*
X157857142Y-142724809D01*
X157857142Y-142724809D02*
X158142856Y-143224809D01*
X158142856Y-143224809D02*
X158142856Y-142724809D01*
X158380952Y-143224809D02*
X158380952Y-142724809D01*
X158380952Y-142724809D02*
X158500000Y-142724809D01*
X158500000Y-142724809D02*
X158571428Y-142748619D01*
X158571428Y-142748619D02*
X158619047Y-142796238D01*
X158619047Y-142796238D02*
X158642857Y-142843857D01*
X158642857Y-142843857D02*
X158666666Y-142939095D01*
X158666666Y-142939095D02*
X158666666Y-143010523D01*
X158666666Y-143010523D02*
X158642857Y-143105761D01*
X158642857Y-143105761D02*
X158619047Y-143153380D01*
X158619047Y-143153380D02*
X158571428Y-143201000D01*
X158571428Y-143201000D02*
X158500000Y-143224809D01*
X158500000Y-143224809D02*
X158380952Y-143224809D01*
D12*
X113739199Y-126185019D02*
X113739199Y-126423114D01*
X113501104Y-126327876D02*
X113739199Y-126423114D01*
X113739199Y-126423114D02*
X113977294Y-126327876D01*
X113596342Y-126613590D02*
X113739199Y-126423114D01*
X113739199Y-126423114D02*
X113882056Y-126613590D01*
D11*
X146416666Y-115724809D02*
X146250000Y-115486714D01*
X146130952Y-115724809D02*
X146130952Y-115224809D01*
X146130952Y-115224809D02*
X146321428Y-115224809D01*
X146321428Y-115224809D02*
X146369047Y-115248619D01*
X146369047Y-115248619D02*
X146392857Y-115272428D01*
X146392857Y-115272428D02*
X146416666Y-115320047D01*
X146416666Y-115320047D02*
X146416666Y-115391476D01*
X146416666Y-115391476D02*
X146392857Y-115439095D01*
X146392857Y-115439095D02*
X146369047Y-115462904D01*
X146369047Y-115462904D02*
X146321428Y-115486714D01*
X146321428Y-115486714D02*
X146130952Y-115486714D01*
X146654762Y-115724809D02*
X146750000Y-115724809D01*
X146750000Y-115724809D02*
X146797619Y-115701000D01*
X146797619Y-115701000D02*
X146821428Y-115677190D01*
X146821428Y-115677190D02*
X146869047Y-115605761D01*
X146869047Y-115605761D02*
X146892857Y-115510523D01*
X146892857Y-115510523D02*
X146892857Y-115320047D01*
X146892857Y-115320047D02*
X146869047Y-115272428D01*
X146869047Y-115272428D02*
X146845238Y-115248619D01*
X146845238Y-115248619D02*
X146797619Y-115224809D01*
X146797619Y-115224809D02*
X146702381Y-115224809D01*
X146702381Y-115224809D02*
X146654762Y-115248619D01*
X146654762Y-115248619D02*
X146630952Y-115272428D01*
X146630952Y-115272428D02*
X146607143Y-115320047D01*
X146607143Y-115320047D02*
X146607143Y-115439095D01*
X146607143Y-115439095D02*
X146630952Y-115486714D01*
X146630952Y-115486714D02*
X146654762Y-115510523D01*
X146654762Y-115510523D02*
X146702381Y-115534333D01*
X146702381Y-115534333D02*
X146797619Y-115534333D01*
X146797619Y-115534333D02*
X146845238Y-115510523D01*
X146845238Y-115510523D02*
X146869047Y-115486714D01*
X146869047Y-115486714D02*
X146892857Y-115439095D01*
X132678571Y-106054809D02*
X132511905Y-105816714D01*
X132392857Y-106054809D02*
X132392857Y-105554809D01*
X132392857Y-105554809D02*
X132583333Y-105554809D01*
X132583333Y-105554809D02*
X132630952Y-105578619D01*
X132630952Y-105578619D02*
X132654762Y-105602428D01*
X132654762Y-105602428D02*
X132678571Y-105650047D01*
X132678571Y-105650047D02*
X132678571Y-105721476D01*
X132678571Y-105721476D02*
X132654762Y-105769095D01*
X132654762Y-105769095D02*
X132630952Y-105792904D01*
X132630952Y-105792904D02*
X132583333Y-105816714D01*
X132583333Y-105816714D02*
X132392857Y-105816714D01*
X133154762Y-106054809D02*
X132869048Y-106054809D01*
X133011905Y-106054809D02*
X133011905Y-105554809D01*
X133011905Y-105554809D02*
X132964286Y-105626238D01*
X132964286Y-105626238D02*
X132916667Y-105673857D01*
X132916667Y-105673857D02*
X132869048Y-105697666D01*
X133607142Y-105554809D02*
X133369047Y-105554809D01*
X133369047Y-105554809D02*
X133345238Y-105792904D01*
X133345238Y-105792904D02*
X133369047Y-105769095D01*
X133369047Y-105769095D02*
X133416666Y-105745285D01*
X133416666Y-105745285D02*
X133535714Y-105745285D01*
X133535714Y-105745285D02*
X133583333Y-105769095D01*
X133583333Y-105769095D02*
X133607142Y-105792904D01*
X133607142Y-105792904D02*
X133630952Y-105840523D01*
X133630952Y-105840523D02*
X133630952Y-105959571D01*
X133630952Y-105959571D02*
X133607142Y-106007190D01*
X133607142Y-106007190D02*
X133583333Y-106031000D01*
X133583333Y-106031000D02*
X133535714Y-106054809D01*
X133535714Y-106054809D02*
X133416666Y-106054809D01*
X133416666Y-106054809D02*
X133369047Y-106031000D01*
X133369047Y-106031000D02*
X133345238Y-106007190D01*
X146078571Y-151724809D02*
X145911905Y-151486714D01*
X145792857Y-151724809D02*
X145792857Y-151224809D01*
X145792857Y-151224809D02*
X145983333Y-151224809D01*
X145983333Y-151224809D02*
X146030952Y-151248619D01*
X146030952Y-151248619D02*
X146054762Y-151272428D01*
X146054762Y-151272428D02*
X146078571Y-151320047D01*
X146078571Y-151320047D02*
X146078571Y-151391476D01*
X146078571Y-151391476D02*
X146054762Y-151439095D01*
X146054762Y-151439095D02*
X146030952Y-151462904D01*
X146030952Y-151462904D02*
X145983333Y-151486714D01*
X145983333Y-151486714D02*
X145792857Y-151486714D01*
X146554762Y-151724809D02*
X146269048Y-151724809D01*
X146411905Y-151724809D02*
X146411905Y-151224809D01*
X146411905Y-151224809D02*
X146364286Y-151296238D01*
X146364286Y-151296238D02*
X146316667Y-151343857D01*
X146316667Y-151343857D02*
X146269048Y-151367666D01*
X146983333Y-151224809D02*
X146888095Y-151224809D01*
X146888095Y-151224809D02*
X146840476Y-151248619D01*
X146840476Y-151248619D02*
X146816666Y-151272428D01*
X146816666Y-151272428D02*
X146769047Y-151343857D01*
X146769047Y-151343857D02*
X146745238Y-151439095D01*
X146745238Y-151439095D02*
X146745238Y-151629571D01*
X146745238Y-151629571D02*
X146769047Y-151677190D01*
X146769047Y-151677190D02*
X146792857Y-151701000D01*
X146792857Y-151701000D02*
X146840476Y-151724809D01*
X146840476Y-151724809D02*
X146935714Y-151724809D01*
X146935714Y-151724809D02*
X146983333Y-151701000D01*
X146983333Y-151701000D02*
X147007142Y-151677190D01*
X147007142Y-151677190D02*
X147030952Y-151629571D01*
X147030952Y-151629571D02*
X147030952Y-151510523D01*
X147030952Y-151510523D02*
X147007142Y-151462904D01*
X147007142Y-151462904D02*
X146983333Y-151439095D01*
X146983333Y-151439095D02*
X146935714Y-151415285D01*
X146935714Y-151415285D02*
X146840476Y-151415285D01*
X146840476Y-151415285D02*
X146792857Y-151439095D01*
X146792857Y-151439095D02*
X146769047Y-151462904D01*
X146769047Y-151462904D02*
X146745238Y-151510523D01*
X128369048Y-146776809D02*
X128654762Y-146776809D01*
X128511905Y-147276809D02*
X128511905Y-146776809D01*
X128821428Y-147276809D02*
X128821428Y-146776809D01*
X128821428Y-146776809D02*
X129011904Y-146776809D01*
X129011904Y-146776809D02*
X129059523Y-146800619D01*
X129059523Y-146800619D02*
X129083333Y-146824428D01*
X129083333Y-146824428D02*
X129107142Y-146872047D01*
X129107142Y-146872047D02*
X129107142Y-146943476D01*
X129107142Y-146943476D02*
X129083333Y-146991095D01*
X129083333Y-146991095D02*
X129059523Y-147014904D01*
X129059523Y-147014904D02*
X129011904Y-147038714D01*
X129011904Y-147038714D02*
X128821428Y-147038714D01*
X129297619Y-146824428D02*
X129321428Y-146800619D01*
X129321428Y-146800619D02*
X129369047Y-146776809D01*
X129369047Y-146776809D02*
X129488095Y-146776809D01*
X129488095Y-146776809D02*
X129535714Y-146800619D01*
X129535714Y-146800619D02*
X129559523Y-146824428D01*
X129559523Y-146824428D02*
X129583333Y-146872047D01*
X129583333Y-146872047D02*
X129583333Y-146919666D01*
X129583333Y-146919666D02*
X129559523Y-146991095D01*
X129559523Y-146991095D02*
X129273809Y-147276809D01*
X129273809Y-147276809D02*
X129583333Y-147276809D01*
X129224809Y-153285713D02*
X129629571Y-153285713D01*
X129629571Y-153285713D02*
X129677190Y-153261903D01*
X129677190Y-153261903D02*
X129701000Y-153238094D01*
X129701000Y-153238094D02*
X129724809Y-153190475D01*
X129724809Y-153190475D02*
X129724809Y-153095237D01*
X129724809Y-153095237D02*
X129701000Y-153047618D01*
X129701000Y-153047618D02*
X129677190Y-153023808D01*
X129677190Y-153023808D02*
X129629571Y-152999999D01*
X129629571Y-152999999D02*
X129224809Y-152999999D01*
X129701000Y-152785712D02*
X129724809Y-152714284D01*
X129724809Y-152714284D02*
X129724809Y-152595236D01*
X129724809Y-152595236D02*
X129701000Y-152547617D01*
X129701000Y-152547617D02*
X129677190Y-152523808D01*
X129677190Y-152523808D02*
X129629571Y-152499998D01*
X129629571Y-152499998D02*
X129581952Y-152499998D01*
X129581952Y-152499998D02*
X129534333Y-152523808D01*
X129534333Y-152523808D02*
X129510523Y-152547617D01*
X129510523Y-152547617D02*
X129486714Y-152595236D01*
X129486714Y-152595236D02*
X129462904Y-152690474D01*
X129462904Y-152690474D02*
X129439095Y-152738093D01*
X129439095Y-152738093D02*
X129415285Y-152761903D01*
X129415285Y-152761903D02*
X129367666Y-152785712D01*
X129367666Y-152785712D02*
X129320047Y-152785712D01*
X129320047Y-152785712D02*
X129272428Y-152761903D01*
X129272428Y-152761903D02*
X129248619Y-152738093D01*
X129248619Y-152738093D02*
X129224809Y-152690474D01*
X129224809Y-152690474D02*
X129224809Y-152571427D01*
X129224809Y-152571427D02*
X129248619Y-152499998D01*
X129462904Y-152119046D02*
X129486714Y-152047618D01*
X129486714Y-152047618D02*
X129510523Y-152023808D01*
X129510523Y-152023808D02*
X129558142Y-151999999D01*
X129558142Y-151999999D02*
X129629571Y-151999999D01*
X129629571Y-151999999D02*
X129677190Y-152023808D01*
X129677190Y-152023808D02*
X129701000Y-152047618D01*
X129701000Y-152047618D02*
X129724809Y-152095237D01*
X129724809Y-152095237D02*
X129724809Y-152285713D01*
X129724809Y-152285713D02*
X129224809Y-152285713D01*
X129224809Y-152285713D02*
X129224809Y-152119046D01*
X129224809Y-152119046D02*
X129248619Y-152071427D01*
X129248619Y-152071427D02*
X129272428Y-152047618D01*
X129272428Y-152047618D02*
X129320047Y-152023808D01*
X129320047Y-152023808D02*
X129367666Y-152023808D01*
X129367666Y-152023808D02*
X129415285Y-152047618D01*
X129415285Y-152047618D02*
X129439095Y-152071427D01*
X129439095Y-152071427D02*
X129462904Y-152119046D01*
X129462904Y-152119046D02*
X129462904Y-152285713D01*
X129772428Y-151904761D02*
X129772428Y-151523808D01*
X129224809Y-151476189D02*
X129724809Y-151309523D01*
X129724809Y-151309523D02*
X129224809Y-151142856D01*
X129462904Y-150809523D02*
X129486714Y-150738095D01*
X129486714Y-150738095D02*
X129510523Y-150714285D01*
X129510523Y-150714285D02*
X129558142Y-150690476D01*
X129558142Y-150690476D02*
X129629571Y-150690476D01*
X129629571Y-150690476D02*
X129677190Y-150714285D01*
X129677190Y-150714285D02*
X129701000Y-150738095D01*
X129701000Y-150738095D02*
X129724809Y-150785714D01*
X129724809Y-150785714D02*
X129724809Y-150976190D01*
X129724809Y-150976190D02*
X129224809Y-150976190D01*
X129224809Y-150976190D02*
X129224809Y-150809523D01*
X129224809Y-150809523D02*
X129248619Y-150761904D01*
X129248619Y-150761904D02*
X129272428Y-150738095D01*
X129272428Y-150738095D02*
X129320047Y-150714285D01*
X129320047Y-150714285D02*
X129367666Y-150714285D01*
X129367666Y-150714285D02*
X129415285Y-150738095D01*
X129415285Y-150738095D02*
X129439095Y-150761904D01*
X129439095Y-150761904D02*
X129462904Y-150809523D01*
X129462904Y-150809523D02*
X129462904Y-150976190D01*
X129224809Y-150476190D02*
X129629571Y-150476190D01*
X129629571Y-150476190D02*
X129677190Y-150452380D01*
X129677190Y-150452380D02*
X129701000Y-150428571D01*
X129701000Y-150428571D02*
X129724809Y-150380952D01*
X129724809Y-150380952D02*
X129724809Y-150285714D01*
X129724809Y-150285714D02*
X129701000Y-150238095D01*
X129701000Y-150238095D02*
X129677190Y-150214285D01*
X129677190Y-150214285D02*
X129629571Y-150190476D01*
X129629571Y-150190476D02*
X129224809Y-150190476D01*
X129701000Y-149976189D02*
X129724809Y-149904761D01*
X129724809Y-149904761D02*
X129724809Y-149785713D01*
X129724809Y-149785713D02*
X129701000Y-149738094D01*
X129701000Y-149738094D02*
X129677190Y-149714285D01*
X129677190Y-149714285D02*
X129629571Y-149690475D01*
X129629571Y-149690475D02*
X129581952Y-149690475D01*
X129581952Y-149690475D02*
X129534333Y-149714285D01*
X129534333Y-149714285D02*
X129510523Y-149738094D01*
X129510523Y-149738094D02*
X129486714Y-149785713D01*
X129486714Y-149785713D02*
X129462904Y-149880951D01*
X129462904Y-149880951D02*
X129439095Y-149928570D01*
X129439095Y-149928570D02*
X129415285Y-149952380D01*
X129415285Y-149952380D02*
X129367666Y-149976189D01*
X129367666Y-149976189D02*
X129320047Y-149976189D01*
X129320047Y-149976189D02*
X129272428Y-149952380D01*
X129272428Y-149952380D02*
X129248619Y-149928570D01*
X129248619Y-149928570D02*
X129224809Y-149880951D01*
X129224809Y-149880951D02*
X129224809Y-149761904D01*
X129224809Y-149761904D02*
X129248619Y-149690475D01*
X130219047Y-152924809D02*
X130219047Y-153329571D01*
X130219047Y-153329571D02*
X130242857Y-153377190D01*
X130242857Y-153377190D02*
X130266666Y-153401000D01*
X130266666Y-153401000D02*
X130314285Y-153424809D01*
X130314285Y-153424809D02*
X130409523Y-153424809D01*
X130409523Y-153424809D02*
X130457142Y-153401000D01*
X130457142Y-153401000D02*
X130480952Y-153377190D01*
X130480952Y-153377190D02*
X130504761Y-153329571D01*
X130504761Y-153329571D02*
X130504761Y-152924809D01*
X130695238Y-152924809D02*
X131004762Y-152924809D01*
X131004762Y-152924809D02*
X130838095Y-153115285D01*
X130838095Y-153115285D02*
X130909524Y-153115285D01*
X130909524Y-153115285D02*
X130957143Y-153139095D01*
X130957143Y-153139095D02*
X130980952Y-153162904D01*
X130980952Y-153162904D02*
X131004762Y-153210523D01*
X131004762Y-153210523D02*
X131004762Y-153329571D01*
X131004762Y-153329571D02*
X130980952Y-153377190D01*
X130980952Y-153377190D02*
X130957143Y-153401000D01*
X130957143Y-153401000D02*
X130909524Y-153424809D01*
X130909524Y-153424809D02*
X130766667Y-153424809D01*
X130766667Y-153424809D02*
X130719048Y-153401000D01*
X130719048Y-153401000D02*
X130695238Y-153377190D01*
X153024809Y-114521428D02*
X152786714Y-114688094D01*
X153024809Y-114807142D02*
X152524809Y-114807142D01*
X152524809Y-114807142D02*
X152524809Y-114616666D01*
X152524809Y-114616666D02*
X152548619Y-114569047D01*
X152548619Y-114569047D02*
X152572428Y-114545237D01*
X152572428Y-114545237D02*
X152620047Y-114521428D01*
X152620047Y-114521428D02*
X152691476Y-114521428D01*
X152691476Y-114521428D02*
X152739095Y-114545237D01*
X152739095Y-114545237D02*
X152762904Y-114569047D01*
X152762904Y-114569047D02*
X152786714Y-114616666D01*
X152786714Y-114616666D02*
X152786714Y-114807142D01*
X153024809Y-114045237D02*
X153024809Y-114330951D01*
X153024809Y-114188094D02*
X152524809Y-114188094D01*
X152524809Y-114188094D02*
X152596238Y-114235713D01*
X152596238Y-114235713D02*
X152643857Y-114283332D01*
X152643857Y-114283332D02*
X152667666Y-114330951D01*
X152524809Y-113735714D02*
X152524809Y-113688095D01*
X152524809Y-113688095D02*
X152548619Y-113640476D01*
X152548619Y-113640476D02*
X152572428Y-113616666D01*
X152572428Y-113616666D02*
X152620047Y-113592857D01*
X152620047Y-113592857D02*
X152715285Y-113569047D01*
X152715285Y-113569047D02*
X152834333Y-113569047D01*
X152834333Y-113569047D02*
X152929571Y-113592857D01*
X152929571Y-113592857D02*
X152977190Y-113616666D01*
X152977190Y-113616666D02*
X153001000Y-113640476D01*
X153001000Y-113640476D02*
X153024809Y-113688095D01*
X153024809Y-113688095D02*
X153024809Y-113735714D01*
X153024809Y-113735714D02*
X153001000Y-113783333D01*
X153001000Y-113783333D02*
X152977190Y-113807142D01*
X152977190Y-113807142D02*
X152929571Y-113830952D01*
X152929571Y-113830952D02*
X152834333Y-113854761D01*
X152834333Y-113854761D02*
X152715285Y-113854761D01*
X152715285Y-113854761D02*
X152620047Y-113830952D01*
X152620047Y-113830952D02*
X152572428Y-113807142D01*
X152572428Y-113807142D02*
X152548619Y-113783333D01*
X152548619Y-113783333D02*
X152524809Y-113735714D01*
X130462227Y-121212813D02*
X130428555Y-121212813D01*
X130428555Y-121212813D02*
X130361212Y-121179142D01*
X130361212Y-121179142D02*
X130327540Y-121145470D01*
X130327540Y-121145470D02*
X130293868Y-121078126D01*
X130293868Y-121078126D02*
X130293868Y-121010783D01*
X130293868Y-121010783D02*
X130310704Y-120960275D01*
X130310704Y-120960275D02*
X130361212Y-120876096D01*
X130361212Y-120876096D02*
X130411719Y-120825588D01*
X130411719Y-120825588D02*
X130495899Y-120775081D01*
X130495899Y-120775081D02*
X130546407Y-120758245D01*
X130546407Y-120758245D02*
X130613750Y-120758245D01*
X130613750Y-120758245D02*
X130681094Y-120791916D01*
X130681094Y-120791916D02*
X130714765Y-120825588D01*
X130714765Y-120825588D02*
X130748437Y-120892932D01*
X130748437Y-120892932D02*
X130748437Y-120926603D01*
X130664258Y-121280157D02*
X130832616Y-121448516D01*
X130529571Y-121347500D02*
X131000975Y-121111798D01*
X131000975Y-121111798D02*
X130765273Y-121583203D01*
X130883124Y-121701053D02*
X131236677Y-121347500D01*
X131236677Y-121347500D02*
X131101990Y-121717889D01*
X131101990Y-121717889D02*
X131472379Y-121583202D01*
X131472379Y-121583202D02*
X131118826Y-121936756D01*
X131472380Y-122290309D02*
X131270349Y-122088279D01*
X131371364Y-122189294D02*
X131724918Y-121835741D01*
X131724918Y-121835741D02*
X131640738Y-121852577D01*
X131640738Y-121852577D02*
X131573395Y-121852577D01*
X131573395Y-121852577D02*
X131522887Y-121835741D01*
X117845238Y-126724809D02*
X117845238Y-126224809D01*
X117845238Y-126224809D02*
X118011905Y-126581952D01*
X118011905Y-126581952D02*
X118178571Y-126224809D01*
X118178571Y-126224809D02*
X118178571Y-126724809D01*
X118416667Y-126724809D02*
X118416667Y-126224809D01*
X118702381Y-126724809D02*
X118488096Y-126439095D01*
X118702381Y-126224809D02*
X118416667Y-126510523D01*
X119178572Y-126724809D02*
X118892858Y-126724809D01*
X119035715Y-126724809D02*
X119035715Y-126224809D01*
X119035715Y-126224809D02*
X118988096Y-126296238D01*
X118988096Y-126296238D02*
X118940477Y-126343857D01*
X118940477Y-126343857D02*
X118892858Y-126367666D01*
X109380952Y-156474809D02*
X109380952Y-156879571D01*
X109380952Y-156879571D02*
X109404762Y-156927190D01*
X109404762Y-156927190D02*
X109428571Y-156951000D01*
X109428571Y-156951000D02*
X109476190Y-156974809D01*
X109476190Y-156974809D02*
X109571428Y-156974809D01*
X109571428Y-156974809D02*
X109619047Y-156951000D01*
X109619047Y-156951000D02*
X109642857Y-156927190D01*
X109642857Y-156927190D02*
X109666666Y-156879571D01*
X109666666Y-156879571D02*
X109666666Y-156474809D01*
X110166667Y-156974809D02*
X109880953Y-156974809D01*
X110023810Y-156974809D02*
X110023810Y-156474809D01*
X110023810Y-156474809D02*
X109976191Y-156546238D01*
X109976191Y-156546238D02*
X109928572Y-156593857D01*
X109928572Y-156593857D02*
X109880953Y-156617666D01*
X110357143Y-156522428D02*
X110380952Y-156498619D01*
X110380952Y-156498619D02*
X110428571Y-156474809D01*
X110428571Y-156474809D02*
X110547619Y-156474809D01*
X110547619Y-156474809D02*
X110595238Y-156498619D01*
X110595238Y-156498619D02*
X110619047Y-156522428D01*
X110619047Y-156522428D02*
X110642857Y-156570047D01*
X110642857Y-156570047D02*
X110642857Y-156617666D01*
X110642857Y-156617666D02*
X110619047Y-156689095D01*
X110619047Y-156689095D02*
X110333333Y-156974809D01*
X110333333Y-156974809D02*
X110642857Y-156974809D01*
X150678571Y-105177190D02*
X150654762Y-105201000D01*
X150654762Y-105201000D02*
X150583333Y-105224809D01*
X150583333Y-105224809D02*
X150535714Y-105224809D01*
X150535714Y-105224809D02*
X150464286Y-105201000D01*
X150464286Y-105201000D02*
X150416667Y-105153380D01*
X150416667Y-105153380D02*
X150392857Y-105105761D01*
X150392857Y-105105761D02*
X150369048Y-105010523D01*
X150369048Y-105010523D02*
X150369048Y-104939095D01*
X150369048Y-104939095D02*
X150392857Y-104843857D01*
X150392857Y-104843857D02*
X150416667Y-104796238D01*
X150416667Y-104796238D02*
X150464286Y-104748619D01*
X150464286Y-104748619D02*
X150535714Y-104724809D01*
X150535714Y-104724809D02*
X150583333Y-104724809D01*
X150583333Y-104724809D02*
X150654762Y-104748619D01*
X150654762Y-104748619D02*
X150678571Y-104772428D01*
X151154762Y-105224809D02*
X150869048Y-105224809D01*
X151011905Y-105224809D02*
X151011905Y-104724809D01*
X151011905Y-104724809D02*
X150964286Y-104796238D01*
X150964286Y-104796238D02*
X150916667Y-104843857D01*
X150916667Y-104843857D02*
X150869048Y-104867666D01*
X151464285Y-104724809D02*
X151511904Y-104724809D01*
X151511904Y-104724809D02*
X151559523Y-104748619D01*
X151559523Y-104748619D02*
X151583333Y-104772428D01*
X151583333Y-104772428D02*
X151607142Y-104820047D01*
X151607142Y-104820047D02*
X151630952Y-104915285D01*
X151630952Y-104915285D02*
X151630952Y-105034333D01*
X151630952Y-105034333D02*
X151607142Y-105129571D01*
X151607142Y-105129571D02*
X151583333Y-105177190D01*
X151583333Y-105177190D02*
X151559523Y-105201000D01*
X151559523Y-105201000D02*
X151511904Y-105224809D01*
X151511904Y-105224809D02*
X151464285Y-105224809D01*
X151464285Y-105224809D02*
X151416666Y-105201000D01*
X151416666Y-105201000D02*
X151392857Y-105177190D01*
X151392857Y-105177190D02*
X151369047Y-105129571D01*
X151369047Y-105129571D02*
X151345238Y-105034333D01*
X151345238Y-105034333D02*
X151345238Y-104915285D01*
X151345238Y-104915285D02*
X151369047Y-104820047D01*
X151369047Y-104820047D02*
X151392857Y-104772428D01*
X151392857Y-104772428D02*
X151416666Y-104748619D01*
X151416666Y-104748619D02*
X151464285Y-104724809D01*
X129452380Y-139172428D02*
X129404761Y-139148619D01*
X129404761Y-139148619D02*
X129357142Y-139101000D01*
X129357142Y-139101000D02*
X129285714Y-139029571D01*
X129285714Y-139029571D02*
X129238095Y-139005761D01*
X129238095Y-139005761D02*
X129190476Y-139005761D01*
X129214285Y-139124809D02*
X129166666Y-139101000D01*
X129166666Y-139101000D02*
X129119047Y-139053380D01*
X129119047Y-139053380D02*
X129095238Y-138958142D01*
X129095238Y-138958142D02*
X129095238Y-138791476D01*
X129095238Y-138791476D02*
X129119047Y-138696238D01*
X129119047Y-138696238D02*
X129166666Y-138648619D01*
X129166666Y-138648619D02*
X129214285Y-138624809D01*
X129214285Y-138624809D02*
X129309523Y-138624809D01*
X129309523Y-138624809D02*
X129357142Y-138648619D01*
X129357142Y-138648619D02*
X129404761Y-138696238D01*
X129404761Y-138696238D02*
X129428571Y-138791476D01*
X129428571Y-138791476D02*
X129428571Y-138958142D01*
X129428571Y-138958142D02*
X129404761Y-139053380D01*
X129404761Y-139053380D02*
X129357142Y-139101000D01*
X129357142Y-139101000D02*
X129309523Y-139124809D01*
X129309523Y-139124809D02*
X129214285Y-139124809D01*
X129904762Y-139124809D02*
X129619048Y-139124809D01*
X129761905Y-139124809D02*
X129761905Y-138624809D01*
X129761905Y-138624809D02*
X129714286Y-138696238D01*
X129714286Y-138696238D02*
X129666667Y-138743857D01*
X129666667Y-138743857D02*
X129619048Y-138767666D01*
X146619048Y-122224809D02*
X146904762Y-122224809D01*
X146761905Y-122724809D02*
X146761905Y-122224809D01*
X147071428Y-122724809D02*
X147071428Y-122224809D01*
X147071428Y-122224809D02*
X147261904Y-122224809D01*
X147261904Y-122224809D02*
X147309523Y-122248619D01*
X147309523Y-122248619D02*
X147333333Y-122272428D01*
X147333333Y-122272428D02*
X147357142Y-122320047D01*
X147357142Y-122320047D02*
X147357142Y-122391476D01*
X147357142Y-122391476D02*
X147333333Y-122439095D01*
X147333333Y-122439095D02*
X147309523Y-122462904D01*
X147309523Y-122462904D02*
X147261904Y-122486714D01*
X147261904Y-122486714D02*
X147071428Y-122486714D01*
X147809523Y-122224809D02*
X147571428Y-122224809D01*
X147571428Y-122224809D02*
X147547619Y-122462904D01*
X147547619Y-122462904D02*
X147571428Y-122439095D01*
X147571428Y-122439095D02*
X147619047Y-122415285D01*
X147619047Y-122415285D02*
X147738095Y-122415285D01*
X147738095Y-122415285D02*
X147785714Y-122439095D01*
X147785714Y-122439095D02*
X147809523Y-122462904D01*
X147809523Y-122462904D02*
X147833333Y-122510523D01*
X147833333Y-122510523D02*
X147833333Y-122629571D01*
X147833333Y-122629571D02*
X147809523Y-122677190D01*
X147809523Y-122677190D02*
X147785714Y-122701000D01*
X147785714Y-122701000D02*
X147738095Y-122724809D01*
X147738095Y-122724809D02*
X147619047Y-122724809D01*
X147619047Y-122724809D02*
X147571428Y-122701000D01*
X147571428Y-122701000D02*
X147547619Y-122677190D01*
X146821429Y-121512904D02*
X146892857Y-121536714D01*
X146892857Y-121536714D02*
X146916667Y-121560523D01*
X146916667Y-121560523D02*
X146940476Y-121608142D01*
X146940476Y-121608142D02*
X146940476Y-121679571D01*
X146940476Y-121679571D02*
X146916667Y-121727190D01*
X146916667Y-121727190D02*
X146892857Y-121751000D01*
X146892857Y-121751000D02*
X146845238Y-121774809D01*
X146845238Y-121774809D02*
X146654762Y-121774809D01*
X146654762Y-121774809D02*
X146654762Y-121274809D01*
X146654762Y-121274809D02*
X146821429Y-121274809D01*
X146821429Y-121274809D02*
X146869048Y-121298619D01*
X146869048Y-121298619D02*
X146892857Y-121322428D01*
X146892857Y-121322428D02*
X146916667Y-121370047D01*
X146916667Y-121370047D02*
X146916667Y-121417666D01*
X146916667Y-121417666D02*
X146892857Y-121465285D01*
X146892857Y-121465285D02*
X146869048Y-121489095D01*
X146869048Y-121489095D02*
X146821429Y-121512904D01*
X146821429Y-121512904D02*
X146654762Y-121512904D01*
X147369048Y-121441476D02*
X147369048Y-121774809D01*
X147154762Y-121441476D02*
X147154762Y-121703380D01*
X147154762Y-121703380D02*
X147178572Y-121751000D01*
X147178572Y-121751000D02*
X147226191Y-121774809D01*
X147226191Y-121774809D02*
X147297619Y-121774809D01*
X147297619Y-121774809D02*
X147345238Y-121751000D01*
X147345238Y-121751000D02*
X147369048Y-121727190D01*
X147821429Y-121751000D02*
X147773810Y-121774809D01*
X147773810Y-121774809D02*
X147678572Y-121774809D01*
X147678572Y-121774809D02*
X147630953Y-121751000D01*
X147630953Y-121751000D02*
X147607143Y-121727190D01*
X147607143Y-121727190D02*
X147583334Y-121679571D01*
X147583334Y-121679571D02*
X147583334Y-121536714D01*
X147583334Y-121536714D02*
X147607143Y-121489095D01*
X147607143Y-121489095D02*
X147630953Y-121465285D01*
X147630953Y-121465285D02*
X147678572Y-121441476D01*
X147678572Y-121441476D02*
X147773810Y-121441476D01*
X147773810Y-121441476D02*
X147821429Y-121465285D01*
X148035714Y-121774809D02*
X148035714Y-121274809D01*
X148083333Y-121584333D02*
X148226190Y-121774809D01*
X148226190Y-121441476D02*
X148035714Y-121631952D01*
X148321429Y-121822428D02*
X148702381Y-121822428D01*
X148821428Y-121774809D02*
X148821428Y-121274809D01*
X149059523Y-121774809D02*
X149059523Y-121274809D01*
X149059523Y-121274809D02*
X149345237Y-121774809D01*
X149345237Y-121774809D02*
X149345237Y-121274809D01*
X143380952Y-135724809D02*
X143380952Y-136129571D01*
X143380952Y-136129571D02*
X143404762Y-136177190D01*
X143404762Y-136177190D02*
X143428571Y-136201000D01*
X143428571Y-136201000D02*
X143476190Y-136224809D01*
X143476190Y-136224809D02*
X143571428Y-136224809D01*
X143571428Y-136224809D02*
X143619047Y-136201000D01*
X143619047Y-136201000D02*
X143642857Y-136177190D01*
X143642857Y-136177190D02*
X143666666Y-136129571D01*
X143666666Y-136129571D02*
X143666666Y-135724809D01*
X144166667Y-136224809D02*
X143880953Y-136224809D01*
X144023810Y-136224809D02*
X144023810Y-135724809D01*
X144023810Y-135724809D02*
X143976191Y-135796238D01*
X143976191Y-135796238D02*
X143928572Y-135843857D01*
X143928572Y-135843857D02*
X143880953Y-135867666D01*
X144476190Y-135724809D02*
X144523809Y-135724809D01*
X144523809Y-135724809D02*
X144571428Y-135748619D01*
X144571428Y-135748619D02*
X144595238Y-135772428D01*
X144595238Y-135772428D02*
X144619047Y-135820047D01*
X144619047Y-135820047D02*
X144642857Y-135915285D01*
X144642857Y-135915285D02*
X144642857Y-136034333D01*
X144642857Y-136034333D02*
X144619047Y-136129571D01*
X144619047Y-136129571D02*
X144595238Y-136177190D01*
X144595238Y-136177190D02*
X144571428Y-136201000D01*
X144571428Y-136201000D02*
X144523809Y-136224809D01*
X144523809Y-136224809D02*
X144476190Y-136224809D01*
X144476190Y-136224809D02*
X144428571Y-136201000D01*
X144428571Y-136201000D02*
X144404762Y-136177190D01*
X144404762Y-136177190D02*
X144380952Y-136129571D01*
X144380952Y-136129571D02*
X144357143Y-136034333D01*
X144357143Y-136034333D02*
X144357143Y-135915285D01*
X144357143Y-135915285D02*
X144380952Y-135820047D01*
X144380952Y-135820047D02*
X144404762Y-135772428D01*
X144404762Y-135772428D02*
X144428571Y-135748619D01*
X144428571Y-135748619D02*
X144476190Y-135724809D01*
X148178571Y-110224809D02*
X148011905Y-109986714D01*
X147892857Y-110224809D02*
X147892857Y-109724809D01*
X147892857Y-109724809D02*
X148083333Y-109724809D01*
X148083333Y-109724809D02*
X148130952Y-109748619D01*
X148130952Y-109748619D02*
X148154762Y-109772428D01*
X148154762Y-109772428D02*
X148178571Y-109820047D01*
X148178571Y-109820047D02*
X148178571Y-109891476D01*
X148178571Y-109891476D02*
X148154762Y-109939095D01*
X148154762Y-109939095D02*
X148130952Y-109962904D01*
X148130952Y-109962904D02*
X148083333Y-109986714D01*
X148083333Y-109986714D02*
X147892857Y-109986714D01*
X148654762Y-110224809D02*
X148369048Y-110224809D01*
X148511905Y-110224809D02*
X148511905Y-109724809D01*
X148511905Y-109724809D02*
X148464286Y-109796238D01*
X148464286Y-109796238D02*
X148416667Y-109843857D01*
X148416667Y-109843857D02*
X148369048Y-109867666D01*
X148821428Y-109724809D02*
X149130952Y-109724809D01*
X149130952Y-109724809D02*
X148964285Y-109915285D01*
X148964285Y-109915285D02*
X149035714Y-109915285D01*
X149035714Y-109915285D02*
X149083333Y-109939095D01*
X149083333Y-109939095D02*
X149107142Y-109962904D01*
X149107142Y-109962904D02*
X149130952Y-110010523D01*
X149130952Y-110010523D02*
X149130952Y-110129571D01*
X149130952Y-110129571D02*
X149107142Y-110177190D01*
X149107142Y-110177190D02*
X149083333Y-110201000D01*
X149083333Y-110201000D02*
X149035714Y-110224809D01*
X149035714Y-110224809D02*
X148892857Y-110224809D01*
X148892857Y-110224809D02*
X148845238Y-110201000D01*
X148845238Y-110201000D02*
X148821428Y-110177190D01*
X127416666Y-137177190D02*
X127392857Y-137201000D01*
X127392857Y-137201000D02*
X127321428Y-137224809D01*
X127321428Y-137224809D02*
X127273809Y-137224809D01*
X127273809Y-137224809D02*
X127202381Y-137201000D01*
X127202381Y-137201000D02*
X127154762Y-137153380D01*
X127154762Y-137153380D02*
X127130952Y-137105761D01*
X127130952Y-137105761D02*
X127107143Y-137010523D01*
X127107143Y-137010523D02*
X127107143Y-136939095D01*
X127107143Y-136939095D02*
X127130952Y-136843857D01*
X127130952Y-136843857D02*
X127154762Y-136796238D01*
X127154762Y-136796238D02*
X127202381Y-136748619D01*
X127202381Y-136748619D02*
X127273809Y-136724809D01*
X127273809Y-136724809D02*
X127321428Y-136724809D01*
X127321428Y-136724809D02*
X127392857Y-136748619D01*
X127392857Y-136748619D02*
X127416666Y-136772428D01*
X127654762Y-137224809D02*
X127750000Y-137224809D01*
X127750000Y-137224809D02*
X127797619Y-137201000D01*
X127797619Y-137201000D02*
X127821428Y-137177190D01*
X127821428Y-137177190D02*
X127869047Y-137105761D01*
X127869047Y-137105761D02*
X127892857Y-137010523D01*
X127892857Y-137010523D02*
X127892857Y-136820047D01*
X127892857Y-136820047D02*
X127869047Y-136772428D01*
X127869047Y-136772428D02*
X127845238Y-136748619D01*
X127845238Y-136748619D02*
X127797619Y-136724809D01*
X127797619Y-136724809D02*
X127702381Y-136724809D01*
X127702381Y-136724809D02*
X127654762Y-136748619D01*
X127654762Y-136748619D02*
X127630952Y-136772428D01*
X127630952Y-136772428D02*
X127607143Y-136820047D01*
X127607143Y-136820047D02*
X127607143Y-136939095D01*
X127607143Y-136939095D02*
X127630952Y-136986714D01*
X127630952Y-136986714D02*
X127654762Y-137010523D01*
X127654762Y-137010523D02*
X127702381Y-137034333D01*
X127702381Y-137034333D02*
X127797619Y-137034333D01*
X127797619Y-137034333D02*
X127845238Y-137010523D01*
X127845238Y-137010523D02*
X127869047Y-136986714D01*
X127869047Y-136986714D02*
X127892857Y-136939095D01*
X149678571Y-113224809D02*
X149511905Y-112986714D01*
X149392857Y-113224809D02*
X149392857Y-112724809D01*
X149392857Y-112724809D02*
X149583333Y-112724809D01*
X149583333Y-112724809D02*
X149630952Y-112748619D01*
X149630952Y-112748619D02*
X149654762Y-112772428D01*
X149654762Y-112772428D02*
X149678571Y-112820047D01*
X149678571Y-112820047D02*
X149678571Y-112891476D01*
X149678571Y-112891476D02*
X149654762Y-112939095D01*
X149654762Y-112939095D02*
X149630952Y-112962904D01*
X149630952Y-112962904D02*
X149583333Y-112986714D01*
X149583333Y-112986714D02*
X149392857Y-112986714D01*
X150154762Y-113224809D02*
X149869048Y-113224809D01*
X150011905Y-113224809D02*
X150011905Y-112724809D01*
X150011905Y-112724809D02*
X149964286Y-112796238D01*
X149964286Y-112796238D02*
X149916667Y-112843857D01*
X149916667Y-112843857D02*
X149869048Y-112867666D01*
X150345238Y-112772428D02*
X150369047Y-112748619D01*
X150369047Y-112748619D02*
X150416666Y-112724809D01*
X150416666Y-112724809D02*
X150535714Y-112724809D01*
X150535714Y-112724809D02*
X150583333Y-112748619D01*
X150583333Y-112748619D02*
X150607142Y-112772428D01*
X150607142Y-112772428D02*
X150630952Y-112820047D01*
X150630952Y-112820047D02*
X150630952Y-112867666D01*
X150630952Y-112867666D02*
X150607142Y-112939095D01*
X150607142Y-112939095D02*
X150321428Y-113224809D01*
X150321428Y-113224809D02*
X150630952Y-113224809D01*
X139630953Y-132776809D02*
X139916667Y-132776809D01*
X139773810Y-133276809D02*
X139773810Y-132776809D01*
X140083333Y-133276809D02*
X140083333Y-132776809D01*
X140083333Y-132776809D02*
X140273809Y-132776809D01*
X140273809Y-132776809D02*
X140321428Y-132800619D01*
X140321428Y-132800619D02*
X140345238Y-132824428D01*
X140345238Y-132824428D02*
X140369047Y-132872047D01*
X140369047Y-132872047D02*
X140369047Y-132943476D01*
X140369047Y-132943476D02*
X140345238Y-132991095D01*
X140345238Y-132991095D02*
X140321428Y-133014904D01*
X140321428Y-133014904D02*
X140273809Y-133038714D01*
X140273809Y-133038714D02*
X140083333Y-133038714D01*
X140845238Y-133276809D02*
X140559524Y-133276809D01*
X140702381Y-133276809D02*
X140702381Y-132776809D01*
X140702381Y-132776809D02*
X140654762Y-132848238D01*
X140654762Y-132848238D02*
X140607143Y-132895857D01*
X140607143Y-132895857D02*
X140559524Y-132919666D01*
X141273809Y-132943476D02*
X141273809Y-133276809D01*
X141154761Y-132753000D02*
X141035714Y-133110142D01*
X141035714Y-133110142D02*
X141345237Y-133110142D01*
X141607143Y-134224809D02*
X141607143Y-133724809D01*
X141607143Y-133724809D02*
X141726191Y-133724809D01*
X141726191Y-133724809D02*
X141797619Y-133748619D01*
X141797619Y-133748619D02*
X141845238Y-133796238D01*
X141845238Y-133796238D02*
X141869048Y-133843857D01*
X141869048Y-133843857D02*
X141892857Y-133939095D01*
X141892857Y-133939095D02*
X141892857Y-134010523D01*
X141892857Y-134010523D02*
X141869048Y-134105761D01*
X141869048Y-134105761D02*
X141845238Y-134153380D01*
X141845238Y-134153380D02*
X141797619Y-134201000D01*
X141797619Y-134201000D02*
X141726191Y-134224809D01*
X141726191Y-134224809D02*
X141607143Y-134224809D01*
X142107143Y-134224809D02*
X142107143Y-133724809D01*
X142321429Y-134201000D02*
X142392857Y-134224809D01*
X142392857Y-134224809D02*
X142511905Y-134224809D01*
X142511905Y-134224809D02*
X142559524Y-134201000D01*
X142559524Y-134201000D02*
X142583333Y-134177190D01*
X142583333Y-134177190D02*
X142607143Y-134129571D01*
X142607143Y-134129571D02*
X142607143Y-134081952D01*
X142607143Y-134081952D02*
X142583333Y-134034333D01*
X142583333Y-134034333D02*
X142559524Y-134010523D01*
X142559524Y-134010523D02*
X142511905Y-133986714D01*
X142511905Y-133986714D02*
X142416667Y-133962904D01*
X142416667Y-133962904D02*
X142369048Y-133939095D01*
X142369048Y-133939095D02*
X142345238Y-133915285D01*
X142345238Y-133915285D02*
X142321429Y-133867666D01*
X142321429Y-133867666D02*
X142321429Y-133820047D01*
X142321429Y-133820047D02*
X142345238Y-133772428D01*
X142345238Y-133772428D02*
X142369048Y-133748619D01*
X142369048Y-133748619D02*
X142416667Y-133724809D01*
X142416667Y-133724809D02*
X142535714Y-133724809D01*
X142535714Y-133724809D02*
X142607143Y-133748619D01*
X142821428Y-134224809D02*
X142821428Y-133724809D01*
X142821428Y-133724809D02*
X143011904Y-133724809D01*
X143011904Y-133724809D02*
X143059523Y-133748619D01*
X143059523Y-133748619D02*
X143083333Y-133772428D01*
X143083333Y-133772428D02*
X143107142Y-133820047D01*
X143107142Y-133820047D02*
X143107142Y-133891476D01*
X143107142Y-133891476D02*
X143083333Y-133939095D01*
X143083333Y-133939095D02*
X143059523Y-133962904D01*
X143059523Y-133962904D02*
X143011904Y-133986714D01*
X143011904Y-133986714D02*
X142821428Y-133986714D01*
X143202381Y-134272428D02*
X143583333Y-134272428D01*
X143869047Y-133962904D02*
X143940475Y-133986714D01*
X143940475Y-133986714D02*
X143964285Y-134010523D01*
X143964285Y-134010523D02*
X143988094Y-134058142D01*
X143988094Y-134058142D02*
X143988094Y-134129571D01*
X143988094Y-134129571D02*
X143964285Y-134177190D01*
X143964285Y-134177190D02*
X143940475Y-134201000D01*
X143940475Y-134201000D02*
X143892856Y-134224809D01*
X143892856Y-134224809D02*
X143702380Y-134224809D01*
X143702380Y-134224809D02*
X143702380Y-133724809D01*
X143702380Y-133724809D02*
X143869047Y-133724809D01*
X143869047Y-133724809D02*
X143916666Y-133748619D01*
X143916666Y-133748619D02*
X143940475Y-133772428D01*
X143940475Y-133772428D02*
X143964285Y-133820047D01*
X143964285Y-133820047D02*
X143964285Y-133867666D01*
X143964285Y-133867666D02*
X143940475Y-133915285D01*
X143940475Y-133915285D02*
X143916666Y-133939095D01*
X143916666Y-133939095D02*
X143869047Y-133962904D01*
X143869047Y-133962904D02*
X143702380Y-133962904D01*
X144440475Y-134224809D02*
X144202380Y-134224809D01*
X144202380Y-134224809D02*
X144202380Y-133724809D01*
X144488095Y-134272428D02*
X144869047Y-134272428D01*
X144988094Y-134224809D02*
X144988094Y-133724809D01*
X144988094Y-133724809D02*
X145178570Y-133724809D01*
X145178570Y-133724809D02*
X145226189Y-133748619D01*
X145226189Y-133748619D02*
X145249999Y-133772428D01*
X145249999Y-133772428D02*
X145273808Y-133820047D01*
X145273808Y-133820047D02*
X145273808Y-133891476D01*
X145273808Y-133891476D02*
X145249999Y-133939095D01*
X145249999Y-133939095D02*
X145226189Y-133962904D01*
X145226189Y-133962904D02*
X145178570Y-133986714D01*
X145178570Y-133986714D02*
X144988094Y-133986714D01*
X145440475Y-133724809D02*
X145559523Y-134224809D01*
X145559523Y-134224809D02*
X145654761Y-133867666D01*
X145654761Y-133867666D02*
X145749999Y-134224809D01*
X145749999Y-134224809D02*
X145869047Y-133724809D01*
X146059523Y-134224809D02*
X146059523Y-133724809D01*
X146059523Y-133724809D02*
X146226190Y-134081952D01*
X146226190Y-134081952D02*
X146392856Y-133724809D01*
X146392856Y-133724809D02*
X146392856Y-134224809D01*
X134369048Y-155776809D02*
X134654762Y-155776809D01*
X134511905Y-156276809D02*
X134511905Y-155776809D01*
X134821428Y-156276809D02*
X134821428Y-155776809D01*
X134821428Y-155776809D02*
X135011904Y-155776809D01*
X135011904Y-155776809D02*
X135059523Y-155800619D01*
X135059523Y-155800619D02*
X135083333Y-155824428D01*
X135083333Y-155824428D02*
X135107142Y-155872047D01*
X135107142Y-155872047D02*
X135107142Y-155943476D01*
X135107142Y-155943476D02*
X135083333Y-155991095D01*
X135083333Y-155991095D02*
X135059523Y-156014904D01*
X135059523Y-156014904D02*
X135011904Y-156038714D01*
X135011904Y-156038714D02*
X134821428Y-156038714D01*
X135392857Y-155991095D02*
X135345238Y-155967285D01*
X135345238Y-155967285D02*
X135321428Y-155943476D01*
X135321428Y-155943476D02*
X135297619Y-155895857D01*
X135297619Y-155895857D02*
X135297619Y-155872047D01*
X135297619Y-155872047D02*
X135321428Y-155824428D01*
X135321428Y-155824428D02*
X135345238Y-155800619D01*
X135345238Y-155800619D02*
X135392857Y-155776809D01*
X135392857Y-155776809D02*
X135488095Y-155776809D01*
X135488095Y-155776809D02*
X135535714Y-155800619D01*
X135535714Y-155800619D02*
X135559523Y-155824428D01*
X135559523Y-155824428D02*
X135583333Y-155872047D01*
X135583333Y-155872047D02*
X135583333Y-155895857D01*
X135583333Y-155895857D02*
X135559523Y-155943476D01*
X135559523Y-155943476D02*
X135535714Y-155967285D01*
X135535714Y-155967285D02*
X135488095Y-155991095D01*
X135488095Y-155991095D02*
X135392857Y-155991095D01*
X135392857Y-155991095D02*
X135345238Y-156014904D01*
X135345238Y-156014904D02*
X135321428Y-156038714D01*
X135321428Y-156038714D02*
X135297619Y-156086333D01*
X135297619Y-156086333D02*
X135297619Y-156181571D01*
X135297619Y-156181571D02*
X135321428Y-156229190D01*
X135321428Y-156229190D02*
X135345238Y-156253000D01*
X135345238Y-156253000D02*
X135392857Y-156276809D01*
X135392857Y-156276809D02*
X135488095Y-156276809D01*
X135488095Y-156276809D02*
X135535714Y-156253000D01*
X135535714Y-156253000D02*
X135559523Y-156229190D01*
X135559523Y-156229190D02*
X135583333Y-156181571D01*
X135583333Y-156181571D02*
X135583333Y-156086333D01*
X135583333Y-156086333D02*
X135559523Y-156038714D01*
X135559523Y-156038714D02*
X135535714Y-156014904D01*
X135535714Y-156014904D02*
X135488095Y-155991095D01*
X133619048Y-159274809D02*
X133619048Y-158774809D01*
X133833334Y-158822428D02*
X133857143Y-158798619D01*
X133857143Y-158798619D02*
X133904762Y-158774809D01*
X133904762Y-158774809D02*
X134023810Y-158774809D01*
X134023810Y-158774809D02*
X134071429Y-158798619D01*
X134071429Y-158798619D02*
X134095238Y-158822428D01*
X134095238Y-158822428D02*
X134119048Y-158870047D01*
X134119048Y-158870047D02*
X134119048Y-158917666D01*
X134119048Y-158917666D02*
X134095238Y-158989095D01*
X134095238Y-158989095D02*
X133809524Y-159274809D01*
X133809524Y-159274809D02*
X134119048Y-159274809D01*
X134619047Y-159227190D02*
X134595238Y-159251000D01*
X134595238Y-159251000D02*
X134523809Y-159274809D01*
X134523809Y-159274809D02*
X134476190Y-159274809D01*
X134476190Y-159274809D02*
X134404762Y-159251000D01*
X134404762Y-159251000D02*
X134357143Y-159203380D01*
X134357143Y-159203380D02*
X134333333Y-159155761D01*
X134333333Y-159155761D02*
X134309524Y-159060523D01*
X134309524Y-159060523D02*
X134309524Y-158989095D01*
X134309524Y-158989095D02*
X134333333Y-158893857D01*
X134333333Y-158893857D02*
X134357143Y-158846238D01*
X134357143Y-158846238D02*
X134404762Y-158798619D01*
X134404762Y-158798619D02*
X134476190Y-158774809D01*
X134476190Y-158774809D02*
X134523809Y-158774809D01*
X134523809Y-158774809D02*
X134595238Y-158798619D01*
X134595238Y-158798619D02*
X134619047Y-158822428D01*
X134714286Y-159322428D02*
X135095238Y-159322428D01*
X135190476Y-159251000D02*
X135261904Y-159274809D01*
X135261904Y-159274809D02*
X135380952Y-159274809D01*
X135380952Y-159274809D02*
X135428571Y-159251000D01*
X135428571Y-159251000D02*
X135452380Y-159227190D01*
X135452380Y-159227190D02*
X135476190Y-159179571D01*
X135476190Y-159179571D02*
X135476190Y-159131952D01*
X135476190Y-159131952D02*
X135452380Y-159084333D01*
X135452380Y-159084333D02*
X135428571Y-159060523D01*
X135428571Y-159060523D02*
X135380952Y-159036714D01*
X135380952Y-159036714D02*
X135285714Y-159012904D01*
X135285714Y-159012904D02*
X135238095Y-158989095D01*
X135238095Y-158989095D02*
X135214285Y-158965285D01*
X135214285Y-158965285D02*
X135190476Y-158917666D01*
X135190476Y-158917666D02*
X135190476Y-158870047D01*
X135190476Y-158870047D02*
X135214285Y-158822428D01*
X135214285Y-158822428D02*
X135238095Y-158798619D01*
X135238095Y-158798619D02*
X135285714Y-158774809D01*
X135285714Y-158774809D02*
X135404761Y-158774809D01*
X135404761Y-158774809D02*
X135476190Y-158798619D01*
X135690475Y-159274809D02*
X135690475Y-158774809D01*
X135690475Y-158774809D02*
X135809523Y-158774809D01*
X135809523Y-158774809D02*
X135880951Y-158798619D01*
X135880951Y-158798619D02*
X135928570Y-158846238D01*
X135928570Y-158846238D02*
X135952380Y-158893857D01*
X135952380Y-158893857D02*
X135976189Y-158989095D01*
X135976189Y-158989095D02*
X135976189Y-159060523D01*
X135976189Y-159060523D02*
X135952380Y-159155761D01*
X135952380Y-159155761D02*
X135928570Y-159203380D01*
X135928570Y-159203380D02*
X135880951Y-159251000D01*
X135880951Y-159251000D02*
X135809523Y-159274809D01*
X135809523Y-159274809D02*
X135690475Y-159274809D01*
X136166666Y-159131952D02*
X136404761Y-159131952D01*
X136119047Y-159274809D02*
X136285713Y-158774809D01*
X136285713Y-158774809D02*
X136452380Y-159274809D01*
X105019047Y-101024809D02*
X105019047Y-100524809D01*
X105019047Y-100762904D02*
X105304761Y-100762904D01*
X105304761Y-101024809D02*
X105304761Y-100524809D01*
X105804762Y-101024809D02*
X105519048Y-101024809D01*
X105661905Y-101024809D02*
X105661905Y-100524809D01*
X105661905Y-100524809D02*
X105614286Y-100596238D01*
X105614286Y-100596238D02*
X105566667Y-100643857D01*
X105566667Y-100643857D02*
X105519048Y-100667666D01*
X113816666Y-123777190D02*
X113792857Y-123801000D01*
X113792857Y-123801000D02*
X113721428Y-123824809D01*
X113721428Y-123824809D02*
X113673809Y-123824809D01*
X113673809Y-123824809D02*
X113602381Y-123801000D01*
X113602381Y-123801000D02*
X113554762Y-123753380D01*
X113554762Y-123753380D02*
X113530952Y-123705761D01*
X113530952Y-123705761D02*
X113507143Y-123610523D01*
X113507143Y-123610523D02*
X113507143Y-123539095D01*
X113507143Y-123539095D02*
X113530952Y-123443857D01*
X113530952Y-123443857D02*
X113554762Y-123396238D01*
X113554762Y-123396238D02*
X113602381Y-123348619D01*
X113602381Y-123348619D02*
X113673809Y-123324809D01*
X113673809Y-123324809D02*
X113721428Y-123324809D01*
X113721428Y-123324809D02*
X113792857Y-123348619D01*
X113792857Y-123348619D02*
X113816666Y-123372428D01*
X114245238Y-123324809D02*
X114150000Y-123324809D01*
X114150000Y-123324809D02*
X114102381Y-123348619D01*
X114102381Y-123348619D02*
X114078571Y-123372428D01*
X114078571Y-123372428D02*
X114030952Y-123443857D01*
X114030952Y-123443857D02*
X114007143Y-123539095D01*
X114007143Y-123539095D02*
X114007143Y-123729571D01*
X114007143Y-123729571D02*
X114030952Y-123777190D01*
X114030952Y-123777190D02*
X114054762Y-123801000D01*
X114054762Y-123801000D02*
X114102381Y-123824809D01*
X114102381Y-123824809D02*
X114197619Y-123824809D01*
X114197619Y-123824809D02*
X114245238Y-123801000D01*
X114245238Y-123801000D02*
X114269047Y-123777190D01*
X114269047Y-123777190D02*
X114292857Y-123729571D01*
X114292857Y-123729571D02*
X114292857Y-123610523D01*
X114292857Y-123610523D02*
X114269047Y-123562904D01*
X114269047Y-123562904D02*
X114245238Y-123539095D01*
X114245238Y-123539095D02*
X114197619Y-123515285D01*
X114197619Y-123515285D02*
X114102381Y-123515285D01*
X114102381Y-123515285D02*
X114054762Y-123539095D01*
X114054762Y-123539095D02*
X114030952Y-123562904D01*
X114030952Y-123562904D02*
X114007143Y-123610523D01*
X147678571Y-118724809D02*
X147511905Y-118486714D01*
X147392857Y-118724809D02*
X147392857Y-118224809D01*
X147392857Y-118224809D02*
X147583333Y-118224809D01*
X147583333Y-118224809D02*
X147630952Y-118248619D01*
X147630952Y-118248619D02*
X147654762Y-118272428D01*
X147654762Y-118272428D02*
X147678571Y-118320047D01*
X147678571Y-118320047D02*
X147678571Y-118391476D01*
X147678571Y-118391476D02*
X147654762Y-118439095D01*
X147654762Y-118439095D02*
X147630952Y-118462904D01*
X147630952Y-118462904D02*
X147583333Y-118486714D01*
X147583333Y-118486714D02*
X147392857Y-118486714D01*
X148154762Y-118724809D02*
X147869048Y-118724809D01*
X148011905Y-118724809D02*
X148011905Y-118224809D01*
X148011905Y-118224809D02*
X147964286Y-118296238D01*
X147964286Y-118296238D02*
X147916667Y-118343857D01*
X147916667Y-118343857D02*
X147869048Y-118367666D01*
X148630952Y-118724809D02*
X148345238Y-118724809D01*
X148488095Y-118724809D02*
X148488095Y-118224809D01*
X148488095Y-118224809D02*
X148440476Y-118296238D01*
X148440476Y-118296238D02*
X148392857Y-118343857D01*
X148392857Y-118343857D02*
X148345238Y-118367666D01*
D13*
%TO.C,R20*%
X137856359Y-120620000D02*
X138163641Y-120620000D01*
X137856359Y-121380000D02*
X138163641Y-121380000D01*
%TO.C,R8*%
X148977500Y-116262742D02*
X148977500Y-116737258D01*
X150022500Y-116262742D02*
X150022500Y-116737258D01*
%TO.C,R19*%
X148737258Y-134227500D02*
X148262742Y-134227500D01*
X148737258Y-135272500D02*
X148262742Y-135272500D01*
D14*
%TO.C,U8*%
X152206000Y-108420812D02*
X152206000Y-109026882D01*
X152206000Y-111472740D02*
X152206000Y-112078810D01*
X152206000Y-112078810D02*
X152812258Y-112078810D01*
X152812258Y-108420812D02*
X152206000Y-108420812D01*
X155257740Y-112078810D02*
X155863998Y-112078810D01*
X155863998Y-108420812D02*
X155257740Y-108420812D01*
X155863998Y-109026882D02*
X155863998Y-108420812D01*
X155863998Y-112078810D02*
X155863998Y-111472740D01*
D15*
G36*
X153975500Y-112657810D02*
G01*
X153594499Y-112657810D01*
X153594499Y-112403810D01*
X153975500Y-112403810D01*
X153975500Y-112657810D01*
G37*
D13*
%TO.C,R3*%
X124846359Y-149620000D02*
X125153641Y-149620000D01*
X124846359Y-150380000D02*
X125153641Y-150380000D01*
%TO.C,C11*%
X152515000Y-106311252D02*
X152515000Y-105788748D01*
X153985000Y-106311252D02*
X153985000Y-105788748D01*
D14*
%TO.C,U11*%
X122650008Y-113877175D02*
X122650008Y-116050000D01*
X122650008Y-116050000D02*
X123279953Y-116050000D01*
X129607281Y-112450000D02*
X123392718Y-112450000D01*
X129720032Y-116050000D02*
X130349992Y-116050000D01*
X130349992Y-116050000D02*
X130349992Y-113877175D01*
X130603992Y-116050000D02*
X131873992Y-116685000D01*
X131873992Y-115415000D02*
X130603992Y-116050000D01*
X131873992Y-116685000D02*
X131873992Y-115415000D01*
D13*
%TO.C,TP4*%
X116300000Y-156050000D02*
X117700000Y-156050000D01*
X116300000Y-157450000D02*
X116300000Y-156050000D01*
X117700000Y-156050000D02*
X117700000Y-157450000D01*
X117700000Y-157450000D02*
X116300000Y-157450000D01*
D14*
%TO.C,U7*%
X139646002Y-118921002D02*
X139646002Y-119527260D01*
X139646002Y-121972742D02*
X139646002Y-122579000D01*
X139646002Y-122579000D02*
X140252072Y-122579000D01*
X140252072Y-118921002D02*
X139646002Y-118921002D01*
X142697930Y-122579000D02*
X143304000Y-122579000D01*
X143304000Y-118921002D02*
X142697930Y-118921002D01*
X143304000Y-119527260D02*
X143304000Y-118921002D01*
X143304000Y-122579000D02*
X143304000Y-121972742D01*
D15*
G36*
X139321002Y-120690502D02*
G01*
X139067002Y-120690502D01*
X139067002Y-120309501D01*
X139321002Y-120309501D01*
X139321002Y-120690502D01*
G37*
D16*
%TO.C,U14*%
X153350000Y-113249998D02*
X153350000Y-115250000D01*
X156649998Y-113249998D02*
X156649998Y-115250000D01*
D15*
G36*
X156349999Y-113043285D02*
G01*
X156099999Y-113043285D01*
X156099999Y-112643283D01*
X156349999Y-112643283D01*
X156349999Y-113043285D01*
G37*
D13*
%TO.C,M1*%
X151640000Y-137080000D02*
X151640000Y-135700000D01*
X153020000Y-137080000D02*
X151640000Y-137080000D01*
X154290000Y-134320000D02*
X159480000Y-134320000D01*
X154290000Y-137080000D02*
X154290000Y-134320000D01*
X154290000Y-137080000D02*
X159480000Y-137080000D01*
X159480000Y-137080000D02*
X159480000Y-134320000D01*
%TO.C,TP6*%
X145800000Y-109800000D02*
X147200000Y-109800000D01*
X145800000Y-111200000D02*
X145800000Y-109800000D01*
X147200000Y-109800000D02*
X147200000Y-111200000D01*
X147200000Y-111200000D02*
X145800000Y-111200000D01*
%TO.C,C3*%
X149140580Y-113490000D02*
X148859420Y-113490000D01*
X149140580Y-114510000D02*
X148859420Y-114510000D01*
D14*
%TO.C,U5*%
X129504700Y-154827599D02*
X129504700Y-155105817D01*
X129504700Y-157394181D02*
X129504700Y-157672399D01*
X129504700Y-157672399D02*
X130286920Y-157672399D01*
X130286920Y-154827599D02*
X129504700Y-154827599D01*
X132075280Y-157672399D02*
X132857500Y-157672399D01*
X132857500Y-154827599D02*
X132075280Y-154827599D01*
X132857500Y-155105817D02*
X132857500Y-154827599D01*
X132857500Y-157672399D02*
X132857500Y-157394181D01*
D15*
G36*
X133136900Y-156190500D02*
G01*
X132882900Y-156190500D01*
X132882900Y-155809499D01*
X133136900Y-155809499D01*
X133136900Y-156190500D01*
G37*
D13*
%TO.C,C8*%
X127640000Y-131872164D02*
X127640000Y-132087836D01*
X128360000Y-131872164D02*
X128360000Y-132087836D01*
D14*
%TO.C,U9*%
X108350009Y-115497675D02*
X108350009Y-117670500D01*
X108350009Y-117670500D02*
X108979954Y-117670500D01*
X115307282Y-114070500D02*
X109092719Y-114070500D01*
X115420033Y-117670500D02*
X116049993Y-117670500D01*
X116049993Y-117670500D02*
X116049993Y-115497675D01*
X116303993Y-117670500D02*
X117573993Y-118305500D01*
X117573993Y-117035500D02*
X116303993Y-117670500D01*
X117573993Y-118305500D02*
X117573993Y-117035500D01*
D13*
%TO.C,C5*%
X111392164Y-122640000D02*
X111607836Y-122640000D01*
X111392164Y-123360000D02*
X111607836Y-123360000D01*
%TO.C,R22*%
X117836359Y-122620000D02*
X118143641Y-122620000D01*
X117836359Y-123380000D02*
X118143641Y-123380000D01*
%TO.C,TP10*%
X142800000Y-109800000D02*
X144200000Y-109800000D01*
X142800000Y-111200000D02*
X142800000Y-109800000D01*
X144200000Y-109800000D02*
X144200000Y-111200000D01*
X144200000Y-111200000D02*
X142800000Y-111200000D01*
%TO.C,R6*%
X157762742Y-107477500D02*
X158237258Y-107477500D01*
X157762742Y-108522500D02*
X158237258Y-108522500D01*
%TO.C,C4*%
X111412164Y-121640000D02*
X111627836Y-121640000D01*
X111412164Y-122360000D02*
X111627836Y-122360000D01*
%TO.C,R18*%
X116012742Y-157977500D02*
X116487258Y-157977500D01*
X116012742Y-159022500D02*
X116487258Y-159022500D01*
D14*
%TO.C,SW1*%
X144877200Y-155219600D02*
X144877200Y-159080400D01*
X144877200Y-159080400D02*
X146007613Y-159080400D01*
X146007613Y-155219600D02*
X144877200Y-155219600D01*
X147992387Y-159080400D02*
X148507613Y-159080400D01*
X148507613Y-155219600D02*
X147992387Y-155219600D01*
X150492387Y-159080400D02*
X151007613Y-159080400D01*
X151007613Y-155219600D02*
X150492387Y-155219600D01*
X152992387Y-159080400D02*
X154122800Y-159080400D01*
X154122800Y-155219600D02*
X152992387Y-155219600D01*
X154122800Y-159080400D02*
X154122800Y-155219600D01*
D13*
%TO.C,R1*%
X133143641Y-142620000D02*
X132836359Y-142620000D01*
X133143641Y-143380000D02*
X132836359Y-143380000D01*
%TO.C,R14*%
X131663641Y-135120000D02*
X131356359Y-135120000D01*
X131663641Y-135880000D02*
X131356359Y-135880000D01*
%TO.C,TP13*%
X148800000Y-147300000D02*
X150200000Y-147300000D01*
X148800000Y-148700000D02*
X148800000Y-147300000D01*
X150200000Y-147300000D02*
X150200000Y-148700000D01*
X150200000Y-148700000D02*
X148800000Y-148700000D01*
%TO.C,M2*%
X155620000Y-125580000D02*
X157000000Y-125580000D01*
X155620000Y-126960000D02*
X155620000Y-125580000D01*
X155620000Y-128230000D02*
X155620000Y-133420000D01*
X155620000Y-128230000D02*
X158380000Y-128230000D01*
X155620000Y-133420000D02*
X158380000Y-133420000D01*
X158380000Y-128230000D02*
X158380000Y-133420000D01*
%TO.C,C1*%
X126912164Y-149640000D02*
X127127836Y-149640000D01*
X126912164Y-150360000D02*
X127127836Y-150360000D01*
D14*
%TO.C,U2*%
X135172901Y-152323600D02*
X135172901Y-154177800D01*
X137027101Y-154177800D02*
X137027101Y-152323600D01*
X135801601Y-154850700D02*
G75*
G02*
X135598401Y-154850700I-101600J0D01*
G01*
X135598401Y-154850700D02*
G75*
G02*
X135801601Y-154850700I101600J0D01*
G01*
D13*
%TO.C,TP9*%
X138800000Y-142300000D02*
X140200000Y-142300000D01*
X138800000Y-143700000D02*
X138800000Y-142300000D01*
X140200000Y-142300000D02*
X140200000Y-143700000D01*
X140200000Y-143700000D02*
X138800000Y-143700000D01*
D14*
%TO.C,U16*%
X136131450Y-139601001D02*
X138138050Y-139601001D01*
X138138050Y-136299001D02*
X136131450Y-136299001D01*
X138138050Y-138313262D02*
X138138050Y-137586740D01*
%TO.C,L1*%
X151228100Y-116969400D02*
X151228100Y-118516260D01*
X151228100Y-122483740D02*
X151228100Y-124030600D01*
X151228100Y-124030600D02*
X158771900Y-124030600D01*
X158771900Y-116969400D02*
X151228100Y-116969400D01*
X158771900Y-118516260D02*
X158771900Y-116969400D01*
X158771900Y-124030600D02*
X158771900Y-122483740D01*
X159476200Y-120500000D02*
G75*
G02*
X159323800Y-120500000I-76200J0D01*
G01*
X159323800Y-120500000D02*
G75*
G02*
X159476200Y-120500000I76200J0D01*
G01*
D13*
%TO.C,TP11*%
X144800000Y-112800000D02*
X146200000Y-112800000D01*
X144800000Y-114200000D02*
X144800000Y-112800000D01*
X146200000Y-112800000D02*
X146200000Y-114200000D01*
X146200000Y-114200000D02*
X144800000Y-114200000D01*
%TO.C,TP12*%
X151550000Y-145300000D02*
X152950000Y-145300000D01*
X151550000Y-146700000D02*
X151550000Y-145300000D01*
X152950000Y-145300000D02*
X152950000Y-146700000D01*
X152950000Y-146700000D02*
X151550000Y-146700000D01*
%TO.C,R4*%
X121846359Y-149620000D02*
X122153641Y-149620000D01*
X121846359Y-150380000D02*
X122153641Y-150380000D01*
D14*
%TO.C,SW2*%
X144329000Y-146172998D02*
X139985271Y-146172998D01*
D17*
X144550000Y-159099999D02*
X137350000Y-159099999D01*
D18*
X145345000Y-149799999D02*
G75*
G02*
X144583000Y-149799999I-381000J0D01*
G01*
X144583000Y-149799999D02*
G75*
G02*
X145345000Y-149799999I381000J0D01*
G01*
D13*
%TO.C,C2*%
X151865580Y-114990000D02*
X151584420Y-114990000D01*
X151865580Y-116010000D02*
X151584420Y-116010000D01*
%TO.C,R2*%
X131643641Y-143620000D02*
X131336359Y-143620000D01*
X131643641Y-144380000D02*
X131336359Y-144380000D01*
%TO.C,J1*%
X153890000Y-152110000D02*
X153890000Y-153360000D01*
X153890000Y-153360000D02*
X155140000Y-153360000D01*
X153990000Y-151300000D02*
X153990000Y-151600000D01*
X153990000Y-151600000D02*
X154190000Y-151600000D01*
X154090000Y-151300000D02*
X154090000Y-151600000D01*
X154190000Y-146940000D02*
X154190000Y-153060000D01*
X154190000Y-150500000D02*
X154800000Y-150500000D01*
X154190000Y-151300000D02*
X153990000Y-151300000D01*
X154190000Y-153060000D02*
X158910000Y-153060000D01*
X154800000Y-147550000D02*
X154800000Y-149500000D01*
X154800000Y-149500000D02*
X154190000Y-149500000D01*
X154800000Y-150500000D02*
X154800000Y-152450000D01*
X154800000Y-152450000D02*
X158300000Y-152450000D01*
X155500000Y-146940000D02*
X155500000Y-147550000D01*
X155500000Y-153060000D02*
X155500000Y-152450000D01*
X156800000Y-146940000D02*
X156800000Y-147550000D01*
X156800000Y-153060000D02*
X156800000Y-152450000D01*
X157800000Y-149900000D02*
X158300000Y-149900000D01*
X157800000Y-150100000D02*
X157800000Y-149900000D01*
X158300000Y-147550000D02*
X154800000Y-147550000D01*
X158300000Y-150000000D02*
X157800000Y-150000000D01*
X158300000Y-150100000D02*
X157800000Y-150100000D01*
X158300000Y-152450000D02*
X158300000Y-147550000D01*
X158910000Y-146940000D02*
X154190000Y-146940000D01*
X158910000Y-153060000D02*
X158910000Y-146940000D01*
%TO.C,LS1*%
X100890000Y-111410000D02*
X100890000Y-112660000D01*
X100890000Y-112660000D02*
X102140000Y-112660000D01*
X100990000Y-110600000D02*
X100990000Y-110900000D01*
X100990000Y-110900000D02*
X101190000Y-110900000D01*
X101090000Y-110600000D02*
X101090000Y-110900000D01*
X101190000Y-106240000D02*
X101190000Y-112360000D01*
X101190000Y-109800000D02*
X101800000Y-109800000D01*
X101190000Y-110600000D02*
X100990000Y-110600000D01*
X101190000Y-112360000D02*
X105910000Y-112360000D01*
X101800000Y-106850000D02*
X101800000Y-108800000D01*
X101800000Y-108800000D02*
X101190000Y-108800000D01*
X101800000Y-109800000D02*
X101800000Y-111750000D01*
X101800000Y-111750000D02*
X105300000Y-111750000D01*
X102500000Y-106240000D02*
X102500000Y-106850000D01*
X102500000Y-112360000D02*
X102500000Y-111750000D01*
X103800000Y-106240000D02*
X103800000Y-106850000D01*
X103800000Y-112360000D02*
X103800000Y-111750000D01*
X104800000Y-109200000D02*
X105300000Y-109200000D01*
X104800000Y-109400000D02*
X104800000Y-109200000D01*
X105300000Y-106850000D02*
X101800000Y-106850000D01*
X105300000Y-109300000D02*
X104800000Y-109300000D01*
X105300000Y-109400000D02*
X104800000Y-109400000D01*
X105300000Y-111750000D02*
X105300000Y-106850000D01*
X105910000Y-106240000D02*
X101190000Y-106240000D01*
X105910000Y-112360000D02*
X105910000Y-106240000D01*
%TO.C,R23*%
X132227500Y-113662258D02*
X132227500Y-113187742D01*
X133272500Y-113662258D02*
X133272500Y-113187742D01*
%TO.C,C7*%
X140392164Y-137140000D02*
X140607836Y-137140000D01*
X140392164Y-137860000D02*
X140607836Y-137860000D01*
%TO.C,R21*%
X144336359Y-123120000D02*
X144643641Y-123120000D01*
X144336359Y-123880000D02*
X144643641Y-123880000D01*
%TO.C,R24*%
X133153641Y-102620000D02*
X132846359Y-102620000D01*
X133153641Y-103380000D02*
X132846359Y-103380000D01*
%TO.C,R5*%
X157846359Y-113620000D02*
X158153641Y-113620000D01*
X157846359Y-114380000D02*
X158153641Y-114380000D01*
D14*
%TO.C,U1*%
X125129140Y-148416300D02*
X126017800Y-148416300D01*
X126017800Y-130153700D02*
X125129140Y-130153700D01*
X126017800Y-131560860D02*
X126017800Y-130153700D01*
X126017800Y-148416300D02*
X126017800Y-147009140D01*
%TO.C,SW3*%
X135043900Y-105425200D02*
X135043900Y-106044960D01*
X135043900Y-107955040D02*
X135043900Y-108574800D01*
X135043900Y-108574800D02*
X139285700Y-108574800D01*
X139285700Y-105425200D02*
X135043900Y-105425200D01*
X139285700Y-106044960D02*
X139285700Y-105425200D01*
X139285700Y-108574800D02*
X139285700Y-107955040D01*
D13*
%TO.C,R7*%
X157762742Y-109477500D02*
X158237258Y-109477500D01*
X157762742Y-110522500D02*
X158237258Y-110522500D01*
%TO.C,TP7*%
X118800000Y-123800000D02*
X120200000Y-123800000D01*
X118800000Y-125200000D02*
X118800000Y-123800000D01*
X120200000Y-123800000D02*
X120200000Y-125200000D01*
X120200000Y-125200000D02*
X118800000Y-125200000D01*
%TO.C,TP3*%
X151800000Y-151800000D02*
X153200000Y-151800000D01*
X151800000Y-153200000D02*
X151800000Y-151800000D01*
X153200000Y-151800000D02*
X153200000Y-153200000D01*
X153200000Y-153200000D02*
X151800000Y-153200000D01*
D14*
%TO.C,SW4*%
X135079100Y-101425200D02*
X135079100Y-102044960D01*
X135079100Y-103955040D02*
X135079100Y-104574800D01*
X135079100Y-104574800D02*
X139320900Y-104574800D01*
X139320900Y-101425200D02*
X135079100Y-101425200D01*
X139320900Y-102044960D02*
X139320900Y-101425200D01*
X139320900Y-104574800D02*
X139320900Y-103955040D01*
D13*
%TO.C,R17*%
X117977500Y-113812258D02*
X117977500Y-113337742D01*
X119022500Y-113812258D02*
X119022500Y-113337742D01*
%TO.C,TH1*%
X155820000Y-141953641D02*
X155820000Y-141646359D01*
X156580000Y-141953641D02*
X156580000Y-141646359D01*
%TO.C,TP1*%
X157300000Y-144800000D02*
X158700000Y-144800000D01*
X157300000Y-146200000D02*
X157300000Y-144800000D01*
X158700000Y-144800000D02*
X158700000Y-146200000D01*
X158700000Y-146200000D02*
X157300000Y-146200000D01*
D14*
%TO.C,U13*%
X109573599Y-124053800D02*
X109573599Y-124520459D01*
X109573599Y-126939941D02*
X109573599Y-127406600D01*
X109573599Y-127406600D02*
X110040258Y-127406600D01*
X110040258Y-124053800D02*
X109573599Y-124053800D01*
X112459740Y-127406600D02*
X112926399Y-127406600D01*
X112926399Y-124053800D02*
X112459740Y-124053800D01*
X112926399Y-124520459D02*
X112926399Y-124053800D01*
X112926399Y-127406600D02*
X112926399Y-126939941D01*
D15*
G36*
X109141799Y-125670701D02*
G01*
X108887799Y-125670701D01*
X108887799Y-125289700D01*
X109141799Y-125289700D01*
X109141799Y-125670701D01*
G37*
D13*
%TO.C,R9*%
X145977500Y-117262742D02*
X145977500Y-117737258D01*
X147022500Y-117262742D02*
X147022500Y-117737258D01*
%TO.C,R15*%
X132846359Y-106620000D02*
X133153641Y-106620000D01*
X132846359Y-107380000D02*
X133153641Y-107380000D01*
%TO.C,R16*%
X146120000Y-152836359D02*
X146120000Y-153143641D01*
X146880000Y-152836359D02*
X146880000Y-153143641D01*
%TO.C,TP2*%
X128300000Y-147800000D02*
X129700000Y-147800000D01*
X128300000Y-149200000D02*
X128300000Y-147800000D01*
X129700000Y-147800000D02*
X129700000Y-149200000D01*
X129700000Y-149200000D02*
X128300000Y-149200000D01*
D14*
%TO.C,J2*%
X118603283Y-153620195D02*
X118603283Y-155135802D01*
X118603283Y-157617794D02*
X118603283Y-159103800D01*
X118603283Y-159103800D02*
X127798083Y-159103800D01*
X127798083Y-155135802D02*
X127798083Y-153620184D01*
X127798083Y-159103800D02*
X127798083Y-157617794D01*
D18*
X117206283Y-151433000D02*
G75*
G02*
X116444283Y-151433000I-381000J0D01*
G01*
X116444283Y-151433000D02*
G75*
G02*
X117206283Y-151433000I381000J0D01*
G01*
D19*
%TO.C,U3*%
X130500000Y-145600000D02*
X133500000Y-145600000D01*
X130500000Y-152400000D02*
X130500000Y-145600000D01*
X133500000Y-145600000D02*
X133500000Y-146425000D01*
X133500000Y-151575000D02*
X133500000Y-152400000D01*
X133500000Y-152400000D02*
X130500000Y-152400000D01*
D16*
X134300000Y-150905000D02*
G75*
G02*
X134100000Y-150905000I-100000J0D01*
G01*
X134100000Y-150905000D02*
G75*
G02*
X134300000Y-150905000I100000J0D01*
G01*
D13*
%TO.C,R10*%
X151336359Y-113620000D02*
X151643641Y-113620000D01*
X151336359Y-114380000D02*
X151643641Y-114380000D01*
D19*
%TO.C,CAM1*%
X121630835Y-121711597D02*
X121828825Y-121909587D01*
X124812816Y-118529616D02*
X121630835Y-121711597D01*
X135080006Y-135160768D02*
X135277996Y-135358758D01*
X135277996Y-135358758D02*
X138459977Y-132176777D01*
X138459977Y-132176777D02*
X124812816Y-118529616D01*
D16*
X131241422Y-133979899D02*
G75*
G02*
X131041422Y-133979899I-100000J0D01*
G01*
X131041422Y-133979899D02*
G75*
G02*
X131241422Y-133979899I100000J0D01*
G01*
D13*
%TO.C,MK1*%
X114675000Y-123786000D02*
X117525000Y-123786000D01*
X114675000Y-127486000D02*
X114675000Y-123786000D01*
X117225000Y-127486000D02*
X114675000Y-127486000D01*
X117525000Y-123786000D02*
X117525000Y-127186000D01*
X117525000Y-127766000D02*
X117525000Y-127486000D01*
X117805000Y-127486000D01*
X117525000Y-127766000D01*
G36*
X117525000Y-127766000D02*
G01*
X117525000Y-127486000D01*
X117805000Y-127486000D01*
X117525000Y-127766000D01*
G37*
D14*
%TO.C,U12*%
X105326009Y-150819499D02*
X105326009Y-152089499D01*
X105326009Y-152089499D02*
X106596009Y-151454499D01*
X106596009Y-151454499D02*
X105326009Y-150819499D01*
X106850009Y-151454499D02*
X106850009Y-153627324D01*
X107479969Y-151454499D02*
X106850009Y-151454499D01*
X107592720Y-155054499D02*
X113807283Y-155054499D01*
X114549993Y-151454499D02*
X113920048Y-151454499D01*
X114549993Y-153627324D02*
X114549993Y-151454499D01*
D13*
%TO.C,C10*%
X151390000Y-106627836D02*
X151390000Y-106412164D01*
X152110000Y-106627836D02*
X152110000Y-106412164D01*
%TO.C,Q1*%
X131302500Y-136490000D02*
X132822500Y-136490000D01*
X131302500Y-136540000D02*
X131302500Y-136490000D01*
X131302500Y-138440000D02*
X131302500Y-137660000D01*
X131302500Y-139610000D02*
X131302500Y-139560000D01*
X132822500Y-136490000D02*
X132822500Y-137490000D01*
X132822500Y-138610000D02*
X132822500Y-139610000D01*
X132822500Y-139610000D02*
X131302500Y-139610000D01*
X131002500Y-138000000D02*
X130522500Y-138000000D01*
X130762500Y-137670000D01*
X131002500Y-138000000D01*
G36*
X131002500Y-138000000D02*
G01*
X130522500Y-138000000D01*
X130762500Y-137670000D01*
X131002500Y-138000000D01*
G37*
%TO.C,TP5*%
X147300000Y-119300000D02*
X148700000Y-119300000D01*
X147300000Y-120700000D02*
X147300000Y-119300000D01*
X148700000Y-119300000D02*
X148700000Y-120700000D01*
X148700000Y-120700000D02*
X147300000Y-120700000D01*
D14*
%TO.C,U10*%
X145694500Y-146173991D02*
X146964500Y-146173991D01*
X146329500Y-136950007D02*
X146329500Y-137579952D01*
X146329500Y-144020031D02*
X146329500Y-144649991D01*
X146329500Y-144649991D02*
X148502325Y-144649991D01*
X146329500Y-144903991D02*
X145694500Y-146173991D01*
X146964500Y-146173991D02*
X146329500Y-144903991D01*
X148502325Y-136950007D02*
X146329500Y-136950007D01*
X149929500Y-143907280D02*
X149929500Y-137692717D01*
D13*
%TO.C,R13*%
X149846359Y-110620000D02*
X150153641Y-110620000D01*
X149846359Y-111380000D02*
X150153641Y-111380000D01*
%TO.C,C9*%
X127140000Y-135372164D02*
X127140000Y-135587836D01*
X127860000Y-135372164D02*
X127860000Y-135587836D01*
%TO.C,R12*%
X151843641Y-112620000D02*
X151536359Y-112620000D01*
X151843641Y-113380000D02*
X151536359Y-113380000D01*
%TO.C,TP14*%
X139800000Y-133800000D02*
X141200000Y-133800000D01*
X139800000Y-135200000D02*
X139800000Y-133800000D01*
X141200000Y-133800000D02*
X141200000Y-135200000D01*
X141200000Y-135200000D02*
X139800000Y-135200000D01*
%TO.C,TP8*%
X134300000Y-156800000D02*
X135700000Y-156800000D01*
X134300000Y-158200000D02*
X134300000Y-156800000D01*
X135700000Y-156800000D02*
X135700000Y-158200000D01*
X135700000Y-158200000D02*
X134300000Y-158200000D01*
%TO.C,C6*%
X113640000Y-125107836D02*
X113640000Y-124892164D01*
X114360000Y-125107836D02*
X114360000Y-124892164D01*
%TO.C,R11*%
X147620000Y-117153641D02*
X147620000Y-116846359D01*
X148380000Y-117153641D02*
X148380000Y-116846359D01*
%TD*%
M02*
