ISO-10303-21;
HEADER;
/* Generated by software containing ST-Developer
 * from STEP Tools, Inc. (www.steptools.com) 
 */

FILE_DESCRIPTION(
/* description */ (''),
/* implementation_level */ '2;1');

FILE_NAME(
/* name */ 
'_SG90+9g+Micro+Servo.e43d2cae-f814-41ba-8a0c-7b5be9030956 v2.step',
/* time_stamp */ '2026-05-28T18:35:14+02:00',
/* author */ (''),
/* organization */ (''),
/* preprocessor_version */ 'ST-DEVELOPER v20.1',
/* originating_system */ 'Autodesk Translation Framework v15.8.0.0',
/* authorisation */ '');

FILE_SCHEMA (('AUTOMOTIVE_DESIGN { 1 0 10303 214 3 1 1 }'));
ENDSEC;

DATA;
#10=MECHANICAL_DESIGN_GEOMETRIC_PRESENTATION_REPRESENTATION('',(#30,#31,
#32),#1989);
#11=ITEM_DEFINED_TRANSFORMATION($,$,#1177,#1296);
#12=ITEM_DEFINED_TRANSFORMATION($,$,#1258,#1297);
#13=ITEM_DEFINED_TRANSFORMATION($,$,#1271,#1298);
#14=(
REPRESENTATION_RELATIONSHIP($,$,#2006,#2005)
REPRESENTATION_RELATIONSHIP_WITH_TRANSFORMATION(#11)
SHAPE_REPRESENTATION_RELATIONSHIP()
);
#15=(
REPRESENTATION_RELATIONSHIP($,$,#2007,#2005)
REPRESENTATION_RELATIONSHIP_WITH_TRANSFORMATION(#12)
SHAPE_REPRESENTATION_RELATIONSHIP()
);
#16=(
REPRESENTATION_RELATIONSHIP($,$,#2008,#2005)
REPRESENTATION_RELATIONSHIP_WITH_TRANSFORMATION(#13)
SHAPE_REPRESENTATION_RELATIONSHIP()
);
#17=CONTEXT_DEPENDENT_SHAPE_REPRESENTATION(#14,#2002);
#18=CONTEXT_DEPENDENT_SHAPE_REPRESENTATION(#15,#2003);
#19=CONTEXT_DEPENDENT_SHAPE_REPRESENTATION(#16,#2004);
#20=NEXT_ASSEMBLY_USAGE_OCCURRENCE('servo:1','servo:1','servo:1',#2010,
#2011,'servo:1');
#21=NEXT_ASSEMBLY_USAGE_OCCURRENCE('splined-drive:1','splined-drive:1',
'splined-drive:1',#2010,#2012,'splined-drive:1');
#22=NEXT_ASSEMBLY_USAGE_OCCURRENCE('horn:1','horn:1','horn:1',#2010,#2013,
'horn:1');
#23=CONICAL_SURFACE('',#1259,2.335,0.78539816339745);
#24=SHAPE_REPRESENTATION_RELATIONSHIP('SRR','None',#2006,#27);
#25=SHAPE_REPRESENTATION_RELATIONSHIP('SRR','None',#2007,#28);
#26=SHAPE_REPRESENTATION_RELATIONSHIP('SRR','None',#2008,#29);
#27=ADVANCED_BREP_SHAPE_REPRESENTATION('',(#33),#1986);
#28=ADVANCED_BREP_SHAPE_REPRESENTATION('',(#34),#1987);
#29=ADVANCED_BREP_SHAPE_REPRESENTATION('',(#35),#1988);
#30=STYLED_ITEM('',(#2029),#33);
#31=STYLED_ITEM('',(#2029),#34);
#32=STYLED_ITEM('',(#2029),#35);
#33=MANIFOLD_SOLID_BREP('Body2',#1139);
#34=MANIFOLD_SOLID_BREP('Body1',#1140);
#35=MANIFOLD_SOLID_BREP('Body3',#1141);
#36=FACE_BOUND('',#160,.T.);
#37=FACE_BOUND('',#170,.T.);
#38=FACE_BOUND('',#176,.T.);
#39=FACE_BOUND('',#199,.T.);
#40=FACE_BOUND('',#209,.T.);
#41=FACE_BOUND('',#211,.T.);
#42=FACE_BOUND('',#214,.T.);
#43=FACE_BOUND('',#218,.T.);
#44=PLANE('',#1181);
#45=PLANE('',#1182);
#46=PLANE('',#1183);
#47=PLANE('',#1184);
#48=PLANE('',#1185);
#49=PLANE('',#1186);
#50=PLANE('',#1190);
#51=PLANE('',#1194);
#52=PLANE('',#1198);
#53=PLANE('',#1199);
#54=PLANE('',#1207);
#55=PLANE('',#1212);
#56=PLANE('',#1219);
#57=PLANE('',#1220);
#58=PLANE('',#1223);
#59=PLANE('',#1226);
#60=PLANE('',#1227);
#61=PLANE('',#1228);
#62=PLANE('',#1229);
#63=PLANE('',#1233);
#64=PLANE('',#1234);
#65=PLANE('',#1237);
#66=PLANE('',#1242);
#67=PLANE('',#1243);
#68=PLANE('',#1244);
#69=PLANE('',#1245);
#70=PLANE('',#1246);
#71=PLANE('',#1254);
#72=PLANE('',#1257);
#73=PLANE('',#1265);
#74=PLANE('',#1269);
#75=PLANE('',#1270);
#76=PLANE('',#1275);
#77=PLANE('',#1276);
#78=PLANE('',#1277);
#79=PLANE('',#1282);
#80=PLANE('',#1284);
#81=PLANE('',#1288);
#82=PLANE('',#1295);
#83=FACE_OUTER_BOUND('',#147,.T.);
#84=FACE_OUTER_BOUND('',#148,.T.);
#85=FACE_OUTER_BOUND('',#149,.T.);
#86=FACE_OUTER_BOUND('',#150,.T.);
#87=FACE_OUTER_BOUND('',#151,.T.);
#88=FACE_OUTER_BOUND('',#152,.T.);
#89=FACE_OUTER_BOUND('',#153,.T.);
#90=FACE_OUTER_BOUND('',#154,.T.);
#91=FACE_OUTER_BOUND('',#155,.T.);
#92=FACE_OUTER_BOUND('',#156,.T.);
#93=FACE_OUTER_BOUND('',#157,.T.);
#94=FACE_OUTER_BOUND('',#158,.T.);
#95=FACE_OUTER_BOUND('',#159,.T.);
#96=FACE_OUTER_BOUND('',#161,.T.);
#97=FACE_OUTER_BOUND('',#162,.T.);
#98=FACE_OUTER_BOUND('',#163,.T.);
#99=FACE_OUTER_BOUND('',#164,.T.);
#100=FACE_OUTER_BOUND('',#165,.T.);
#101=FACE_OUTER_BOUND('',#166,.T.);
#102=FACE_OUTER_BOUND('',#167,.T.);
#103=FACE_OUTER_BOUND('',#168,.T.);
#104=FACE_OUTER_BOUND('',#169,.T.);
#105=FACE_OUTER_BOUND('',#171,.T.);
#106=FACE_OUTER_BOUND('',#172,.T.);
#107=FACE_OUTER_BOUND('',#173,.T.);
#108=FACE_OUTER_BOUND('',#174,.T.);
#109=FACE_OUTER_BOUND('',#175,.T.);
#110=FACE_OUTER_BOUND('',#177,.T.);
#111=FACE_OUTER_BOUND('',#178,.T.);
#112=FACE_OUTER_BOUND('',#179,.T.);
#113=FACE_OUTER_BOUND('',#180,.T.);
#114=FACE_OUTER_BOUND('',#181,.T.);
#115=FACE_OUTER_BOUND('',#182,.T.);
#116=FACE_OUTER_BOUND('',#183,.T.);
#117=FACE_OUTER_BOUND('',#184,.T.);
#118=FACE_OUTER_BOUND('',#185,.T.);
#119=FACE_OUTER_BOUND('',#186,.T.);
#120=FACE_OUTER_BOUND('',#187,.T.);
#121=FACE_OUTER_BOUND('',#188,.T.);
#122=FACE_OUTER_BOUND('',#189,.T.);
#123=FACE_OUTER_BOUND('',#190,.T.);
#124=FACE_OUTER_BOUND('',#191,.T.);
#125=FACE_OUTER_BOUND('',#192,.T.);
#126=FACE_OUTER_BOUND('',#193,.T.);
#127=FACE_OUTER_BOUND('',#194,.T.);
#128=FACE_OUTER_BOUND('',#195,.T.);
#129=FACE_OUTER_BOUND('',#196,.T.);
#130=FACE_OUTER_BOUND('',#197,.T.);
#131=FACE_OUTER_BOUND('',#198,.T.);
#132=FACE_OUTER_BOUND('',#200,.T.);
#133=FACE_OUTER_BOUND('',#201,.T.);
#134=FACE_OUTER_BOUND('',#202,.T.);
#135=FACE_OUTER_BOUND('',#203,.T.);
#136=FACE_OUTER_BOUND('',#204,.T.);
#137=FACE_OUTER_BOUND('',#205,.T.);
#138=FACE_OUTER_BOUND('',#206,.T.);
#139=FACE_OUTER_BOUND('',#207,.T.);
#140=FACE_OUTER_BOUND('',#208,.T.);
#141=FACE_OUTER_BOUND('',#210,.T.);
#142=FACE_OUTER_BOUND('',#212,.T.);
#143=FACE_OUTER_BOUND('',#213,.T.);
#144=FACE_OUTER_BOUND('',#215,.T.);
#145=FACE_OUTER_BOUND('',#216,.T.);
#146=FACE_OUTER_BOUND('',#217,.T.);
#147=EDGE_LOOP('',(#739,#740,#741,#742));
#148=EDGE_LOOP('',(#743));
#149=EDGE_LOOP('',(#744,#745,#746,#747));
#150=EDGE_LOOP('',(#748,#749,#750,#751));
#151=EDGE_LOOP('',(#752,#753,#754,#755));
#152=EDGE_LOOP('',(#756,#757,#758,#759));
#153=EDGE_LOOP('',(#760,#761,#762,#763));
#154=EDGE_LOOP('',(#764,#765,#766,#767));
#155=EDGE_LOOP('',(#768,#769,#770,#771,#772,#773,#774,#775));
#156=EDGE_LOOP('',(#776,#777,#778,#779));
#157=EDGE_LOOP('',(#780,#781,#782,#783));
#158=EDGE_LOOP('',(#784,#785,#786,#787));
#159=EDGE_LOOP('',(#788,#789,#790,#791,#792,#793,#794,#795));
#160=EDGE_LOOP('',(#796,#797,#798,#799));
#161=EDGE_LOOP('',(#800,#801,#802,#803));
#162=EDGE_LOOP('',(#804,#805,#806,#807,#808,#809,#810,#811,#812,#813,#814,
#815));
#163=EDGE_LOOP('',(#816,#817,#818,#819));
#164=EDGE_LOOP('',(#820,#821,#822,#823));
#165=EDGE_LOOP('',(#824,#825,#826,#827,#828,#829,#830,#831,#832,#833,#834,
#835));
#166=EDGE_LOOP('',(#836,#837,#838,#839));
#167=EDGE_LOOP('',(#840,#841,#842,#843));
#168=EDGE_LOOP('',(#844,#845,#846,#847));
#169=EDGE_LOOP('',(#848,#849,#850,#851));
#170=EDGE_LOOP('',(#852,#853,#854,#855));
#171=EDGE_LOOP('',(#856,#857,#858,#859));
#172=EDGE_LOOP('',(#860,#861,#862,#863));
#173=EDGE_LOOP('',(#864,#865,#866,#867));
#174=EDGE_LOOP('',(#868,#869,#870,#871));
#175=EDGE_LOOP('',(#872,#873,#874,#875));
#176=EDGE_LOOP('',(#876));
#177=EDGE_LOOP('',(#877,#878,#879,#880));
#178=EDGE_LOOP('',(#881,#882,#883,#884));
#179=EDGE_LOOP('',(#885,#886,#887,#888,#889,#890,#891,#892,#893,#894,#895,
#896));
#180=EDGE_LOOP('',(#897,#898,#899,#900));
#181=EDGE_LOOP('',(#901,#902,#903,#904));
#182=EDGE_LOOP('',(#905,#906,#907,#908));
#183=EDGE_LOOP('',(#909,#910,#911,#912,#913,#914,#915,#916,#917,#918,#919,
#920));
#184=EDGE_LOOP('',(#921,#922,#923,#924));
#185=EDGE_LOOP('',(#925,#926,#927,#928));
#186=EDGE_LOOP('',(#929,#930,#931,#932));
#187=EDGE_LOOP('',(#933,#934,#935,#936));
#188=EDGE_LOOP('',(#937,#938,#939,#940));
#189=EDGE_LOOP('',(#941,#942,#943,#944));
#190=EDGE_LOOP('',(#945,#946,#947,#948,#949,#950,#951,#952,#953,#954,#955,
#956));
#191=EDGE_LOOP('',(#957,#958,#959,#960));
#192=EDGE_LOOP('',(#961,#962,#963,#964));
#193=EDGE_LOOP('',(#965,#966,#967,#968,#969,#970,#971,#972,#973,#974,#975,
#976));
#194=EDGE_LOOP('',(#977,#978,#979,#980));
#195=EDGE_LOOP('',(#981,#982,#983,#984));
#196=EDGE_LOOP('',(#985,#986,#987,#988,#989));
#197=EDGE_LOOP('',(#990,#991,#992,#993,#994));
#198=EDGE_LOOP('',(#995));
#199=EDGE_LOOP('',(#996));
#200=EDGE_LOOP('',(#997,#998,#999,#1000));
#201=EDGE_LOOP('',(#1001));
#202=EDGE_LOOP('',(#1002));
#203=EDGE_LOOP('',(#1003,#1004,#1005,#1006));
#204=EDGE_LOOP('',(#1007,#1008,#1009,#1010));
#205=EDGE_LOOP('',(#1011,#1012,#1013,#1014));
#206=EDGE_LOOP('',(#1015,#1016,#1017,#1018));
#207=EDGE_LOOP('',(#1019,#1020,#1021,#1022));
#208=EDGE_LOOP('',(#1023));
#209=EDGE_LOOP('',(#1024));
#210=EDGE_LOOP('',(#1025));
#211=EDGE_LOOP('',(#1026));
#212=EDGE_LOOP('',(#1027,#1028,#1029,#1030));
#213=EDGE_LOOP('',(#1031,#1032,#1033,#1034,#1035));
#214=EDGE_LOOP('',(#1036));
#215=EDGE_LOOP('',(#1037,#1038,#1039,#1040));
#216=EDGE_LOOP('',(#1041,#1042,#1043,#1044,#1045,#1046,#1047,#1048));
#217=EDGE_LOOP('',(#1049));
#218=EDGE_LOOP('',(#1050));
#219=LINE('',#1655,#323);
#220=LINE('',#1661,#324);
#221=LINE('',#1663,#325);
#222=LINE('',#1665,#326);
#223=LINE('',#1666,#327);
#224=LINE('',#1669,#328);
#225=LINE('',#1671,#329);
#226=LINE('',#1672,#330);
#227=LINE('',#1675,#331);
#228=LINE('',#1677,#332);
#229=LINE('',#1678,#333);
#230=LINE('',#1680,#334);
#231=LINE('',#1681,#335);
#232=LINE('',#1688,#336);
#233=LINE('',#1691,#337);
#234=LINE('',#1694,#338);
#235=LINE('',#1698,#339);
#236=LINE('',#1702,#340);
#237=LINE('',#1705,#341);
#238=LINE('',#1708,#342);
#239=LINE('',#1709,#343);
#240=LINE('',#1715,#344);
#241=LINE('',#1718,#345);
#242=LINE('',#1721,#346);
#243=LINE('',#1723,#347);
#244=LINE('',#1724,#348);
#245=LINE('',#1727,#349);
#246=LINE('',#1731,#350);
#247=LINE('',#1735,#351);
#248=LINE('',#1739,#352);
#249=LINE('',#1743,#353);
#250=LINE('',#1747,#354);
#251=LINE('',#1751,#355);
#252=LINE('',#1753,#356);
#253=LINE('',#1755,#357);
#254=LINE('',#1757,#358);
#255=LINE('',#1759,#359);
#256=LINE('',#1760,#360);
#257=LINE('',#1762,#361);
#258=LINE('',#1764,#362);
#259=LINE('',#1765,#363);
#260=LINE('',#1770,#364);
#261=LINE('',#1773,#365);
#262=LINE('',#1776,#366);
#263=LINE('',#1778,#367);
#264=LINE('',#1780,#368);
#265=LINE('',#1781,#369);
#266=LINE('',#1783,#370);
#267=LINE('',#1785,#371);
#268=LINE('',#1786,#372);
#269=LINE('',#1790,#373);
#270=LINE('',#1793,#374);
#271=LINE('',#1798,#375);
#272=LINE('',#1800,#376);
#273=LINE('',#1803,#377);
#274=LINE('',#1805,#378);
#275=LINE('',#1806,#379);
#276=LINE('',#1810,#380);
#277=LINE('',#1813,#381);
#278=LINE('',#1814,#382);
#279=LINE('',#1821,#383);
#280=LINE('',#1823,#384);
#281=LINE('',#1825,#385);
#282=LINE('',#1826,#386);
#283=LINE('',#1830,#387);
#284=LINE('',#1832,#388);
#285=LINE('',#1834,#389);
#286=LINE('',#1835,#390);
#287=LINE('',#1838,#391);
#288=LINE('',#1842,#392);
#289=LINE('',#1846,#393);
#290=LINE('',#1847,#394);
#291=LINE('',#1850,#395);
#292=LINE('',#1851,#396);
#293=LINE('',#1862,#397);
#294=LINE('',#1864,#398);
#295=LINE('',#1866,#399);
#296=LINE('',#1867,#400);
#297=LINE('',#1871,#401);
#298=LINE('',#1873,#402);
#299=LINE('',#1875,#403);
#300=LINE('',#1876,#404);
#301=LINE('',#1879,#405);
#302=LINE('',#1881,#406);
#303=LINE('',#1882,#407);
#304=LINE('',#1885,#408);
#305=LINE('',#1887,#409);
#306=LINE('',#1888,#410);
#307=LINE('',#1891,#411);
#308=LINE('',#1907,#412);
#309=LINE('',#1913,#413);
#310=LINE('',#1920,#414);
#311=LINE('',#1930,#415);
#312=LINE('',#1933,#416);
#313=LINE('',#1936,#417);
#314=LINE('',#1938,#418);
#315=LINE('',#1939,#419);
#316=LINE('',#1942,#420);
#317=LINE('',#1944,#421);
#318=LINE('',#1945,#422);
#319=LINE('',#1952,#423);
#320=LINE('',#1963,#424);
#321=LINE('',#1971,#425);
#322=LINE('',#1975,#426);
#323=VECTOR('',#1307,2.46);
#324=VECTOR('',#1314,10.);
#325=VECTOR('',#1315,10.);
#326=VECTOR('',#1316,10.);
#327=VECTOR('',#1317,10.);
#328=VECTOR('',#1320,10.);
#329=VECTOR('',#1321,10.);
#330=VECTOR('',#1322,10.);
#331=VECTOR('',#1325,10.);
#332=VECTOR('',#1326,10.);
#333=VECTOR('',#1327,10.);
#334=VECTOR('',#1330,10.);
#335=VECTOR('',#1331,10.);
#336=VECTOR('',#1338,10.);
#337=VECTOR('',#1341,10.);
#338=VECTOR('',#1344,10.);
#339=VECTOR('',#1347,10.);
#340=VECTOR('',#1350,10.);
#341=VECTOR('',#1353,10.);
#342=VECTOR('',#1356,10.);
#343=VECTOR('',#1357,10.);
#344=VECTOR('',#1362,10.);
#345=VECTOR('',#1365,10.);
#346=VECTOR('',#1368,10.);
#347=VECTOR('',#1369,10.);
#348=VECTOR('',#1370,10.);
#349=VECTOR('',#1373,10.);
#350=VECTOR('',#1376,10.);
#351=VECTOR('',#1379,10.);
#352=VECTOR('',#1382,10.);
#353=VECTOR('',#1385,10.);
#354=VECTOR('',#1390,10.);
#355=VECTOR('',#1395,10.);
#356=VECTOR('',#1396,10.);
#357=VECTOR('',#1397,10.);
#358=VECTOR('',#1398,10.);
#359=VECTOR('',#1399,10.);
#360=VECTOR('',#1400,10.);
#361=VECTOR('',#1401,10.);
#362=VECTOR('',#1402,10.);
#363=VECTOR('',#1403,10.);
#364=VECTOR('',#1410,10.);
#365=VECTOR('',#1413,10.);
#366=VECTOR('',#1416,10.);
#367=VECTOR('',#1417,10.);
#368=VECTOR('',#1418,10.);
#369=VECTOR('',#1419,10.);
#370=VECTOR('',#1420,10.);
#371=VECTOR('',#1421,10.);
#372=VECTOR('',#1422,10.);
#373=VECTOR('',#1427,10.);
#374=VECTOR('',#1430,10.);
#375=VECTOR('',#1437,10.);
#376=VECTOR('',#1440,10.);
#377=VECTOR('',#1443,10.);
#378=VECTOR('',#1444,10.);
#379=VECTOR('',#1445,10.);
#380=VECTOR('',#1450,10.);
#381=VECTOR('',#1453,10.);
#382=VECTOR('',#1454,10.);
#383=VECTOR('',#1463,10.);
#384=VECTOR('',#1464,10.);
#385=VECTOR('',#1465,10.);
#386=VECTOR('',#1466,10.);
#387=VECTOR('',#1469,10.);
#388=VECTOR('',#1470,10.);
#389=VECTOR('',#1471,10.);
#390=VECTOR('',#1472,10.);
#391=VECTOR('',#1475,10.);
#392=VECTOR('',#1480,10.);
#393=VECTOR('',#1485,10.);
#394=VECTOR('',#1486,10.);
#395=VECTOR('',#1489,10.);
#396=VECTOR('',#1490,10.);
#397=VECTOR('',#1507,10.);
#398=VECTOR('',#1508,10.);
#399=VECTOR('',#1509,10.);
#400=VECTOR('',#1510,10.);
#401=VECTOR('',#1513,10.);
#402=VECTOR('',#1514,10.);
#403=VECTOR('',#1515,10.);
#404=VECTOR('',#1516,10.);
#405=VECTOR('',#1519,10.);
#406=VECTOR('',#1520,10.);
#407=VECTOR('',#1521,10.);
#408=VECTOR('',#1524,10.);
#409=VECTOR('',#1525,10.);
#410=VECTOR('',#1526,10.);
#411=VECTOR('',#1531,10.);
#412=VECTOR('',#1558,2.335);
#413=VECTOR('',#1565,2.46);
#414=VECTOR('',#1574,0.975);
#415=VECTOR('',#1587,10.);
#416=VECTOR('',#1590,10.);
#417=VECTOR('',#1593,10.);
#418=VECTOR('',#1594,10.);
#419=VECTOR('',#1595,10.);
#420=VECTOR('',#1598,10.);
#421=VECTOR('',#1599,10.);
#422=VECTOR('',#1600,10.);
#423=VECTOR('',#1609,1.31);
#424=VECTOR('',#1624,2.46);
#425=VECTOR('',#1635,2.46);
#426=VECTOR('',#1640,3.5);
#427=CIRCLE('',#1179,2.46);
#428=CIRCLE('',#1180,2.46);
#429=CIRCLE('',#1188,0.25);
#430=CIRCLE('',#1189,0.25);
#431=CIRCLE('',#1191,0.25);
#432=CIRCLE('',#1192,0.25);
#433=CIRCLE('',#1193,0.25);
#434=CIRCLE('',#1196,0.25);
#435=CIRCLE('',#1197,0.25);
#436=CIRCLE('',#1200,0.25);
#437=CIRCLE('',#1201,0.25);
#438=CIRCLE('',#1202,0.25);
#439=CIRCLE('',#1203,5.825);
#440=CIRCLE('',#1204,2.8);
#441=CIRCLE('',#1206,0.25);
#442=CIRCLE('',#1209,0.25);
#443=CIRCLE('',#1211,0.25);
#444=CIRCLE('',#1214,0.25);
#445=CIRCLE('',#1216,0.25);
#446=CIRCLE('',#1218,0.25);
#447=CIRCLE('',#1222,5.825);
#448=CIRCLE('',#1225,2.8);
#449=CIRCLE('',#1230,0.25);
#450=CIRCLE('',#1231,0.25);
#451=CIRCLE('',#1232,1.1);
#452=CIRCLE('',#1236,0.25);
#453=CIRCLE('',#1238,1.1);
#454=CIRCLE('',#1239,0.25);
#455=CIRCLE('',#1247,0.25);
#456=CIRCLE('',#1248,0.25);
#457=CIRCLE('',#1249,1.1);
#458=CIRCLE('',#1251,0.25);
#459=CIRCLE('',#1253,0.25);
#460=CIRCLE('',#1255,1.1);
#461=CIRCLE('',#1260,2.21);
#462=CIRCLE('',#1261,2.46);
#463=CIRCLE('',#1262,2.46);
#464=CIRCLE('',#1264,2.46);
#465=CIRCLE('',#1266,0.975);
#466=CIRCLE('',#1268,0.975);
#467=CIRCLE('',#1273,2.1005);
#468=CIRCLE('',#1274,2.1005);
#469=CIRCLE('',#1278,3.5);
#470=CIRCLE('',#1280,1.31);
#471=CIRCLE('',#1281,1.31);
#472=CIRCLE('',#1283,2.46);
#473=CIRCLE('',#1285,2.46);
#474=CIRCLE('',#1287,2.46);
#475=CIRCLE('',#1289,3.5);
#476=CIRCLE('',#1290,3.5);
#477=CIRCLE('',#1291,2.46);
#478=CIRCLE('',#1294,3.5);
#479=VERTEX_POINT('',#1652);
#480=VERTEX_POINT('',#1654);
#481=VERTEX_POINT('',#1659);
#482=VERTEX_POINT('',#1660);
#483=VERTEX_POINT('',#1662);
#484=VERTEX_POINT('',#1664);
#485=VERTEX_POINT('',#1668);
#486=VERTEX_POINT('',#1670);
#487=VERTEX_POINT('',#1674);
#488=VERTEX_POINT('',#1676);
#489=VERTEX_POINT('',#1684);
#490=VERTEX_POINT('',#1685);
#491=VERTEX_POINT('',#1687);
#492=VERTEX_POINT('',#1689);
#493=VERTEX_POINT('',#1693);
#494=VERTEX_POINT('',#1695);
#495=VERTEX_POINT('',#1697);
#496=VERTEX_POINT('',#1699);
#497=VERTEX_POINT('',#1701);
#498=VERTEX_POINT('',#1703);
#499=VERTEX_POINT('',#1707);
#500=VERTEX_POINT('',#1711);
#501=VERTEX_POINT('',#1712);
#502=VERTEX_POINT('',#1714);
#503=VERTEX_POINT('',#1716);
#504=VERTEX_POINT('',#1720);
#505=VERTEX_POINT('',#1722);
#506=VERTEX_POINT('',#1726);
#507=VERTEX_POINT('',#1728);
#508=VERTEX_POINT('',#1730);
#509=VERTEX_POINT('',#1732);
#510=VERTEX_POINT('',#1734);
#511=VERTEX_POINT('',#1737);
#512=VERTEX_POINT('',#1738);
#513=VERTEX_POINT('',#1740);
#514=VERTEX_POINT('',#1742);
#515=VERTEX_POINT('',#1746);
#516=VERTEX_POINT('',#1750);
#517=VERTEX_POINT('',#1752);
#518=VERTEX_POINT('',#1754);
#519=VERTEX_POINT('',#1756);
#520=VERTEX_POINT('',#1758);
#521=VERTEX_POINT('',#1761);
#522=VERTEX_POINT('',#1763);
#523=VERTEX_POINT('',#1769);
#524=VERTEX_POINT('',#1771);
#525=VERTEX_POINT('',#1775);
#526=VERTEX_POINT('',#1777);
#527=VERTEX_POINT('',#1779);
#528=VERTEX_POINT('',#1782);
#529=VERTEX_POINT('',#1784);
#530=VERTEX_POINT('',#1788);
#531=VERTEX_POINT('',#1792);
#532=VERTEX_POINT('',#1796);
#533=VERTEX_POINT('',#1802);
#534=VERTEX_POINT('',#1804);
#535=VERTEX_POINT('',#1808);
#536=VERTEX_POINT('',#1812);
#537=VERTEX_POINT('',#1819);
#538=VERTEX_POINT('',#1820);
#539=VERTEX_POINT('',#1822);
#540=VERTEX_POINT('',#1824);
#541=VERTEX_POINT('',#1828);
#542=VERTEX_POINT('',#1829);
#543=VERTEX_POINT('',#1831);
#544=VERTEX_POINT('',#1833);
#545=VERTEX_POINT('',#1837);
#546=VERTEX_POINT('',#1840);
#547=VERTEX_POINT('',#1845);
#548=VERTEX_POINT('',#1849);
#549=VERTEX_POINT('',#1860);
#550=VERTEX_POINT('',#1861);
#551=VERTEX_POINT('',#1863);
#552=VERTEX_POINT('',#1865);
#553=VERTEX_POINT('',#1869);
#554=VERTEX_POINT('',#1870);
#555=VERTEX_POINT('',#1872);
#556=VERTEX_POINT('',#1874);
#557=VERTEX_POINT('',#1878);
#558=VERTEX_POINT('',#1880);
#559=VERTEX_POINT('',#1884);
#560=VERTEX_POINT('',#1886);
#561=VERTEX_POINT('',#1904);
#562=VERTEX_POINT('',#1906);
#563=VERTEX_POINT('',#1908);
#564=VERTEX_POINT('',#1912);
#565=VERTEX_POINT('',#1916);
#566=VERTEX_POINT('',#1919);
#567=VERTEX_POINT('',#1926);
#568=VERTEX_POINT('',#1927);
#569=VERTEX_POINT('',#1929);
#570=VERTEX_POINT('',#1931);
#571=VERTEX_POINT('',#1935);
#572=VERTEX_POINT('',#1937);
#573=VERTEX_POINT('',#1941);
#574=VERTEX_POINT('',#1943);
#575=VERTEX_POINT('',#1949);
#576=VERTEX_POINT('',#1951);
#577=VERTEX_POINT('',#1955);
#578=VERTEX_POINT('',#1958);
#579=VERTEX_POINT('',#1961);
#580=VERTEX_POINT('',#1965);
#581=VERTEX_POINT('',#1968);
#582=VERTEX_POINT('',#1973);
#583=EDGE_CURVE('',#479,#479,#427,.T.);
#584=EDGE_CURVE('',#479,#480,#219,.T.);
#585=EDGE_CURVE('',#480,#480,#428,.T.);
#586=EDGE_CURVE('',#481,#482,#220,.T.);
#587=EDGE_CURVE('',#481,#483,#221,.T.);
#588=EDGE_CURVE('',#484,#483,#222,.T.);
#589=EDGE_CURVE('',#482,#484,#223,.T.);
#590=EDGE_CURVE('',#482,#485,#224,.T.);
#591=EDGE_CURVE('',#486,#484,#225,.T.);
#592=EDGE_CURVE('',#485,#486,#226,.T.);
#593=EDGE_CURVE('',#485,#487,#227,.T.);
#594=EDGE_CURVE('',#488,#486,#228,.T.);
#595=EDGE_CURVE('',#487,#488,#229,.T.);
#596=EDGE_CURVE('',#487,#481,#230,.T.);
#597=EDGE_CURVE('',#483,#488,#231,.T.);
#598=EDGE_CURVE('',#489,#490,#429,.T.);
#599=EDGE_CURVE('',#490,#491,#232,.T.);
#600=EDGE_CURVE('',#491,#492,#430,.F.);
#601=EDGE_CURVE('',#492,#489,#233,.T.);
#602=EDGE_CURVE('',#489,#493,#234,.T.);
#603=EDGE_CURVE('',#494,#493,#431,.T.);
#604=EDGE_CURVE('',#494,#495,#235,.T.);
#605=EDGE_CURVE('',#496,#495,#432,.T.);
#606=EDGE_CURVE('',#496,#497,#236,.T.);
#607=EDGE_CURVE('',#498,#497,#433,.T.);
#608=EDGE_CURVE('',#498,#490,#237,.T.);
#609=EDGE_CURVE('',#492,#499,#238,.T.);
#610=EDGE_CURVE('',#493,#499,#239,.T.);
#611=EDGE_CURVE('',#500,#501,#434,.T.);
#612=EDGE_CURVE('',#501,#502,#240,.T.);
#613=EDGE_CURVE('',#502,#503,#435,.F.);
#614=EDGE_CURVE('',#503,#500,#241,.T.);
#615=EDGE_CURVE('',#504,#501,#242,.T.);
#616=EDGE_CURVE('',#505,#504,#243,.T.);
#617=EDGE_CURVE('',#505,#502,#244,.T.);
#618=EDGE_CURVE('',#500,#506,#245,.T.);
#619=EDGE_CURVE('',#507,#506,#436,.T.);
#620=EDGE_CURVE('',#507,#508,#246,.T.);
#621=EDGE_CURVE('',#509,#508,#437,.T.);
#622=EDGE_CURVE('',#509,#510,#247,.T.);
#623=EDGE_CURVE('',#504,#510,#438,.T.);
#624=EDGE_CURVE('',#511,#512,#248,.T.);
#625=EDGE_CURVE('',#512,#513,#439,.T.);
#626=EDGE_CURVE('',#513,#514,#249,.T.);
#627=EDGE_CURVE('',#514,#511,#440,.T.);
#628=EDGE_CURVE('',#510,#515,#250,.T.);
#629=EDGE_CURVE('',#515,#505,#441,.F.);
#630=EDGE_CURVE('',#515,#516,#251,.T.);
#631=EDGE_CURVE('',#517,#509,#252,.T.);
#632=EDGE_CURVE('',#517,#518,#253,.T.);
#633=EDGE_CURVE('',#519,#518,#254,.T.);
#634=EDGE_CURVE('',#520,#519,#255,.T.);
#635=EDGE_CURVE('',#495,#520,#256,.T.);
#636=EDGE_CURVE('',#521,#494,#257,.T.);
#637=EDGE_CURVE('',#521,#522,#258,.T.);
#638=EDGE_CURVE('',#516,#522,#259,.T.);
#639=EDGE_CURVE('',#499,#521,#442,.F.);
#640=EDGE_CURVE('',#497,#523,#260,.T.);
#641=EDGE_CURVE('',#523,#524,#443,.F.);
#642=EDGE_CURVE('',#524,#498,#261,.T.);
#643=EDGE_CURVE('',#524,#525,#262,.T.);
#644=EDGE_CURVE('',#526,#525,#263,.T.);
#645=EDGE_CURVE('',#527,#526,#264,.T.);
#646=EDGE_CURVE('',#506,#527,#265,.T.);
#647=EDGE_CURVE('',#503,#528,#266,.T.);
#648=EDGE_CURVE('',#529,#528,#267,.T.);
#649=EDGE_CURVE('',#491,#529,#268,.T.);
#650=EDGE_CURVE('',#527,#530,#444,.F.);
#651=EDGE_CURVE('',#530,#507,#269,.T.);
#652=EDGE_CURVE('',#508,#531,#270,.T.);
#653=EDGE_CURVE('',#531,#517,#445,.F.);
#654=EDGE_CURVE('',#520,#532,#446,.F.);
#655=EDGE_CURVE('',#532,#496,#271,.T.);
#656=EDGE_CURVE('',#532,#523,#272,.T.);
#657=EDGE_CURVE('',#511,#533,#273,.T.);
#658=EDGE_CURVE('',#534,#533,#274,.T.);
#659=EDGE_CURVE('',#512,#534,#275,.T.);
#660=EDGE_CURVE('',#535,#534,#447,.T.);
#661=EDGE_CURVE('',#513,#535,#276,.T.);
#662=EDGE_CURVE('',#536,#535,#277,.T.);
#663=EDGE_CURVE('',#514,#536,#278,.T.);
#664=EDGE_CURVE('',#533,#536,#448,.T.);
#665=EDGE_CURVE('',#537,#538,#279,.T.);
#666=EDGE_CURVE('',#539,#537,#280,.T.);
#667=EDGE_CURVE('',#540,#539,#281,.T.);
#668=EDGE_CURVE('',#538,#540,#282,.T.);
#669=EDGE_CURVE('',#541,#542,#283,.T.);
#670=EDGE_CURVE('',#543,#541,#284,.T.);
#671=EDGE_CURVE('',#544,#543,#285,.T.);
#672=EDGE_CURVE('',#542,#544,#286,.T.);
#673=EDGE_CURVE('',#540,#545,#287,.T.);
#674=EDGE_CURVE('',#528,#545,#449,.T.);
#675=EDGE_CURVE('',#546,#516,#450,.T.);
#676=EDGE_CURVE('',#546,#543,#288,.T.);
#677=EDGE_CURVE('',#541,#538,#451,.T.);
#678=EDGE_CURVE('',#547,#546,#289,.T.);
#679=EDGE_CURVE('',#544,#547,#290,.T.);
#680=EDGE_CURVE('',#548,#539,#291,.T.);
#681=EDGE_CURVE('',#545,#548,#292,.T.);
#682=EDGE_CURVE('',#548,#529,#452,.T.);
#683=EDGE_CURVE('',#537,#542,#453,.T.);
#684=EDGE_CURVE('',#522,#547,#454,.T.);
#685=EDGE_CURVE('',#549,#550,#293,.T.);
#686=EDGE_CURVE('',#551,#549,#294,.T.);
#687=EDGE_CURVE('',#552,#551,#295,.T.);
#688=EDGE_CURVE('',#550,#552,#296,.T.);
#689=EDGE_CURVE('',#553,#554,#297,.T.);
#690=EDGE_CURVE('',#555,#553,#298,.T.);
#691=EDGE_CURVE('',#556,#555,#299,.T.);
#692=EDGE_CURVE('',#554,#556,#300,.T.);
#693=EDGE_CURVE('',#555,#557,#301,.T.);
#694=EDGE_CURVE('',#558,#557,#302,.T.);
#695=EDGE_CURVE('',#558,#556,#303,.T.);
#696=EDGE_CURVE('',#551,#559,#304,.T.);
#697=EDGE_CURVE('',#560,#559,#305,.T.);
#698=EDGE_CURVE('',#560,#552,#306,.T.);
#699=EDGE_CURVE('',#518,#560,#455,.T.);
#700=EDGE_CURVE('',#530,#531,#307,.T.);
#701=EDGE_CURVE('',#557,#526,#456,.T.);
#702=EDGE_CURVE('',#553,#550,#457,.T.);
#703=EDGE_CURVE('',#525,#558,#458,.T.);
#704=EDGE_CURVE('',#559,#519,#459,.T.);
#705=EDGE_CURVE('',#549,#554,#460,.T.);
#706=EDGE_CURVE('',#561,#561,#461,.T.);
#707=EDGE_CURVE('',#561,#562,#308,.T.);
#708=EDGE_CURVE('',#562,#563,#462,.T.);
#709=EDGE_CURVE('',#563,#562,#463,.T.);
#710=EDGE_CURVE('',#563,#564,#309,.T.);
#711=EDGE_CURVE('',#564,#564,#464,.T.);
#712=EDGE_CURVE('',#565,#565,#465,.T.);
#713=EDGE_CURVE('',#565,#566,#310,.T.);
#714=EDGE_CURVE('',#566,#566,#466,.T.);
#715=EDGE_CURVE('',#567,#568,#467,.T.);
#716=EDGE_CURVE('',#567,#569,#311,.T.);
#717=EDGE_CURVE('',#570,#569,#468,.T.);
#718=EDGE_CURVE('',#568,#570,#312,.T.);
#719=EDGE_CURVE('',#571,#568,#313,.T.);
#720=EDGE_CURVE('',#572,#570,#314,.T.);
#721=EDGE_CURVE('',#571,#572,#315,.T.);
#722=EDGE_CURVE('',#573,#567,#316,.T.);
#723=EDGE_CURVE('',#574,#573,#317,.T.);
#724=EDGE_CURVE('',#569,#574,#318,.T.);
#725=EDGE_CURVE('',#572,#574,#469,.T.);
#726=EDGE_CURVE('',#575,#575,#470,.T.);
#727=EDGE_CURVE('',#575,#576,#319,.T.);
#728=EDGE_CURVE('',#576,#576,#471,.T.);
#729=EDGE_CURVE('',#577,#577,#472,.T.);
#730=EDGE_CURVE('',#578,#578,#473,.T.);
#731=EDGE_CURVE('',#579,#579,#474,.T.);
#732=EDGE_CURVE('',#579,#578,#320,.T.);
#733=EDGE_CURVE('',#571,#580,#475,.T.);
#734=EDGE_CURVE('',#580,#573,#476,.T.);
#735=EDGE_CURVE('',#581,#581,#477,.T.);
#736=EDGE_CURVE('',#577,#581,#321,.T.);
#737=EDGE_CURVE('',#582,#582,#478,.T.);
#738=EDGE_CURVE('',#582,#580,#322,.T.);
#739=ORIENTED_EDGE('',*,*,#583,.F.);
#740=ORIENTED_EDGE('',*,*,#584,.T.);
#741=ORIENTED_EDGE('',*,*,#585,.T.);
#742=ORIENTED_EDGE('',*,*,#584,.F.);
#743=ORIENTED_EDGE('',*,*,#585,.F.);
#744=ORIENTED_EDGE('',*,*,#586,.F.);
#745=ORIENTED_EDGE('',*,*,#587,.T.);
#746=ORIENTED_EDGE('',*,*,#588,.F.);
#747=ORIENTED_EDGE('',*,*,#589,.F.);
#748=ORIENTED_EDGE('',*,*,#590,.F.);
#749=ORIENTED_EDGE('',*,*,#589,.T.);
#750=ORIENTED_EDGE('',*,*,#591,.F.);
#751=ORIENTED_EDGE('',*,*,#592,.F.);
#752=ORIENTED_EDGE('',*,*,#593,.F.);
#753=ORIENTED_EDGE('',*,*,#592,.T.);
#754=ORIENTED_EDGE('',*,*,#594,.F.);
#755=ORIENTED_EDGE('',*,*,#595,.F.);
#756=ORIENTED_EDGE('',*,*,#596,.F.);
#757=ORIENTED_EDGE('',*,*,#595,.T.);
#758=ORIENTED_EDGE('',*,*,#597,.F.);
#759=ORIENTED_EDGE('',*,*,#587,.F.);
#760=ORIENTED_EDGE('',*,*,#597,.T.);
#761=ORIENTED_EDGE('',*,*,#594,.T.);
#762=ORIENTED_EDGE('',*,*,#591,.T.);
#763=ORIENTED_EDGE('',*,*,#588,.T.);
#764=ORIENTED_EDGE('',*,*,#598,.T.);
#765=ORIENTED_EDGE('',*,*,#599,.T.);
#766=ORIENTED_EDGE('',*,*,#600,.T.);
#767=ORIENTED_EDGE('',*,*,#601,.T.);
#768=ORIENTED_EDGE('',*,*,#598,.F.);
#769=ORIENTED_EDGE('',*,*,#602,.T.);
#770=ORIENTED_EDGE('',*,*,#603,.F.);
#771=ORIENTED_EDGE('',*,*,#604,.T.);
#772=ORIENTED_EDGE('',*,*,#605,.F.);
#773=ORIENTED_EDGE('',*,*,#606,.T.);
#774=ORIENTED_EDGE('',*,*,#607,.F.);
#775=ORIENTED_EDGE('',*,*,#608,.T.);
#776=ORIENTED_EDGE('',*,*,#601,.F.);
#777=ORIENTED_EDGE('',*,*,#609,.T.);
#778=ORIENTED_EDGE('',*,*,#610,.F.);
#779=ORIENTED_EDGE('',*,*,#602,.F.);
#780=ORIENTED_EDGE('',*,*,#611,.T.);
#781=ORIENTED_EDGE('',*,*,#612,.T.);
#782=ORIENTED_EDGE('',*,*,#613,.T.);
#783=ORIENTED_EDGE('',*,*,#614,.T.);
#784=ORIENTED_EDGE('',*,*,#612,.F.);
#785=ORIENTED_EDGE('',*,*,#615,.F.);
#786=ORIENTED_EDGE('',*,*,#616,.F.);
#787=ORIENTED_EDGE('',*,*,#617,.T.);
#788=ORIENTED_EDGE('',*,*,#611,.F.);
#789=ORIENTED_EDGE('',*,*,#618,.T.);
#790=ORIENTED_EDGE('',*,*,#619,.F.);
#791=ORIENTED_EDGE('',*,*,#620,.T.);
#792=ORIENTED_EDGE('',*,*,#621,.F.);
#793=ORIENTED_EDGE('',*,*,#622,.T.);
#794=ORIENTED_EDGE('',*,*,#623,.F.);
#795=ORIENTED_EDGE('',*,*,#615,.T.);
#796=ORIENTED_EDGE('',*,*,#624,.T.);
#797=ORIENTED_EDGE('',*,*,#625,.T.);
#798=ORIENTED_EDGE('',*,*,#626,.T.);
#799=ORIENTED_EDGE('',*,*,#627,.T.);
#800=ORIENTED_EDGE('',*,*,#623,.T.);
#801=ORIENTED_EDGE('',*,*,#628,.T.);
#802=ORIENTED_EDGE('',*,*,#629,.T.);
#803=ORIENTED_EDGE('',*,*,#616,.T.);
#804=ORIENTED_EDGE('',*,*,#630,.F.);
#805=ORIENTED_EDGE('',*,*,#628,.F.);
#806=ORIENTED_EDGE('',*,*,#622,.F.);
#807=ORIENTED_EDGE('',*,*,#631,.F.);
#808=ORIENTED_EDGE('',*,*,#632,.T.);
#809=ORIENTED_EDGE('',*,*,#633,.F.);
#810=ORIENTED_EDGE('',*,*,#634,.F.);
#811=ORIENTED_EDGE('',*,*,#635,.F.);
#812=ORIENTED_EDGE('',*,*,#604,.F.);
#813=ORIENTED_EDGE('',*,*,#636,.F.);
#814=ORIENTED_EDGE('',*,*,#637,.T.);
#815=ORIENTED_EDGE('',*,*,#638,.F.);
#816=ORIENTED_EDGE('',*,*,#603,.T.);
#817=ORIENTED_EDGE('',*,*,#610,.T.);
#818=ORIENTED_EDGE('',*,*,#639,.T.);
#819=ORIENTED_EDGE('',*,*,#636,.T.);
#820=ORIENTED_EDGE('',*,*,#607,.T.);
#821=ORIENTED_EDGE('',*,*,#640,.T.);
#822=ORIENTED_EDGE('',*,*,#641,.T.);
#823=ORIENTED_EDGE('',*,*,#642,.T.);
#824=ORIENTED_EDGE('',*,*,#599,.F.);
#825=ORIENTED_EDGE('',*,*,#608,.F.);
#826=ORIENTED_EDGE('',*,*,#642,.F.);
#827=ORIENTED_EDGE('',*,*,#643,.T.);
#828=ORIENTED_EDGE('',*,*,#644,.F.);
#829=ORIENTED_EDGE('',*,*,#645,.F.);
#830=ORIENTED_EDGE('',*,*,#646,.F.);
#831=ORIENTED_EDGE('',*,*,#618,.F.);
#832=ORIENTED_EDGE('',*,*,#614,.F.);
#833=ORIENTED_EDGE('',*,*,#647,.T.);
#834=ORIENTED_EDGE('',*,*,#648,.F.);
#835=ORIENTED_EDGE('',*,*,#649,.F.);
#836=ORIENTED_EDGE('',*,*,#619,.T.);
#837=ORIENTED_EDGE('',*,*,#646,.T.);
#838=ORIENTED_EDGE('',*,*,#650,.T.);
#839=ORIENTED_EDGE('',*,*,#651,.T.);
#840=ORIENTED_EDGE('',*,*,#621,.T.);
#841=ORIENTED_EDGE('',*,*,#652,.T.);
#842=ORIENTED_EDGE('',*,*,#653,.T.);
#843=ORIENTED_EDGE('',*,*,#631,.T.);
#844=ORIENTED_EDGE('',*,*,#605,.T.);
#845=ORIENTED_EDGE('',*,*,#635,.T.);
#846=ORIENTED_EDGE('',*,*,#654,.T.);
#847=ORIENTED_EDGE('',*,*,#655,.T.);
#848=ORIENTED_EDGE('',*,*,#640,.F.);
#849=ORIENTED_EDGE('',*,*,#606,.F.);
#850=ORIENTED_EDGE('',*,*,#655,.F.);
#851=ORIENTED_EDGE('',*,*,#656,.T.);
#852=ORIENTED_EDGE('',*,*,#586,.T.);
#853=ORIENTED_EDGE('',*,*,#590,.T.);
#854=ORIENTED_EDGE('',*,*,#593,.T.);
#855=ORIENTED_EDGE('',*,*,#596,.T.);
#856=ORIENTED_EDGE('',*,*,#624,.F.);
#857=ORIENTED_EDGE('',*,*,#657,.T.);
#858=ORIENTED_EDGE('',*,*,#658,.F.);
#859=ORIENTED_EDGE('',*,*,#659,.F.);
#860=ORIENTED_EDGE('',*,*,#625,.F.);
#861=ORIENTED_EDGE('',*,*,#659,.T.);
#862=ORIENTED_EDGE('',*,*,#660,.F.);
#863=ORIENTED_EDGE('',*,*,#661,.F.);
#864=ORIENTED_EDGE('',*,*,#626,.F.);
#865=ORIENTED_EDGE('',*,*,#661,.T.);
#866=ORIENTED_EDGE('',*,*,#662,.F.);
#867=ORIENTED_EDGE('',*,*,#663,.F.);
#868=ORIENTED_EDGE('',*,*,#627,.F.);
#869=ORIENTED_EDGE('',*,*,#663,.T.);
#870=ORIENTED_EDGE('',*,*,#664,.F.);
#871=ORIENTED_EDGE('',*,*,#657,.F.);
#872=ORIENTED_EDGE('',*,*,#664,.T.);
#873=ORIENTED_EDGE('',*,*,#662,.T.);
#874=ORIENTED_EDGE('',*,*,#660,.T.);
#875=ORIENTED_EDGE('',*,*,#658,.T.);
#876=ORIENTED_EDGE('',*,*,#583,.T.);
#877=ORIENTED_EDGE('',*,*,#665,.F.);
#878=ORIENTED_EDGE('',*,*,#666,.F.);
#879=ORIENTED_EDGE('',*,*,#667,.F.);
#880=ORIENTED_EDGE('',*,*,#668,.F.);
#881=ORIENTED_EDGE('',*,*,#669,.F.);
#882=ORIENTED_EDGE('',*,*,#670,.F.);
#883=ORIENTED_EDGE('',*,*,#671,.F.);
#884=ORIENTED_EDGE('',*,*,#672,.F.);
#885=ORIENTED_EDGE('',*,*,#668,.T.);
#886=ORIENTED_EDGE('',*,*,#673,.T.);
#887=ORIENTED_EDGE('',*,*,#674,.F.);
#888=ORIENTED_EDGE('',*,*,#647,.F.);
#889=ORIENTED_EDGE('',*,*,#613,.F.);
#890=ORIENTED_EDGE('',*,*,#617,.F.);
#891=ORIENTED_EDGE('',*,*,#629,.F.);
#892=ORIENTED_EDGE('',*,*,#630,.T.);
#893=ORIENTED_EDGE('',*,*,#675,.F.);
#894=ORIENTED_EDGE('',*,*,#676,.T.);
#895=ORIENTED_EDGE('',*,*,#670,.T.);
#896=ORIENTED_EDGE('',*,*,#677,.T.);
#897=ORIENTED_EDGE('',*,*,#671,.T.);
#898=ORIENTED_EDGE('',*,*,#676,.F.);
#899=ORIENTED_EDGE('',*,*,#678,.F.);
#900=ORIENTED_EDGE('',*,*,#679,.F.);
#901=ORIENTED_EDGE('',*,*,#667,.T.);
#902=ORIENTED_EDGE('',*,*,#680,.F.);
#903=ORIENTED_EDGE('',*,*,#681,.F.);
#904=ORIENTED_EDGE('',*,*,#673,.F.);
#905=ORIENTED_EDGE('',*,*,#682,.T.);
#906=ORIENTED_EDGE('',*,*,#648,.T.);
#907=ORIENTED_EDGE('',*,*,#674,.T.);
#908=ORIENTED_EDGE('',*,*,#681,.T.);
#909=ORIENTED_EDGE('',*,*,#666,.T.);
#910=ORIENTED_EDGE('',*,*,#683,.T.);
#911=ORIENTED_EDGE('',*,*,#672,.T.);
#912=ORIENTED_EDGE('',*,*,#679,.T.);
#913=ORIENTED_EDGE('',*,*,#684,.F.);
#914=ORIENTED_EDGE('',*,*,#637,.F.);
#915=ORIENTED_EDGE('',*,*,#639,.F.);
#916=ORIENTED_EDGE('',*,*,#609,.F.);
#917=ORIENTED_EDGE('',*,*,#600,.F.);
#918=ORIENTED_EDGE('',*,*,#649,.T.);
#919=ORIENTED_EDGE('',*,*,#682,.F.);
#920=ORIENTED_EDGE('',*,*,#680,.T.);
#921=ORIENTED_EDGE('',*,*,#675,.T.);
#922=ORIENTED_EDGE('',*,*,#638,.T.);
#923=ORIENTED_EDGE('',*,*,#684,.T.);
#924=ORIENTED_EDGE('',*,*,#678,.T.);
#925=ORIENTED_EDGE('',*,*,#665,.T.);
#926=ORIENTED_EDGE('',*,*,#677,.F.);
#927=ORIENTED_EDGE('',*,*,#669,.T.);
#928=ORIENTED_EDGE('',*,*,#683,.F.);
#929=ORIENTED_EDGE('',*,*,#685,.F.);
#930=ORIENTED_EDGE('',*,*,#686,.F.);
#931=ORIENTED_EDGE('',*,*,#687,.F.);
#932=ORIENTED_EDGE('',*,*,#688,.F.);
#933=ORIENTED_EDGE('',*,*,#689,.F.);
#934=ORIENTED_EDGE('',*,*,#690,.F.);
#935=ORIENTED_EDGE('',*,*,#691,.F.);
#936=ORIENTED_EDGE('',*,*,#692,.F.);
#937=ORIENTED_EDGE('',*,*,#691,.T.);
#938=ORIENTED_EDGE('',*,*,#693,.T.);
#939=ORIENTED_EDGE('',*,*,#694,.F.);
#940=ORIENTED_EDGE('',*,*,#695,.T.);
#941=ORIENTED_EDGE('',*,*,#687,.T.);
#942=ORIENTED_EDGE('',*,*,#696,.T.);
#943=ORIENTED_EDGE('',*,*,#697,.F.);
#944=ORIENTED_EDGE('',*,*,#698,.T.);
#945=ORIENTED_EDGE('',*,*,#688,.T.);
#946=ORIENTED_EDGE('',*,*,#698,.F.);
#947=ORIENTED_EDGE('',*,*,#699,.F.);
#948=ORIENTED_EDGE('',*,*,#632,.F.);
#949=ORIENTED_EDGE('',*,*,#653,.F.);
#950=ORIENTED_EDGE('',*,*,#700,.F.);
#951=ORIENTED_EDGE('',*,*,#650,.F.);
#952=ORIENTED_EDGE('',*,*,#645,.T.);
#953=ORIENTED_EDGE('',*,*,#701,.F.);
#954=ORIENTED_EDGE('',*,*,#693,.F.);
#955=ORIENTED_EDGE('',*,*,#690,.T.);
#956=ORIENTED_EDGE('',*,*,#702,.T.);
#957=ORIENTED_EDGE('',*,*,#703,.T.);
#958=ORIENTED_EDGE('',*,*,#694,.T.);
#959=ORIENTED_EDGE('',*,*,#701,.T.);
#960=ORIENTED_EDGE('',*,*,#644,.T.);
#961=ORIENTED_EDGE('',*,*,#699,.T.);
#962=ORIENTED_EDGE('',*,*,#697,.T.);
#963=ORIENTED_EDGE('',*,*,#704,.T.);
#964=ORIENTED_EDGE('',*,*,#633,.T.);
#965=ORIENTED_EDGE('',*,*,#686,.T.);
#966=ORIENTED_EDGE('',*,*,#705,.T.);
#967=ORIENTED_EDGE('',*,*,#692,.T.);
#968=ORIENTED_EDGE('',*,*,#695,.F.);
#969=ORIENTED_EDGE('',*,*,#703,.F.);
#970=ORIENTED_EDGE('',*,*,#643,.F.);
#971=ORIENTED_EDGE('',*,*,#641,.F.);
#972=ORIENTED_EDGE('',*,*,#656,.F.);
#973=ORIENTED_EDGE('',*,*,#654,.F.);
#974=ORIENTED_EDGE('',*,*,#634,.T.);
#975=ORIENTED_EDGE('',*,*,#704,.F.);
#976=ORIENTED_EDGE('',*,*,#696,.F.);
#977=ORIENTED_EDGE('',*,*,#685,.T.);
#978=ORIENTED_EDGE('',*,*,#702,.F.);
#979=ORIENTED_EDGE('',*,*,#689,.T.);
#980=ORIENTED_EDGE('',*,*,#705,.F.);
#981=ORIENTED_EDGE('',*,*,#651,.F.);
#982=ORIENTED_EDGE('',*,*,#700,.T.);
#983=ORIENTED_EDGE('',*,*,#652,.F.);
#984=ORIENTED_EDGE('',*,*,#620,.F.);
#985=ORIENTED_EDGE('',*,*,#706,.T.);
#986=ORIENTED_EDGE('',*,*,#707,.T.);
#987=ORIENTED_EDGE('',*,*,#708,.T.);
#988=ORIENTED_EDGE('',*,*,#709,.T.);
#989=ORIENTED_EDGE('',*,*,#707,.F.);
#990=ORIENTED_EDGE('',*,*,#708,.F.);
#991=ORIENTED_EDGE('',*,*,#709,.F.);
#992=ORIENTED_EDGE('',*,*,#710,.T.);
#993=ORIENTED_EDGE('',*,*,#711,.F.);
#994=ORIENTED_EDGE('',*,*,#710,.F.);
#995=ORIENTED_EDGE('',*,*,#706,.F.);
#996=ORIENTED_EDGE('',*,*,#712,.T.);
#997=ORIENTED_EDGE('',*,*,#712,.F.);
#998=ORIENTED_EDGE('',*,*,#713,.T.);
#999=ORIENTED_EDGE('',*,*,#714,.T.);
#1000=ORIENTED_EDGE('',*,*,#713,.F.);
#1001=ORIENTED_EDGE('',*,*,#714,.F.);
#1002=ORIENTED_EDGE('',*,*,#711,.T.);
#1003=ORIENTED_EDGE('',*,*,#715,.F.);
#1004=ORIENTED_EDGE('',*,*,#716,.T.);
#1005=ORIENTED_EDGE('',*,*,#717,.F.);
#1006=ORIENTED_EDGE('',*,*,#718,.F.);
#1007=ORIENTED_EDGE('',*,*,#719,.T.);
#1008=ORIENTED_EDGE('',*,*,#718,.T.);
#1009=ORIENTED_EDGE('',*,*,#720,.F.);
#1010=ORIENTED_EDGE('',*,*,#721,.F.);
#1011=ORIENTED_EDGE('',*,*,#722,.F.);
#1012=ORIENTED_EDGE('',*,*,#723,.F.);
#1013=ORIENTED_EDGE('',*,*,#724,.F.);
#1014=ORIENTED_EDGE('',*,*,#716,.F.);
#1015=ORIENTED_EDGE('',*,*,#724,.T.);
#1016=ORIENTED_EDGE('',*,*,#725,.F.);
#1017=ORIENTED_EDGE('',*,*,#720,.T.);
#1018=ORIENTED_EDGE('',*,*,#717,.T.);
#1019=ORIENTED_EDGE('',*,*,#726,.F.);
#1020=ORIENTED_EDGE('',*,*,#727,.T.);
#1021=ORIENTED_EDGE('',*,*,#728,.T.);
#1022=ORIENTED_EDGE('',*,*,#727,.F.);
#1023=ORIENTED_EDGE('',*,*,#729,.F.);
#1024=ORIENTED_EDGE('',*,*,#726,.T.);
#1025=ORIENTED_EDGE('',*,*,#730,.F.);
#1026=ORIENTED_EDGE('',*,*,#728,.F.);
#1027=ORIENTED_EDGE('',*,*,#731,.F.);
#1028=ORIENTED_EDGE('',*,*,#732,.T.);
#1029=ORIENTED_EDGE('',*,*,#730,.T.);
#1030=ORIENTED_EDGE('',*,*,#732,.F.);
#1031=ORIENTED_EDGE('',*,*,#733,.T.);
#1032=ORIENTED_EDGE('',*,*,#734,.T.);
#1033=ORIENTED_EDGE('',*,*,#722,.T.);
#1034=ORIENTED_EDGE('',*,*,#715,.T.);
#1035=ORIENTED_EDGE('',*,*,#719,.F.);
#1036=ORIENTED_EDGE('',*,*,#735,.T.);
#1037=ORIENTED_EDGE('',*,*,#729,.T.);
#1038=ORIENTED_EDGE('',*,*,#736,.T.);
#1039=ORIENTED_EDGE('',*,*,#735,.F.);
#1040=ORIENTED_EDGE('',*,*,#736,.F.);
#1041=ORIENTED_EDGE('',*,*,#737,.F.);
#1042=ORIENTED_EDGE('',*,*,#738,.T.);
#1043=ORIENTED_EDGE('',*,*,#733,.F.);
#1044=ORIENTED_EDGE('',*,*,#721,.T.);
#1045=ORIENTED_EDGE('',*,*,#725,.T.);
#1046=ORIENTED_EDGE('',*,*,#723,.T.);
#1047=ORIENTED_EDGE('',*,*,#734,.F.);
#1048=ORIENTED_EDGE('',*,*,#738,.F.);
#1049=ORIENTED_EDGE('',*,*,#737,.T.);
#1050=ORIENTED_EDGE('',*,*,#731,.T.);
#1051=CYLINDRICAL_SURFACE('',#1178,2.46);
#1052=CYLINDRICAL_SURFACE('',#1187,0.25);
#1053=CYLINDRICAL_SURFACE('',#1195,0.25);
#1054=CYLINDRICAL_SURFACE('',#1205,0.25);
#1055=CYLINDRICAL_SURFACE('',#1208,0.25);
#1056=CYLINDRICAL_SURFACE('',#1210,0.25);
#1057=CYLINDRICAL_SURFACE('',#1213,0.25);
#1058=CYLINDRICAL_SURFACE('',#1215,0.25);
#1059=CYLINDRICAL_SURFACE('',#1217,0.25);
#1060=CYLINDRICAL_SURFACE('',#1221,5.825);
#1061=CYLINDRICAL_SURFACE('',#1224,2.8);
#1062=CYLINDRICAL_SURFACE('',#1235,0.25);
#1063=CYLINDRICAL_SURFACE('',#1240,0.25);
#1064=CYLINDRICAL_SURFACE('',#1241,1.1);
#1065=CYLINDRICAL_SURFACE('',#1250,0.25);
#1066=CYLINDRICAL_SURFACE('',#1252,0.25);
#1067=CYLINDRICAL_SURFACE('',#1256,1.1);
#1068=CYLINDRICAL_SURFACE('',#1263,2.46);
#1069=CYLINDRICAL_SURFACE('',#1267,0.975);
#1070=CYLINDRICAL_SURFACE('',#1272,2.1005);
#1071=CYLINDRICAL_SURFACE('',#1279,1.31);
#1072=CYLINDRICAL_SURFACE('',#1286,2.46);
#1073=CYLINDRICAL_SURFACE('',#1292,2.46);
#1074=CYLINDRICAL_SURFACE('',#1293,3.5);
#1075=ADVANCED_FACE('',(#83),#1051,.F.);
#1076=ADVANCED_FACE('',(#84),#44,.F.);
#1077=ADVANCED_FACE('',(#85),#45,.T.);
#1078=ADVANCED_FACE('',(#86),#46,.T.);
#1079=ADVANCED_FACE('',(#87),#47,.T.);
#1080=ADVANCED_FACE('',(#88),#48,.T.);
#1081=ADVANCED_FACE('',(#89),#49,.T.);
#1082=ADVANCED_FACE('',(#90),#1052,.T.);
#1083=ADVANCED_FACE('',(#91),#50,.F.);
#1084=ADVANCED_FACE('',(#92),#51,.T.);
#1085=ADVANCED_FACE('',(#93),#1053,.T.);
#1086=ADVANCED_FACE('',(#94),#52,.T.);
#1087=ADVANCED_FACE('',(#95,#36),#53,.T.);
#1088=ADVANCED_FACE('',(#96),#1054,.T.);
#1089=ADVANCED_FACE('',(#97),#54,.T.);
#1090=ADVANCED_FACE('',(#98),#1055,.T.);
#1091=ADVANCED_FACE('',(#99),#1056,.T.);
#1092=ADVANCED_FACE('',(#100),#55,.T.);
#1093=ADVANCED_FACE('',(#101),#1057,.T.);
#1094=ADVANCED_FACE('',(#102),#1058,.T.);
#1095=ADVANCED_FACE('',(#103),#1059,.T.);
#1096=ADVANCED_FACE('',(#104,#37),#56,.T.);
#1097=ADVANCED_FACE('',(#105),#57,.T.);
#1098=ADVANCED_FACE('',(#106),#1060,.T.);
#1099=ADVANCED_FACE('',(#107),#58,.T.);
#1100=ADVANCED_FACE('',(#108),#1061,.T.);
#1101=ADVANCED_FACE('',(#109,#38),#59,.T.);
#1102=ADVANCED_FACE('',(#110),#60,.F.);
#1103=ADVANCED_FACE('',(#111),#61,.F.);
#1104=ADVANCED_FACE('',(#112),#62,.F.);
#1105=ADVANCED_FACE('',(#113),#63,.F.);
#1106=ADVANCED_FACE('',(#114),#64,.F.);
#1107=ADVANCED_FACE('',(#115),#1062,.T.);
#1108=ADVANCED_FACE('',(#116),#65,.F.);
#1109=ADVANCED_FACE('',(#117),#1063,.T.);
#1110=ADVANCED_FACE('',(#118),#1064,.F.);
#1111=ADVANCED_FACE('',(#119),#66,.F.);
#1112=ADVANCED_FACE('',(#120),#67,.F.);
#1113=ADVANCED_FACE('',(#121),#68,.T.);
#1114=ADVANCED_FACE('',(#122),#69,.T.);
#1115=ADVANCED_FACE('',(#123),#70,.T.);
#1116=ADVANCED_FACE('',(#124),#1065,.T.);
#1117=ADVANCED_FACE('',(#125),#1066,.T.);
#1118=ADVANCED_FACE('',(#126),#71,.T.);
#1119=ADVANCED_FACE('',(#127),#1067,.F.);
#1120=ADVANCED_FACE('',(#128),#72,.T.);
#1121=ADVANCED_FACE('',(#129),#23,.T.);
#1122=ADVANCED_FACE('',(#130),#1068,.T.);
#1123=ADVANCED_FACE('',(#131,#39),#73,.T.);
#1124=ADVANCED_FACE('',(#132),#1069,.F.);
#1125=ADVANCED_FACE('',(#133),#74,.F.);
#1126=ADVANCED_FACE('',(#134),#75,.T.);
#1127=ADVANCED_FACE('',(#135),#1070,.T.);
#1128=ADVANCED_FACE('',(#136),#76,.T.);
#1129=ADVANCED_FACE('',(#137),#77,.T.);
#1130=ADVANCED_FACE('',(#138),#78,.F.);
#1131=ADVANCED_FACE('',(#139),#1071,.F.);
#1132=ADVANCED_FACE('',(#140,#40),#79,.T.);
#1133=ADVANCED_FACE('',(#141,#41),#80,.F.);
#1134=ADVANCED_FACE('',(#142),#1072,.F.);
#1135=ADVANCED_FACE('',(#143,#42),#81,.T.);
#1136=ADVANCED_FACE('',(#144),#1073,.F.);
#1137=ADVANCED_FACE('',(#145),#1074,.T.);
#1138=ADVANCED_FACE('',(#146,#43),#82,.F.);
#1139=CLOSED_SHELL('',(#1075,#1076,#1077,#1078,#1079,#1080,#1081,#1082,
#1083,#1084,#1085,#1086,#1087,#1088,#1089,#1090,#1091,#1092,#1093,#1094,
#1095,#1096,#1097,#1098,#1099,#1100,#1101,#1102,#1103,#1104,#1105,#1106,
#1107,#1108,#1109,#1110,#1111,#1112,#1113,#1114,#1115,#1116,#1117,#1118,
#1119,#1120));
#1140=CLOSED_SHELL('',(#1121,#1122,#1123,#1124,#1125,#1126));
#1141=CLOSED_SHELL('',(#1127,#1128,#1129,#1130,#1131,#1132,#1133,#1134,
#1135,#1136,#1137,#1138));
#1142=DERIVED_UNIT_ELEMENT(#1148,1.);
#1143=DERIVED_UNIT_ELEMENT(#1991,-3.);
#1144=DERIVED_UNIT_ELEMENT(#1148,1.);
#1145=DERIVED_UNIT_ELEMENT(#1991,-3.);
#1146=DERIVED_UNIT_ELEMENT(#1148,1.);
#1147=DERIVED_UNIT_ELEMENT(#1991,-3.);
#1148=(
MASS_UNIT()
NAMED_UNIT(*)
SI_UNIT(.KILO.,.GRAM.)
);
#1149=DERIVED_UNIT((#1142,#1143));
#1150=DERIVED_UNIT((#1144,#1145));
#1151=DERIVED_UNIT((#1146,#1147));
#1152=MEASURE_REPRESENTATION_ITEM('density measure',
POSITIVE_RATIO_MEASURE(7850.),#1149);
#1153=MEASURE_REPRESENTATION_ITEM('density measure',
POSITIVE_RATIO_MEASURE(7850.),#1150);
#1154=MEASURE_REPRESENTATION_ITEM('density measure',
POSITIVE_RATIO_MEASURE(7850.),#1151);
#1155=PROPERTY_DEFINITION_REPRESENTATION(#1170,#1161);
#1156=PROPERTY_DEFINITION_REPRESENTATION(#1171,#1162);
#1157=PROPERTY_DEFINITION_REPRESENTATION(#1172,#1163);
#1158=PROPERTY_DEFINITION_REPRESENTATION(#1173,#1164);
#1159=PROPERTY_DEFINITION_REPRESENTATION(#1174,#1165);
#1160=PROPERTY_DEFINITION_REPRESENTATION(#1175,#1166);
#1161=REPRESENTATION('material name',(#1167),#1986);
#1162=REPRESENTATION('density',(#1152),#1986);
#1163=REPRESENTATION('material name',(#1168),#1987);
#1164=REPRESENTATION('density',(#1153),#1987);
#1165=REPRESENTATION('material name',(#1169),#1988);
#1166=REPRESENTATION('density',(#1154),#1988);
#1167=DESCRIPTIVE_REPRESENTATION_ITEM('Steel','Steel');
#1168=DESCRIPTIVE_REPRESENTATION_ITEM('Steel','Steel');
#1169=DESCRIPTIVE_REPRESENTATION_ITEM('Steel','Steel');
#1170=PROPERTY_DEFINITION('material property','material name',#2011);
#1171=PROPERTY_DEFINITION('material property','density of part',#2011);
#1172=PROPERTY_DEFINITION('material property','material name',#2012);
#1173=PROPERTY_DEFINITION('material property','density of part',#2012);
#1174=PROPERTY_DEFINITION('material property','material name',#2013);
#1175=PROPERTY_DEFINITION('material property','density of part',#2013);
#1176=AXIS2_PLACEMENT_3D('',#1649,#1299,#1300);
#1177=AXIS2_PLACEMENT_3D('',#1650,#1301,#1302);
#1178=AXIS2_PLACEMENT_3D('',#1651,#1303,#1304);
#1179=AXIS2_PLACEMENT_3D('',#1653,#1305,#1306);
#1180=AXIS2_PLACEMENT_3D('',#1656,#1308,#1309);
#1181=AXIS2_PLACEMENT_3D('',#1657,#1310,#1311);
#1182=AXIS2_PLACEMENT_3D('',#1658,#1312,#1313);
#1183=AXIS2_PLACEMENT_3D('',#1667,#1318,#1319);
#1184=AXIS2_PLACEMENT_3D('',#1673,#1323,#1324);
#1185=AXIS2_PLACEMENT_3D('',#1679,#1328,#1329);
#1186=AXIS2_PLACEMENT_3D('',#1682,#1332,#1333);
#1187=AXIS2_PLACEMENT_3D('',#1683,#1334,#1335);
#1188=AXIS2_PLACEMENT_3D('',#1686,#1336,#1337);
#1189=AXIS2_PLACEMENT_3D('',#1690,#1339,#1340);
#1190=AXIS2_PLACEMENT_3D('',#1692,#1342,#1343);
#1191=AXIS2_PLACEMENT_3D('',#1696,#1345,#1346);
#1192=AXIS2_PLACEMENT_3D('',#1700,#1348,#1349);
#1193=AXIS2_PLACEMENT_3D('',#1704,#1351,#1352);
#1194=AXIS2_PLACEMENT_3D('',#1706,#1354,#1355);
#1195=AXIS2_PLACEMENT_3D('',#1710,#1358,#1359);
#1196=AXIS2_PLACEMENT_3D('',#1713,#1360,#1361);
#1197=AXIS2_PLACEMENT_3D('',#1717,#1363,#1364);
#1198=AXIS2_PLACEMENT_3D('',#1719,#1366,#1367);
#1199=AXIS2_PLACEMENT_3D('',#1725,#1371,#1372);
#1200=AXIS2_PLACEMENT_3D('',#1729,#1374,#1375);
#1201=AXIS2_PLACEMENT_3D('',#1733,#1377,#1378);
#1202=AXIS2_PLACEMENT_3D('',#1736,#1380,#1381);
#1203=AXIS2_PLACEMENT_3D('',#1741,#1383,#1384);
#1204=AXIS2_PLACEMENT_3D('',#1744,#1386,#1387);
#1205=AXIS2_PLACEMENT_3D('',#1745,#1388,#1389);
#1206=AXIS2_PLACEMENT_3D('',#1748,#1391,#1392);
#1207=AXIS2_PLACEMENT_3D('',#1749,#1393,#1394);
#1208=AXIS2_PLACEMENT_3D('',#1766,#1404,#1405);
#1209=AXIS2_PLACEMENT_3D('',#1767,#1406,#1407);
#1210=AXIS2_PLACEMENT_3D('',#1768,#1408,#1409);
#1211=AXIS2_PLACEMENT_3D('',#1772,#1411,#1412);
#1212=AXIS2_PLACEMENT_3D('',#1774,#1414,#1415);
#1213=AXIS2_PLACEMENT_3D('',#1787,#1423,#1424);
#1214=AXIS2_PLACEMENT_3D('',#1789,#1425,#1426);
#1215=AXIS2_PLACEMENT_3D('',#1791,#1428,#1429);
#1216=AXIS2_PLACEMENT_3D('',#1794,#1431,#1432);
#1217=AXIS2_PLACEMENT_3D('',#1795,#1433,#1434);
#1218=AXIS2_PLACEMENT_3D('',#1797,#1435,#1436);
#1219=AXIS2_PLACEMENT_3D('',#1799,#1438,#1439);
#1220=AXIS2_PLACEMENT_3D('',#1801,#1441,#1442);
#1221=AXIS2_PLACEMENT_3D('',#1807,#1446,#1447);
#1222=AXIS2_PLACEMENT_3D('',#1809,#1448,#1449);
#1223=AXIS2_PLACEMENT_3D('',#1811,#1451,#1452);
#1224=AXIS2_PLACEMENT_3D('',#1815,#1455,#1456);
#1225=AXIS2_PLACEMENT_3D('',#1816,#1457,#1458);
#1226=AXIS2_PLACEMENT_3D('',#1817,#1459,#1460);
#1227=AXIS2_PLACEMENT_3D('',#1818,#1461,#1462);
#1228=AXIS2_PLACEMENT_3D('',#1827,#1467,#1468);
#1229=AXIS2_PLACEMENT_3D('',#1836,#1473,#1474);
#1230=AXIS2_PLACEMENT_3D('',#1839,#1476,#1477);
#1231=AXIS2_PLACEMENT_3D('',#1841,#1478,#1479);
#1232=AXIS2_PLACEMENT_3D('',#1843,#1481,#1482);
#1233=AXIS2_PLACEMENT_3D('',#1844,#1483,#1484);
#1234=AXIS2_PLACEMENT_3D('',#1848,#1487,#1488);
#1235=AXIS2_PLACEMENT_3D('',#1852,#1491,#1492);
#1236=AXIS2_PLACEMENT_3D('',#1853,#1493,#1494);
#1237=AXIS2_PLACEMENT_3D('',#1854,#1495,#1496);
#1238=AXIS2_PLACEMENT_3D('',#1855,#1497,#1498);
#1239=AXIS2_PLACEMENT_3D('',#1856,#1499,#1500);
#1240=AXIS2_PLACEMENT_3D('',#1857,#1501,#1502);
#1241=AXIS2_PLACEMENT_3D('',#1858,#1503,#1504);
#1242=AXIS2_PLACEMENT_3D('',#1859,#1505,#1506);
#1243=AXIS2_PLACEMENT_3D('',#1868,#1511,#1512);
#1244=AXIS2_PLACEMENT_3D('',#1877,#1517,#1518);
#1245=AXIS2_PLACEMENT_3D('',#1883,#1522,#1523);
#1246=AXIS2_PLACEMENT_3D('',#1889,#1527,#1528);
#1247=AXIS2_PLACEMENT_3D('',#1890,#1529,#1530);
#1248=AXIS2_PLACEMENT_3D('',#1892,#1532,#1533);
#1249=AXIS2_PLACEMENT_3D('',#1893,#1534,#1535);
#1250=AXIS2_PLACEMENT_3D('',#1894,#1536,#1537);
#1251=AXIS2_PLACEMENT_3D('',#1895,#1538,#1539);
#1252=AXIS2_PLACEMENT_3D('',#1896,#1540,#1541);
#1253=AXIS2_PLACEMENT_3D('',#1897,#1542,#1543);
#1254=AXIS2_PLACEMENT_3D('',#1898,#1544,#1545);
#1255=AXIS2_PLACEMENT_3D('',#1899,#1546,#1547);
#1256=AXIS2_PLACEMENT_3D('',#1900,#1548,#1549);
#1257=AXIS2_PLACEMENT_3D('',#1901,#1550,#1551);
#1258=AXIS2_PLACEMENT_3D('',#1902,#1552,#1553);
#1259=AXIS2_PLACEMENT_3D('',#1903,#1554,#1555);
#1260=AXIS2_PLACEMENT_3D('',#1905,#1556,#1557);
#1261=AXIS2_PLACEMENT_3D('',#1909,#1559,#1560);
#1262=AXIS2_PLACEMENT_3D('',#1910,#1561,#1562);
#1263=AXIS2_PLACEMENT_3D('',#1911,#1563,#1564);
#1264=AXIS2_PLACEMENT_3D('',#1914,#1566,#1567);
#1265=AXIS2_PLACEMENT_3D('',#1915,#1568,#1569);
#1266=AXIS2_PLACEMENT_3D('',#1917,#1570,#1571);
#1267=AXIS2_PLACEMENT_3D('',#1918,#1572,#1573);
#1268=AXIS2_PLACEMENT_3D('',#1921,#1575,#1576);
#1269=AXIS2_PLACEMENT_3D('',#1922,#1577,#1578);
#1270=AXIS2_PLACEMENT_3D('',#1923,#1579,#1580);
#1271=AXIS2_PLACEMENT_3D('',#1924,#1581,#1582);
#1272=AXIS2_PLACEMENT_3D('',#1925,#1583,#1584);
#1273=AXIS2_PLACEMENT_3D('',#1928,#1585,#1586);
#1274=AXIS2_PLACEMENT_3D('',#1932,#1588,#1589);
#1275=AXIS2_PLACEMENT_3D('',#1934,#1591,#1592);
#1276=AXIS2_PLACEMENT_3D('',#1940,#1596,#1597);
#1277=AXIS2_PLACEMENT_3D('',#1946,#1601,#1602);
#1278=AXIS2_PLACEMENT_3D('',#1947,#1603,#1604);
#1279=AXIS2_PLACEMENT_3D('',#1948,#1605,#1606);
#1280=AXIS2_PLACEMENT_3D('',#1950,#1607,#1608);
#1281=AXIS2_PLACEMENT_3D('',#1953,#1610,#1611);
#1282=AXIS2_PLACEMENT_3D('',#1954,#1612,#1613);
#1283=AXIS2_PLACEMENT_3D('',#1956,#1614,#1615);
#1284=AXIS2_PLACEMENT_3D('',#1957,#1616,#1617);
#1285=AXIS2_PLACEMENT_3D('',#1959,#1618,#1619);
#1286=AXIS2_PLACEMENT_3D('',#1960,#1620,#1621);
#1287=AXIS2_PLACEMENT_3D('',#1962,#1622,#1623);
#1288=AXIS2_PLACEMENT_3D('',#1964,#1625,#1626);
#1289=AXIS2_PLACEMENT_3D('',#1966,#1627,#1628);
#1290=AXIS2_PLACEMENT_3D('',#1967,#1629,#1630);
#1291=AXIS2_PLACEMENT_3D('',#1969,#1631,#1632);
#1292=AXIS2_PLACEMENT_3D('',#1970,#1633,#1634);
#1293=AXIS2_PLACEMENT_3D('',#1972,#1636,#1637);
#1294=AXIS2_PLACEMENT_3D('',#1974,#1638,#1639);
#1295=AXIS2_PLACEMENT_3D('',#1976,#1641,#1642);
#1296=AXIS2_PLACEMENT_3D('',#1977,#1643,#1644);
#1297=AXIS2_PLACEMENT_3D('',#1978,#1645,#1646);
#1298=AXIS2_PLACEMENT_3D('',#1979,#1647,#1648);
#1299=DIRECTION('axis',(0.,0.,1.));
#1300=DIRECTION('refdir',(1.,0.,0.));
#1301=DIRECTION('axis',(0.,0.,1.));
#1302=DIRECTION('refdir',(1.,0.,0.));
#1303=DIRECTION('center_axis',(0.,-1.,0.));
#1304=DIRECTION('ref_axis',(0.,0.,1.));
#1305=DIRECTION('center_axis',(0.,-1.,0.));
#1306=DIRECTION('ref_axis',(0.,0.,1.));
#1307=DIRECTION('',(0.,-1.,0.));
#1308=DIRECTION('center_axis',(0.,-1.,0.));
#1309=DIRECTION('ref_axis',(0.,0.,1.));
#1310=DIRECTION('center_axis',(0.,-1.,0.));
#1311=DIRECTION('ref_axis',(0.,0.,1.));
#1312=DIRECTION('center_axis',(-1.,0.,0.));
#1313=DIRECTION('ref_axis',(0.,-1.,0.));
#1314=DIRECTION('',(0.,1.,0.));
#1315=DIRECTION('',(0.,0.,1.));
#1316=DIRECTION('',(0.,-1.,0.));
#1317=DIRECTION('',(0.,0.,1.));
#1318=DIRECTION('center_axis',(0.,1.,0.));
#1319=DIRECTION('ref_axis',(-1.,0.,0.));
#1320=DIRECTION('',(1.,0.,0.));
#1321=DIRECTION('',(-1.,0.,0.));
#1322=DIRECTION('',(0.,0.,1.));
#1323=DIRECTION('center_axis',(1.,0.,0.));
#1324=DIRECTION('ref_axis',(0.,1.,0.));
#1325=DIRECTION('',(0.,-1.,0.));
#1326=DIRECTION('',(0.,1.,0.));
#1327=DIRECTION('',(0.,0.,1.));
#1328=DIRECTION('center_axis',(0.,-1.,0.));
#1329=DIRECTION('ref_axis',(1.,0.,0.));
#1330=DIRECTION('',(-1.,0.,0.));
#1331=DIRECTION('',(1.,0.,0.));
#1332=DIRECTION('center_axis',(0.,0.,1.));
#1333=DIRECTION('ref_axis',(1.,0.,0.));
#1334=DIRECTION('center_axis',(0.,1.,0.));
#1335=DIRECTION('ref_axis',(-0.707106781186548,0.,-0.707106781186548));
#1336=DIRECTION('center_axis',(0.,1.,0.));
#1337=DIRECTION('ref_axis',(-0.707106781186548,0.,-0.707106781186548));
#1338=DIRECTION('',(0.,1.,0.));
#1339=DIRECTION('center_axis',(0.,1.,0.));
#1340=DIRECTION('ref_axis',(-0.707106781186548,0.,-0.707106781186548));
#1341=DIRECTION('',(0.,-1.,0.));
#1342=DIRECTION('center_axis',(0.,1.,0.));
#1343=DIRECTION('ref_axis',(1.,0.,0.));
#1344=DIRECTION('',(1.,0.,0.));
#1345=DIRECTION('center_axis',(0.,1.,0.));
#1346=DIRECTION('ref_axis',(0.707106781186548,0.,-0.707106781186548));
#1347=DIRECTION('',(0.,0.,1.));
#1348=DIRECTION('center_axis',(0.,1.,0.));
#1349=DIRECTION('ref_axis',(0.707106781186548,0.,0.707106781186548));
#1350=DIRECTION('',(-1.,0.,0.));
#1351=DIRECTION('center_axis',(0.,1.,0.));
#1352=DIRECTION('ref_axis',(-0.707106781186548,0.,0.707106781186548));
#1353=DIRECTION('',(0.,0.,-1.));
#1354=DIRECTION('center_axis',(0.,0.,-1.));
#1355=DIRECTION('ref_axis',(-1.,0.,0.));
#1356=DIRECTION('',(1.,0.,0.));
#1357=DIRECTION('',(0.,1.,0.));
#1358=DIRECTION('center_axis',(0.,1.,0.));
#1359=DIRECTION('ref_axis',(-0.707106781186548,0.,-0.707106781186548));
#1360=DIRECTION('center_axis',(0.,-1.,0.));
#1361=DIRECTION('ref_axis',(-0.707106781186548,0.,-0.707106781186548));
#1362=DIRECTION('',(0.,-1.,0.));
#1363=DIRECTION('center_axis',(0.,-1.,0.));
#1364=DIRECTION('ref_axis',(-0.707106781186548,0.,-0.707106781186548));
#1365=DIRECTION('',(0.,1.,0.));
#1366=DIRECTION('center_axis',(0.,0.,-1.));
#1367=DIRECTION('ref_axis',(-1.,0.,0.));
#1368=DIRECTION('',(-1.,0.,0.));
#1369=DIRECTION('',(0.,1.,0.));
#1370=DIRECTION('',(-1.,0.,0.));
#1371=DIRECTION('center_axis',(0.,1.,0.));
#1372=DIRECTION('ref_axis',(0.,0.,1.));
#1373=DIRECTION('',(0.,0.,1.));
#1374=DIRECTION('center_axis',(0.,-1.,0.));
#1375=DIRECTION('ref_axis',(-0.707106781186548,0.,0.707106781186548));
#1376=DIRECTION('',(1.,0.,0.));
#1377=DIRECTION('center_axis',(0.,-1.,0.));
#1378=DIRECTION('ref_axis',(0.707106781186548,0.,0.707106781186548));
#1379=DIRECTION('',(0.,0.,-1.));
#1380=DIRECTION('center_axis',(0.,-1.,0.));
#1381=DIRECTION('ref_axis',(0.707106781186548,0.,-0.707106781186548));
#1382=DIRECTION('',(0.,0.,1.));
#1383=DIRECTION('center_axis',(0.,-1.,0.));
#1384=DIRECTION('ref_axis',(-0.48068669527897,0.,-0.876892411292162));
#1385=DIRECTION('',(0.,0.,-1.));
#1386=DIRECTION('center_axis',(0.,-1.,0.));
#1387=DIRECTION('ref_axis',(1.,0.,0.));
#1388=DIRECTION('center_axis',(0.,1.,0.));
#1389=DIRECTION('ref_axis',(0.707106781186548,0.,-0.707106781186548));
#1390=DIRECTION('',(0.,-1.,0.));
#1391=DIRECTION('center_axis',(0.,-1.,0.));
#1392=DIRECTION('ref_axis',(0.707106781186548,0.,-0.707106781186548));
#1393=DIRECTION('center_axis',(1.,0.,0.));
#1394=DIRECTION('ref_axis',(0.,0.,-1.));
#1395=DIRECTION('',(0.,0.,-1.));
#1396=DIRECTION('',(0.,1.,0.));
#1397=DIRECTION('',(0.,0.,1.));
#1398=DIRECTION('',(0.,1.,0.));
#1399=DIRECTION('',(0.,0.,1.));
#1400=DIRECTION('',(0.,1.,0.));
#1401=DIRECTION('',(0.,-1.,0.));
#1402=DIRECTION('',(0.,0.,-1.));
#1403=DIRECTION('',(0.,-1.,0.));
#1404=DIRECTION('center_axis',(0.,1.,0.));
#1405=DIRECTION('ref_axis',(0.707106781186548,0.,-0.707106781186548));
#1406=DIRECTION('center_axis',(0.,1.,0.));
#1407=DIRECTION('ref_axis',(0.707106781186548,0.,-0.707106781186548));
#1408=DIRECTION('center_axis',(0.,1.,0.));
#1409=DIRECTION('ref_axis',(-0.707106781186548,0.,0.707106781186548));
#1410=DIRECTION('',(0.,1.,0.));
#1411=DIRECTION('center_axis',(0.,1.,0.));
#1412=DIRECTION('ref_axis',(-0.707106781186548,0.,0.707106781186548));
#1413=DIRECTION('',(0.,-1.,0.));
#1414=DIRECTION('center_axis',(-1.,0.,0.));
#1415=DIRECTION('ref_axis',(0.,0.,1.));
#1416=DIRECTION('',(0.,0.,1.));
#1417=DIRECTION('',(0.,-1.,0.));
#1418=DIRECTION('',(0.,0.,1.));
#1419=DIRECTION('',(0.,-1.,0.));
#1420=DIRECTION('',(0.,0.,-1.));
#1421=DIRECTION('',(0.,1.,0.));
#1422=DIRECTION('',(0.,0.,-1.));
#1423=DIRECTION('center_axis',(0.,1.,0.));
#1424=DIRECTION('ref_axis',(-0.707106781186548,0.,0.707106781186548));
#1425=DIRECTION('center_axis',(0.,-1.,0.));
#1426=DIRECTION('ref_axis',(-0.707106781186548,0.,0.707106781186548));
#1427=DIRECTION('',(0.,1.,0.));
#1428=DIRECTION('center_axis',(0.,1.,0.));
#1429=DIRECTION('ref_axis',(0.707106781186548,0.,0.707106781186548));
#1430=DIRECTION('',(0.,-1.,0.));
#1431=DIRECTION('center_axis',(0.,-1.,0.));
#1432=DIRECTION('ref_axis',(0.707106781186548,0.,0.707106781186548));
#1433=DIRECTION('center_axis',(0.,1.,0.));
#1434=DIRECTION('ref_axis',(0.707106781186548,0.,0.707106781186548));
#1435=DIRECTION('center_axis',(0.,1.,0.));
#1436=DIRECTION('ref_axis',(0.707106781186548,0.,0.707106781186548));
#1437=DIRECTION('',(0.,-1.,0.));
#1438=DIRECTION('center_axis',(0.,0.,1.));
#1439=DIRECTION('ref_axis',(1.,0.,0.));
#1440=DIRECTION('',(-1.,0.,0.));
#1441=DIRECTION('center_axis',(1.,0.,0.));
#1442=DIRECTION('ref_axis',(0.,0.,-1.));
#1443=DIRECTION('',(0.,1.,0.));
#1444=DIRECTION('',(0.,0.,-1.));
#1445=DIRECTION('',(0.,1.,0.));
#1446=DIRECTION('center_axis',(0.,1.,0.));
#1447=DIRECTION('ref_axis',(4.76490568508651E-17,0.,1.));
#1448=DIRECTION('center_axis',(0.,1.,0.));
#1449=DIRECTION('ref_axis',(-0.48068669527897,0.,-0.876892411292162));
#1450=DIRECTION('',(0.,1.,0.));
#1451=DIRECTION('center_axis',(-1.,0.,0.));
#1452=DIRECTION('ref_axis',(0.,0.,1.));
#1453=DIRECTION('',(0.,0.,1.));
#1454=DIRECTION('',(0.,1.,0.));
#1455=DIRECTION('center_axis',(0.,1.,0.));
#1456=DIRECTION('ref_axis',(1.,0.,0.));
#1457=DIRECTION('center_axis',(0.,1.,0.));
#1458=DIRECTION('ref_axis',(1.,0.,0.));
#1459=DIRECTION('center_axis',(0.,1.,0.));
#1460=DIRECTION('ref_axis',(-1.,0.,0.));
#1461=DIRECTION('center_axis',(-1.,0.,0.));
#1462=DIRECTION('ref_axis',(0.,-1.,0.));
#1463=DIRECTION('',(0.,1.,0.));
#1464=DIRECTION('',(0.,0.,1.));
#1465=DIRECTION('',(0.,-1.,0.));
#1466=DIRECTION('',(0.,0.,-1.));
#1467=DIRECTION('center_axis',(1.,0.,0.));
#1468=DIRECTION('ref_axis',(0.,1.,0.));
#1469=DIRECTION('',(0.,-1.,0.));
#1470=DIRECTION('',(0.,0.,1.));
#1471=DIRECTION('',(0.,1.,0.));
#1472=DIRECTION('',(0.,0.,-1.));
#1473=DIRECTION('center_axis',(0.,-1.,0.));
#1474=DIRECTION('ref_axis',(-1.,0.,0.));
#1475=DIRECTION('',(-1.,0.,0.));
#1476=DIRECTION('center_axis',(0.,-1.,0.));
#1477=DIRECTION('ref_axis',(-0.707106781186551,0.,-0.707106781186544));
#1478=DIRECTION('center_axis',(0.,-1.,0.));
#1479=DIRECTION('ref_axis',(0.707106781186551,0.,-0.707106781186544));
#1480=DIRECTION('',(-1.,0.,0.));
#1481=DIRECTION('center_axis',(0.,-1.,0.));
#1482=DIRECTION('ref_axis',(0.,0.,-1.));
#1483=DIRECTION('center_axis',(0.,0.,1.));
#1484=DIRECTION('ref_axis',(1.,0.,0.));
#1485=DIRECTION('',(0.,1.,0.));
#1486=DIRECTION('',(1.,0.,0.));
#1487=DIRECTION('center_axis',(0.,0.,1.));
#1488=DIRECTION('ref_axis',(1.,0.,0.));
#1489=DIRECTION('',(1.,0.,0.));
#1490=DIRECTION('',(0.,-1.,0.));
#1491=DIRECTION('center_axis',(0.,-1.,0.));
#1492=DIRECTION('ref_axis',(-0.707106781186551,0.,-0.707106781186544));
#1493=DIRECTION('center_axis',(0.,1.,0.));
#1494=DIRECTION('ref_axis',(-0.707106781186551,0.,-0.707106781186544));
#1495=DIRECTION('center_axis',(0.,1.,0.));
#1496=DIRECTION('ref_axis',(1.,0.,0.));
#1497=DIRECTION('center_axis',(0.,1.,0.));
#1498=DIRECTION('ref_axis',(0.,0.,-1.));
#1499=DIRECTION('center_axis',(0.,1.,0.));
#1500=DIRECTION('ref_axis',(0.707106781186551,0.,-0.707106781186544));
#1501=DIRECTION('center_axis',(0.,1.,0.));
#1502=DIRECTION('ref_axis',(0.707106781186551,0.,-0.707106781186544));
#1503=DIRECTION('center_axis',(0.,1.,0.));
#1504=DIRECTION('ref_axis',(-1.22464679914735E-16,0.,1.));
#1505=DIRECTION('center_axis',(1.,0.,0.));
#1506=DIRECTION('ref_axis',(0.,-1.,0.));
#1507=DIRECTION('',(0.,1.,0.));
#1508=DIRECTION('',(0.,0.,-1.));
#1509=DIRECTION('',(0.,-1.,0.));
#1510=DIRECTION('',(0.,0.,1.));
#1511=DIRECTION('center_axis',(-1.,0.,0.));
#1512=DIRECTION('ref_axis',(0.,1.,0.));
#1513=DIRECTION('',(0.,-1.,0.));
#1514=DIRECTION('',(0.,0.,-1.));
#1515=DIRECTION('',(0.,1.,0.));
#1516=DIRECTION('',(0.,0.,1.));
#1517=DIRECTION('center_axis',(0.,0.,1.));
#1518=DIRECTION('ref_axis',(1.,0.,0.));
#1519=DIRECTION('',(-1.,0.,0.));
#1520=DIRECTION('',(0.,1.,0.));
#1521=DIRECTION('',(1.,0.,0.));
#1522=DIRECTION('center_axis',(0.,0.,1.));
#1523=DIRECTION('ref_axis',(1.,0.,0.));
#1524=DIRECTION('',(1.,0.,0.));
#1525=DIRECTION('',(0.,-1.,0.));
#1526=DIRECTION('',(-1.,0.,0.));
#1527=DIRECTION('center_axis',(0.,1.,0.));
#1528=DIRECTION('ref_axis',(-1.,0.,0.));
#1529=DIRECTION('center_axis',(0.,-1.,0.));
#1530=DIRECTION('ref_axis',(0.707106781186551,0.,0.707106781186544));
#1531=DIRECTION('',(1.,0.,0.));
#1532=DIRECTION('center_axis',(0.,-1.,0.));
#1533=DIRECTION('ref_axis',(-0.707106781186551,0.,0.707106781186544));
#1534=DIRECTION('center_axis',(0.,-1.,0.));
#1535=DIRECTION('ref_axis',(0.,0.,1.));
#1536=DIRECTION('center_axis',(0.,-1.,0.));
#1537=DIRECTION('ref_axis',(-0.707106781186551,0.,0.707106781186544));
#1538=DIRECTION('center_axis',(0.,1.,0.));
#1539=DIRECTION('ref_axis',(-0.707106781186551,0.,0.707106781186544));
#1540=DIRECTION('center_axis',(0.,1.,0.));
#1541=DIRECTION('ref_axis',(0.707106781186551,0.,0.707106781186544));
#1542=DIRECTION('center_axis',(0.,1.,0.));
#1543=DIRECTION('ref_axis',(0.707106781186551,0.,0.707106781186544));
#1544=DIRECTION('center_axis',(0.,-1.,0.));
#1545=DIRECTION('ref_axis',(1.,0.,0.));
#1546=DIRECTION('center_axis',(0.,1.,0.));
#1547=DIRECTION('ref_axis',(0.,0.,1.));
#1548=DIRECTION('center_axis',(0.,-1.,0.));
#1549=DIRECTION('ref_axis',(1.22464679914735E-16,0.,-1.));
#1550=DIRECTION('center_axis',(0.,0.,1.));
#1551=DIRECTION('ref_axis',(1.,0.,0.));
#1552=DIRECTION('axis',(0.,0.,1.));
#1553=DIRECTION('refdir',(1.,0.,0.));
#1554=DIRECTION('center_axis',(0.,-1.,0.));
#1555=DIRECTION('ref_axis',(-1.,0.,0.));
#1556=DIRECTION('center_axis',(0.,-1.,2.22044604925031E-16));
#1557=DIRECTION('ref_axis',(-1.,0.,0.));
#1558=DIRECTION('',(0.707106781186549,-0.707106781186546,-8.65956056235495E-17));
#1559=DIRECTION('center_axis',(0.,1.,-2.22044604925031E-16));
#1560=DIRECTION('ref_axis',(-1.,0.,0.));
#1561=DIRECTION('center_axis',(0.,1.,-2.22044604925031E-16));
#1562=DIRECTION('ref_axis',(-1.,0.,0.));
#1563=DIRECTION('center_axis',(0.,1.,-2.22044604925031E-16));
#1564=DIRECTION('ref_axis',(1.,0.,0.));
#1565=DIRECTION('',(0.,-1.,2.22044604925031E-16));
#1566=DIRECTION('center_axis',(0.,-1.,2.22044604925031E-16));
#1567=DIRECTION('ref_axis',(1.,0.,0.));
#1568=DIRECTION('center_axis',(0.,1.,-2.22044604925031E-16));
#1569=DIRECTION('ref_axis',(1.,0.,0.));
#1570=DIRECTION('center_axis',(0.,-1.,2.22044604925031E-16));
#1571=DIRECTION('ref_axis',(0.,2.22044604925031E-16,1.));
#1572=DIRECTION('center_axis',(0.,-1.,2.22044604925031E-16));
#1573=DIRECTION('ref_axis',(0.,2.22044604925031E-16,1.));
#1574=DIRECTION('',(0.,-1.,2.22044604925031E-16));
#1575=DIRECTION('center_axis',(0.,-1.,2.22044604925031E-16));
#1576=DIRECTION('ref_axis',(0.,2.22044604925031E-16,1.));
#1577=DIRECTION('center_axis',(0.,-1.,2.22044604925031E-16));
#1578=DIRECTION('ref_axis',(0.,2.22044604925031E-16,1.));
#1579=DIRECTION('center_axis',(0.,-1.,2.22044604925031E-16));
#1580=DIRECTION('ref_axis',(-1.,0.,0.));
#1581=DIRECTION('axis',(0.,0.,1.));
#1582=DIRECTION('refdir',(1.,0.,0.));
#1583=DIRECTION('center_axis',(0.,-1.,3.93696108023105E-16));
#1584=DIRECTION('ref_axis',(0.971197333968103,-9.38085703716088E-17,-0.238276600809331));
#1585=DIRECTION('center_axis',(0.,1.,-2.22044604925031E-16));
#1586=DIRECTION('ref_axis',(0.971197333968103,-5.29080336895874E-17,-0.238276600809331));
#1587=DIRECTION('',(0.,-1.,3.93696108023105E-16));
#1588=DIRECTION('center_axis',(0.,-1.,2.22044604925031E-16));
#1589=DIRECTION('ref_axis',(0.971197333968103,-5.29080336895874E-17,-0.238276600809331));
#1590=DIRECTION('',(0.,-1.,3.93696108023105E-16));
#1591=DIRECTION('center_axis',(-0.998673046302772,-2.02749542897533E-17,
-0.0514989959935377));
#1592=DIRECTION('ref_axis',(0.0514989959935377,-2.21749962015576E-16,-0.998673046302772));
#1593=DIRECTION('',(0.0514989959935377,-2.21749962015576E-16,-0.998673046302772));
#1594=DIRECTION('',(0.0514989959935377,-2.21749962015576E-16,-0.998673046302772));
#1595=DIRECTION('',(0.,-1.,0.));
#1596=DIRECTION('center_axis',(0.998673046302772,-2.02749542897533E-17,
-0.0514989959935377));
#1597=DIRECTION('ref_axis',(0.0514989959935377,2.21749962015576E-16,0.998673046302772));
#1598=DIRECTION('',(-0.0514989959935377,-2.21749962015576E-16,-0.998673046302772));
#1599=DIRECTION('',(0.,1.,0.));
#1600=DIRECTION('',(0.0514989959935377,2.21749962015576E-16,0.998673046302772));
#1601=DIRECTION('center_axis',(0.,1.,-2.22044604925031E-16));
#1602=DIRECTION('ref_axis',(-1.,0.,0.));
#1603=DIRECTION('center_axis',(0.,-1.,2.22044604925031E-16));
#1604=DIRECTION('ref_axis',(-1.,0.,0.));
#1605=DIRECTION('center_axis',(0.,1.,0.));
#1606=DIRECTION('ref_axis',(-1.,0.,0.));
#1607=DIRECTION('center_axis',(0.,-1.,2.22044604925031E-16));
#1608=DIRECTION('ref_axis',(-1.,0.,0.));
#1609=DIRECTION('',(0.,-1.,0.));
#1610=DIRECTION('center_axis',(0.,-1.,2.22044604925031E-16));
#1611=DIRECTION('ref_axis',(-1.,0.,0.));
#1612=DIRECTION('center_axis',(0.,1.,-2.22044604925031E-16));
#1613=DIRECTION('ref_axis',(-1.,0.,0.));
#1614=DIRECTION('center_axis',(0.,-1.,2.22044604925031E-16));
#1615=DIRECTION('ref_axis',(-1.,0.,0.));
#1616=DIRECTION('center_axis',(0.,1.,-2.22044604925031E-16));
#1617=DIRECTION('ref_axis',(-1.,0.,0.));
#1618=DIRECTION('center_axis',(0.,1.,-2.22044604925031E-16));
#1619=DIRECTION('ref_axis',(-1.,0.,0.));
#1620=DIRECTION('center_axis',(0.,-1.,0.));
#1621=DIRECTION('ref_axis',(-1.,0.,0.));
#1622=DIRECTION('center_axis',(0.,1.,-2.22044604925031E-16));
#1623=DIRECTION('ref_axis',(-1.,0.,0.));
#1624=DIRECTION('',(0.,1.,0.));
#1625=DIRECTION('center_axis',(0.,1.,-2.22044604925031E-16));
#1626=DIRECTION('ref_axis',(-1.,0.,0.));
#1627=DIRECTION('center_axis',(0.,1.,-2.22044604925031E-16));
#1628=DIRECTION('ref_axis',(-1.,0.,0.));
#1629=DIRECTION('center_axis',(0.,1.,-2.22044604925031E-16));
#1630=DIRECTION('ref_axis',(-1.,0.,0.));
#1631=DIRECTION('center_axis',(0.,-1.,2.22044604925031E-16));
#1632=DIRECTION('ref_axis',(-1.,0.,0.));
#1633=DIRECTION('center_axis',(0.,-1.,0.));
#1634=DIRECTION('ref_axis',(-1.,0.,0.));
#1635=DIRECTION('',(0.,1.,0.));
#1636=DIRECTION('center_axis',(0.,-1.,0.));
#1637=DIRECTION('ref_axis',(-1.,0.,0.));
#1638=DIRECTION('center_axis',(0.,-1.,2.22044604925031E-16));
#1639=DIRECTION('ref_axis',(-1.,0.,0.));
#1640=DIRECTION('',(0.,1.,0.));
#1641=DIRECTION('center_axis',(0.,1.,-2.22044604925031E-16));
#1642=DIRECTION('ref_axis',(-1.,0.,0.));
#1643=DIRECTION('',(0.,0.,1.));
#1644=DIRECTION('',(1.,0.,0.));
#1645=DIRECTION('',(1.,7.80849086037669E-16,-1.0547118733939E-15));
#1646=DIRECTION('',(-1.02695629777827E-15,-1.21410623694171E-30,-1.));
#1647=DIRECTION('',(1.,7.40089221116724E-16,-8.46545056276682E-16));
#1648=DIRECTION('',(-1.02695629777827E-15,2.75359347503977E-17,-1.));
#1649=CARTESIAN_POINT('',(0.,0.,0.));
#1650=CARTESIAN_POINT('',(0.,0.,0.));
#1651=CARTESIAN_POINT('Origin',(0.,19.15,5.375));
#1652=CARTESIAN_POINT('',(3.01263112590249E-16,26.65,2.915));
#1653=CARTESIAN_POINT('Origin',(0.,26.65,5.375));
#1654=CARTESIAN_POINT('',(3.01263112590249E-16,11.65,2.915));
#1655=CARTESIAN_POINT('',(3.01263112590249E-16,19.15,2.915));
#1656=CARTESIAN_POINT('Origin',(0.,11.65,5.375));
#1657=CARTESIAN_POINT('Origin',(0.,11.65,5.375));
#1658=CARTESIAN_POINT('Origin',(-1.8,5.5,11.375));
#1659=CARTESIAN_POINT('',(-1.8,4.4,11.375));
#1660=CARTESIAN_POINT('',(-1.8,5.5,11.375));
#1661=CARTESIAN_POINT('',(-1.8,2.75,11.375));
#1662=CARTESIAN_POINT('',(-1.8,4.4,16.375));
#1663=CARTESIAN_POINT('',(-1.8,4.4,11.375));
#1664=CARTESIAN_POINT('',(-1.8,5.5,16.375));
#1665=CARTESIAN_POINT('',(-1.8,4.4,16.375));
#1666=CARTESIAN_POINT('',(-1.8,5.5,11.375));
#1667=CARTESIAN_POINT('Origin',(1.8,5.5,11.375));
#1668=CARTESIAN_POINT('',(1.8,5.5,11.375));
#1669=CARTESIAN_POINT('',(-2.225,5.5,11.375));
#1670=CARTESIAN_POINT('',(1.8,5.5,16.375));
#1671=CARTESIAN_POINT('',(-1.8,5.5,16.375));
#1672=CARTESIAN_POINT('',(1.8,5.5,11.375));
#1673=CARTESIAN_POINT('Origin',(1.8,4.4,11.375));
#1674=CARTESIAN_POINT('',(1.8,4.4,11.375));
#1675=CARTESIAN_POINT('',(1.8,2.2,11.375));
#1676=CARTESIAN_POINT('',(1.8,4.4,16.375));
#1677=CARTESIAN_POINT('',(1.8,5.5,16.375));
#1678=CARTESIAN_POINT('',(1.8,4.4,11.375));
#1679=CARTESIAN_POINT('Origin',(-1.8,4.4,11.375));
#1680=CARTESIAN_POINT('',(-4.025,4.4,11.375));
#1681=CARTESIAN_POINT('',(1.8,4.4,16.375));
#1682=CARTESIAN_POINT('Origin',(0.,4.95,16.375));
#1683=CARTESIAN_POINT('Origin',(-6.,0.,-11.125));
#1684=CARTESIAN_POINT('',(-6.,0.,-11.375));
#1685=CARTESIAN_POINT('',(-6.25,0.,-11.125));
#1686=CARTESIAN_POINT('Origin',(-6.,0.,-11.125));
#1687=CARTESIAN_POINT('',(-6.25,15.55,-11.125));
#1688=CARTESIAN_POINT('',(-6.25,0.,-11.125));
#1689=CARTESIAN_POINT('',(-6.,15.55,-11.375));
#1690=CARTESIAN_POINT('Origin',(-6.,15.55,-11.125));
#1691=CARTESIAN_POINT('',(-6.,0.,-11.375));
#1692=CARTESIAN_POINT('Origin',(0.,0.,0.));
#1693=CARTESIAN_POINT('',(6.,0.,-11.375));
#1694=CARTESIAN_POINT('',(-6.25,0.,-11.375));
#1695=CARTESIAN_POINT('',(6.25,0.,-11.125));
#1696=CARTESIAN_POINT('Origin',(6.,0.,-11.125));
#1697=CARTESIAN_POINT('',(6.25,0.,11.125));
#1698=CARTESIAN_POINT('',(6.25,0.,-11.375));
#1699=CARTESIAN_POINT('',(6.,0.,11.375));
#1700=CARTESIAN_POINT('Origin',(6.,0.,11.125));
#1701=CARTESIAN_POINT('',(-6.,0.,11.375));
#1702=CARTESIAN_POINT('',(6.25,0.,11.375));
#1703=CARTESIAN_POINT('',(-6.25,0.,11.125));
#1704=CARTESIAN_POINT('Origin',(-6.,0.,11.125));
#1705=CARTESIAN_POINT('',(-6.25,0.,11.375));
#1706=CARTESIAN_POINT('Origin',(6.25,0.,-11.375));
#1707=CARTESIAN_POINT('',(6.,15.55,-11.375));
#1708=CARTESIAN_POINT('',(0.,15.55,-11.375));
#1709=CARTESIAN_POINT('',(6.,0.,-11.375));
#1710=CARTESIAN_POINT('Origin',(-6.,0.,-11.125));
#1711=CARTESIAN_POINT('',(-6.25,22.35,-11.125));
#1712=CARTESIAN_POINT('',(-6.,22.35,-11.375));
#1713=CARTESIAN_POINT('Origin',(-6.,22.35,-11.125));
#1714=CARTESIAN_POINT('',(-6.,18.2,-11.375));
#1715=CARTESIAN_POINT('',(-6.,0.,-11.375));
#1716=CARTESIAN_POINT('',(-6.25,18.2,-11.125));
#1717=CARTESIAN_POINT('Origin',(-6.,18.2,-11.125));
#1718=CARTESIAN_POINT('',(-6.25,0.,-11.125));
#1719=CARTESIAN_POINT('Origin',(6.25,0.,-11.375));
#1720=CARTESIAN_POINT('',(6.,22.35,-11.375));
#1721=CARTESIAN_POINT('',(-6.25,22.35,-11.375));
#1722=CARTESIAN_POINT('',(6.,18.2,-11.375));
#1723=CARTESIAN_POINT('',(6.,0.,-11.375));
#1724=CARTESIAN_POINT('',(6.25,18.2,-11.375));
#1725=CARTESIAN_POINT('Origin',(0.,22.35,0.));
#1726=CARTESIAN_POINT('',(-6.25,22.35,11.125));
#1727=CARTESIAN_POINT('',(-6.25,22.35,11.375));
#1728=CARTESIAN_POINT('',(-6.,22.35,11.375));
#1729=CARTESIAN_POINT('Origin',(-6.,22.35,11.125));
#1730=CARTESIAN_POINT('',(6.,22.35,11.375));
#1731=CARTESIAN_POINT('',(6.25,22.35,11.375));
#1732=CARTESIAN_POINT('',(6.25,22.35,11.125));
#1733=CARTESIAN_POINT('Origin',(6.,22.35,11.125));
#1734=CARTESIAN_POINT('',(6.25,22.35,-11.125));
#1735=CARTESIAN_POINT('',(6.25,22.35,-11.375));
#1736=CARTESIAN_POINT('Origin',(6.,22.35,-11.125));
#1737=CARTESIAN_POINT('',(2.8,22.35,-0.625000000000002));
#1738=CARTESIAN_POINT('',(2.8,22.35,0.267101704223153));
#1739=CARTESIAN_POINT('',(2.8,22.35,0.133550852111576));
#1740=CARTESIAN_POINT('',(-2.8,22.35,0.267101704223153));
#1741=CARTESIAN_POINT('Origin',(0.,22.35,5.375));
#1742=CARTESIAN_POINT('',(-2.8,22.35,-0.625000000000002));
#1743=CARTESIAN_POINT('',(-2.8,22.35,-0.312500000000001));
#1744=CARTESIAN_POINT('Origin',(0.,22.35,-0.625000000000002));
#1745=CARTESIAN_POINT('Origin',(6.,0.,-11.125));
#1746=CARTESIAN_POINT('',(6.25,18.2,-11.125));
#1747=CARTESIAN_POINT('',(6.25,0.,-11.125));
#1748=CARTESIAN_POINT('Origin',(6.,18.2,-11.125));
#1749=CARTESIAN_POINT('Origin',(6.25,0.,11.375));
#1750=CARTESIAN_POINT('',(6.25,18.2,-15.975));
#1751=CARTESIAN_POINT('',(6.25,18.2,-11.375));
#1752=CARTESIAN_POINT('',(6.25,18.2,11.125));
#1753=CARTESIAN_POINT('',(6.25,0.,11.125));
#1754=CARTESIAN_POINT('',(6.25,18.2,15.975));
#1755=CARTESIAN_POINT('',(6.25,18.2,11.375));
#1756=CARTESIAN_POINT('',(6.25,15.55,15.975));
#1757=CARTESIAN_POINT('',(6.25,8.4375,15.975));
#1758=CARTESIAN_POINT('',(6.25,15.55,11.125));
#1759=CARTESIAN_POINT('',(6.25,15.55,11.375));
#1760=CARTESIAN_POINT('',(6.25,0.,11.125));
#1761=CARTESIAN_POINT('',(6.25,15.55,-11.125));
#1762=CARTESIAN_POINT('',(6.25,0.,-11.125));
#1763=CARTESIAN_POINT('',(6.25,15.55,-15.975));
#1764=CARTESIAN_POINT('',(6.25,15.55,-11.375));
#1765=CARTESIAN_POINT('',(6.25,8.4375,-15.975));
#1766=CARTESIAN_POINT('Origin',(6.,0.,-11.125));
#1767=CARTESIAN_POINT('Origin',(6.,15.55,-11.125));
#1768=CARTESIAN_POINT('Origin',(-6.,0.,11.125));
#1769=CARTESIAN_POINT('',(-6.,15.55,11.375));
#1770=CARTESIAN_POINT('',(-6.,0.,11.375));
#1771=CARTESIAN_POINT('',(-6.25,15.55,11.125));
#1772=CARTESIAN_POINT('Origin',(-6.,15.55,11.125));
#1773=CARTESIAN_POINT('',(-6.25,0.,11.125));
#1774=CARTESIAN_POINT('Origin',(-6.25,0.,-11.375));
#1775=CARTESIAN_POINT('',(-6.25,15.55,15.975));
#1776=CARTESIAN_POINT('',(-6.25,15.55,11.375));
#1777=CARTESIAN_POINT('',(-6.25,18.2,15.975));
#1778=CARTESIAN_POINT('',(-6.25,8.4375,15.975));
#1779=CARTESIAN_POINT('',(-6.25,18.2,11.125));
#1780=CARTESIAN_POINT('',(-6.25,18.2,11.375));
#1781=CARTESIAN_POINT('',(-6.25,0.,11.125));
#1782=CARTESIAN_POINT('',(-6.25,18.2,-15.975));
#1783=CARTESIAN_POINT('',(-6.25,18.2,-11.375));
#1784=CARTESIAN_POINT('',(-6.25,15.55,-15.975));
#1785=CARTESIAN_POINT('',(-6.25,8.4375,-15.975));
#1786=CARTESIAN_POINT('',(-6.25,15.55,-11.375));
#1787=CARTESIAN_POINT('Origin',(-6.,0.,11.125));
#1788=CARTESIAN_POINT('',(-6.,18.2,11.375));
#1789=CARTESIAN_POINT('Origin',(-6.,18.2,11.125));
#1790=CARTESIAN_POINT('',(-6.,0.,11.375));
#1791=CARTESIAN_POINT('Origin',(6.,0.,11.125));
#1792=CARTESIAN_POINT('',(6.,18.2,11.375));
#1793=CARTESIAN_POINT('',(6.,0.,11.375));
#1794=CARTESIAN_POINT('Origin',(6.,18.2,11.125));
#1795=CARTESIAN_POINT('Origin',(6.,0.,11.125));
#1796=CARTESIAN_POINT('',(6.,15.55,11.375));
#1797=CARTESIAN_POINT('Origin',(6.,15.55,11.125));
#1798=CARTESIAN_POINT('',(6.,0.,11.375));
#1799=CARTESIAN_POINT('Origin',(-6.25,0.,11.375));
#1800=CARTESIAN_POINT('',(-6.25,15.55,11.375));
#1801=CARTESIAN_POINT('Origin',(2.8,22.35,0.267101704223153));
#1802=CARTESIAN_POINT('',(2.8,26.65,-0.625000000000002));
#1803=CARTESIAN_POINT('',(2.8,22.35,-0.625000000000002));
#1804=CARTESIAN_POINT('',(2.8,26.65,0.267101704223153));
#1805=CARTESIAN_POINT('',(2.8,26.65,-0.625000000000002));
#1806=CARTESIAN_POINT('',(2.8,22.35,0.267101704223153));
#1807=CARTESIAN_POINT('Origin',(0.,22.35,5.375));
#1808=CARTESIAN_POINT('',(-2.8,26.65,0.267101704223153));
#1809=CARTESIAN_POINT('Origin',(0.,26.65,5.375));
#1810=CARTESIAN_POINT('',(-2.8,22.35,0.267101704223153));
#1811=CARTESIAN_POINT('Origin',(-2.8,22.35,-0.625000000000002));
#1812=CARTESIAN_POINT('',(-2.8,26.65,-0.625000000000002));
#1813=CARTESIAN_POINT('',(-2.8,26.65,0.267101704223153));
#1814=CARTESIAN_POINT('',(-2.8,22.35,-0.625000000000002));
#1815=CARTESIAN_POINT('Origin',(0.,22.35,-0.625000000000002));
#1816=CARTESIAN_POINT('Origin',(0.,26.65,-0.625000000000002));
#1817=CARTESIAN_POINT('Origin',(0.,26.65,3.8875));
#1818=CARTESIAN_POINT('Origin',(-0.525,18.2,-16.225));
#1819=CARTESIAN_POINT('',(-0.525,15.55,-14.7666307464591));
#1820=CARTESIAN_POINT('',(-0.525,18.2,-14.7666307464591));
#1821=CARTESIAN_POINT('',(-0.525,8.19,-14.7666307464591));
#1822=CARTESIAN_POINT('',(-0.525,15.55,-16.225));
#1823=CARTESIAN_POINT('',(-0.525,15.55,-13.8));
#1824=CARTESIAN_POINT('',(-0.525,18.2,-16.225));
#1825=CARTESIAN_POINT('',(-0.525,17.5375,-16.225));
#1826=CARTESIAN_POINT('',(-0.525,18.2,-13.8));
#1827=CARTESIAN_POINT('Origin',(0.525,15.55,-16.225));
#1828=CARTESIAN_POINT('',(0.525,18.2,-14.7666307464591));
#1829=CARTESIAN_POINT('',(0.525,15.55,-14.7666307464591));
#1830=CARTESIAN_POINT('',(0.525,8.19,-14.7666307464591));
#1831=CARTESIAN_POINT('',(0.525,18.2,-16.225));
#1832=CARTESIAN_POINT('',(0.525,18.2,-13.8));
#1833=CARTESIAN_POINT('',(0.525,15.55,-16.225));
#1834=CARTESIAN_POINT('',(0.525,16.2125,-16.225));
#1835=CARTESIAN_POINT('',(0.525,15.55,-13.8));
#1836=CARTESIAN_POINT('Origin',(6.25,18.2,-11.375));
#1837=CARTESIAN_POINT('',(-6.,18.2,-16.225));
#1838=CARTESIAN_POINT('',(-6.25,18.2,-16.225));
#1839=CARTESIAN_POINT('Origin',(-6.,18.2,-15.975));
#1840=CARTESIAN_POINT('',(6.,18.2,-16.225));
#1841=CARTESIAN_POINT('Origin',(6.,18.2,-15.975));
#1842=CARTESIAN_POINT('',(-6.25,18.2,-16.225));
#1843=CARTESIAN_POINT('Origin',(0.,18.2,-13.8));
#1844=CARTESIAN_POINT('Origin',(0.,16.875,-16.225));
#1845=CARTESIAN_POINT('',(6.,15.55,-16.225));
#1846=CARTESIAN_POINT('',(6.,8.4375,-16.225));
#1847=CARTESIAN_POINT('',(6.25,15.55,-16.225));
#1848=CARTESIAN_POINT('Origin',(0.,16.875,-16.225));
#1849=CARTESIAN_POINT('',(-6.,15.55,-16.225));
#1850=CARTESIAN_POINT('',(6.25,15.55,-16.225));
#1851=CARTESIAN_POINT('',(-6.,8.4375,-16.225));
#1852=CARTESIAN_POINT('Origin',(-6.,8.4375,-15.975));
#1853=CARTESIAN_POINT('Origin',(-6.,15.55,-15.975));
#1854=CARTESIAN_POINT('Origin',(-6.25,15.55,-11.375));
#1855=CARTESIAN_POINT('Origin',(0.,15.55,-13.8));
#1856=CARTESIAN_POINT('Origin',(6.,15.55,-15.975));
#1857=CARTESIAN_POINT('Origin',(6.,8.4375,-15.975));
#1858=CARTESIAN_POINT('Origin',(0.,8.19,-13.8));
#1859=CARTESIAN_POINT('Origin',(0.525,18.2,16.225));
#1860=CARTESIAN_POINT('',(0.525,15.55,14.7666307464591));
#1861=CARTESIAN_POINT('',(0.525,18.2,14.7666307464591));
#1862=CARTESIAN_POINT('',(0.525,8.19,14.7666307464591));
#1863=CARTESIAN_POINT('',(0.525,15.55,16.225));
#1864=CARTESIAN_POINT('',(0.525,15.55,13.8));
#1865=CARTESIAN_POINT('',(0.525,18.2,16.225));
#1866=CARTESIAN_POINT('',(0.525,17.5375,16.225));
#1867=CARTESIAN_POINT('',(0.525,18.2,13.8));
#1868=CARTESIAN_POINT('Origin',(-0.525,15.55,16.225));
#1869=CARTESIAN_POINT('',(-0.525,18.2,14.7666307464591));
#1870=CARTESIAN_POINT('',(-0.525,15.55,14.7666307464591));
#1871=CARTESIAN_POINT('',(-0.525,8.19,14.7666307464591));
#1872=CARTESIAN_POINT('',(-0.525,18.2,16.225));
#1873=CARTESIAN_POINT('',(-0.525,18.2,13.8));
#1874=CARTESIAN_POINT('',(-0.525,15.55,16.225));
#1875=CARTESIAN_POINT('',(-0.525,16.2125,16.225));
#1876=CARTESIAN_POINT('',(-0.525,15.55,13.8));
#1877=CARTESIAN_POINT('Origin',(0.,16.875,16.225));
#1878=CARTESIAN_POINT('',(-6.,18.2,16.225));
#1879=CARTESIAN_POINT('',(-6.25,18.2,16.225));
#1880=CARTESIAN_POINT('',(-6.,15.55,16.225));
#1881=CARTESIAN_POINT('',(-6.,8.4375,16.225));
#1882=CARTESIAN_POINT('',(6.25,15.55,16.225));
#1883=CARTESIAN_POINT('Origin',(0.,16.875,16.225));
#1884=CARTESIAN_POINT('',(6.,15.55,16.225));
#1885=CARTESIAN_POINT('',(6.25,15.55,16.225));
#1886=CARTESIAN_POINT('',(6.,18.2,16.225));
#1887=CARTESIAN_POINT('',(6.,8.4375,16.225));
#1888=CARTESIAN_POINT('',(-6.25,18.2,16.225));
#1889=CARTESIAN_POINT('Origin',(6.25,18.2,11.375));
#1890=CARTESIAN_POINT('Origin',(6.,18.2,15.975));
#1891=CARTESIAN_POINT('',(0.,18.2,11.375));
#1892=CARTESIAN_POINT('Origin',(-6.,18.2,15.975));
#1893=CARTESIAN_POINT('Origin',(0.,18.2,13.8));
#1894=CARTESIAN_POINT('Origin',(-6.,8.4375,15.975));
#1895=CARTESIAN_POINT('Origin',(-6.,15.55,15.975));
#1896=CARTESIAN_POINT('Origin',(6.,8.4375,15.975));
#1897=CARTESIAN_POINT('Origin',(6.,15.55,15.975));
#1898=CARTESIAN_POINT('Origin',(-6.25,15.55,11.375));
#1899=CARTESIAN_POINT('Origin',(0.,15.55,13.8));
#1900=CARTESIAN_POINT('Origin',(0.,8.19,13.8));
#1901=CARTESIAN_POINT('Origin',(-6.25,0.,11.375));
#1902=CARTESIAN_POINT('',(0.,0.,0.));
#1903=CARTESIAN_POINT('Origin',(0.,29.245,5.375));
#1904=CARTESIAN_POINT('',(2.21,29.37,5.375));
#1905=CARTESIAN_POINT('Origin',(0.,29.37,5.375));
#1906=CARTESIAN_POINT('',(2.46,29.12,5.375));
#1907=CARTESIAN_POINT('',(2.335,29.245,5.375));
#1908=CARTESIAN_POINT('',(-2.46,29.12,5.375));
#1909=CARTESIAN_POINT('Origin',(0.,29.12,5.375));
#1910=CARTESIAN_POINT('Origin',(0.,29.12,5.375));
#1911=CARTESIAN_POINT('Origin',(0.,28.01,5.375));
#1912=CARTESIAN_POINT('',(-2.46,11.65,5.375));
#1913=CARTESIAN_POINT('',(-2.46,28.01,5.375));
#1914=CARTESIAN_POINT('Origin',(0.,11.65,5.375));
#1915=CARTESIAN_POINT('Origin',(0.,29.37,5.375));
#1916=CARTESIAN_POINT('',(1.19403062916867E-16,29.37,4.4));
#1917=CARTESIAN_POINT('Origin',(0.,29.37,5.375));
#1918=CARTESIAN_POINT('Origin',(0.,26.87,5.375));
#1919=CARTESIAN_POINT('',(1.19403062916867E-16,24.37,4.4));
#1920=CARTESIAN_POINT('',(1.19403062916867E-16,26.87,4.4));
#1921=CARTESIAN_POINT('Origin',(0.,24.37,5.375));
#1922=CARTESIAN_POINT('Origin',(0.,24.37,5.375));
#1923=CARTESIAN_POINT('Origin',(0.,11.65,5.375));
#1924=CARTESIAN_POINT('',(0.,0.,0.));
#1925=CARTESIAN_POINT('Origin',(0.,31.2,-8.6045));
#1926=CARTESIAN_POINT('',(2.04,31.2,-9.105));
#1927=CARTESIAN_POINT('',(-2.04,31.2,-9.105));
#1928=CARTESIAN_POINT('Origin',(0.,31.2,-8.6045));
#1929=CARTESIAN_POINT('',(2.04,29.79,-9.105));
#1930=CARTESIAN_POINT('',(2.04,31.2,-9.105));
#1931=CARTESIAN_POINT('',(-2.04,29.79,-9.105));
#1932=CARTESIAN_POINT('Origin',(0.,29.79,-8.6045));
#1933=CARTESIAN_POINT('',(-2.04,31.2,-9.105));
#1934=CARTESIAN_POINT('Origin',(-2.67,31.2,3.11201524530102));
#1935=CARTESIAN_POINT('',(-2.67,31.2,3.11201524530102));
#1936=CARTESIAN_POINT('',(-2.67,31.2,3.11201524530102));
#1937=CARTESIAN_POINT('',(-2.67,29.79,3.11201524530102));
#1938=CARTESIAN_POINT('',(-2.67,29.79,3.11201524530102));
#1939=CARTESIAN_POINT('',(-2.67,29.37,3.11201524530102));
#1940=CARTESIAN_POINT('Origin',(2.04,31.2,-9.105));
#1941=CARTESIAN_POINT('',(2.67,31.2,3.11201524530102));
#1942=CARTESIAN_POINT('',(2.67,31.2,3.11201524530102));
#1943=CARTESIAN_POINT('',(2.67,29.79,3.11201524530102));
#1944=CARTESIAN_POINT('',(2.67,29.37,3.11201524530102));
#1945=CARTESIAN_POINT('',(2.67,29.79,3.11201524530102));
#1946=CARTESIAN_POINT('Origin',(0.,29.79,-3.79649237734949));
#1947=CARTESIAN_POINT('Origin',(0.,29.79,5.375));
#1948=CARTESIAN_POINT('Origin',(0.,29.37,5.375));
#1949=CARTESIAN_POINT('',(1.31,30.27,5.375));
#1950=CARTESIAN_POINT('Origin',(0.,30.27,5.375));
#1951=CARTESIAN_POINT('',(1.31,29.37,5.375));
#1952=CARTESIAN_POINT('',(1.31,29.37,5.375));
#1953=CARTESIAN_POINT('Origin',(0.,29.37,5.375));
#1954=CARTESIAN_POINT('Origin',(0.,30.27,5.375));
#1955=CARTESIAN_POINT('',(2.46,30.27,5.375));
#1956=CARTESIAN_POINT('Origin',(0.,30.27,5.375));
#1957=CARTESIAN_POINT('Origin',(0.,29.37,5.375));
#1958=CARTESIAN_POINT('',(2.46,29.37,5.375));
#1959=CARTESIAN_POINT('Origin',(0.,29.37,5.375));
#1960=CARTESIAN_POINT('Origin',(0.,29.37,5.375));
#1961=CARTESIAN_POINT('',(2.46,27.29,5.375));
#1962=CARTESIAN_POINT('Origin',(0.,27.29,5.375));
#1963=CARTESIAN_POINT('',(2.46,29.37,5.375));
#1964=CARTESIAN_POINT('Origin',(0.,31.2,5.375));
#1965=CARTESIAN_POINT('',(3.5,31.2,5.375));
#1966=CARTESIAN_POINT('Origin',(0.,31.2,5.375));
#1967=CARTESIAN_POINT('Origin',(0.,31.2,5.375));
#1968=CARTESIAN_POINT('',(2.46,31.2,5.375));
#1969=CARTESIAN_POINT('Origin',(0.,31.2,5.375));
#1970=CARTESIAN_POINT('Origin',(0.,29.37,5.375));
#1971=CARTESIAN_POINT('',(2.46,29.37,5.375));
#1972=CARTESIAN_POINT('Origin',(0.,29.37,5.375));
#1973=CARTESIAN_POINT('',(3.5,27.29,5.375));
#1974=CARTESIAN_POINT('Origin',(0.,27.29,5.375));
#1975=CARTESIAN_POINT('',(3.5,29.37,5.375));
#1976=CARTESIAN_POINT('Origin',(0.,27.29,5.375));
#1977=CARTESIAN_POINT('',(0.,0.,0.));
#1978=CARTESIAN_POINT('',(-5.37500000000002,-7.88860905221012E-30,5.375));
#1979=CARTESIAN_POINT('',(-5.37500000000002,8.88178419700125E-15,5.375));
#1980=UNCERTAINTY_MEASURE_WITH_UNIT(LENGTH_MEASURE(0.01),#1990,
'DISTANCE_ACCURACY_VALUE',
'Maximum model space distance between geometric entities at asserted c
onnectivities');
#1981=UNCERTAINTY_MEASURE_WITH_UNIT(LENGTH_MEASURE(0.01),#1990,
'DISTANCE_ACCURACY_VALUE',
'Maximum model space distance between geometric entities at asserted c
onnectivities');
#1982=UNCERTAINTY_MEASURE_WITH_UNIT(LENGTH_MEASURE(0.01),#1990,
'DISTANCE_ACCURACY_VALUE',
'Maximum model space distance between geometric entities at asserted c
onnectivities');
#1983=UNCERTAINTY_MEASURE_WITH_UNIT(LENGTH_MEASURE(0.01),#1990,
'DISTANCE_ACCURACY_VALUE',
'Maximum model space distance between geometric entities at asserted c
onnectivities');
#1984=UNCERTAINTY_MEASURE_WITH_UNIT(LENGTH_MEASURE(0.01),#1990,
'DISTANCE_ACCURACY_VALUE',
'Maximum model space distance between geometric entities at asserted c
onnectivities');
#1985=(
GEOMETRIC_REPRESENTATION_CONTEXT(3)
GLOBAL_UNCERTAINTY_ASSIGNED_CONTEXT((#1980))
GLOBAL_UNIT_ASSIGNED_CONTEXT((#1990,#1992,#1993))
REPRESENTATION_CONTEXT('','3D')
);
#1986=(
GEOMETRIC_REPRESENTATION_CONTEXT(3)
GLOBAL_UNCERTAINTY_ASSIGNED_CONTEXT((#1981))
GLOBAL_UNIT_ASSIGNED_CONTEXT((#1990,#1992,#1993))
REPRESENTATION_CONTEXT('','3D')
);
#1987=(
GEOMETRIC_REPRESENTATION_CONTEXT(3)
GLOBAL_UNCERTAINTY_ASSIGNED_CONTEXT((#1982))
GLOBAL_UNIT_ASSIGNED_CONTEXT((#1990,#1992,#1993))
REPRESENTATION_CONTEXT('','3D')
);
#1988=(
GEOMETRIC_REPRESENTATION_CONTEXT(3)
GLOBAL_UNCERTAINTY_ASSIGNED_CONTEXT((#1983))
GLOBAL_UNIT_ASSIGNED_CONTEXT((#1990,#1992,#1993))
REPRESENTATION_CONTEXT('','3D')
);
#1989=(
GEOMETRIC_REPRESENTATION_CONTEXT(3)
GLOBAL_UNCERTAINTY_ASSIGNED_CONTEXT((#1984))
GLOBAL_UNIT_ASSIGNED_CONTEXT((#1990,#1992,#1993))
REPRESENTATION_CONTEXT('','3D')
);
#1990=(
LENGTH_UNIT()
NAMED_UNIT(*)
SI_UNIT(.MILLI.,.METRE.)
);
#1991=(
LENGTH_UNIT()
NAMED_UNIT(*)
SI_UNIT($,.METRE.)
);
#1992=(
NAMED_UNIT(*)
PLANE_ANGLE_UNIT()
SI_UNIT($,.RADIAN.)
);
#1993=(
NAMED_UNIT(*)
SI_UNIT($,.STERADIAN.)
SOLID_ANGLE_UNIT()
);
#1994=SHAPE_DEFINITION_REPRESENTATION(#1998,#2005);
#1995=SHAPE_DEFINITION_REPRESENTATION(#1999,#2006);
#1996=SHAPE_DEFINITION_REPRESENTATION(#2000,#2007);
#1997=SHAPE_DEFINITION_REPRESENTATION(#2001,#2008);
#1998=PRODUCT_DEFINITION_SHAPE('',$,#2010);
#1999=PRODUCT_DEFINITION_SHAPE('',$,#2011);
#2000=PRODUCT_DEFINITION_SHAPE('',$,#2012);
#2001=PRODUCT_DEFINITION_SHAPE('',$,#2013);
#2002=PRODUCT_DEFINITION_SHAPE($,$,#20);
#2003=PRODUCT_DEFINITION_SHAPE($,$,#21);
#2004=PRODUCT_DEFINITION_SHAPE($,$,#22);
#2005=SHAPE_REPRESENTATION('',(#1176,#1296,#1297,#1298),#1985);
#2006=SHAPE_REPRESENTATION('',(#1177),#1986);
#2007=SHAPE_REPRESENTATION('',(#1258),#1987);
#2008=SHAPE_REPRESENTATION('',(#1271),#1988);
#2009=PRODUCT_DEFINITION_CONTEXT('part definition',#2023,'design');
#2010=PRODUCT_DEFINITION(
'_SG90+9g+Micro+Servo.e43d2cae-f814-41ba-8a0c-7b5be9030956',
'_SG90+9g+Micro+Servo.e43d2cae-f814-41ba-8a0c-7b5be9030956 v2',#2014,#2009);
#2011=PRODUCT_DEFINITION('servo','servo',#2015,#2009);
#2012=PRODUCT_DEFINITION('splined-drive','splined-drive',#2016,#2009);
#2013=PRODUCT_DEFINITION('horn','horn',#2017,#2009);
#2014=PRODUCT_DEFINITION_FORMATION('',$,#2025);
#2015=PRODUCT_DEFINITION_FORMATION('',$,#2026);
#2016=PRODUCT_DEFINITION_FORMATION('',$,#2027);
#2017=PRODUCT_DEFINITION_FORMATION('',$,#2028);
#2018=PRODUCT_RELATED_PRODUCT_CATEGORY(
'_SG90+9g+Micro+Servo.e43d2cae-f814-41ba-8a0c-7b5be9030956 v2',
'_SG90+9g+Micro+Servo.e43d2cae-f814-41ba-8a0c-7b5be9030956 v2',(#2025));
#2019=PRODUCT_RELATED_PRODUCT_CATEGORY('servo','servo',(#2026));
#2020=PRODUCT_RELATED_PRODUCT_CATEGORY('splined-drive','splined-drive',
(#2027));
#2021=PRODUCT_RELATED_PRODUCT_CATEGORY('horn','horn',(#2028));
#2022=APPLICATION_PROTOCOL_DEFINITION('international standard',
'automotive_design',2009,#2023);
#2023=APPLICATION_CONTEXT(
'Core Data for Automotive Mechanical Design Process');
#2024=PRODUCT_CONTEXT('part definition',#2023,'mechanical');
#2025=PRODUCT(
'_SG90+9g+Micro+Servo.e43d2cae-f814-41ba-8a0c-7b5be9030956',
'_SG90+9g+Micro+Servo.e43d2cae-f814-41ba-8a0c-7b5be9030956 v2',$,(#2024));
#2026=PRODUCT('servo','servo',$,(#2024));
#2027=PRODUCT('splined-drive','splined-drive',$,(#2024));
#2028=PRODUCT('horn','horn',$,(#2024));
#2029=PRESENTATION_STYLE_ASSIGNMENT((#2030));
#2030=SURFACE_STYLE_USAGE(.BOTH.,#2031);
#2031=SURFACE_SIDE_STYLE('',(#2032));
#2032=SURFACE_STYLE_FILL_AREA(#2033);
#2033=FILL_AREA_STYLE('Steel - Satin',(#2034));
#2034=FILL_AREA_STYLE_COLOUR('Steel - Satin',#2035);
#2035=COLOUR_RGB('Steel - Satin',0.627450980392157,0.627450980392157,0.627450980392157);
ENDSEC;
END-ISO-10303-21;
